<?xml version="1.0" standalone="no"?>
<!DOCTYPE svg PUBLIC "-//W3C//DTD SVG 1.1//EN" "http://www.w3.org/Graphics/SVG/1.1/DTD/svg11.dtd" >
<svg>
<metadata>
Created by FontForge 20090622 at Mon Feb 11 08:19:14 2019
 By deploy user
Copyright (c) 2011 by Gilles Le Corre. All rights reserved.
</metadata>
<defs>
<font id="iCielBC1676ModernMap-Italic" horiz-adv-x="738" >
  <font-face 
    font-family="iCielBC 1676ModernMap"
    font-weight="400"
    font-style="italic"
    font-stretch="normal"
    units-per-em="1000"
    panose-1="2 10 5 2 6 0 0 9 0 3"
    ascent="800"
    descent="-200"
    x-height="329"
    cap-height="529"
    bbox="-456 -298 1140 982"
    underline-thickness="50"
    underline-position="-75"
    slope="-11"
    unicode-range="U+0020-U+2122"
  />
<missing-glyph horiz-adv-x="500" 
d="M63 780h375v-780h-375v780zM375 63v655h-250v-655h250z" />
    <glyph glyph-name=".notdef" horiz-adv-x="500" 
d="M63 780h375v-780h-375v780zM375 63v655h-250v-655h250z" />
    <glyph glyph-name="space" unicode=" " horiz-adv-x="300" 
 />
    <glyph glyph-name="uni0000" horiz-adv-x="0" 
 />
    <glyph glyph-name="uni0000" horiz-adv-x="0" 
 />
    <glyph glyph-name="exclam" unicode="!" horiz-adv-x="322" 
d="M379 388q-21 -45 -40 -75q1 1 -5 -13l-15 -35q-12 -23 -21 -46t-21 -46q-4 -8 -16 -35q-6 -15 -10 -18.5t-16 -3.5q-11 2 -11 8l4 14l9 31l25 80l9 31l4 14l2 13q1 7 5 29.5t9 44.5q12 51 25 73q7 13 16 13h2q0 -1 1 -1q9 6 20 9l16 -3l12 2q24 0 24 -26q0 -22 -20 -39z
M181 -7q-14 0 -22 17q-6 14 -6 23q0 12 12.5 19.5t34.5 7.5q34 0 34 -30q0 -13 -8 -23t-19 -10q-4 0 -5 1q-17 -5 -21 -5z" />
    <glyph glyph-name="quotedbl" unicode="&#x22;" horiz-adv-x="537" 
d="M453 413q-9 -16 -29 -45q-25 -36 -42 -36q-11 0 -11 8q0 13 7 34q7 20 13 50q2 33 9 59q3 14 9.5 22t15.5 8h1q9 7 20 9q8 -2 16 -2q9 3 16 3q19 0 19 -24q0 -23 -21 -41q-6 -22 -23 -45zM335 409l-11 -17q-24 -37 -39 -52q-11 -11 -20 -11q-12 0 -12 7q0 15 7 36
q6 19 13 49q2 34 9 58q9 31 23 31h2q0 -1 1 -1q7 7 20 10q8 -2 16 -2q6 2 9 2h6q20 0 20 -24q0 -22 -21 -40q-6 -23 -23 -46z" />
    <glyph glyph-name="numbersign" unicode="#" horiz-adv-x="433" 
d="M385 326l-17 -63q9 -1 26 -1h22h20q12 0 17 1q16 0 16 -13q0 -11 -13 -18l-96 1q-8 -27 -12 -46l-9.5 -37.5t-9.5 -25.5q-6 -9 -14 -9t-11 9l28 110h-57q-4 -14 -11 -45q-9 -43 -19 -60q-6 -9 -14 -9t-11 9l27 105h-22q-7 -1 -20 -1q-32 0 -43 1q-16 1 -16 4v6
q0 12 10 18q5 4 17 4h82l16 60h-21q-7 -1 -19 -1q-31 0 -41 1q-16 1 -16 4v6q0 13 10 19q4 4 17 4h17q12 0 17 -1q7 0 10 1h10h11q4 -1 13 -1q14 58 29 110q8 2 23 2q2 -2 2 -8q-1 2 -3 -12q-2 -15 -9 -40l-13 -52l55 -1q18 71 29 106q8 2 23 2q2 -2 2 -8l-3 -12
q-2 -6 -10 -40l-12 -49q9 -1 27 -1h24h21q12 0 17 1q16 0 16 -13q0 -11 -13 -18zM300 327l-17 -63h57l16 63h-56z" />
    <glyph glyph-name="dollar" unicode="$" horiz-adv-x="494" 
d="M324 497q5 -3 10 -3l37 2l34 2q26 0 41 -5q21 -9 21 -31q0 -13 -24 -35l-18 -13q-9 -6 -11 -6q-11 0 -24 13q-1 9 -3.5 15t-9.5 12q-8 5 -27.5 12.5t-28.5 11.5q-1 -1 -5 -1q-23 -85 -42 -166q14 -2 21 -5q11 -5 28 -10l26 -2l11 -5q26 -16 41 -43q9 -16 9 -39
q0 -16 -4 -29t-15 -28q-26 -34 -94 -80q-18 -6 -58 -6l-12 -2q-9 -3 -13 -3l-12 -44q-7 -1 -18 -9q-13 -8 -16 -8t-6 3q6 29 15 60q-7 1 -20 1q-19 0 -48 13q-18 6 -40 19q-2 0 -6 4q-13 8 -21 18q-5 5 -5 10q0 6 2 12l1 5v4q0 18 8 32.5t22 14.5q11 0 20.5 -8.5t9.5 -17.5
v-6q-1 -2 -1 -6q0 -34 19 -48.5t60 -20.5h7q10 31 30 102v4q-1 1 -1 4q0 14 2.5 27t11.5 38q-40 5 -61 23l-31 28q-25 26 -25 48q0 2 5 10t5 18q0 4 -2 6l25 43l16 12q65 59 129 60q7 34 11 50q19 13 33 13q7 0 11 -4zM250 349q3 14 25 79l9 46h-9q-10 0 -18 -2.5t-22 -10.5
q-35 -21 -53 -43q-10 -13 -10 -23l3 -8q3 -15 3 -20v-4q-1 -2 -1 -5q0 -12 33 -31q16 -10 23 -13l12 -6q0 20 5 41zM245 182l-24 -101q13 4 28 5q18 2 48 9q36 21 52 52q10 20 10 38q0 10 -3 19q-5 11 -25 29l-20 5q-7 7 -15 10q-9 4 -34 5q-11 -41 -17 -71z" />
    <glyph glyph-name="percent" unicode="%" horiz-adv-x="581" 
d="M274 190l-110 -153l-35 -50q-12 -17 -12 -18l-2 1h-6h-10q-5 -1 -15 -1q-14 0 -15 4q8 13 45 59q34 42 42 54l13 28l9 10l23 27q5 5 9 11q5 14 14 27l26 31l14 16l96 139q9 0 20 -9t13 -19q-54 -66 -119 -157zM76 172h-17q-4 0 -5 1h-5h-4q-19 0 -31 16.5t-12 38.5
q0 9 5 14l12 13l11 22q19 22 47.5 38t54.5 16q33 0 39 1t14 1q16 0 27 -10t11 -27q0 -5 -10 -18q-5 -6 -20 -30l-10 -8q-1 -8 -6 -19q-4 -10 -27 -24q-13 -18 -49 -24q-18 -2 -25 -1zM60.5 211q8.5 -9 23.5 -9q21 0 51 24q11 10 18 22t7 21q8 6 8 14q0 9 -8 16.5t-18 7.5
q-7 0 -16 -4q-13 -5 -17 -5h-6q-14 0 -24 -13l-16 -24q-11 -11 -11 -26t8.5 -24zM468 147q11 -10 11 -27q0 -4 -14 -18l-5 -10l-5 -8q-1 -2 -10 -17l-18 -35l-22 -11q-10 -18 -47 -24q-18 -2 -26 -1h-17q-26 0 -41.5 14.5t-15.5 41.5q0 3 2 11l15 17q14 33 41 50l14 3
q-1 0 4 4q17 10 33 15q11 3 21 3l40 2h13q16 0 27 -10zM424 108q0 9 -8 16.5t-18 7.5q-4 0 -17 -5q-15 -5 -17 -5h-5q-14 0 -24 -13l-16 -24q-11 -11 -11 -26q0 -30 32 -33q21 0 49 23q11 9 18.5 21t8.5 23q8 6 8 15zM117 -31z" />
    <glyph glyph-name="ampersand" unicode="&#x26;" horiz-adv-x="642" 
d="M544 194v-11q0 -64 -53 -126q-34 -39 -61 -51q-24 -11 -63 -11h-18q-5 -1 -15 -1q-112 0 -168 41q-12 6 -36 21t-61 46q-23 25 -41 59q-26 49 -26 111q0 54 13 105q2 9 18 27t38 36q24 19 48 32t42 13q28 0 54 -21q7 -7 27 -7l32 35v3q0 16 24 35q8 6 12 24v3q-1 1 -1 3
q0 14 5 24l9 13l13 18l10 23q8 17 26 17q7 0 13 -4t6 -17q0 -17 -6 -28t-21 -29q-18 -21 -30 -39t-23 -47q-7 -5 -8 -5q-9 -7 -18 -26q-6 -10 -12 -32q13 -22 13 -44q0 -42 -39 -79q-15 -14 -30 -22q-16 -8 -20 -8q-15 0 -22.5 12t-7.5 41q0 39 11 53q13 0 18 4q6 6 14 29
q-18 8 -32 8t-41 -5q-29 -7 -34 -16q-7 -13 -8 -15q-5 -7 -10 -11q-1 0 -12 -7q-11 -6 -14 -17t-3 -28q0 -39 3 -71q4 -33 9 -38q22 -26 61 -57q48 -38 103 -77l10 -10.5t20 -9.5l20 2q16 2 19 2q28 0 45 -4q22 -5 34 -5q57 0 76 39q39 21 39 75q0 29 -15 47.5t-41 18.5
q-13 0 -23 -4t-18 -18l-9 -23q-7 -16 -26 -16q-16 0 -32 13.5t-16 28.5q0 8 7 15q5 6 15 23q19 10 53 17q33 7 50 7q89 0 103 -74q1 -3 1 -10zM509 317q-18 0 -31 7l-18 12q-12 8 -30 10q-21 0 -44 -15q-9 -6 -15 -12.5t-6 -10.5q-13 -1 -19 -15t-11 -19l-20 7q2 17 10 29
l19 32q14 27 24 32q6 3 17 3q15 0 23 -1q16 -2 26 -2q38 0 71 5q15 2 34 8q14 5 14 10q0 4 -6 28q-7 21 -7 34q0 11 8 21t26 10q23 0 37.5 -18.5t14.5 -45.5q0 -20 -11 -37q-51 -72 -106 -72z" />
    <glyph glyph-name="quotesingle" unicode="'" horiz-adv-x="301" 
d="M262 447q0 -29 -43 -60q-16 -13 -25.5 -20t-15.5 -11l-14 -10l-19 -9l-12 -3q-8 -4 -14 -4h-4h-2q-5 0 -6 7q-1 3 -1 16q0 6 7 10q68 42 81 103q1 7 11.5 16t18.5 9q7 0 17 -3q21 -21 21 -41z" />
    <glyph glyph-name="parenleft" unicode="(" horiz-adv-x="494" 
d="M408.5 624.5q-9.5 -2.5 -11.5 -3.5q-9 -3 -14 -6t-8 -9h-2q-12 0 -26 -13q-15 -14 -42 -32q-30 -19 -58 -40q-3 -7 -8 -12q-7 -7 -24 -16l-10 -19q-30 -30 -68 -89q-83 -107 -83 -174q0 -13 -4 -25q-6 -18 -7 -27q3 -7 5 -29q2 -24 5 -29q-2 -10 -2 -14q0 -11 5 -28
q5 -16 9 -48l11 -13q0 -12 10 -31q9 -20 32 -49l60 -80q-7 -19 -29 -19q-30 0 -54 39q-16 24 -25 52v2q0 12 -39 90l-10 22q-15 30 -14 47v28v62q0 40 5 56q0 -2 7 25l15 48q3 8 8.5 14.5t12.5 12.5q8 7 12.5 13t7.5 16l6 23l35 45q5 12 15 33l13 13q42 42 53 55
q13 14 19 25l47 37q47 37 78 53q18 8 27 8q22 20 32 20q7 0 15 -9.5t8 -12.5v-1q-1 0 -1 -1q-4 -7 -13.5 -9.5z" />
    <glyph glyph-name="parenright" unicode=")" horiz-adv-x="570" 
d="M186 -180q-12 0 -18 3t-6 12q0 5 1 6l106 74q35 24 59 46q20 18 28 30q11 4 21 17l28 36l22 21q11 16 22 36q14 26 34 46q5 14 12 30q20 44 29 80q6 24 6 51q0 20 -3 39q-3 20 -3 44q0 10 -7 14v8q0 24 -7 53q2 10 2 20q-4 1 -9 5t-5 7v4q0 5 -3 14t-16 24l-26 31
q-3 3 -5 7q-9 17 -15 23q-5 5 -11 5h-2v2q0 5 -3.5 8t-10.5 6q-8 3 -11.5 6t-3.5 8q0 6 13 13l20 10q12 0 22 -22q25 -1 53 -43l38 -62v-4q0 -16 14 -54q3 -9 10 -26l5 -13q-2 -8 -2 -14l-1 -17q0 -9 3 -24q3 -13 3 -21t-6 -22q-5 -15 -5 -20q0 -8 7 -16q6 -9 6 -15
q0 -20 -35 -106l-45 -80q-36 -60 -84 -105q-15 -15 -47 -43l-50 -48q-46 -52 -124 -84z" />
    <glyph glyph-name="asterisk" unicode="*" horiz-adv-x="423" 
d="M485 350q0 -17 -12.5 -29.5t-29.5 -12.5q-2 0 -3 1h-3q2 0 -19 -9q-9 -6 -20 -6q-29 -2 -37 -7q-7 -4 -7 -17q0 -5 15 -13q17 -10 34 -18q48 -26 48 -36q0 -4 -1.5 -8t-4.5 -5q0 -4 -4 -12t-11 -16q-16 -21 -34 -21q-36 0 -42 34q-24 24 -30 34q-3 16 -7.5 25.5
t-15.5 12.5q-11 -8 -16 -25t-12 -49q-5 -27 -11.5 -41t-17.5 -14q-8 0 -9 4q-2 -1 -9 -1q-8 0 -10 1q-7 8 -15 12q-16 7 -21 17q-4 4 -4 17q0 30 25 40q15 24 27 36q4 2 16.5 9t19 13.5t6.5 12.5q0 7 -6.5 11.5t-13.5 4.5q-9 0 -13 -1l-9 -1q-28 1 -56 8q-29 7 -29 19
q0 3 3 6q-3 5 -3 11t3 10l6 12q2 33 38 33q25 0 35 -19q2 -1 16 -7t25 -15q1 0 4 -10t10 -10q5 0 11.5 4t6.5 9q0 6 -9 16q-8 9 -10 16q-15 52 -16 80q0 3 3.5 6t8.5 3h2q0 -1 1 -1q6 5 16 9q10 -2 18 -2q8 2 11 2q15 0 25.5 -12.5t10.5 -29.5q0 -12 -8 -23v-21
q-1 -7 -4 -24l-6 -10q-6 -7 -6 -11q0 -5 5.5 -9.5t9.5 -4.5q6 0 15 15l6 10q2 5 4 7q37 34 65 50q9 0 29 -20l6 -17q10 -10 10 -23z" />
    <glyph glyph-name="plus" unicode="+" horiz-adv-x="520" 
d="M446 195q-1 -10 -15 -19t-25 -9h-124q-10 0 -29 -20t-22 -41q-4 -21 -4 -50v-24q0 -14 -2 -28q-4 -14 -11 -26q-15 -20 -31 -20q-14 0 -20 22q0 1 6 7q9 9 23 27q5 8 5 12q0 5 -1 6q-5 5 -7 10q-2 6 -2 12q0 20 9 56l10 43q0 2 1 3v2q0 13 -22 13q-5 0 -19 -2l-10 -2h-41
q-25 0 -27 1q-10 -3 -19 -12h-16q-2 8 -2 14q0 14 15 23l13 6q4 1 10 5h118q18 8 22 36l8 49l19 74q8 33 28 33q8 0 15 -4q-3 -10 -3 -18q0 -5 1 -6l-4 -15l-6 -23l-15 -62v-3q0 -12 9 -35q3 -10 7.5 -17t8.5 -7q7 1 34 1h54h12q10 0 16 -1q5 -8 15 -9q3 -1 8 -1h5q4 0 5 -1
zM90 168h1h-2h1z" />
    <glyph glyph-name="comma" unicode="," horiz-adv-x="226" 
d="M135 -62q-16 -19 -35 -30t-36 -11h-3q-11 0 -16.5 3.5t-5.5 14.5q0 3 2 5l34 16q15 8 24 22t10 30q0 8 -7 9q-3 1 -13.5 4t-17.5 10q-7 6 -7 22q0 19 13.5 35t31.5 16q7 0 12 4t13 4q14 0 25 -9.5t11 -20.5v-44q0 -38 -35 -80z" />
    <glyph glyph-name="hyphen" unicode="-" horiz-adv-x="450" 
d="M261 151q-6 0 -9 1h-9l-17 -1q-32 -2 -65 -5q-15 -1 -15 -3q-28 0 -31 30q26 23 115 41h7q17 0 39 -10q9 -5 15.5 -11.5t6.5 -13.5q0 -10 -14 -24q-4 -4 -23 -4z" />
    <glyph glyph-name="period" unicode="." horiz-adv-x="229" 
d="M115 -12h-9q-15 0 -25 10q-5 5 -5 15q0 20 16.5 37t38.5 17q28 0 28 -31q0 -19 -10.5 -34t-24.5 -15l-2 1h-2h-5z" />
    <glyph glyph-name="slash" unicode="/" horiz-adv-x="490" 
d="M345 337l-158 -225l-55 -79l-22 -32h-7h-4q-11 0 -20 3q-5 1 -7 6q21 32 58 78q34 43 43 56q8 12 29 54l11 13l32 37l10 14q10 23 57 90l37 53l21 28l67 97q5 6 13 18h9q26 0 30 -16q-41 -52 -144 -195z" />
    <glyph glyph-name="zero" unicode="0" horiz-adv-x="438" 
d="M332 222l-2 -10l-18 -55q-6 -18 -26 -45q0 -19 -25 -43l-43 -41q-85 -21 -114 -21h-7q-10 0 -21 -8t-24 -8q-20 0 -36 13.5t-16 31.5q0 13 10 26l2 11l6 17q7 16 16 31q7 14 34 51q31 35 92 76q20 7 76 30q8 2 13 2q19 0 46 -17q23 -15 35 -34q2 -6 2 -7zM231 238
q-5 -1 -12.5 -4t-16.5 -6q-22 -7 -48 -33l-30 -30l-15 -50q-8 -30 -8 -48q0 -13 13 -13h16q2 -1 7 -1h6q46 0 78 50q29 48 31 115q0 16 -21 20z" />
    <glyph glyph-name="one" unicode="1" horiz-adv-x="322" 
d="M147 9q-38 -11 -68 -11q-11 0 -19 21q-3 5 -5 14l-2 6q0 35 3.5 56t14.5 33q3 3 12 18q23 39 35 65q7 15 7 23q0 5 -6 7.5t-11 2.5q-6 0 -17 -7.5t-13 -8.5q-23 -17 -30 -17t-15.5 6.5t-8.5 17.5q0 20 30 39q12 8 26.5 13t26.5 5l6 6q16 14 31 24q8 5 12 5q27 0 44 -15
t17 -30q0 -8 -15 -37.5l-19 -37.5q-34 -68 -34 -83q0 -19 12 -33h5q21 0 38 -9.5t17 -21.5q0 -7 -5 -15q-16 -23 -69 -36z" />
    <glyph glyph-name="two" unicode="2" horiz-adv-x="393" 
d="M312 96q7 -7 7 -15q0 -9 -6 -20q-7 -18 -44 -47q-36 -31 -50 -31q-10 0 -26.5 5.5t-21.5 7.5q-36 12 -46 12q-3 0 -17 -3q-9 -3 -29 -7q-11 -3 -31 -7q-13 -4 -23 -4q-25 0 -41 10.5t-16 31.5q0 18 19 30l17 10l14 9l47 39q29 22 73 78l2 9q0 14 -13 25t-28 11
q-8 0 -18 -6q-9 -7 -22 -7l-7 12q0 16 36 36q14 8 29 13t24 5l19 1q10 1 30 1q27 0 43.5 -11.5t16.5 -30.5q0 -24 -32 -61q-30 -36 -79 -66l-39 -38q-2 -2 -2 -7q0 -7 4.5 -10.5t8.5 -3.5h95q20 0 42 7l7 5q9 8 29 20q7 4 12 4q9 0 16 -7z" />
    <glyph glyph-name="three" unicode="3" horiz-adv-x="367" 
d="M316 286q0 -25 -27 -42q-8 -14 -17.5 -26.5t-26.5 -23.5q-23 -15 -27 -21l-15 -18l-16 -9q-12 -7 -12 -16q0 -8 10.5 -14.5t15.5 -6.5q50 -8 50 -56q0 -26 -19 -45q-6 -15 -17 -34q-34 -34 -47 -48q-45 -45 -76 -59q-19 -8 -40 -8q-15 0 -32 6q-22 7 -22 20q0 18 8 23
q8 3 11 3l12 -2q7 -3 14 -3q24 0 48.5 13t45.5 35t33 50t13 57q-9 12 -20 12h-4l-14 -8q-38 -21 -53 -28q-13 -7 -21 -7q-12 0 -20.5 6t-8.5 17q0 14 17 29l54 50q16 16 35 43l12 11q22 20 37 38q8 11 8 15q0 6 -4 10t-10 5l-37 -4l-8 1l-36 4q-7 1 -17 1q-54 0 -83 -35
q-2 -2 -5 -2q-6 0 -12.5 8t-6.5 15q0 4 1 5l64 81q5 6 6 18q6 28 19 43q8 9 23 9q10 0 15 -3t9 -10l7 -20q5 -19 10.5 -32t16.5 -18q12 -6 51 -6q4 0 30 4q18 3 32 3t24 -3q22 -6 22 -27z" />
    <glyph glyph-name="four" unicode="4" horiz-adv-x="451" 
d="M397 45q0 -16 -14 -30q-13 -15 -25 -15h-1q-53 10 -90 10q-72 0 -72 -47v-19q0 -10 -1 -16t-5 -12l-14 -20l-28 -43q-13 -20 -23.5 -34.5t-21.5 -22.5q-11 -9 -30 -18l-44 -20q-21 -20 -56 -27q-24 -5 -45 -5q-19 0 -31.5 8t-12.5 24q0 15 10 29t24 18l19 7q16 2 22 2
q7 0 21 -2q10 -3 27 -3q49 0 88 55l13 20q17 25 25 53q4 12 4 26q0 17 -15 25.5t-40 8.5q-5 0 -13 -2q-38 -13 -65 -13q-36 0 -36 28q0 22 21 31q2 1 18 8q9 3 15 9l28 34l16 20q8 8 12 15q5 7 16 17q16 14 26 24l25 24l13 13l23 16l40 40q29 29 41 29q32 0 46 -14
q8 -10 8 -29q0 -9 -5 -21l-5 -13q-3 -36 -17 -72t-37 -61q11 -17 31 -17q9 0 35 7q30 6 38 6q23 0 37 -17q5 -8 5 -14zM217 165q-1 7 -8 7q-5 0 -6 -1q-13 -5 -60 -48l-31 -31q-14 -16 -14 -18q0 -8 13 -17q12 -9 40 -9q15 0 20 8l18 38q28 38 28 64v7z" />
    <glyph glyph-name="five" unicode="5" horiz-adv-x="413" 
d="M363 385q0 -22 -15 -43l-21 -28q-23 -23 -39 -34q-28 -19 -59 -19h-7q-7 0 -10 1h-18q-37 0 -62 -16q-5 -5 -9 -12l-14 -18l-25 -21q-15 -16 -15 -35q0 -4 4 -20t12 -16q3 0 9 3l27 13q8 4 18 4h9q47 0 87 -20t40 -43q0 -6 -9 -33q-6 -18 -12 -47q-1 -7 -3 -13t-5 -9
l-18 -27q-18 -37 -60 -59q-18 -9 -48 -26q-25 -15 -48 -15h-54q-1 -1 -4 -1q-10 0 -21.5 9t-11.5 18q0 8 15 13l54 9l26 16q22 13 34 13q4 0 6 -1h5q7 0 14 10q52 67 52 95q0 20 -15.5 30.5t-42.5 10.5q-11 0 -20 -1t-19 -1q-38 0 -52 29q-12 21 -12 60q0 30 18 67l17 35
q5 10 11 28q7 29 17 38q7 5 19 5h128q24 0 48 24q23 23 23 46q0 3 -2 11q6 6 21 6q30 0 35 -17q2 -14 2 -19z" />
    <glyph glyph-name="six" unicode="6" horiz-adv-x="433" 
d="M411 420l-4 5q-12 12 -19 17q-6 3 -11 3q-9 0 -21 -6q-11 -7 -23 -12l-9 -2q-15 -3 -36 -10q-10 -5 -14 -10l-68 -64q-33 -32 -35 -52q0 -7 12 -10.5t26 -3.5q7 0 21 2l47 8l20 3q25 0 42.5 -11t17.5 -33q0 -8 -1 -11.5t-6 -11.5q-11 -15 -26 -32l-7 -10l-18 -50
q-10 -21 -27 -45q-10 -11 -26 -38q-14 -21 -32 -31q-14 -8 -50 -15q-15 3 -44 3q-51 -9 -56 -9q-26 0 -44 24q-18 25 -18 53q0 22 9 44q14 32 33 70q-1 2 -1 10q0 10 3 25q46 54 60 86q6 4 16 15q2 3 22 25l34 39q53 65 104 92q20 10 38.5 14.5t49.5 9.5q48 -6 78 -22
t30 -37q0 -34 -26 -34q-14 0 -41 12zM171 230q-11 -4 -27 -16q-3 -9 -8 -20q-22 -53 -29 -75q-7 -18 -7 -28q0 -16 11.5 -29t31.5 -13q22 0 47 31t43.5 70t18.5 54q0 14 -9.5 18.5t-28.5 7.5h-43z" />
    <glyph glyph-name="seven" unicode="7" horiz-adv-x="426" 
d="M383 252q0 -18 -9.5 -33.5t-29.5 -32.5q-26 -22 -115 -82q-5 -2 -20 -18q-17 -17 -33 -36l-32 -35q-13 -15 -18 -17t-12 -14l-7 -10l-4 -6q-2 -1 -9 -8q-21 -19 -31 -25q-7 -6 -14 -6q-6 0 -9 2t-3 9q0 4 -1 5t1 3l7 8l20 17q8 16 35 52l29 40l32 42l15 14q42 38 67 64
q15 17 15 22q0 14 -7.5 16.5t-26.5 2.5h-37q-30 0 -47 -1l-42 -9q-37 -8 -52 -8q-35 0 -35 26q0 12 10 21q11 9 26.5 32.5t21.5 41.5l11 32q4 13 9 18.5t15 5.5q15 0 24 -19l3 -37q2 -19 10 -26t28 -7q26 0 33 1l10 1h3q21 0 80 15q1 1 8 1q14 0 36 -10t29 -17
q16 -16 16 -35z" />
    <glyph glyph-name="eight" unicode="8" horiz-adv-x="417" 
d="M328 333q0 -13 -7 -25.5t-24 -37.5l-6 -3q-14 -7 -22 -15q-5 -5 -5 -9q0 -8 9 -19q23 -30 37 -57q8 -19 8 -42v-11q0 -8 -1 -12q-2 -13 -12.5 -31t-24.5 -35q-17 -19 -36 -30.5t-37 -11.5q-8 0 -13 1l-17 2q-12 0 -17 1q-6 1 -15 1q-64 13 -107 46q-45 35 -45 75l3 14
l3 11q0 3 2 9l23 34q17 25 31 34q8 5 17 6q25 2 36 16q6 8 6 29q0 14 -5 42q-6 26 -6 45q0 23 6.5 36t22.5 25l50 34q17 17 36 23t52 6q30 0 39 -42q2 -12 4 -36q2 -22 5 -32q10 -34 10 -41zM272 348q0 22 -14 45q-16 23 -33 23q-5 0 -14.5 -3.5t-18.5 -8.5q-27 -17 -27 -42
q0 -10 5.5 -23.5t13.5 -25.5q9 -13 19.5 -21.5t19.5 -8.5q6 0 14 6t15 15q18 24 19 34q1 2 1 10zM262 113q0 18 -9 37t-24 34q-16 16 -35 25.5t-37 9.5q-21 0 -53 -24q-35 -26 -57 -58q-4 -18 -4 -15q-2 -10 -6 -20q12 -34 33.5 -46.5t68.5 -12.5h16q4 -1 12 -1h10
q38 0 54 13q31 22 31 58z" />
    <glyph glyph-name="nine" unicode="9" horiz-adv-x="415" 
d="M347 228q0 -5 -8 -33q-10 -28 -10 -35q-4 -46 -40 -104q-11 -16 -14 -22q-23 -32 -49 -56q-17 -15 -36 -27l-29 -21l-17 -11q-6 -4 -31 -24l-18 -14q-21 -18 -59 -28q-22 -5 -46 -5q-35 0 -61 -12q-11 -5 -15 -9q-5 -4 -9 -4q-16 0 -37 17q-9 7 -15 15.5t-6 14.5
q0 19 28 33q23 10 46 10q22 0 39 -3q15 -4 18 -4q19 0 36 7q27 10 45 11q18 2 28.5 7.5t24.5 18.5t30.5 32l21.5 25q11 14 11 16q0 3 -6 5t-9 2q-9 0 -14 -4q-19 -13 -38 -19q-15 -5 -36 -5q-19 0 -42 15q-11 7 -18.5 18t-7.5 22v1q0 6 14 26l18 25q14 26 42 66q8 2 20 11
q16 33 41 47q7 5 14 8.5l11 5.5q13 6 29 16q10 18 23 23l27 8h48q27 -5 43 -27q11 -16 13 -36v-3zM226 255h-9q1 0 -11 -12q-19 -18 -56 -59q-14 -17 -15 -22l-11 -49q-3 -13 -3 -20q0 -10 13 -15t26 -5q14 0 25 8q13 11 23.5 15.5t12.5 5.5q9 4 15 8.5t12 15.5q3 6 5 26
q0 17 8 36q13 26 13 40q0 12 -11 20q-13 7 -37 7z" />
    <glyph glyph-name="colon" unicode=":" horiz-adv-x="298" 
d="M369 285q0 -18 -18 -31t-40 -13q-15 0 -22.5 11.5t-7.5 20.5t16 29t32 20q19 0 31 -14q9 -10 9 -23zM239 1q-10 -6 -20 -6q-4 0 -5 1q-15 -3 -26 -3q-14 0 -20 4.5t-6 16.5q0 22 13 39.5t32 17.5q42 0 42 -56q0 -8 -10 -14z" />
    <glyph glyph-name="semicolon" unicode=";" horiz-adv-x="298" 
d="M316 326q32 -26 32 -48q0 -33 -49 -33l-15 2h-5q-16 0 -16 21q0 16 9.5 30.5t23.5 17.5l9 6q5 4 10 4h1zM257 21q-5 -18 -20 -39.5t-36 -39.5q-46 -41 -81 -41h-3q-18 0 -18 14q0 4 4 8q37 16 55 29q31 22 31 44q0 3 -3 3t-5 -1h-5q-15 0 -15 25q0 21 13 42q14 23 31 23
q63 0 63 -20v-2z" />
    <glyph glyph-name="less" unicode="&#x3c;" horiz-adv-x="428" 
d="M309 -77h-1q-31 20 -73 44q-73 40 -110 67q-22 13 -36 29l-52 32q-28 16 -28 36q0 21 27 42l40 33q29 29 105 84l59 41l51 36q13 -12 16.5 -20t3.5 -26q0 -41 -9 -47q-38 -11 -102 -57q-67 -47 -107 -93q-2 -2 -2 -5q0 -8 28 -27l77 -54q26 -21 48 -33q6 -4 18 -10
q38 -23 47 -31q9 -9 9 -23v-6q0 -5 -1 -7q-5 -5 -8 -5z" />
    <glyph glyph-name="equal" unicode="=" horiz-adv-x="596" 
d="M264 194q-2 1 -13 1q-15 0 -26 -1q-42 -2 -85 -2q-22 0 -34 1q-19 1 -19 6v7v3q0 11 11 18q7 4 22 4h22q14 0 21 -1l307 -3q21 0 21 -15q0 -13 -16 -20zM232 87l-44 -1q-23 -1 -97 -1q-16 0 -26 1t-10 6v8v3q0 12 11 17q6 3 22 5l42 -2l308 -3q21 0 21 -15q0 -13 -16 -20
z" />
    <glyph glyph-name="greater" unicode="&#x3e;" horiz-adv-x="392" 
d="M276 93l-51 -32q-13 -14 -31.5 -28t-49.5 -33l-59 -36q-47 -29 -68 -44q-10 0 -10 19q0 11 3 22l18 11l18 11q41 25 45 28l32 24l22 16q36 24 65 49q14 12 14 18l-2 4q-41 47 -102 93q-67 48 -101 58q-8 5 -8 46q0 18 3.5 26.5t14.5 21.5q26 -21 52 -39l115 -84
q26 -21 42 -39l38 -34q24 -22 26 -39q0 -22 -26 -39z" />
    <glyph glyph-name="question" unicode="?" horiz-adv-x="474" 
d="M522 388q0 -24 -18 -53q-11 -16 -22 -26.5t-33 -26.5l-57 -20l-43 -12q-64 -28 -64 -59q0 -16 27 -18q10 0 14 -4q5 -5 7 -5l10 2q8 -14 8 -23q0 -23 -42 -23q-22 0 -52 8q-8 6 -16 26q-5 8 -6 14q-3 6 -6 9q-2 35 27 62l41 39l86 39q38 18 56.5 37.5t18.5 45.5
q0 25 -24 25q-10 0 -29 -8q-24 -10 -24 -24q0 -5 1 -8v-7q0 -5 -2 -7q-32 -23 -43 -25q2 0 0.5 0.5l-4.5 1.5q-26 8 -38 17q-10 7 -10 16q0 43 36 65q14 8 30.5 12.5t29.5 4.5t38 -5l12 -1l13 1q31 0 42 -8q7 -6 9 -18q27 -13 27 -44zM336 346h1h-1zM280 31
q0 -18 -9.5 -32.5t-22.5 -14.5q-5 0 -11 3l-15 -2q-31 0 -31 32q0 20 14.5 35.5t35.5 15.5q39 0 39 -37z" />
    <glyph glyph-name="at" unicode="@" horiz-adv-x="639" 
d="M358 56q-10 -3 -45 -10q-10 3 -25 3q-4 -4 -10 -4q-7 0 -10 13t-3 22q-3 0 -17 -9q-12 -10 -52 -16q-2 0 -3 1l-13 2l-32 4q-1 -1 -6 -1q-22 0 -22 21q0 16 11 38q15 32 46 55q11 8 22 13q8 4 12 4t6 -2q16 9 27 13t26 4h12q9 0 20 4t11 9v3l-1 2q0 2 1 2q19 13 19 27
l-1 6q-2 11 -18 20q-7 4 -22 4q-10 0 -16 -8q-37 -43 -60 -43q-7 0 -14 4t-7 11q0 23 35 45q36 22 84 22q40 0 62 -22q17 -18 17 -39t-10 -40l-14 -30l-9 -19l-13 -29l-12 -26l-5 -13q0 -18 12 -18q21 0 53.5 11t61.5 33q78 58 78 156q0 52 -24 80l-43 28q-25 24 -98 24
q-31 0 -66 -13q-39 -14 -105 -52l-23 -21l-26 -16q-15 -11 -17 -19q-17 -8 -33 -31l-12 -20q-5 -9 -15 -17q-2 -6 -16 -27q-14 -19 -18 -36q-9 -30 -9 -44v-2q-4 -8 -11 -30l5 -28q5 -48 34 -86q16 -22 46 -34q12 0 34 -5q20 -6 48 -6h11q22 -2 31 -2q54 0 96 46q6 6 18 19
t21.5 19.5t18.5 6.5l7 -3q16 -8 24 -16q5 -5 5 -8q0 -8 -13 -15l-42 -25q-18 -11 -48 -24q-37 -15 -55 -15q-3 0 -6 3q-44 -14 -77 -14q-43 0 -87 21l-11 2q-12 2 -26 14q-8 8 -15 19q-8 0 -18 13v4q0 13 -11 35q-12 24 -13 36v53l3 7l13 33l4 13l7 23q14 44 36 79
q11 18 22 20l13 17l13 18q16 24 38 39l38 22l18 16q-1 -1 5 2l14 8q20 12 23 12l25 3q25 22 72 22q5 0 12 4t15 4q23 0 58 -9l62 -16v-1q0 -10 16 -16.5t18 -7.5q15 -7 21 -14q3 -3 5.5 -6.5l4.5 -6.5v-7q0 -15 4 -27q5 -3 5 -9v-5q-1 -1 -1 -4q-1 -1 -1 -3q3 -10 3 -23
l-1 -12q-3 -25 -16 -67q-7 -21 -15 -34l-27 -33l-30 -30q-24 -24 -68 -35zM298 174q0 7 -5 12q-13 -5 -20 -5h-8q-3 1 -9 1q-21 0 -42 -28q-10 -11 -14 -20q-5 -12 -5 -13q0 -14 14 -14q7 0 16 3l20 5q14 3 20 8l12 8q21 23 21 43z" />
    <glyph glyph-name="A" unicode="A" 
d="M726 387l-12 -30l-35 -66q-14 -37 -46 -98q-8 -23 -26 -63l-14 -34q-6 -16 -6 -19q0 -13 8.5 -18.5t26.5 -11.5q19 -7 27 -11t8 -13q0 -13 -15 -21t-38 -8l-37 3h-7q-34 0 -95 10q-3 1 -14 1t-31 -2l-10 -2t-10 -1q-13 0 -22 13q8 38 40 38l24 -2l20 -3q12 0 33 26
q21 28 22 44q14 9 22 31q4 11 4 26v5q18 38 18 54q0 5 -3.5 8.5t-6.5 3.5h-6q-2 -1 -7 -1q-13 0 -39 4q-19 3 -29 3q-44 0 -61 -44q-14 -18 -55 -53q-44 -39 -110 -113q-3 -3 -10.5 -5.5l-10.5 -3.5q-17 -6 -22 -15q-9 -3 -20 -8q-19 -9 -47 -24l-44 -11q-12 15 -20 15h-6
q-2 -1 -6 -1q-26 0 -43.5 24t-17.5 57q0 27 16 48.5t40 21.5q21 0 40 -19l50 -51q4 -4 19 -4q51 0 71 17q8 6 17 20l15 28q10 1 18.5 6t13.5 21q9 4 17 10t22 21l37 39l67 68q38 38 55 61l20 27q13 18 24.5 30.5t34.5 30.5q19 11 36 37q23 34 45 53q11 11 24 21q12 9 30 29
q10 17 16.5 25t13.5 9q0 2 2 2q3 0 13 -10q13 -14 48 -38q-15 -39 -76 -187zM653 441.5q-6 4.5 -12 4.5q-2 0 -3 -1l-25 -25q-8 0 -18 -7q-12 -9 -25 -27l-41 -52q-17 -2 -17 -20t54 -18q45 0 63 54v3q-1 1 -1 3q0 3 2 17q30 54 30 59q-1 5 -7 9.5z" />
    <glyph glyph-name="B" unicode="B" horiz-adv-x="689" 
d="M600 327q-12 -10 -40 -18q-12 -4 -19 -9.5t-7 -13.5q0 -11 19 -15q32 -7 33 -9l11 -6q16 -8 28 -27q6 -10 6 -24v-15q0 -12 -10 -35l-17 -31q-30 -71 -109 -93q-24 -15 -70 -20q-41 -5 -120 -7q-11 0 -15 -1q-8 -2 -26 -2h-74q-47 7 -60 7q-12 0 -17 -3q-10 6 -14 6h-1
q-41 -26 -66 -26q-15 0 -26.5 6.5t-11.5 21.5q0 16 11.5 20t34.5 4l20 -1q15 0 24.5 4t13.5 16q4 14 16 26l11 11q4 3 15 14l62 107l20 35l7 15l12 27q20 16 42 53l16 29q6 12 12 19l24 34q-13 27 -42 35l-48 9q-3 -1 -9 -1h-9q-23 0 -37.5 8.5t-14.5 19.5t16 11q7 0 18 -3
q8 3 21 3q8 0 15 -1l24 -2l24 -2q7 -1 16 -1l19 2l18 2q7 0 21 -6q11 -7 28 -7q2 0 3 1h3l15 2l24 3q33 4 45 7l16 2h74q43 0 68 -19.5t25 -48.5q0 -50 -68 -113zM549 433q-10 16 -20 16q-23 0 -61 -5q-50 -19 -114 -152q-6 -10 -6 -16q0 -10 16 -10q9 0 16 4q8 3 15 3
l20 -2l18 -2q3 0 9 2l90 65l13 38q4 4 7 12l7 16q0 15 -10 31zM483 224l-56 2l-55 2q-18 1 -42 1q-5 0 -12 -3l-12 -3l-75 -116q-30 -30 -30 -57q0 -7 20 -11q22 -4 26 -4q8 0 31 3q30 2 38 2h14q5 -1 15 -1q12 0 30 7l33 15h6q20 0 42 11t41 30t30 40.5t11 41.5
q0 23 -13 39q-24 0 -42 1z" />
    <glyph glyph-name="C" unicode="C" horiz-adv-x="445" 
d="M537 413q0 -26 -11.5 -44.5t-33.5 -18.5q-23 0 -48 20q-25 18 -25 41q0 4 2 10q1 3 1 8q0 11 -22 20q-18 6 -39 6q-19 0 -68 -9l-27 -23q-20 -13 -38 -20l-67 -99q-10 -16 -14 -35l-6 -25q-32 -76 -32 -104q0 -11 5 -28q-3 -18 -3 -27q0 -7 1 -8q-3 -9 -3 -14q0 -8 7 -13
t21 -10q23 -9 45 -9q55 0 125 43q3 3 11 3q25 0 25 -19q0 -12 -21 -17q-13 -3 -25 -8q-10 -6 -15 -17q-2 -6 -7.5 -10.5t-17.5 -8.5q-34 -12 -54 -17l-14 -4h-56l-19 5l-80 24q-17 5 -20 8q-14 40 -14 72t12 60l24 32l20 55l12 15q7 19 18 32l91 110q20 50 83 93l29 6l7 4
q25 12 48 19q15 4 31 4h47q83 -5 104 -49q11 -28 11 -53z" />
    <glyph glyph-name="D" unicode="D" horiz-adv-x="811" 
d="M799 387q0 -46 -22 -112q-5 -42 -11.5 -67t-30.5 -50l-45 -68q-17 -23 -30 -34t-30 -16q-64 -54 -144 -54l-13 3l-55 13q-15 3 -24 3q-28 0 -48 -18h-4q-6 0 -21 -4.5t-22 -7.5l-6 -2q-6 0 -18 4q-13 3 -35 3q-5 0 -17 -4q-15 -5 -38 -5q-3 0 -25 4q-18 3 -29 3
q-7 0 -11.5 -3t-7.5 -6q-1 -1 -4.5 -5t-11.5 -4q-13 0 -24.5 10t-11.5 21q0 17 27 24h125q10 0 21.5 11.5t12.5 23.5q40 35 53 90q7 8 26 42l18 49l27 60q35 75 46 110q6 18 8 36q-21 8 -37 8q-32 0 -76 -30q-64 -6 -93 -45q-28 -38 -34 -122q0 -10 -24 -24l-16 -8l-8 -3
q-2 0 -8 2q-67 57 -67 90q0 25 42 55q46 34 50 45l42 13l14 8q26 17 50 28q13 6 19 6t8 -1q13 3 57 20q6 0 9 1h7q14 0 28 -2q11 -3 11 -4q5 2 36 16q14 7 26 7h71l6 1q9 0 14 1l15 2h5h110q24 0 46 -9t38 -24q34 -34 34 -81zM697 388q-7 18 -38 47q-29 26 -53 26
q-45 0 -67.5 -23t-22.5 -59q-13 -17 -32 -69q-19 -54 -34 -72l-6 -11q-9 -22 -17 -35q-5 -8 -8 -8l-3 -14l-3 -10q-2 -10 -2 -9q-4 -11 -22 -45q-2 -3 -11 -20.5t-9 -24.5t5 -10q4 -3 11 -14l6 1h7q25 0 36 -1l20 -2q22 0 33 8q22 3 38.5 6.5t25.5 9.5q9 5 16.5 12.5
t17.5 22.5l70 101l2 9l2 15q2 20 8 32l23 31q6 30 6 56v10q1 6 1 19v21z" />
    <glyph glyph-name="E" unicode="E" horiz-adv-x="429" 
d="M422 387q-45 0 -45 61v5q0 2 -4 2q-5 0 -17 -3q-14 -3 -17 -3q-2 0 -3 1h-2q-5 0 -17 -12l-8 -8l-3 -4q-37 -18 -37 -52q0 -21 25 -65l17 -29l7 -14q0 -26 -32 -26q-27 0 -50 23q-5 5 -14 5q-21 0 -39 -23l-25 -15l-10 -10q-4 -5 -15 -14q-26 -19 -38 -53q-8 -22 -8 -49
q0 -26 48 -39q45 -12 120 -12q20 0 44 21q11 11 32 20q17 5 25 14h3q18 0 18 -18q0 -5 -4 -9q-47 -38 -63 -47q-12 -7 -24.5 -9.5t-15.5 -2.5q-14 -9 -44 -20h-9q-14 0 -35 -3q-19 -4 -47 -4q-22 0 -40 7v-1v0.5t-1 0.5q-2 0 -8 -3q-9 -4 -30 -4q-25 0 -46 31
q-8 11 -12 22.5t-4 17.5q0 32 31 78l49 74q6 9 21 22l21 16q30 28 76 47l7 4q13 5 23 15q5 5 5 11q0 12 -5 27t-5 25q0 25 8 43q25 49 52.5 70t71.5 21h43q36 0 63 -19q29 -20 29 -49q0 -64 -62 -64z" />
    <glyph glyph-name="F" unicode="F" horiz-adv-x="593" 
d="M699 537q0 -23 -27 -67q-13 -20 -19 -34q-2 -4 -8 -18t-12 -21q-4 -6 -16 -13q-20 9 -20 28q0 13 5 31l5 19q0 20 -22 29l-45 10q-32 7 -43 10l-18 3q-26 0 -49 -32l-4 -9q-14 -28 -30 -52q-9 -14 -17 -20q-8 -24 -14 -62q0 -2 -8 -12q-9 -9 -9 -15q0 -7 11.5 -11
t24.5 -4q55 0 59 49l8 22q9 15 24 15q22 0 24 -23q-5 -20 -16 -42q-12 -24 -14 -34q-19 -31 -39 -55l-9 -51q-2 -15 -9 -26t-16 -11q-7 0 -15.5 7t-8.5 15q7 20 12 32q6 14 6 25q0 15 -11 26t-27 11q-14 0 -27 -11.5t-18 -27.5l-10 -33l-39 -78q-1 -1 -1 -11l2 -37
q16 -6 54 -10q9 9 22 9q12 0 21.5 -8t9.5 -18q0 -36 -127 -36h-92h-31q-28 0 -45 -1l-14 -2q-10 -3 -16 -3q-11 0 -21 8t-10 21q0 14 9 25.5t20 11.5q10 0 21 -6q10 -7 25 -7q16 0 32.5 6.5t29.5 17.5q29 26 29 56q0 12 -1 15q15 20 32 70q10 33 26 57q15 24 16 42q1 9 1 19
v2q0 4 3 10q3 8 12 21l28 43l21 91q-33 12 -79 12q-56 0 -68 -16q0 -8 -7 -22q-9 -15 -17 -15q-4 0 -9 5q-1 -1 -6 -1q-12 0 -12 17q0 13 5.5 26t15.5 23q22 22 49 22h60q9 4 25 4q19 0 40 -4l6 2l15 4q18 5 28 5q8 0 12 -3q29 -15 37 -15t16 4q43 11 128 13q22 1 57 1h21
q2 0 7 4l12 8q16 12 22 12q4 0 5 -1q22 -18 22 -41z" />
    <glyph glyph-name="G" unicode="G" horiz-adv-x="607" 
d="M593 225q0 -10 -6.5 -19.5t-17.5 -9.5q-2 0 -22 4q-15 3 -29 3q-13 0 -20 -8t-11 -19t-6 -15q-12 -10 -22 -26q-15 -23 -37 -51q-18 -46 -51 -73.5t-68 -30.5h-46q-31 0 -108 18l-32 18q-3 3 -8 14q-13 26 -25 57l-6 15v57q5 97 57 182t141 139q61 67 154 67q30 0 66 -14
q12 -4 22 -9l9 -6q2 -1 12 -9t21 -20q25 -29 25 -58q0 -30 -16 -52q-19 -26 -48 -26q-24 0 -47 6q-38 8 -38 34q0 8 16 34t16 31q0 8 -8 11t-16.5 4.5t-11.5 2.5q-13 13 -22 13h-2q-74 -16 -110 -38q-35 -22 -56 -62l-21 -39q-31 -58 -47 -128q-10 -39 -10 -85v-11l3 -4
q9 -12 14 -21q3 -7 3 -11q0 -26 21.5 -45t46.5 -19q10 0 22 5q13 5 42 11q39 0 60 44l30 73q2 4 2 11q0 29 -16 29q-9 0 -17 -8q-9 -9 -20 -9q-12 0 -21.5 9t-9.5 20q0 17 22 26q17 6 26 6q10 0 28 -2q14 -3 29 -3q20 0 60 5q38 5 55 5q16 0 41 -5q8 -8 8 -18z" />
    <glyph glyph-name="H" unicode="H" horiz-adv-x="937" 
d="M535 478q0 -19 -27 -60l-78 -111q17 3 42 3h22q7 -1 20 -1q44 0 66 5q19 5 21 3l6 -1l14 -4q17 -5 26 -5q16 0 41 32l84 123q26 38 88 96q43 24 111 71q16 11 35.5 19t35.5 8q8 0 25 -6.5t32 -17.5q18 -13 29.5 -31t11.5 -38t-15 -40q-16 -22 -38 -22q-11 0 -22.5 7
t-27.5 20q-3 2 -13.5 10.5t-19 12.5t-15.5 4q-16 0 -39 -14q-22 -13 -61 -46q-11 -3 -28 -15q-76 -80 -90 -116q-16 -14 -34 -63l-17 -49q-17 -43 -23 -57v-7q0 -5 -2 -27l-7 -10q-12 -17 -18 -35q-4 -9 -4 -17q0 -18 15.5 -30t41.5 -12q21 0 57 23t51 23q16 0 16 -11
q0 -13 -17 -22l-25 -9q-30 -26 -57 -42t-41 -16t-31 6l-34 12q-62 21 -62 84q0 60 45 124q3 3 3 8q0 14 -8 27t-22 13q-3 -1 -11 -1q-12 0 -27 5q-12 4 -26 4q-33 0 -80 -16h-1q-3 0 -41 11q-23 -34 -44 -60q-5 -17 -17 -48q-18 -39 -36 -60q-11 -6 -19 -10
q-13 -7 -29.5 -20.5t-23.5 -23.5q-8 -11 -16 -16q-44 -33 -67 -37l-18 -3q-22 -2 -28 -2q-33 0 -56 11.5t-50 47.5q-7 7 -7 24q0 18 14 34q5 6 11 11l8 8q10 25 33 25q9 0 31 -8l29 -12q12 -10 16 -25q6 -22 15 -29t25 -7q20 0 35 9t30 27q14 18 28 38q7 12 34 47
q1 17 19 54l13 26q6 12 21 36q-2 -2 17 27l10 35q4 16 12.5 28.5t10.5 16.5q15 23 15 35q0 17 -24 29q-20 10 -43 10q-49 0 -108 -41q-20 0 -26 3.5t-6 14.5q0 2 1 3v3q14 20 23.5 29.5t22.5 15.5q14 6 34 9t57 5l11 1l20 2q14 0 21 1t16 1q58 0 96 -38q12 -13 12 -29z" />
    <glyph glyph-name="I" unicode="I" horiz-adv-x="414" 
d="M522 473q-9 0 -26 4t-29 4q-23 0 -43 -19.5t-26 -56.5q-22 -25 -39 -68q-13 -37 -26 -67q-17 -42 -25 -55q-2 -4 -5 -11l-9 -21q-17 -21 -22 -43q-5 -20 -15 -38l-16 -24q-7 -10 -7 -18q0 -11 11.5 -14t31.5 -3t31.5 -3t11.5 -14q0 -6 -15 -11q-26 -8 -86 -13
q-48 -4 -87 -4h-16l-70 1q-20 0 -20 23q0 9 1 13.5t6 7.5t16 5l31 3q36 1 72 55q28 41 54 103l18 44l10 24l6 38q3 8 9.5 15.5t13.5 14.5q8 8 12 14t4 13v9q-1 3 -1 7q0 13 13 32t13 31q0 15 -12.5 27t-25.5 12q-6 0 -11 -3l-14 5q-11 2 -11 13q0 24 35 24q23 0 39 -12
l11 -8q4 -4 7 -4q5 0 12 4q4 2 16.5 7t24.5 9q12 3 26 3q16 0 31 -6q14 -6 28 -6q6 0 18 3l28 6q3 1 9 1h6q25 0 34 -12q-5 -41 -33 -41z" />
    <glyph glyph-name="J" unicode="J" horiz-adv-x="502" 
d="M585 530q14 -20 14 -33q0 -29 -52 -53q-7 -14 -24 -35q-60 -30 -83 -74l8 -11q3 -5 15 -5q3 0 5 1h6q32 0 32 -19q0 -12 -11 -30q-10 -17 -17 -22q-14 3 -23 7t-15 4t-33 -11q-10 -22 -16 -29q-20 -26 -32 -52q-7 -13 -23 -59q-13 -38 -29 -70l-15 -28l-21 -38l-30 -60
q-16 -34 -60 -60l-51 -34q-20 -14 -31 -18q-12 -5 -19 -7l-20 -3q-17 -3 -31 -3q-31 0 -50 9q-27 13 -56 47q-9 10 -9 28q0 17 12 31q14 14 17 19q9 25 32 25q4 0 14 -2l17 -6q32 -11 44 -29q6 -10 8 -15q1 -4 7 -14q28 -31 43 -31q4 0 5 1q43 21 70 68q10 18 20.5 45
t14.5 36q3 10 8 22l3 41q3 22 9.5 44t13.5 41q1 4 10 28.5t12 50.5q-5 11 -6 32l-31 -2v1h1l1 1l-4 2q-13 11 -18 19q-4 5 -4 13q0 13 35 27q4 6 8 6l11 -4q8 -4 21 -4h12q8 0 12 1q11 14 37 52q14 20 26 27q22 11 49 49q26 35 26 51q0 12 -10 27.5t-27 28.5q-41 32 -84 32
q-85 0 -100 -130q0 -12 -13 -21t-33 -9q-35 0 -61 36v70q14 25 34 35q21 11 70 17q19 3 33.5 8t27.5 10q27 12 69 12q115 0 188 -47q27 -17 41 -37zM236 257h1h-1z" />
    <glyph glyph-name="K" unicode="K" horiz-adv-x="676" 
d="M661 416q-10 0 -16 6q-22 25 -48 25q-9 0 -15.5 -1t-14.5 -5l-21 -15l-39 -28q-7 -1 -14 -5l-37 -18q-7 -4 -35 -17q-83 -32 -83 -108q0 -45 37 -82l2 -10q4 -39 23 -64q26 -33 72 -49q22 -8 42 -8q4 0 36 12q30 12 38 12q14 0 24 -10q-1 -31 -42 -45q-31 -12 -73 -12
q-43 0 -99 17q-22 21 -61 67q-2 23 -11.5 45t-22.5 39q-8 11 -23 26q-10 9 -14 9q-3 0 -5 -3q-25 -45 -38.5 -72.5t-13.5 -40.5q0 -12 11 -19t29 -8q11 0 30 -7q19 -9 19 -19q0 -19 -12 -24q-10 -2 -17 -2h-23q-16 0 -27 1q-20 0 -72 2h-38q-45 0 -87 -7l-39 -7l-54 -9
q-5 17 -5 24q0 40 78 40h20q5 -1 12 -1h8q25 0 40.5 7t25.5 21q8 12 16 34q7 26 16 48l13 20q3 4 16 28l3 25q0 13 14 36l13 20q5 8 10 19q6 13 12 22q18 24 29 48q5 13 5 25q0 17 -37 38q-18 10 -25 13l-12 5q0 7 6 13q4 4 23 16q6 3 17 9.5t30 16.5l78 43q8 3 14 3
q22 0 45 -21q22 -22 22 -45q0 -17 -13 -29q-18 -18 -24 -33q-5 -14 -14 -29l-12 -15q-7 -7 -7 -15q0 -5 5 -7.5t11 -2.5q31 0 81 65q33 43 68 67q37 24 115 54q7 3 15 3q19 0 40.5 -14.5t25.5 -17.5q18 -13 19 -24q1 -4 1 -16q0 -22 -16 -38q-31 -21 -50 -21z" />
    <glyph glyph-name="L" unicode="L" horiz-adv-x="621" 
d="M511 87l-17 -53q-15 -35 -46 -35l-38 5q-10 2 -15 2h-13q-29 0 -44 -3t-15 -2h2q-14 0 -25 6q-10 6 -19 6q-7 0 -19 -5l-10 -3l-6 -2h-10q-15 0 -44 -3h-119q-10 -2 -25 -2h-8q-13 0 -21 1q-22 2 -39 2q-10 0 -28 -2l-17 -3q-11 0 -21 5q-16 5 -16 18t16 20q11 4 24 4
q9 0 13 -1q6 -2 15 -2q10 0 32 3l31 2q8 0 14 -1t13 -1q19 0 29 15l17 36q13 9 39 42q30 35 35 63q9 50 35 114q10 26 16 36l8 14l16 23q16 23 16 46q0 13 -10 18.5t-28 8.5q-22 3 -30.5 6.5t-8.5 14.5q0 14 10.5 23.5t25.5 9.5q18 0 41 -5l18 -4l9 -2q42 0 96 9l26 13h4
q10 0 22 -4q19 -5 43 -5q16 0 23 1q14 -2 24 -10.5t10 -17.5q0 -12 -14 -21t-32 -9q-14 0 -30 2l-19 2q-62 0 -75 -52q-11 -12 -30 -41q-4 -11 -11 -23l-38 -74l-9 -18l-26 -56l-42 -81l-20 -39q-6 -13 -6 -21q0 -6 7 -12q6 -5 12 -7h7q18 0 51 -6q5 -3 9 -3q7 0 17 6
q9 6 21 6q9 0 17 -1q7 -1 17 -1q26 0 57 24q25 18 87 88q9 6 19 6q27 0 27 -23q0 -9 -4 -13q-8 -9 -23 -34z" />
    <glyph glyph-name="M" unicode="M" horiz-adv-x="968" 
d="M1031 522q0 -29 -27 -62q-29 -34 -38 -48q-19 -25 -27 -52q-4 -15 -13 -34t-17 -29l-19 -23q-26 -33 -35 -55l-14 -37q-11 -22 -12 -37q-1 -5 -1 -10t-1 -11l-5 -17q-5 -15 -5 -21q0 -8 2.5 -12t7.5 -6l14 -3l20 -5l21 5q5 0 8.5 -4.5t3.5 -9.5q0 -8 -22 -16l-16 -4
l-7 -1q-66 -29 -98 -29q-17 0 -30 15q-11 11 -11 23q0 13 15 34q16 24 36 66q18 37 37 62q5 24 10.5 38t23.5 29q3 7 5 23q0 13 13 27q32 38 32 56q0 21 -15 21q-1 0 -15 -15q-39 -39 -66 -70l-19 -22l-54 -33q-19 -14 -48 -45l-31 -35l-27 -24q-29 -23 -38 -23
q-11 0 -18 13t-7 29q0 17 6 30l4 5q15 20 18 28q4 7 4 14v3q37 49 48 89l10.5 10t16 20.5t8.5 26.5q0 24 -14 24q-3 0 -5 -2q-57 -56 -163 -170q-20 -12 -26 -26q-35 -28 -73 -63q-20 -24 -54 -56q-17 -15 -39 -39q-56 -60 -107 -89q-31 -18 -61 -18q-17 0 -35 6t-26 14
l-48 33q-6 11 -6 24q0 29 25 50q7 17 14 25.5t16 10.5q26 0 56 -20q30 -22 36 -49q1 -10 29 -10q36 0 81 45q17 17 36 41.5l36 47.5q2 1 13 4.5t20 10t13 15.5l4 8q3 8 16 22l21 21v1q0 17 60 75l118 126q44 54 73.5 80.5t56.5 26.5q41 0 62 -18t21 -43q0 -23 -16.5 -47.5
t-57.5 -73.5q-9 -15 -18 -26q-26 -34 -40 -59q-9 -13 -12 -26q8 -2 10 -2l22 9q9 14 23 28q50 47 76 78q24 28 54 49q12 7 17 11.5t7 12.5q35 30 58 41q32 47 66 47q20 0 33 -16v-8z" />
    <glyph glyph-name="N" unicode="N" horiz-adv-x="791" 
d="M1083 542q0 -20 -21.5 -33t-49.5 -13q-24 0 -31 10q-24 35 -54 35q-38 0 -89 -56l-27 -34q-24 -30 -29 -34q-7 -16 -20 -35q-11 -12 -25 -38q-14 -25 -30 -46l-3 -6q-6 -16 -13 -24q-4 -6 -11 -9q-10 -3 -15 -10t-9 -17l-4 -16q-1 -3 -4 -10q-44 -55 -76 -171
q-10 -39 -48 -39q-34 0 -39 39v146q0 45 -13 99l-5.5 23l-4.5 18q-6 27 -7 36q-6 8 -16 8q-1 0 -9 -11l-35 -61l-18 -33q-18 -10 -31 -44q-10 -8 -17 -21q-3 -5 -16.5 -24t-31.5 -39q-17 -18 -42 -36q-13 -7 -21 -23q-4 -11 -7.5 -15.5t-8 -8.5t-7.5 -7q-25 -23 -60 -38
q-19 -9 -40 -9q-37 0 -64 27q-27 24 -27 53q0 1 2 7l20 37q9 17 26 17q18 0 41 -31l17 -21q7 -10 11 -10t37 13q21 2 49 14l7 9q10 15 29 36l28 26l3 11l6 12q4 11 10 21q5 10 19 42q0 1 25 34q18 24 39 61q1 9 20 26q2 1 10 8.5t9 13.5q0 34 -20 34l-11 -2q-12 -4 -19 -5
q-15 -4 -19 -5q-9 -3 -13 -3q-18 0 -25 19l37 31q19 18 46 20q14 0 27 -7t16 -7q4 0 11 4q8 3 18 7.5t22 8.5q10 3 16 3q4 0 14 -2q3 -1 10 -10q20 -28 29 -59q6 -19 6 -40q0 -17 -1 -28t-1 -40q0 -35 5 -69q-2 -14 -2 -23v-14q0 -20 5 -33q1 -7 7 -7q1 0 8 5l12 12
q16 16 20 19l24 40q13 21 22 57q18 24 31 49l6 28q19 19 40 51q8 8 23 33q12 23 39 48l48 40q62 57 75 57h47q17 5 28 5q56 0 85 -56q5 -13 5 -20z" />
    <glyph glyph-name="O" unicode="O" horiz-adv-x="608" 
d="M586 347q0 -77 -33 -115q-5 -5 -14 -50l-81 -101q-12 -16 -28 -32q-29 -29 -47 -30q-28 -3 -54 -16t-45 -28h-9q-11 0 -18 -1t-22 -1l-21 -2q-7 -1 -15 -1q-35 0 -55 17q-3 10 -7 28q-5 24 -24 46q0 2 1 3v4v5q-1 1 -1 6q-6 15 -12 77q-2 13 -4 44l-1 24q0 17 6 27v59
q0 9 14 29q20 24 36 57q13 26 36 57q13 16 23.5 27.5t19.5 17.5q20 13 62 30l12 8q11 6 13 6h119q2 0 11 -6q18 -14 46 -27q14 -6 24 -6q13 0 23.5 -19t32.5 -67q12 -28 12 -70zM494 393l-9 13l-10 11l-4 5q-6 57 -90 76h-4q-9 0 -35 -12l-46 -22q-10 -4 -24 -26l-16 -15
q-16 -14 -30 -43q-7 -15 -15 -39l-12 -34q-9 -22 -12 -37q-2 -14 -2 -28q0 -42 -1 -55l-4 -28l-3 -12q-1 -2 -1 -7q1 -46 21 -82q20 -37 45 -37q13 0 26 9q18 2 42 8q6 3 11 7l32 22l9 5h1q8 12 20 24q31 31 47 54q12 18 20 42l18 44q7 16 9.5 31t3.5 19q19 12 19 48
q0 14 -1 25t-1 26q0 3 -4 8z" />
    <glyph glyph-name="P" unicode="P" horiz-adv-x="587" 
d="M680 384q-1 -6 -6 -17t-17 -28q-3 -4 -18 -29t-45 -42.5t-68 -17.5l-16 2q-28 -4 -83 -9l-28 4q-20 3 -31 3q-41 0 -80 -46q-25 -28 -56 -88q-13 -26 -16 -35l-6 -17q0 -11 6.5 -16t20.5 -7q16 -2 29 -2q10 0 38 -2l14 3q14 3 22 3q13 0 20 -8t7 -16q0 -18 -40 -18
q-9 0 -25 2l-59 6q-13 1 -45 1q-12 0 -32 -3l-41 -7q-23 -1 -45 -6q-20 -4 -36 -4q-30 0 -40 10q0 19 24 25l22 3q29 0 48 12q20 13 43 50l26 40q14 39 46 94q35 44 74 98q1 2 9 17q22 38 30 58q6 17 6 28q0 51 -54 51q-44 0 -66 -22q-40 -35 -54 -49q-43 -43 -43 -74
q0 -12 1 -22l1 -19q0 -16 -10 -24.5t-23 -8.5q-23 0 -44 20l-36 30q-5 3 -5 10q0 11 16.5 36t30.5 41q18 21 31 24q7 2 14 6l14.5 15t40.5 30q55 33 131 33q31 0 54 -6l9 -2q34 -8 46 -8h5l69 10q41 6 60 6q14 0 22 -3h85q25 0 46 -19.5t21 -45.5q0 -19 -13 -35
q-1 -6 -1 -15zM603 403q0 41 -22 56.5t-72 15.5q-29 0 -40 -6.5t-30 -31.5q-42 -54 -66 -104q-13 -26 -13 -41q0 -6 13 -9q26 -8 55 -8l14 -1q45 0 111 24q50 41 50 105z" />
    <glyph glyph-name="Q" unicode="Q" horiz-adv-x="613" 
d="M583 319q-3 -4 -7 -12q-3 -4 -5 -10q-3 -37 -15 -109q-1 -7 -13 -16q-11 -8 -14 -12.5t-7 -13.5q-7 -16 -30 -39q-6 -6 -36 -32l-8 -11q-8 -13 -26 -28q-13 -11 -28 -20h-8q-13 0 -33 -3q-13 -12 -30 -20q-26 -12 -58 -13q6 -3 9 -6q6 -8 15 -17q7 -7 19 -15
q41 -28 51 -37q11 -11 16 -18l10.5 -12.5l11.5 -13.5q12 -24 33.5 -40t46.5 -16q15 0 45 16l26 14l25 15q79 79 124 79q12 0 12 -9q0 -34 -119 -114l-45 -29q-28 -19 -48 -23l-28 -7q-19 9 -34 9q-12 0 -23 -6q-44 11 -91 83q-28 41 -51 59q-25 18 -40 18q-8 0 -13 -18
l-7 -21q-5 -12 -12 -12h-7q-17 0 -29 21.5t-12 46.5q0 7 3 13t9.5 13.5t8.5 10.5h3q9 0 27 10q8 3 12 7q5 3 7 3q-46 10 -71 52q-22 5 -34 40q-6 15 -9 34l-8 38q1 4 5 9v106q2 18 2 37q13 10 19 77l33 45q15 21 44 57q17 20 70 58q13 15 32 30l69 16q35 7 52 7q24 0 42 -5
t34 -20q36 -33 68 -129q9 -13 16.5 -33t7.5 -42v-9q0 -7 -1 -10q0 -7 -8 -23zM478 447l-8 35q-4 9 -58 31l-10 -1l-9 1q-23 0 -55 -14q-19 -9 -47 -28l-11 -15t-17 -21q-17 -12 -28 -33t-30 -67l-12 -28q-29 -29 -39 -81q-2 -10 -5 -34l-1 -16q-1 -23 10 -47q11 -31 23 -48
q23 -34 69 -46h17q9 1 33.5 12.5t41.5 23.5q29 20 60 59l24 33l9 38q7 23 27 43q4 12 6 32l3 46q2 11 16 42q3 8 5.5 14l4.5 11q4 9 4 14t-3 8q-14 14 -20 36z" />
    <glyph glyph-name="R" unicode="R" horiz-adv-x="784" 
d="M782 424q0 -6 -1 -8q-1 -3 -2 -8.5t-2 -13.5q-6 -36 -20 -62q-9 -17 -27.5 -35t-40.5 -31q-45 -26 -92 -39q-23 -6 -40 -9q-19 -4 -19 -21q0 -23 32 -67q2 -11 12 -38q2 -4 14 -12q24 -19 52 -37l10 -7q10 0 19 1q40 0 56 -6q11 -5 11 -14q0 -12 -17 -15l-32 -3h-61
q-50 0 -77 13.5t-45.5 45.5t-45.5 104l-13 26q-10 19 -10 38t16 25l15 1q42 2 81 10q23 5 34 10q19 11 32 14q5 1 10.5 4t13.5 10q1 1 4 11q9 28 14 61q3 21 3 45q0 33 -41 58q-14 8 -30 13q-13 4 -18 4q-7 0 -10 -3v-1q0 -2 -9 -4l-19 -4l-19 -4q-9 -3 -9 -5q2 -10 2 -14
q0 -20 -29 -78q-24 -45 -54 -92l-20 -30l-7 -10l-27 -21q0 -10 -9 -21.5t-28 -31.5l-19 -28l-29 -41l-23 -31q-12 -16 -28 -18q-3 -2 -7 -5.5l-10 -8.5q-7 -5 -21 -19q-13 -13 -26 -16t-37 -4q-21 -5 -44 -5t-34 5q-9 4 -21 14t-22 22q-24 30 -24 39q0 23 25 48q23 23 48 23
q14 0 40 -12q17 -9 40 -30q4 -4 11.5 -13t21.5 -14t37 -5q53 34 85 87q6 22 17 44q13 30 23 41l15 20q1 14 12 46q8 6 28 26q3 17 18 47q14 14 20 48l4 26q2 13 6 21q0 6 -10 10q-19 8 -61 13q-26 2 -38 2q-49 -64 -85 -64q-15 0 -24 5t-9 20q0 32 50 53q44 19 97 19h20
q7 -1 23 -1q8 -1 22 -1q7 -1 15 -1q11 0 25 2h1l12 -2q12 -4 36 -4q20 0 40 5q15 4 31 4l25 -2q52 -8 95 -26q23 -10 36 -26l26 -33q10 -13 10 -29z" />
    <glyph glyph-name="S" unicode="S" horiz-adv-x="543" 
d="M640 588l-18 -25q-1 -2 -10 -11q-20 -20 -44 -48q-18 -22 -27 -35q-17 -23 -27 -23q-5 0 -26 23q-23 23 -33 23h-2q-1 -1 -3 -1h-27q-22 -2 -32.5 -15t-10.5 -32q0 -14 4.5 -25.5t14.5 -24.5l22 -27q3 -4 16.5 -20t25 -36t17.5 -41q10 -33 10 -68q0 -27 -6 -32q1 -1 1 -3
q0 -6 -10 -25.5t-19 -32.5q-15 -21 -43 -46l-31 -26l-24 -17q-18 -15 -51 -21q-16 -3 -43 -3q-55 0 -72 6q-17 5 -37 23l-25 6q-3 1 -7 7q-6 8 -21 20q-4 4 -8 4t-15 -9q-37 -32 -51 -42q-13 -10 -20 -10q-5 0 -5 16q0 26 30 67q19 26 39 46l24 35q18 26 35 26
q15 0 26 -15.5t14 -40.5q6 -58 18 -77q7 -10 19 -14t33 -4q25 0 54.5 9.5t53.5 26.5q58 40 58 91q0 27 -18 55q-21 15 -62 59q-2 6 -11 22q-17 25 -29 60q-6 17 -6 35q0 66 45 116q20 21 44.5 33t50.5 12q11 0 18 -3t16 -9q18 -12 37 -12q33 0 60 47q4 5 5 18q4 30 14 47
q4 10 15 10q7 0 18.5 -4t21.5 -10q25 -15 25 -27q-2 -14 -11 -28z" />
    <glyph glyph-name="T" unicode="T" horiz-adv-x="591" 
d="M761 585q0 -18 -6.5 -38t-18.5 -37q-13 -19 -30.5 -30.5t-38.5 -11.5q-2 0 -3 1h-3l-19 -4q-22 -12 -33 -12q-7 0 -12 6q-5 5 -11 5q-22 0 -37.5 -9.5t-30.5 -28.5t-30 -45q-25 -41 -38 -60q-3 -15 -19 -49q-7 -7 -24 -41q-5 -9 -13 -27q-9 -16 -13 -21q-43 -58 -43 -101
q0 -19 10 -31.5t41 -21.5q6 0 16 3q11 3 15 3t5 -1q4 4 10 4q9 0 17.5 -9.5t8.5 -20.5q0 -19 -42 -19q-19 0 -53 6q-38 5 -53 5h2q-8 0 -13 1q-10 0 -16 1h-23q-60 0 -88 -14q-31 15 -37 15q-11 0 -21 -6q-23 9 -23 19q0 13 12 21t21 8t21 -4t20 -4q9 0 16 7h3q1 -1 3 -1
q22 0 44 33l39 73q17 24 51 84q5 17 15 41q26 63 39 101q8 26 8 36q0 29 -13 36q-6 2 -18 4l-27 4q-29 -7 -44 -8q-21 -3 -35 -8t-22 -13q-10 -10 -14 -29l-6 -85q-1 -8 -23 -17.5t-28 -9.5q-7 0 -10 4q-41 50 -41 90q0 19 12.5 33t45.5 31q32 16 40 29l44 6l15 5
q37 12 73 20q17 4 28 4q5 0 13 -2l12 3q18 5 15 4q26 -3 41 -9h22q10 -6 32 -6q13 0 100 9h37q47 14 47 40q0 24 -25 35q-28 11 -37.5 20.5t-9.5 24.5q0 10 7.5 20t19.5 18q24 16 53 16q33 0 54 -33q17 -27 17 -62z" />
    <glyph glyph-name="U" unicode="U" horiz-adv-x="611" 
d="M92 281q10 17 16 26l22 34q4 7 4 18q0 9 1 14t5 12l9 15q13 19 13 27q0 13 -10 23t-21 10q-6 0 -11 -3q-3 3 -12 4q-10 1 -10 10q0 25 36 25q10 0 18 -3.5t14 -6.5q3 -3 9 -7q3 -4 7 -4q7 0 11 4q7 4 15 8h4q19 10 46 10q12 0 27 -5q13 -5 24 -5q5 0 16 3l26 6q3 1 9 1h7
q22 0 28 -10q-8 -38 -34 -38q-9 0 -24 4q-17 3 -26 3q-21 0 -39.5 -18.5t-27.5 -53.5q-21 -21 -52 -91q-10 -20 -22 -48l-9 -21l-21 -45l-2 -9q-3 -8 -8 -37l-2 -8q1 -1 1 -13q0 -20 32 -41q40 -26 117 -26q35 0 66 10q36 11 52 29l31 38q13 17 16 34q4 22 15 45l36 49
q27 42 30 78q33 23 52 77q-5 7 -5 13q0 3 2 9t2 8q0 5 -6.5 8.5t-22.5 8.5q-30 8 -30 27l2 12h10q3 -1 9 -1q27 0 63 3q5 0 25 -10h6q10 0 25 -5q5 2 22 15q3 3 9 7l5 3q2 0 2 -3q10 7 29 7q32 0 32 -21q0 -16 -30 -27q-63 -19 -91 -49q-20 -20 -22 -38q-6 -4 -9.5 -14.5
t-4.5 -12.5q-8 -22 -12 -27q-11 -8 -35 -38l-48 -72q-17 -50 -43 -96q-44 -79 -93 -100q-12 -8 -67 -22l-38 -10q-16 -4 -22 -4q-7 0 -22 3q-21 4 -28 5h-14q-45 0 -75 15q-10 3 -19 10q-6 5 -6 7v1q-12 0 -18.5 3.5t-10.5 12.5q-8 19 -8 77q0 32 7 45l7 12q1 40 24 73
q1 17 15 41z" />
    <glyph glyph-name="V" unicode="V" horiz-adv-x="597" 
d="M732 493q0 -15 -30 -18q-19 -2 -33.5 -4.5t-22.5 -6.5q-9 -4 -19 -12l-26 -20q-26 -10 -58 -50q-14 -18 -31 -43l-38 -53q-1 -1 -5 -1q-9 -2 -17 -14q-5 -9 -11 -23q-21 -12 -28 -25l-10 -22l-22 -14q-15 -10 -16 -25l-33 -40v-14q-9 -18 -54 -79q-6 -2 -11.5 -8.5
t-8 -12t-4.5 -8.5q-7 -12 -13.5 -19t-16.5 -7q-13 0 -19 4.5t-6 14.5q0 16 14 61q21 79 23 149q1 9 1 23q0 13 -1 18q-3 29 -3 40q-1 7 -1 22q0 29 5 71q5 40 5 56v5l-12 18q-26 8 -53 8h-10q-4 -1 -11 -1q-18 0 -18 20q0 18 30 18h7q2 -1 7 -1l16 1l41 2q30 0 43 1l18 1h56
q5 0 25 5q15 4 30 4q29 0 60 -16l-5 -21l-63 -16q-40 -14 -50 -48q-16 -5 -23 -54q-5 -35 -5 -91q0 -10 -1 -17v-9q0 -19 6 -29q5 -8 14 -8q4 0 8 4l11 11q16 22 43 49q2 10 33 47q22 26 30 44q5 14 17 31q1 8 8.5 19t8.5 13q15 21 15 36q0 10 -1 18l-2 18q0 9 1 11
q31 2 77 6l20 12q3 1 9 1h8q30 0 33 -14q10 7 29 7q32 0 38 -16zM471 498z" />
    <glyph glyph-name="W" unicode="W" horiz-adv-x="763" 
d="M869 562q0 -29 -36 -59q-4 -35 -4 -37q-12 -17 -20 -57q-8 -1 -19 -22l-8 -15l-4 -8q-22 -22 -32 -44l-21 -44q-6 -9 -16 -19q-12 -13 -39 -53q-18 -6 -26 -24q-2 -4 -5 -13q-3 -8 -9 -10q-13 -3 -17 -10q-3 -3 -7 -11q-8 -18 -12 -19q-31 -14 -39 -22l-18 -18
q-23 -3 -50 -19q-35 -19 -65 -31q-22 -30 -59 -43q-10 -4 -34 -21q-12 -8 -14 -10l-7 -5q-2 0 -10 3q-10 -2 -13 -2q-25 0 -25 34q0 21 1 30t1 23q0 12 -2 20q-9 0 -24 -5.5t-18 -11.5l-31 -7l-10 -7q-37 -23 -63 -34q-19 -8 -29 -8q-30 0 -30 24q0 17 15 47q13 27 22 32
l3 6q9 15 13 26q3 8 3 12q0 8 5 15t16 19q8 8 14 16t6 14q0 7 -1 9q12 21 30 74q7 21 17.5 39t12.5 21q9 15 13.5 24.5t4.5 19.5q0 24 -14 42.5t-34 18.5q-24 0 -49 -21.5t-36 -49.5l-22 -20q-14 -11 -17 -11q-6 0 -10 10.5t-4 17.5q0 20 21 45l34 41q1 0 17 7q14 7 23 10
q7 3 9 9q1 6 11 12q10 7 31 11q20 4 68 4q66 0 89 -35q2 -4 9 -5q18 -9 24 -16q5 -8 5 -18q0 -13 -8 -19q-13 -13 -22 -24q-25 -70 -59 -120q-14 -22 -40 -53l-56 -68l-54 -81q-1 -1 -1 -3q0 -6 9 -12l26 9q9 3 16 10q8 6 17 6h5q1 -1 5 -1q36 37 104 99q1 0 3 5q4 9 15 24
q5 7 10 8l11 25q11 25 17 41q11 5 18 27q7 21 10 26q3 8 6 11t7 3q2 -1 9 -1q24 0 44 -22t20 -48q0 -14 -7 -27l-67 -60q-42 -36 -67 -37q-22 -59 -22 -78q0 -32 33 -37q9 12 20 15l18 5l24 18l27 19q15 7 36 22q23 17 53 52q14 2 27 11t19 22l9 19q6 11 18 24q33 40 46 59
q10 15 15 29l14 55q15 11 15 73v66q-2 18 -2 23q0 45 49 45q17 0 29 -1q24 -2 31 -2q15 0 22 3l13 2q11 0 17 -20q3 -6 3 -13z" />
    <glyph glyph-name="X" unicode="X" horiz-adv-x="581" 
d="M193 131q-9 -14 -32 -36q-24 -21 -29 -36q4 -22 17 -31q3 -3 9 -7q4 -3 4 -8q0 -9 -3 -11.5t-11 -2.5q-13 0 -35 2l-22 2q-17 0 -23 -3q-7 -4 -23 -4q-7 0 -13 3q-8 2 -17 2q-3 0 -16 -5q-4 1 -4 5q0 18 5 28q5 9 13 9l11 -3q8 -4 17 -4q17 0 45 24q27 24 65 80
q6 4 19 15q17 17 28 30l38 41l22 24q7 8 9.5 13t2.5 12q0 8 -2 13l-5 13q-5 15 -8 27l-10 36l-4 16q-3 8 -4.5 16t-3.5 15l-9 32q-4 12 -4 16q0 1 1 1q0 9 -6.5 19.5t-13.5 11.5q0 3 -10 6q-17 4 -42 6h-10h-1q-1 0 -4 3q-8 5 -14 14q-3 5 -3 8q0 12 25 12h6l95 -1l72 3h5
q28 0 28 -13q0 -8 -6 -19l-13 -14q-3 -1 -8 -12q-4 -9 -4 -28q0 -10 3 -18l11 -44q2 -10 4 -35l21 -6q8 8 12 8q3 0 5 -1q2 -2 3 -2q4 0 11 7q11 11 33 42q4 7 16 24l10 12q9 13 18 23l17 22l7 9q0 9 -11 13q-12 4 -12 18q0 13 25 13h30l15 6q8 4 19 4q21 0 34 -7t26 -7
q7 0 14 3q9 -3 9 -17q0 -22 -13 -22q-5 0 -13 2q-4 1 -11 1h-7l-21 -9q-27 -7 -59 -32q-31 -24 -50 -52q-19 -13 -44 -42l-36 -42l-17 -20q-4 -14 -5 -26.5t-1 -20v-11.5q0 -2 3 -7l12 -23q3 -6 3 -9q6 -13 15 -48l3 -45q1 -13 14 -33l6 -19q5 -18 32 -20q7 -1 21 -1
q12 -2 18 -4v-1l2 -8q2 -8 2 -11q0 -17 -27 -15l-82 4q-4 -1 -10 -1h-7q-5 0 -6 -1l-88 1q-3 -1 -7 -1h-7q-21 0 -21 10q0 11 13 24h31l5 1q12 3 24 11q6 3 6 6v2l-7 63q-3 26 -11 40q-9 14 -11 25q-3 17 -12 17l-26 -15q-22 -12 -46 -38q-2 -7 -9 -17z" />
    <glyph glyph-name="Y" unicode="Y" horiz-adv-x="529" 
d="M591 447l-14 -9q-16 -21 -42 -50l-8 -21q-12 -23 -43 -70l-56 -69q-19 -22 -25 -36l-14 -24l-37 -57q-13 -26 -29 -54q-15 -26 -17 -31q-19 -35 -36 -56q-19 -23 -63 -53q-33 -36 -78 -78q-11 -3 -48 -22q-34 -18 -48 -18q-10 0 -39 7l-44 36q-9 23 -27 55q0 24 3 40.5
t11 27.5q17 25 70 25q16 0 29 -11.5t13 -28.5q0 -7 -3 -19t-3 -18q0 -14 12.5 -23.5t28.5 -9.5q24 0 47 14l46 47q53 55 75 87q13 17 16 31l4 4q11 11 16 19q4 4 4 8q0 9 -6 14t-12 5q-5 0 -16 -8q-10 -9 -19 -9l-31 9q-32 3 -46 13.5t-14 37.5q0 23 13 49l13 26q4 8 14 33
q30 60 36 121q0 6 14 22q13 13 13 19q0 10 -14.5 15.5t-34.5 5.5q-17 0 -37 -4q-6 -1 -9.5 -9.5t-4.5 -10.5q-4 -9 -8 -13.5t-11 -4.5q-19 0 -19 25q0 14 12 21l3 8q7 15 25 28q8 5 21 7l38 -3q27 2 58 7q2 0 24 13q18 11 24 11q10 0 19 -20q7 -21 7 -34q0 -51 -43 -106
q-10 -12 -17 -34q-4 -27 -21 -67l-20 -48l-8 -14q-7 -10 -7 -18q0 -25 8 -33q7 -7 11 -7q19 0 40 9t27 23q13 0 30 32l27 50l23 30q6 34 19 65q38 55 55 93q8 16 11 32.5t6 41.5q1 13 21 17q5 1 15 1q5 -1 12 -1q26 0 39.5 -1.5t21.5 -5.5t10.5 -13.5t2.5 -26.5
q0 -13 -4 -20q-4 -11 -12 -16z" />
    <glyph glyph-name="Z" unicode="Z" horiz-adv-x="562" 
d="M869 -127q0 -48 -26 -87q-27 -38 -66 -49l-21 -8q-12 -5 -22 -5q-18 0 -40 14q-30 18 -57 24l-16 3q-5 1 -10 6l-18 23l-49 42q-8 5 -19 23l-32 53q-14 20 -26.5 32.5l-14.5 14.5q-9 8 -27 29q-43 26 -74 33.5t-60 7.5q-20 0 -35 -11l-10 -7q-4 -4 -7 -4q-1 0 -1 1h-2
q-2 -2 -6 -2q-11 0 -24 13q-10 -2 -14 -10q-4 -9 -14 -9q-9 0 -15.5 -5.5t-13.5 -13.5t-10 -12q-28 -32 -54 -35q-16 7 -29.5 23.5t-13.5 31.5q0 23 31 42q28 17 64 17q7 0 21 -2q30 6 59 35q31 31 39 38q4 4 18 14l4.5 3t2.5 2q2 0 9 7l10 9q28 26 42 43q9 12 9 18v3
q40 65 69 101q29 38 29 46q0 11 -20 13q-31 -21 -53 -21q-15 0 -23 6t-21 22q-34 43 -54 60q-14 13 -25 13q-20 0 -42 -19q-9 -7 -12 -21q-4 -21 -8.5 -33.5t-14.5 -22.5q-12 -12 -37 -12q-26 0 -40 23q-7 9 -10.5 20.5t-3.5 21.5q0 29 19.5 52t49.5 40q24 13 49.5 21
t36.5 8q24 0 80 -27l20 -37q11 -21 25.5 -30.5t23.5 -11t32 -2.5l14 -2q29 0 36 19q6 15 14.5 30t19.5 31l31 21q14 9 42 9q32 0 44 -7t12 -31q0 -14 -15 -25t-33 -29q-13 -28 -28 -44q-7 -7 -12 -21t-7 -18q-12 -31 -20 -36q-40 -31 -56 -50q-9 -10 -12 -16l-9 -17l-55 -49
q-16 -6 -22 -19l-8 -19l-6 -3l-12 -3q-17 -2 -21 -9q-2 -3 -33 -34l-19 -19l-8 -10q0 -8 10 -8l26 -4q53 -3 84 -9t50 -17q15 -9 34 -26q8 -9 41 -38l24 -14q1 -1 13 -14q7 -9 32 -31l84 -72q-1 0 6 -4q14 -9 40 -19q12 -5 17 -5q10 0 19.5 8.5t9.5 24.5q0 4 -4 11t-5 10
l-7 11q-3 4 -3 7q6 66 57 66q27 0 52 -18q23 -17 28 -39q3 -12 3 -24z" />
    <glyph glyph-name="bracketleft" unicode="[" horiz-adv-x="430" 
d="M395 628q0 -13 -18 -16q-24 -4 -94 -6q-27 -1 -45 -9q-2 -3 -4 -12q-2 -17 -6 -35q-1 -8 -5 -16q-9 -17 -21 -65q-16 -66 -25 -90q-13 -36 -16 -50q-15 -60 -34 -124l-26 -87l-37 -128l-15 -52l-9 -25v-2q0 -6 24 -9q6 1 56 1h39l4 1q2 1 7 1q12 0 12 -9q0 -7 -8.5 -15
t-16.5 -8h-53q-26 0 -41 -4t-19 -4h-77q-1 8 -4 14q2 5 6 16t10 30l26 87l51 181q7 12 17 46q15 50 30 120q1 8 11 21q6 9 7.5 14.5t2 10.5t0.5 8q0 13 1 20l33 114q6 17 8 31q7 41 34 59q14 10 44 10q13 0 49 -4l24 -3l12 -2l17 2q8 1 32 1q13 0 16 -5q1 -2 1 -8z" />
    <glyph glyph-name="backslash" unicode="\" horiz-adv-x="630" 
d="M568 -1h-18q-6 0 -7 -1l-186 268q-119 170 -193 263q4 16 31 16h9l125 -186l41 -45q6 -8 8 -13q12 -26 21 -41q11 -17 27 -34q22 -25 26 -31l17 -37q10 -16 54 -72q45 -56 59 -79q-2 -7 -14 -8z" />
    <glyph glyph-name="bracketright" unicode="]" horiz-adv-x="546" 
d="M625 641q-2 -5 -6 -16t-10 -30l-26 -87l-51 -181q-8 -15 -17 -45q-11 -34 -30 -121q-1 -7 -10 -21q-10 -13 -11 -17v-9v-12q0 -10 -1 -15l-33 -114q-5 -16 -8 -31q-8 -40 -34 -58q-16 -11 -44 -11l-21 2l-28 3l-24 3l-12 1q-9 0 -17 -1q-16 -2 -33 -2q-16 0 -16 13t16 17
q15 4 63 4q58 0 78 10q2 3 4 12l3 17l3 19q2 11 5 15q5 7 10 25t10 40q12 48 26 90l8 23q2 4 8 27l25 91l4.5 15.5l5.5 18.5l25 87l37 127l15 52l9 25v2q0 6 -23 9v-1h-96l-5 -1q-3 -1 -7 -1q-11 0 -11 9q0 7 8.5 15t16.5 8h53q26 0 41 4t18 4h77q2 -11 5 -14z" />
    <glyph glyph-name="asciicircum" unicode="^" horiz-adv-x="389" 
d="M492 534q-11 0 -16.5 3.5t-11.5 12.5q-8 10 -14 21l-20 30q-2 2 -8.5 12.5t-14.5 19.5q-22 26 -27 26q-14 0 -70 -47q-23 -20 -34 -34q-14 -16 -22.5 -23.5t-18.5 -10.5q-11 -4 -35 -4q-9 0 -13 2t-14 9q35 27 72 62q37 34 69 52l31 24q12 9 20 11l15 5q16 0 25 -14
q12 -20 19 -30q19 -16 36 -47q13 -28 45 -74q-2 -6 -13 -6z" />
    <glyph glyph-name="underscore" unicode="_" horiz-adv-x="520" 
d="M550 -158q0 -11 -7.5 -16.5t-21.5 -7.5q-18 -4 -69 -4q-23 0 -65 2q-20 0 -27 1h-14h-49l-12 2l-13 2h-76q-3 1 -12 1h-112q-14 0 -18 -1q-6 -1 -13 -2t-17 -2q-7 -1 -29 -1q-3 0 -10 7q0 21 2.5 30t10.5 13q7 3 27 5h49h52q20 -1 68 -1h24q5 -1 15 -1l20 -2q9 -1 40 -1
q72 -2 196 -2h46q15 -5 15 -22z" />
    <glyph glyph-name="a" unicode="a" horiz-adv-x="419" 
d="M325 225q-9 -22 -38 -65q-27 -40 -27 -58q0 -12 8 -21.5t20 -9.5q4 0 15 5.5t16 7.5q24 12 31 12q18 0 18 -13v-4q-1 -2 -1 -6l-50 -45l-30 -9l-80 -24q-33 0 -49 31q-8 13 -12 22t-15 9q-14 0 -32 -23l-27 -33q-18 -18 -35 -18q-20 0 -32 22t-12 53q0 39 20 56
q9 22 41 58l30 33l36 41q20 16 32 33q11 18 19.5 27.5t19.5 14.5q11 6 36 6q15 0 26 -1t24 -1q23 0 36 9q14 8 27 8q16 0 30 -13t14 -29q0 -14 -10 -24q-28 -28 -49 -51zM279 271q0 8 -7 15q-8 8 -31 8q-23 -2 -46.5 -19.5t-42.5 -44.5q-45 -64 -46 -118q8 -9 28 -9
q9 0 13 4q38 7 74 58q18 28 29 50q9 18 29 54v2z" />
    <glyph glyph-name="b" unicode="b" horiz-adv-x="381" 
d="M380 256l-4 -20l-2 -15q-7 -7 -42 -45q-1 -1 -20 -23l-38 -43l-30 -31l-24 -32q-9 -4 -39 -28q-29 -23 -42 -23q-10 0 -17 3q-19 8 -36 18h-3q-8 0 -22 6q-13 -6 -22 -16q-9 -11 -20 -11q-13 0 -23 14.5t-10 31.5q0 5 9 21q11 23 45 77l20 32q0 22 4.5 32t18.5 10
q15 39 17 47l6 22q2 6 4.5 8t11.5 6q13 10 27 41q13 30 36 71q12 30 20 43l13 22.5t16 33.5q5 15 5 38v15q-10 1 -35 11t-25 21q0 8 8.5 13.5t25.5 11.5q24 8 32 10l36 9q20 17 34 17q18 0 30 -19.5t12 -45.5q0 -29 -17 -44q-12 -11 -38 -61q-29 -56 -34 -72q-1 -4 -7 -11
q-14 -18 -24 -36q-6 -10 -6 -17q0 -19 15 -28l45 9q28 6 44 6q36 0 45 -30v-49zM291 228q8 11 8 21q0 18 -14.5 33.5t-31.5 15.5q-19 0 -35 -9t-33 -25q-22 -22 -50 -63l-10 -20q-22 -37 -39 -76q-9 -19 -9 -27q0 -29 48 -34q59 9 77 50l4 20q5 25 20 46q8 12 25 29z" />
    <glyph glyph-name="c" unicode="c" horiz-adv-x="348" 
d="M266 276q-37 0 -56 -8q-12 -6 -18 -11l-23 -17q-6 -4 -10 -15l-8 -15q-54 -51 -54 -109q0 -45 39 -45q28 0 94 46q9 5 12 8q1 1 1.5 0.5t-0.5 -1.5q-2 -2 2 -2t11 -5.5t7 -13.5q0 -31 -62 -57q-13 -12 -36 -24q-47 -4 -90 -4q-20 0 -30 -1q-34 -2 -47 19q-8 13 -8 39
q0 14 4 30q6 22 12 28l108 140q2 1 17 17q15 15 44 22q17 4 27 13q11 8 29 12h44q7 7 22 7q20 0 41 -16q9 -7 14.5 -16.5t5.5 -18.5q0 -12 -10 -22.5t-23 -10.5q-22 0 -59 31z" />
    <glyph glyph-name="d" unicode="d" horiz-adv-x="427" 
d="M558 591q0 -11 -4 -22l-6 -20q-4 -4 -14 -16.5t-15.5 -23t-5.5 -19.5q0 -2 1 -3v-2l-4 -11q-9 -5 -19 -15q-9 -9 -22 -37l-13 -21l-57.5 -88t-49.5 -63q0 -18 -4 -25q0 2 -6 -6q-13 -15 -25 -37q-6 -10 -6 -18v-2l-4 -5q-3 -4 -4.5 -7.5t-3.5 -6.5l-9 -15q-5 -8 -5 -11
q-17 -11 -17 -34q0 -15 11.5 -23.5t24.5 -8.5q28 0 43 34q3 7 12 7t14 -4.5t5 -10.5q0 -10 -10 -17l-16 -11q-4 -17 -13 -27q-5 -6 -11 -8q-17 -4 -25.5 -9.5t-10.5 -6.5q-1 -1 -6.5 -5t-16.5 -4q-19 0 -37 8q-31 14 -40 35q-7 16 -13.5 19t-21.5 3h-8q-3 -1 -8 -1
q-24 -27 -57 -46q-35 -20 -51 -20q-4 0 -5 1q-40 33 -40 54q0 6 1 8q-2 14 -2 18q0 31 33 79l59 76q27 26 77 58q7 10 46 34q39 22 55 28q8 3 19 3q33 0 49 3q11 2 19 9t19 22q21 30 35 66q5 15 9 31q35 32 35 65q0 16 -8 20.5t-24 5.5q-17 0 -25 3.5t-8 16.5q0 24 35 28
q9 1 27 1q11 0 15.5 1.5t10 6.5t8.5 7q12 9 20 9q7 0 18.5 -4.5t22.5 -11.5q27 -18 27 -34zM300 277q0 19 -6 26q-1 -1 -4 4t-12 5h-4q-1 -1 -5 -1l-16 -7l-26 -13q-36 -17 -50 -17h-3q-4 -6 -12 -14q-4 -4 -10 -9.5t-16 -13.5q-25 -22 -36 -37q-13 -16 -13 -17l-9 -32
q-7 -25 -7 -50q0 -17 5 -28.5t14 -11.5q3 0 2 -1q3 3 8 6l27 16l51 15q32 9 41 41q30 20 50 47q31 45 31 92z" />
    <glyph glyph-name="e" unicode="e" horiz-adv-x="338" 
d="M343 302q0 -18 -21 -47q-24 -32 -73 -81q-4 -4 -6 -3q-1 1 -6 1q-8 0 -20 -4q-18 -6 -44 -19q-18 0 -32 -1q-8 -1 -20.5 -2t-29.5 -2q-27 -21 -27 -50q0 -17 12 -34q13 -20 34 -20q10 0 26 11q14 10 37 10q31 0 31 -19q0 -17 -19 -33q-20 -16 -36 -16h-63l-28 8
q-38 11 -40 11q-16 21 -22.5 38.5t-6.5 37.5q0 40 50 81l19 34q9 5 29 25q3 4 8 9t11 13q13 17 25 30l31 17q12 21 51 30q30 6 55 6q46 0 73 -24q2 -2 2 -7zM240 281q-11 3 -28 3q-5 0 -11 -2l-63 -48q-34 -25 -40 -51q13 -9 36 -9q33 0 55 19h-0.5t-0.5 1l7 7q3 3 18 16
t27 29q12 15 13 26q-1 6 -13 9z" />
    <glyph glyph-name="f" unicode="f" horiz-adv-x="239" 
d="M585 601q0 -29 -19.5 -47.5t-52.5 -18.5q-50 0 -74 59q-6 14 -20 14q-17 0 -42 -21.5t-51 -55.5q-23 -30 -44 -63.5t-30 -53.5q-11 -27 -28 -49q-5 -6 -8.5 -11t-3.5 -11q0 -12 8 -15.5t23 -3.5q29 0 57 2l18 2q35 0 35 -29q0 -15 -10 -24t-29 -9q-16 0 -32 2l-17 2h-49
l-4 1q-3 1 -13 1q-11 0 -14 -3t-6 -14l-12 -31q-10 -23 -31 -54q-9 -9 -23 -29l-21 -33l-35 -58q-20 -33 -50 -69l-9 -18q-5 -10 -28 -48q0 -11 -9 -32l-52 -58q-17 -16 -26 -23t-20 -12q-22 -8 -31 -11l-55 -20q-8 -4 -25 -4q-55 0 -74 30q-2 11 -7 24q-6 15 -6 27
q0 22 23 47q9 11 20 17.5t21 6.5q16 -2 26 -18l18 -29q20 -23 47 -23q43 0 100 81l23 37q6 10 9 21l5 16q9 11 24 33q3 15 15 41q53 69 69 132q15 17 29 41l3 21q-15 8 -15 20t17 29q16 15 32 16q6 6 18 23q10 13 21 52l19 29l13 36q15 15 36 46q21 33 42 54l23 22l31 31
q9 22 32.5 35.5t45.5 13.5q29 0 93 -10q45 -9 41 -8q18 -5 22 -7q17 -14 17 -41z" />
    <glyph glyph-name="g" unicode="g" horiz-adv-x="363" 
d="M276 138q-19 -30 -80 -144q-11 -11 -25 -35q-17 -30 -22 -54l-42 -27q-22 -58 -66 -93l-61 -34q-16 -15 -38 -26h-10q-8 0 -38 -2q-47 -15 -50 -15h-84q-34 13 -45 26q-11 11 -11 23q0 18 10 42l18 51q14 8 32 29t49 52q23 11 89 56q6 3 54 13q8 -5 8 -15q0 -7 -17 -21
q-19 -16 -45 -32q-54 -35 -69 -53q-17 -21 -17 -46q0 -7 1 -9q0 -9 -7 -16t-7 -20q0 -17 12 -25.5t32 -8.5q13 0 66 14l19 16l29 12l39 17q14 18 30 32q7 3 11 9q14 18 20 23q5 4 14 4q3 3 11 29q9 25 12 29l25 23q12 11 16 19l7 11q0 8 1 13v5q0 12 -8 17q-5 4 -19 4
q-28 0 -60 -8q-14 -5 -22 -6l-12 -3q-16 0 -24 7q-13 10 -13 35q0 42 41 113q25 13 46 38q6 8 12 17q5 8 10 13l18 28q12 18 27 18q12 -3 14 -3h6q7 0 10 3t6 12q0 1 4 5q8 11 20 17q6 3 14 3q6 0 18 -4q11 -4 33 -4q10 0 22 12l12 12q8 6 13 6q1 -1 6 -1q39 0 52 -33z
M258 244q0 15 -18 18q-12 -5 -26 -5q-18 -2 -23 -8l-33 -34q-7 -13 -16 -24q-15 -7 -28.5 -29.5t-13.5 -41.5q0 -16 11.5 -23.5t25.5 -7.5q31 0 65 48q15 23 27 46l26 47q3 8 3 14z" />
    <glyph glyph-name="h" unicode="h" horiz-adv-x="461" 
d="M408.5 54q-7.5 -11 -20.5 -20t-29.5 -14.5t-32.5 -5.5q-4 0 -8 -4q-3 -2 -11 -8t-16 -10t-17 -4q-6 0 -15.5 3t-17.5 9q-25 15 -25 37q0 28 35 75q3 22 16 53q50 71 50 95q0 33 -29 33q-30 0 -72 -33l-21 -6q-8 -8 -21 -15q-15 -18 -40 -58q-5 -30 -35 -92l-4 -31.5
t-9 -37.5t-17.5 -20.5t-31.5 -6.5q-19 0 -28 11t-9 37q0 34 15 52l16 20l9 13q4 5 9 17l13 28l18 41q14 26 30 51l54 97q13 28 16 40q3 3 5.5 6.5l4.5 6.5q15 19 21 44q3 15 3 36q0 13 -5.5 20t-14.5 13q-11 6 -15.5 10.5t-4.5 13.5q0 12 10 18.5t30 10.5q26 5 42 9t29 14
q23 16 26 17q8 2 10 2q27 0 27 -49q0 -14 -2.5 -21.5t-12.5 -17.5q-11 -11 -12 -17q-11 -44 -32 -81l-45 -84q-6 -8 -19 -21q-17 -15 -17 -19q0 -7 16 -13q19 22 85 28q8 8 26 8q32 0 46 -7q25 -14 25 -51q0 -16 -21 -51q-23 -17 -30 -37q-11 -28 -30 -57q-7 -11 -10.5 -19
t-3.5 -20q0 -15 9.5 -25.5t27.5 -10.5q16 2 26 14l26 27q11 -1 13.5 -6t2.5 -14q0 -12 -7.5 -23z" />
    <glyph glyph-name="i" unicode="i" horiz-adv-x="234" 
d="M264 586q20 0 20 -23q0 -17 -11.5 -27.5t-28.5 -10.5q-22 0 -22 22q0 15 10 26.5t25 12.5h7zM188 278q0 -8 -6 -26q-4 -15 -17 -32l-36 -51l-14 -41q-26 -26 -26 -41q0 -12 7.5 -18.5t18.5 -6.5q12 9 19 9q8 0 8 -11q0 -12 -8.5 -23t-20.5 -13q-19 -25 -75 -25
q-24 0 -39 7.5t-15 21.5q0 5 2 11q1 3 19 31q36 52 69 117q15 30 15 48q0 1 -5 3q-16 7 -23 15q-5 5 -5 14t21 25q18 15 61 36q15 0 39 -25q11 -11 11 -25z" />
    <glyph glyph-name="j" unicode="j" horiz-adv-x="244" 
d="M353.5 583q13.5 -12 13.5 -27q0 -2 -2 -10q-4 -10 -26 -35q-16 -18 -29 -24q-6 -2 -9 -1h-7q-10 0 -13 4.5t-3 15.5q0 89 47 89q15 0 28.5 -12zM209 305q0 -3 -27 -86l-15 -23l-12 -25q-8 -15 -19 -23q-5 -11 -16 -24q-13 -16 -14 -47q0 -6 -14 -28l-11 -14q-4 -6 -6 -6
h-1l-20 -29q-2 -13 -6 -28l-15 -20l-18 -36q-17 -20 -39 -54l-38 -49q-8 -15 -17 -19q-12 -8 -15 -15q-4 -8 -8 -13t-14 -9t-37 -9q-26 -28 -56 -33q-15 -3 -24 -2h-21q-27 0 -43 5q-6 0 -16.5 6t-19.5 15q-25 23 -25 38q0 7 15 21q3 2 8 8q14 18 21 24q8 5 15 5q13 0 18 -8
q9 -14 24.5 -23.5t31 -16.5t21.5 -10q-2 2 11 6q36 9 69 25q20 9 32 23l13 22l5.5 10.5l7.5 13.5q22 42 39 59q2 2 4 8q2 15 9 27q3 8 17 25q-1 1 -1 6q0 10 11 30l18 36q0 10 11 41l40 65q9 16 17 49q3 10 7 32q0 8 -12 11q-14 4 -18 7q1 12 36 35q13 9 27 15t21 6
q13 0 31 -9q16 -8 18 -15z" />
    <glyph glyph-name="k" unicode="k" horiz-adv-x="377" 
d="M360 533l-27 -31q-23 -53 -34 -74l-8 -10q-20 -23 -43 -56q-12 -17 -13 -21l-19 -21q-12 -14 -12 -22q0 -11 10 -11q4 0 6 1l14 6l10 6q32 18 54 27q15 6 24 6q14 0 25.5 -10.5t11.5 -30.5q0 -24 -12.5 -43.5t-36.5 -19.5q-11 0 -18 4t-15 12q-9 9 -14 12.5t-12 3.5
q-19 0 -39 -18q-20 -17 -27 -37q12 -64 34 -99q19 -31 53 -38q7 -3 9 -4q15 -6 20 -15q3 -6 3 -15q0 -18 -13 -30.5t-30 -12.5t-45 22q-10 8 -32 30l-27 33q0 44 -9 57q-11 14 -22 14q-15 0 -28.5 -16.5t-14.5 -34.5q0 -5 -39 -103q-8 -2 -11 -2q-30 0 -43.5 12.5
t-13.5 29.5q0 29 7.5 49t22.5 39q17 21 33 38q17 18 39 53q5 8 30 44l39 54q3 23 19 58l21 27q13 23 19 40q2 6 9 18q9 14 29 49q6 11 6 17q0 17 -28 29q-4 2 -12 5t-12 6.5t-4 8.5q0 8 6 13t23 11l44 14q27 7 70 24q2 1 8 1q14 0 28 -19q14 -21 14 -40q0 -8 -5 -16z" />
    <glyph glyph-name="l" unicode="l" horiz-adv-x="249" 
d="M287 450l-12 -27l-5 -12q-47 -56 -56 -96l-50 -88q-10 -10 -18 -22l-11 -25q-17 -32 -33 -70q-7 -15 -7 -22q0 -17 16 -32q12 3 20 3q13 0 13 -10q0 -2 1 -3t-1 -3l-10 -6l-23 -11l-41 -21q-30 -15 -51 -15q-20 0 -33 12t-13 28q0 14 14 34.5t26 34.5t15 18q22 28 37 59
l15 34l14 31q12 12 23 34q8 13 14 30l19 49q9 17 22 59q10 36 38 92q-6 6 -8 7q-28 7 -28 20q0 14 48 41q37 21 50 30t21 17q5 5 7.5 6t11.5 1q13 0 22.5 -15t9.5 -37q0 -40 -28 -71q-7 -8 -29 -54z" />
    <glyph glyph-name="m" unicode="m" horiz-adv-x="670" 
d="M732 106v-2q0 -8 -12 -18t-24.5 -18t-16.5 -11q-29 -17 -58 -27q-3 -2 -13 -9.5t-25.5 -13t-37.5 -6.5q-19 -1 -34 -8q-14 -6 -22 -6t-12 4q-46 28 -46 73q0 17 3.5 25t13.5 18q14 17 20 25q12 18 26 49l1 2l5 8l5 10l2 7q0 6 -3 7v3q0 16 -14 16q-48 0 -130 -64
q-6 -18 -14 -33l-45 -73q-2 -3 -3 -13q-3 -24 -23 -42q-10 -9 -29 -9q-44 0 -44 35q0 19 13 39.5t36 46.5l36 38q18 18 22 29q7 15 19 32q13 20 13 25q0 8 -7 14.5t-16 6.5q-13 0 -26 -5t-31 -15q-14 -8 -34 -21q-22 -13 -43 -24q-18 -18 -36 -38q-12 -15 -17 -23
q-5 -10 -21 -36q-1 -2 -11 -18l-5 -11q0 -28 -19 -52q-19 -26 -43 -26t-31 22q-4 7 -4 15l-1 9v2q0 2 9 15l48 79q31 53 47 87q8 18 8 23t-7 6q-23 2 -34 8q-8 3 -8 13q0 8 6 12q46 43 92 43q25 0 37 -11q15 -13 15 -54v-4q-1 -2 -1 -5h7q2 -1 6 -1q9 0 14.5 2.5t22.5 13.5
q43 30 83 52q24 11 35 11q22 0 36.5 -13t14.5 -43q0 -20 -8 -31q2 -5 5 -5l12 7l70 36q44 22 79 37q17 6 23 6q22 0 22 -24q0 -22 -15 -54q-16 -35 -32 -50l-36 -35q2 -10 2 -20v-11l-5 -13q-5 -13 -5 -18q0 -2 2 -10l-8 -10l-2 -6q0 -16 8 -25t17 -9q8 0 40 15l23 11
q12 5 14 5q17 1 27.5 8t19 17t12.5 14q17 -2 39 -6z" />
    <glyph glyph-name="n" unicode="n" horiz-adv-x="471" 
d="M508 97l-3 -9q-32 -26 -106 -56q-83 -36 -128 -36q-16 0 -26 14.5t-10 31.5q0 36 30 67q5 16 24 45q19 27 41 64q9 9 16 19.5t7 16.5t-6 9.5t-12 3.5q-5 0 -13 -3q-7 -3 -13 -3q-8 0 -12 7q-43 -4 -99 -45q-3 -5 -11 -11q-25 -19 -40 -37q-9 -10 -14 -27l-27 -88
q-26 -68 -61 -68q-20 0 -33.5 13.5t-13.5 29.5q0 20 37 73q15 22 25 33l10 13q4 15 26 46q21 32 21 39q0 12 -16 22q-6 -2 -7 -2q-23 0 -23 21q0 10 10 14l13 6q7 2 14 9q23 20 35 28q11 6 20 6q20 0 37 -15.5t17 -34.5q0 -7 -1 -9l14 -8q56 33 95 33q14 0 26 4t31 4
q63 0 63 -32q0 -16 -27 -47l-24 -26q-15 -17 -20 -25q-15 -38 -34 -70l-13 -23l-6 -12q0 -12 12 -26q3 0 4 1h5q6 0 10 -1t11 -1q11 0 25 9q57 34 110 57q4 -1 8 -7.5t4 -9.5z" />
    <glyph glyph-name="o" unicode="o" horiz-adv-x="384" 
d="M361 271q0 -14 -9 -25q-8 -11 -23 -45q-7 -19 -8 -22l-7 -17l-33 -65q-29 -54 -73 -82.5t-98 -28.5q-33 0 -63 12h-21q-27 23 -27 53q0 16 7 34q5 13 13 39q2 1 11 13q7 12 14 36l32 57q10 9 24 25l30 33l21 22q4 1 31.5 10.5t58.5 9.5q11 0 16 -11q10 2 20 2
q71 0 81 -30q3 -10 3 -20zM259 253q0 16 -9 28t-21 12q-16 0 -49 -29q-34 -30 -41 -49l-25 -22q-1 -21 -16 -55q-15 -32 -15 -53q0 -48 46 -52q8 2 27 15q21 13 42 35.5t37 51.5t16 69v10q-1 3 -1 9q0 7 2 9q7 7 7 21z" />
    <glyph glyph-name="p" unicode="p" horiz-adv-x="408" 
d="M397 251q-6 -15 -12 -25q-6 -9 -7 -10q-12 -7 -18 -16q-7 -8 -14 -26q-9 -9 -16 -20.5t-18 -36.5q-95 -113 -153 -113q-16 0 -30 8q0 16 21 25q17 6 22 10q6 3 9 6q6 4 16 8l11 20q14 6 42 53q25 41 30 69q23 15 23 31q0 13 -14 20l-12 4l-10 2q-5 -6 -22 -8
q-19 -2 -25 -11q-2 1 -9 1q-13 0 -21 -3t-15 -11q-10 -10 -16 -21l-23 -36q-6 -8 -13 -37q-1 -3 -3.5 -14.5t-5.5 -15.5q-15 -20 -26 -44l-1 -7l1 -9q0 -28 -8 -42q-4 -10 -16 -13l-42 -85q-16 -34 -23 -66q-4 -17 -5 -28l-7 -30q5 -14 15 -14l19 1q9 1 22 1q50 0 50 -25
q0 -12 -12 -31q-17 4 -48 4q-46 0 -71 -7l-17 -5q-10 -2 -13 -2q-14 0 -41 6l-28 4q-18 3 -25 16q0 11 6 18.5t17 14.5q10 6 15 8t8 5q28 37 36 53q4 9 7.5 19.5t4.5 15.5q17 23 38 58q6 26 32 92q16 33 28 70l5 20q1 3 2 8t10 19q13 19 36 67q8 21 8 30q0 15 -9 25
q-10 10 -10 22q0 16 23.5 42.5t39.5 34.5q14 6 30 6h7q7 0 11 -12l3 -20q2 -24 12.5 -34t23.5 -10q14 0 24 10l14 3q36 10 62 38q3 3 9 9.5t11 9.5t11 3h8q7 0 17 -11q6 -8 11 -19l18 -33l2 -9q0 -3 -2 -13q-10 -16 -10 -17z" />
    <glyph glyph-name="q" unicode="q" horiz-adv-x="424" 
d="M371 269l-20 -58q-28 -83 -43 -103q-12 -14 -22 -49q-9 -29 -10 -39q-14 -12 -26 -36q-14 -28 -14 -47q0 -8 1 -10q-28 -37 -49 -146q8 -30 37 -30h19q28 0 33 -32q-3 -10 -29 -10h-95l-12 -1l-59 -4q-11 -1 -25 -1q-33 0 -48 6t-15 22t27 16l21 -2l20 -3q1 0 9 9
q17 24 31 48v3q-1 1 -1 3q0 9 3 21q15 18 27 39q9 16 38 77q7 39 16 69l27 50h-1q0 -1 -1 -1q-3 0 -6 3l-6 3h-8q-19 0 -71 -36q-37 -26 -36 -25q-16 -12 -22 -12l-8 2l-16 28l-24 24q0 1 -14 34q3 20 17 34q11 11 19 25l12 23q11 6 48 49l28 32q14 15 15 16l15 32
q15 23 26.5 31.5t29.5 8.5q11 0 26 -3q9 3 34 5q2 -1 20 -8l28 -11q5 12 22 50q22 6 39 6q37 0 37 -26q0 -24 -32 -45q-2 -3 -12 -31zM302 278q-14 14 -52 15l-34 -16q-10 -5 -14.5 -9.5t-6.5 -10.5q-1 -5 -11 -18q-16 0 -22 -23q-5 -18 -12.5 -32.5t-14.5 -24.5
q-15 -22 -15 -46q0 -13 6 -22q16 0 26 5l9 5q2 -1 10 -1q32 0 66 31q3 7 7 21q1 6 2 10.5t2 7.5l15 22z" />
    <glyph glyph-name="r" unicode="r" horiz-adv-x="313" 
d="M377 276q0 -16 -16.5 -31.5t-32.5 -15.5q-5 0 -12 4.5l-10 6.5q-18 11 -26 11t-18 -7l-13 -9q-26 -19 -38 -23q-10 -14 -37 -39l-39 -36q-11 -8 -20 -33l-19.5 -52t-21.5 -45q-12 -21 -28 -21t-28.5 14t-12.5 29q0 24 41 77l25 51l38 61q10 16 10 26q0 4 -7 8l-15 9
q-9 5 -16 10t-7 8q0 6 8 17q16 10 18 11q23 16 45 27q12 5 23 5q17 0 38 -21q8 -9 13 -19t5 -17q0 -6 -1 -7q10 -7 20 -7q11 0 35 30q25 29 42 29q7 0 19 -5q10 -7 32 -30q6 -7 6 -16z" />
    <glyph glyph-name="s" unicode="s" horiz-adv-x="305" 
d="M256 234l-6 2q-43 27 -66 27q-26 0 -26 -33q0 -11 43 -33q15 -8 22.5 -17.5t13.5 -22.5q9 -25 10 -27q6 -20 13 -35q6 -10 6 -20q0 -22 -25 -45q-26 -25 -50 -32l-95 3l-16 -2q-52 0 -84 50q-1 1 -1 7q0 17 15 37t30 20q6 0 18 -12q38 -40 54 -54q13 -12 25 -12
q16 0 31 15t15 32q0 16 -19 31l-20 17l-12 17l-18 24q1 1 1 5q0 7 -8 21q-6 11 -8 16.5t-2 13.5q0 38 20 67q3 3 11 7l19 11q30 17 38 24l25 6q8 2 10 2q11 0 25 -5.5t26 -14.5q28 -21 28 -43q0 -18 -21 -35q-16 -12 -22 -12z" />
    <glyph glyph-name="t" unicode="t" horiz-adv-x="284" 
d="M293 237l-46 2l-48 2h-14q-9 0 -13 -1q-43 -64 -63 -124l-2 -4l-5 -11q-8 -18 -8 -26q0 -7 5.5 -15.5t15.5 -8.5q9 0 22 6l12 4l6 1q6 -4 6 -11q0 -12 -10.5 -22t-23.5 -11q-18 -21 -58 -21q-29 0 -47.5 13t-18.5 33q0 13 8 27q15 27 20 39q0 8 9 27q21 42 38 86
q8 24 8 38q0 3 7 10q26 32 31 39q6 8 8 15l12 22q5 16 7 20q6 22 21 37q8 6 18 6h4l30 -8v-6q0 -11 -6 -39l-5 -19l-2 -11q0 -14 11 -25.5t35 -11.5q13 0 24 1t23 1q43 0 43 -28q0 -1 -2 -15q-14 -11 -52 -11z" />
    <glyph glyph-name="u" unicode="u" horiz-adv-x="409" 
d="M391 280q0 -18 -35 -76q-17 -29 -23 -37q-7 -10 -10 -13q-1 -3 -8 -12q-13 -14 -25 -35q-6 -9 -6 -16q0 -15 9 -23.5t24 -8.5q17 0 37 7q8 -5 8 -11q0 -9 -18 -23q-19 -14 -47 -29q-10 -2 -27 -2l-31 -2q-17 0 -25 5q-4 1 -8 7q-3 3 -5.5 6.5l-4.5 6.5l-19 26q-3 0 -4 1
h-4q-11 0 -25 -6l-10 -10q-23 -21 -53 -33q-17 -7 -38 -7q-43 0 -43 42q0 53 73 168q5 8 5 15q0 14 -29 37q-4 3 -4 7q0 7 13 20l15 16q16 26 22.5 32.5t19.5 6.5q9 1 35 -11q18 -9 23 -17.5t5 -19.5q0 -12 -3 -20t-10 -22l-15 -26q-7 -12 -19 -39q-12 -28 -21 -42l-14 -23
q-7 -10 -9.5 -15t-2.5 -15q0 -9 5 -15t16 -6q13 0 49 9l28 6l15 3q9 14 25 36l48 81q18 26 27 37q14 16 15 27l-2 16q-3 12 -3 19q0 23 22 23q29 0 52 -20q10 -10 10 -25z" />
    <glyph glyph-name="v" unicode="v" horiz-adv-x="397" 
d="M370 249l-73 -96l-11 -11l-30 -33q-25 -28 -41 -28q-1 0 -7 2q-3 -3 -12.5 -14.5t-22 -18t-28.5 -6.5h-6q-22 0 -27 1q-8 0 -14 -3t-16 -11q-14 -12 -34 -27q-9 -6 -17 -6q-11 0 -19.5 7.5t-8.5 21.5q0 24 21 25q18 21 33.5 53.5t41.5 96.5q0 38 -24 38l-13 -2l-17 -5
l-17 -5q-8 -3 -11 -3q-10 0 -10 13q0 7 5 27q28 8 41 13q15 21 42 36t56 15q26 0 43.5 -18t17.5 -44q0 -18 -10 -29l-31 -38l-4 -20l-7 -9q-16 -18 -27 -37q-6 -10 -6 -18q0 -19 29 -21q20 10 37 33l22 34l8 12q17 26 32 44q8 9 11 9q12 12 17 33q7 36 24 49t58 13
q43 0 43 -27q0 -12 -10 -28q-10 -4 -28 -18z" />
    <glyph glyph-name="w" unicode="w" horiz-adv-x="462" 
d="M476 292q0 -10 -12 -42l-9 -23q-4 -9 -4 -13q-5 0 -12.5 -9.5t-11 -15.5t-4.5 -8l-34 -51q-18 -27 -59 -60l-20 -14l-15 -9q-7 -4 -9 -4t-2 1q-2 -5 -9 -8l-20 -10l-35 -16q-19 -10 -37 -10h-3q-11 -11 -25 -11q-27 0 -27 34v5q0 5 1 8v11q0 19 -20 19q-14 0 -26 -26
q-13 -16 -29 -24q-13 -7 -19 -7t-13 4t-9 5q-13 4 -13 17l20 103q0 10 21 46t21 42q0 7 -4 11t-14 10q-10 5 -14.5 9.5t-4.5 12.5q0 11 10 17q2 1 6 3.5l10 6.5q30 19 52 28q15 5 28 5q17 0 29 -3q20 -5 20 -17q0 -23 -34 -57q-2 -11 -14 -34q-43 -46 -43 -86q0 -18 11 -18
l7 1q18 2 38 19q10 9 16 25q8 21 10 25q5 11 15 21q2 2 11 12l10 23q7 21 25 21q19 0 38 -12q19 -14 19 -30t-33 -49q-10 -10 -24 -22l-15 -12q-21 0 -31 -11t-10 -37q0 -12 5 -29q2 -8 5 -13q2 -5 5 -5q28 3 54 19t47 40q20 19 30 36q10 14 10 13q13 16 16 38q1 5 19 27
l12 15l6 9q-1 3 -1 14v18q0 27 12 46q6 9 18 9h48q14 -14 14 -33z" />
    <glyph glyph-name="x" unicode="x" horiz-adv-x="472" 
d="M457 228q-10 -16 -25 -16q-9 0 -18 6q-21 35 -46 35q-7 0 -14 -3q-8 -3 -28 -18.5t-30 -25.5q-9 -7 -13 -14q-4 -5 -4 -10v-8q0 -9 16 -35q42 -74 95 -74q23 0 39 16q25 0 25 -22q0 -18 -15 -27l-15 -8q-12 -6 -17 -11q-13 -11 -19.5 -13.5t-14.5 -2.5q-52 0 -93 54
l-29 37q-17 21 -36 23q-8 0 -19 -6q-8 -2 -9 -1h-2q-2 0 -7 -3q-8 -6 -18 -16q-16 -14 -39 -40q-2 -1 -20 -14q-26 -22 -48 -32q-13 -6 -30 -6q-58 0 -69 53q1 1 7 31q12 10 13 20q1 4 3 15.5t9 18.5q5 6 22 6q25 0 35 -19l4 -18q5 -16 15 -21h40q6 2 12 6l20 19
q28 25 49 54q10 13 10 23q0 20 -14 31q-9 25 -14 33q-14 21 -24 21q-24 0 -52 -28q-3 -4 -10 -4q-10 0 -20.5 9.5t-10.5 19.5q0 7 5 12l19 10q8 5 14 17q7 12 9 14q19 13 54 13q49 0 99 -71q9 -6 18 -6q10 0 20 5t21 12.5t16 10.5q20 13 40 20t47 7q57 0 57 -44
q0 -19 -10 -35z" />
    <glyph glyph-name="y" unicode="y" horiz-adv-x="424" 
d="M436 286q0 -12 -7 -30q-8 -18 -23 -34q-74 -83 -120 -123q-49 -43 -65 -60l-80 -91q-39 -46 -94 -89l-22 -12q-18 -10 -25 -22l-68 -45q-38 -26 -84 -54q-19 -13 -63 -13q-39 0 -58.5 11.5t-19.5 41.5q0 14 6.5 30.5t17.5 29.5q26 31 54 31q9 0 41 -24q15 -12 24.5 -18
t16.5 -6q24 0 86 47l31 11l9 10q5 6 14 14q10 8 51 47l24 24q10 10 10 14q0 15 -18 23q-27 10 -37 20q-9 9 -9 21q0 15 22 52q20 34 39 51q12 10 23 33l9 24l12 31l2 8q0 11 -10 17.5t-20 6.5q-30 0 -59 -30h-14q-4 0 -4 6q0 14 16 29t38 25l9 9q15 17 29 24q7 4 18 4
q25 0 53 -21q12 -10 19.5 -23t7.5 -26q0 -24 -53 -101l-36 -52q-17 -23 -17 -29q0 -26 20 -26q14 0 38 21l31 32q24 16 74 79q1 1 3.5 4.5t6.5 11.5l19 29q33 54 45 71q9 14 20 27q7 10 12 10q6 0 24 -8q14 -7 20 -13q11 -14 11 -30z" />
    <glyph glyph-name="z" unicode="z" horiz-adv-x="322" 
d="M466 -97q0 -35 -19 -55.5t-58 -20.5q-8 0 -54 2q-4 0 -24 9q-22 8 -27 8h-2l-2 -1q-5 8 -18 15l-18 12q-7 7 -13 22q-8 18 -20 55q-13 4 -35 29q-32 34 -39 39q-6 4 -14 5t-17 1q-18 0 -34 -6.5t-43 -19.5q-25 3 -25 30q0 12 4 20q80 20 102 76q27 8 56 44l44 55
q-1 1 -1 6q0 6 -1 9q-13 5 -20 16q-10 11 -22 14h-42q-29 -5 -41 -30l-19 -41q-18 0 -26 6t-8 21q0 28 28 77l25.5 16t35.5 19.5t26 6.5t21 -6t25 -18q16 -13 24 -19t17 -6q13 0 47 16q4 2 20 8.5t25 6.5q13 0 21.5 -11.5t8.5 -24.5q0 -38 -34 -38q-8 0 -10 1
q-11 0 -21 -5.5t-23 -23.5q-5 0 -11 -11q-4 -6 -5 -9l-3 -6q-13 -15 -31 -28q-43 -31 -62 -47q-11 -10 -13 -20q5 -18 47 -66q20 -24 28 -32l13 -15l3 -7q9 -21 42 -52q13 -12 25 -20t18 -8q14 2 28 21q12 17 23.5 22t41.5 5q37 0 50 -15q6 -11 6 -31z" />
    <glyph glyph-name="braceleft" unicode="{" horiz-adv-x="384" 
d="M385 690q-35 0 -35 29q0 3 1 4v3l-9 8l-13 1q-8 2 -10 2q-27 0 -66 -43l-17 -10q-17 -17 -52 -63v-1l-1 -2l5 -16q21 -57 29 -77q3 -10 16 -43q10 -29 13 -35l5 -16q-22 -52 -40 -83t-37 -45l-38 -28q-13 -12 -13 -22t17 -33q0 -8 4 -21q14 -57 17 -72q4 -19 4 -37
q0 -24 -6.5 -40.5t-23.5 -30.5l-20 -12q-45 -26 -70 -42q-17 -11 -25 -21q-2 -1 -8 -3.5t-11 -8.5l-12 -15l-22 -28q-8 -40 -8 -59q0 -9 2 -13.5t7 -13.5q6 -12 6 -20v-1l-1 -2q37 -21 48 -21q13 0 21 7.5t17 21.5q8 14 15.5 21.5t20.5 7.5q15 0 32 -23q15 -23 15 -31
q0 -21 -32 -40q-31 -17 -66 -17q-9 0 -14 1t-10 4q-5 2 -11 6q-4 3 -21 10q-19 8 -25 14q-7 6 -9 11q-2 6 -2 7q-2 2 -7 2q-5 8 -8 17l2 8q-5 6 -6 10q0 1 -1 3.5t2 4.5q-7 1 -7 8q0 4 1 7l1 6q0 6 -6 11q6 9 6 21q0 10 -1 15t-1 11t9 22q12 22 17 35q10 8 18 26
q50 38 79 78.5t29 73.5q0 4 -2 14q6 18 6 30q0 17 -19 45q-22 3 -22 15q0 4 14 21q37 43 59 64l14 14l10 8q18 50 18 86q0 16 -5 36q2 8 2 10q0 6 -4 15l-17 51q-4 12 -4 21q0 10 18 71l16 14q12 39 44 73q28 30 63 43l60 22q15 0 25 -1q41 -4 34 -4q13 -15 31 -20l18 -19
q-12 -37 -53 -37z" />
    <glyph glyph-name="bar" unicode="|" horiz-adv-x="113" 
d="M135 405l-79 -275l-27 -96l-11 -38q-8 -3 -19 -10q-13 -8 -16 -8q-5 0 -6 3q6 26 31 99l18 51q9 28 11 38v13q0 13 7 37l12 31q9 21 12.5 36l6.5 29l9 36q7 26 22 63l60 225q19 13 34 13q7 0 11 -4q-28 -78 -76 -243z" />
    <glyph glyph-name="braceright" unicode="}" horiz-adv-x="498" 
d="M380 -120q-12 -20 -17 -30q-4 -7 -4 -12v-2q-9 -5 -14 -18t-15 -14q2 -2 2 -3t-17 -15l-2 -8l-18 -17q-6 0 -14 -9l-12 -9q-26 -19 -64 -30q-18 -7 -40 -7q-28 0 -49 11.5t-21 29.5q0 15 18 32q4 2 10 8q13 11 35 25q12 5 19 5q22 0 22 -25q0 -12 -4 -20q7 -13 23 -13
q11 0 60 21l5 8q2 4 11 13q20 18 30 35q8 16 10 22l12 31q-4 5 -4 12q0 6 1 9t1 7q0 11 -8 16q-10 5 -11 11q-3 9 -15 21q-36 34 -52 53q-11 14 -11 25q0 28 52 95q26 34 39 49q14 16 26 33q38 29 38 43q0 5 -25 40q-11 17 -11 56q0 40 7 72l10 11q10 12 21 23q11 13 35 39
q9 8 25 26l32 34l53 57q0 15 -16 63l-11 10q-15 43 -41 43l-12 -2l-13 -1l-14 -8q-16 -36 -54 -36q-33 0 -33 27q0 8 1 10l28 19q15 3 19 6l11 7l23 7q18 4 52 5l47 -22q23 -12 33.5 -33.5t10.5 -61.5v-11q0 -4 -2 -10l7 -14q-1 -9 -6 -23q-8 -23 -10 -33q-4 -14 -45 -61
l-27 -32q-13 -14 -13 -19q-43 -48 -57 -122l5 -8v-1l-1 -2q0 -5 6 -16l11 -25l12 -26q5 -13 5 -18q0 -21 -33 -26l-20.5 -17t-21.5 -22q-5 -7 -8 -16t-6 -20q-23 -26 -23 -66q0 -34 15 -61v-2q0 -7 10 -23l7 -10l2 -4v-4q-1 -2 -1 -5q0 -10 4 -17q0 -18 -6 -52q0 -3 -4 -8z
" />
    <glyph glyph-name="asciitilde" unicode="~" horiz-adv-x="245" 
d="M186 484q-16 -18 -46 -23q-25 -4 -58 -18l-14 -7q-6 -3 -12 -3q-3 0 -11 3q-9 3 -19 3h-65q-6 0 -14 -3q-7 -4 -16 -4q-14 0 -28 6l-46 19q-33 0 -48 3q-26 5 -38 22q10 22 50 22h50l23 -1q15 -1 58 -1h111l54 14q34 13 34 36q0 25 -24 35q-28 11 -38 20.5t-10 24.5
q0 22 27 39q26 16 54 16q31 0 52 -33q18 -30 18 -62q0 -41 -26 -79q-10 -20 -18 -29z" />
    <glyph glyph-name="Adieresis" unicode="&#xc4;" 
d="M839 677q-9 0 -16 42q0 16 21 32q20 16 36 16q31 0 31 -31q0 -37 -44 -46q-22 -13 -28 -13zM733 681q-6 0 -15 11t-9 34q0 16 22 29l16 8l10 3q15 0 24.5 -11.5t9.5 -26.5q0 -30 -33 -38q-16 -9 -25 -9zM726 387l-12 -30l-35 -66q-14 -37 -46 -98q-8 -23 -26 -63l-14 -34
q-6 -16 -6 -19q0 -13 8.5 -18.5t26.5 -11.5q19 -7 27 -11t8 -13q0 -13 -15 -21t-38 -8l-37 3h-7q-34 0 -95 10q-3 1 -14 1t-31 -2l-10 -2t-10 -1q-13 0 -22 13q8 38 40 38l24 -2l20 -3q12 0 33 26q21 28 22 44q14 9 22 31q4 11 4 26v5q18 38 18 54q0 5 -3.5 8.5t-6.5 3.5h-6
q-2 -1 -7 -1q-13 0 -39 4q-19 3 -29 3q-44 0 -61 -44q-14 -18 -55 -53q-44 -39 -110 -113q-3 -3 -10.5 -5.5l-10.5 -3.5q-17 -6 -22 -15q-9 -3 -20 -8q-19 -9 -47 -24l-44 -11q-12 15 -20 15h-6q-2 -1 -6 -1q-26 0 -43.5 24t-17.5 57q0 27 16 48.5t40 21.5q21 0 40 -19
l50 -51q4 -4 19 -4q51 0 71 17q8 6 17 20l15 28q10 1 18.5 6t13.5 21q9 4 17 10t22 21l37 39l67 68q38 38 55 61l20 27q13 18 24.5 30.5t34.5 30.5q19 11 36 37q23 34 45 53q11 11 24 21q12 9 30 29q10 17 16.5 25t13.5 9q0 2 2 2q3 0 13 -10q13 -14 48 -38
q-15 -39 -76 -187zM653 441.5q-6 4.5 -12 4.5q-2 0 -3 -1l-25 -25q-8 0 -18 -7q-12 -9 -25 -27l-41 -52q-17 -2 -17 -20t54 -18q45 0 63 54v3q-1 1 -1 3q0 3 2 17q30 54 30 59q-1 5 -7 9.5z" />
    <glyph glyph-name="Aring" unicode="&#xc5;" 
d="M955 737q0 -9 -2 -11.5t-7 -5.5l-10 -8q-6 -6 -10 -20q-11 -23 -14 -28q-4 -6 -7 -8l-12 -10l-40 -30q-8 -6 -40 -23q-1 0 -17 -10q-8 -5 -8 -8q0 -12 4 -27l-78 -191l-35 -66q-14 -37 -46 -98q-8 -23 -26 -63l-14 -34q-6 -16 -6 -19q0 -13 8.5 -18.5t26.5 -11.5
q19 -7 27 -11t8 -13q0 -13 -15 -21t-38 -8l-37 3h-7q-34 0 -95 10q-3 1 -14 1t-31 -2l-10 -2t-10 -1q-13 0 -22 13q8 38 40 38l24 -2l20 -3q12 0 33 26q21 28 22 44q14 9 22 31q4 11 4 26v5q18 38 18 54q0 5 -3.5 8.5t-6.5 3.5h-6q-2 -1 -7 -1q-13 0 -39 4q-19 3 -29 3
q-44 0 -61 -44q-14 -18 -55 -53q-44 -39 -110 -113q-3 -3 -10.5 -5.5l-10.5 -3.5q-17 -6 -22 -15q-9 -3 -20 -8q-19 -9 -47 -24l-44 -11q-12 15 -20 15h-6q-2 -1 -6 -1q-26 0 -43.5 24t-17.5 57q0 27 16 48.5t40 21.5q21 0 40 -19l50 -51q4 -4 19 -4q51 0 71 17q8 6 17 20
l15 28q10 1 18.5 6t13.5 21q9 4 17 10t22 21l37 39l67 68q38 38 55 61l20 27q13 18 24.5 30.5t34.5 30.5q19 11 36 37q23 34 45 53q11 11 24 21q12 9 30 29l11 18q-15 16 -15 34l2 12q-2 16 -2 26q0 11 6 15l4 2q2 2 2 3l-1 4l-2 4q0 4 3 7l11 7q27 19 50 40q21 10 78 14
q14 1 36 1h11q52 0 52 -36zM869 694q0 8 -9 12.5t-22 4.5q-27 -1 -49 -16q-7 -5 -17 -15l-17 -16v-2l-1 -2q0 -5 3 -11l15 -15q6 -6 13 -6q3 0 10 4l28 13q8 3 10 3h2q16 16 34 45v1zM660 432q-1 5 -7 9.5t-12 4.5q-2 0 -3 -1l-25 -25q-8 0 -18 -7q-12 -9 -25 -27l-41 -52
q-17 -2 -17 -20t54 -18q45 0 63 54v3q-1 1 -1 3q0 3 2 17q30 54 30 59z" />
    <glyph glyph-name="Ccedilla" unicode="&#xc7;" horiz-adv-x="487" 
d="M188 -77q-9 -19 -23 -36q-19 -3 -39 -21q-31 -27 -53 -35l-26 -9q-6 -2 -15 -4.5l-23 -6.5q-8 5 -11 5l-6 -2q-16 13 -16 36q0 9 6.5 26t16.5 34q10 18 22 29.5t23 11.5l8 1h7q12 0 19 -6q5 -5 5 -16q0 -9 -3 -15l-18 -12q-15 -11 -15 -18q0 -17 19 -17q10 0 43 31
q14 10 24 21q9 9 13 11l5 5q9 6 17 19q4 5 4 13v3q-66 4 -115 35q-18 12 -34 15q-24 26 -24 64q0 12 3 22q12 20 23 41q16 36 17 57q0 9 10 22q9 11 19 38l13 37q16 4 29 30q2 4 7.5 16t12.5 16q1 19 50 60l11 22q17 9 31 26q13 6 29 19q32 27 69 40q26 9 57 10q8 0 48 4
l22 2q14 -3 36 -4q14 -11 37 -14q42 -6 58 -23.5t16 -56.5q0 -44 -38 -44q-2 0 -10.5 -0.5t-16 5.5t-15.5 18l-26 20q-4 8 -21 25l-51 8q-4 1 -12 5q-8 2 -10 2h-3q-20 -11 -51 -13q-8 -1 -21 -1q-11 0 -14 -1l-16 -25l-48 -15l-5 -6q-6 -11 -15 -21q-4 -6 -11 -9
q-6 -1 -11 -5q-4 -3 -6 -23q-15 -15 -25 -30t-12 -40q-21 -21 -21 -41v-5q-27 -40 -27 -105q0 -21 8 -40.5t22 -33.5q31 -33 76 -33q21 0 41 11q17 0 67 8l67 36q30 21 43 21q10 0 10 -12q0 -9 -6 -15.5t-18 -13.5q-14 -8 -23 -16t-15 -21q-11 0 -31 -17q-13 -10 -31 -18
t-37 -14q-25 -9 -42.5 -17t-33.5 -21q-12 -13 -20 -29z" />
    <glyph glyph-name="Eacute" unicode="&#xc9;" horiz-adv-x="429" 
d="M431 633q-3 -1 -6 -8q-10 -16 -18 -24q-4 -4 -12 -6q-17 3 -17 13q0 8 3 12.5t10 8.5q14 8 25 32l4 9q0 4 3 8l10 14l23 28l10 21q6 14 18 20q5 4 14 5q10 2 23 6q21 -10 21 -29v-3q-1 -1 -1 -4q-26 -29 -110 -103zM422 387q-45 0 -45 61v5q0 2 -4 2q-5 0 -17 -3
q-14 -3 -17 -3q-2 0 -3 1h-2q-5 0 -17 -12l-8 -8l-3 -4q-37 -18 -37 -52q0 -21 25 -65l17 -29l7 -14q0 -26 -32 -26q-27 0 -50 23q-5 5 -14 5q-21 0 -39 -23l-25 -15l-10 -10q-4 -5 -15 -14q-26 -19 -38 -53q-8 -22 -8 -49q0 -26 48 -39q45 -12 120 -12q20 0 44 21
q11 11 32 20q17 5 25 14h3q18 0 18 -18q0 -5 -4 -9q-47 -38 -63 -47q-12 -7 -24.5 -9.5t-15.5 -2.5q-14 -9 -44 -20h-9q-14 0 -35 -3q-19 -4 -47 -4q-22 0 -40 7v-1v0.5t-1 0.5q-2 0 -8 -3q-9 -4 -30 -4q-25 0 -46 31q-8 11 -12 22.5t-4 17.5q0 32 31 78l49 74q6 9 21 22
l21 16q30 28 76 47l7 4q13 5 23 15q5 5 5 11q0 12 -5 27t-5 25q0 25 8 43q25 49 52.5 70t71.5 21h43q36 0 63 -19q29 -20 29 -49q0 -64 -62 -64z" />
    <glyph glyph-name="Ntilde" unicode="&#xd1;" horiz-adv-x="704" 
d="M668 636q-10 0 -32 8l-19 12q-16 10 -29 10h-4q-1 -1 -5 -1l-11 -2q2 0 -22 -2q-18 -1 -18 -14q-11 0 -19 -14l-7 -11l-5 -8q-3 2 -9.5 4t-10.5 3q2 13 11 29l16 28q19 33 55 33q12 0 58 -12l31 -9q12 -4 18 -4t14 9t8 14q0 3 -8 8q-8 3 -8 11q0 14 9 24q14 16 39 16
q35 0 35 -34q0 -17 -12 -35q-46 -63 -75 -63zM973 591q0 -18 -10.5 -35t-27.5 -17q-27 0 -31 10q-17 44 -56 44q-46 0 -72 -50q-8 -3 -21.5 -17.5t-22.5 -27.5q-11 -15 -15 -26l-10 -20l-47 -59q-23 -33 -28 -56l-23 -29q-5 -13 -15.5 -30t-21.5 -27q-2 -24 -20 -66
q-21 -48 -36 -64l-32 -86l-6 -23q-5 -17 -14.5 -24.5t-24.5 -7.5q-16 0 -27 12q4 25 4 59q0 18 -3 49l-6 65l-6 64q-3 29 -3 43q0 12 1 18t1 18q0 8 -4 15t-12 7q-3 0 -12 -11q-20 -23 -38 -54q-7 -12 -9 -19l-7 -5q-13 -6 -22 -17q-5 -5 -5 -10v-2q-11 -9 -16 -21.5
t-11 -35.5q-4 -1 -10 -15q-1 -2 -4 -10l-2 -6q-27 -27 -84 -95q-13 0 -32 -19q-20 -20 -33 -20h-15q-7 0 -18 -3q-10 -3 -17 -3q-23 0 -36 20t-13 51q0 22 11 46q11 22 25 22q5 0 12 -9q26 -29 39 -38q10 -9 22 -9q8 0 13 4t17 9q10 0 16.5 3t11.5 18q5 14 13 19l9 4
q5 2 11 6q8 12 19 26q42 59 66 103q15 27 18 46q10 11 16 46q1 6 10 20t12 19q20 32 20 41q0 13 -6.5 19t-18.5 11q-4 2 -8 3.5t-9 4.5q-8 3 -8 13q0 13 35 22q29 6 48 6q17 0 27 -3.5t16 -11.5q5 -8 8 -22.5t6 -32.5q15 -10 15 -30v-8q-1 -3 -1 -9q0 -19 10 -29v-58
q3 -15 8 -80q0 -10 -1 -17l-2 -16q0 -22 24 -33l17 34q35 69 59 121q14 32 18 52l12 5h2l5 10q28 60 43 86q36 66 70 103q18 19 40 31l5 7q3 3 5.5 7.5t5.5 8.5q7 7 21.5 9t19.5 3q17 3 28 6.5t21 12.5q1 1 5 1q3 0 21 -8l20 -10l12 -4l26 -10q13 -13 13 -34z" />
    <glyph glyph-name="Odieresis" unicode="&#xd6;" horiz-adv-x="528" 
d="M419 677q-8 0 -16 42q0 16 21 32q20 16 36 16q31 0 31 -31q0 -37 -44 -46q-22 -13 -28 -13zM313 681q-6 0 -15 11t-9 34q0 16 22 29l16 8l10 3q15 0 24.5 -11.5t9.5 -26.5q0 -30 -33 -38q-16 -9 -25 -9zM506 347q0 -77 -33 -115q-5 -5 -14 -50l-81 -101q-12 -16 -28 -32
q-29 -29 -47 -30q-28 -3 -54 -16t-45 -28h-9q-11 0 -18 -1t-22 -1l-21 -2q-7 -1 -15 -1q-35 0 -55 17q-3 10 -7 28q-5 24 -24 46q0 2 1 3v4v5q-1 1 -1 6q-6 15 -12 77q-2 13 -4 44l-1 24q0 17 6 27v59q0 9 14 29q20 24 36 57q13 26 36 57q13 16 23.5 27.5t19.5 17.5
q20 13 62 30l12 8q10 6 13 6h119q2 0 11 -6q18 -14 46 -27q14 -6 24 -6q13 0 23.5 -19t32.5 -67q12 -28 12 -70zM414 393l-9 13l-10 11l-4 5q-6 57 -90 76h-4q-9 0 -35 -12l-46 -22q-10 -4 -24 -26l-16 -15q-16 -14 -30 -43q-7 -15 -15 -39l-12 -34q-9 -22 -12 -37
q-2 -14 -2 -28q0 -42 -1 -55l-4 -28l-3 -12q-1 -2 -1 -7q1 -46 21 -82q20 -37 45 -37q13 0 26 9q18 2 42 8q6 3 11 7l32 22l9 5h1q8 12 20 24q31 31 47 54q12 18 20 42l18 44q7 16 9.5 31t3.5 19q19 12 19 48q0 14 -1 25t-1 26q0 3 -4 8z" />
    <glyph glyph-name="Udieresis" unicode="&#xdc;" horiz-adv-x="563" 
d="M509 677q-8 0 -16 42q0 16 21 32q20 16 36 16q31 0 31 -31q0 -37 -44 -46q-22 -13 -28 -13zM403 681q-6 0 -15 11t-9 34q0 16 22 29l16 8l10 3q15 0 24.5 -11.5t9.5 -26.5q0 -30 -33 -38q-16 -9 -25 -9zM44 281q10 17 16 26l22 34q4 7 4 18q0 9 1 14t5 12l9 15
q13 19 13 27q0 13 -10 23t-21 10q-6 0 -11 -3q-3 3 -12 4q-10 1 -10 10q0 25 36 25q10 0 18 -3.5t14 -6.5q3 -3 9 -7q3 -4 7 -4q7 0 11 4q7 4 15 8h4q19 10 46 10q12 0 27 -5q13 -5 24 -5q5 0 16 3l26 6q3 1 9 1h7q22 0 28 -10q-8 -38 -34 -38q-9 0 -24 4q-16 3 -26 3
q-21 0 -39.5 -18.5t-27.5 -53.5q-21 -21 -52 -91q-10 -20 -22 -48l-9 -21l-21 -45l-2 -9q-3 -8 -8 -37l-2 -8q1 -1 1 -13q0 -20 32 -41q40 -26 117 -26q35 0 66 10q36 11 52 29l31 38q13 17 16 34q4 22 15 45l36 49q27 42 30 78q33 23 52 77q-5 7 -5 13q0 3 2 9t2 8
q0 5 -6.5 8.5t-22.5 8.5q-30 8 -30 27l2 12h10q3 -1 9 -1q27 0 63 3q5 0 25 -10h6q10 0 25 -5q5 2 22 15q3 3 9 7l5 3q2 0 2 -3q10 7 29 7q32 0 32 -21q0 -16 -30 -27q-63 -19 -91 -49q-20 -20 -22 -38q-6 -4 -9.5 -14.5t-4.5 -12.5q-8 -22 -14 -28l-13 -13q-5 -8 -20 -24
l-48 -72q-17 -50 -43 -96q-44 -79 -93 -100q-12 -8 -67 -22l-38 -10q-16 -4 -22 -4q-7 0 -22 3q-21 4 -28 5h-14q-45 0 -75 15q-10 3 -19 10q-6 5 -6 7v1q-12 0 -18.5 3.5t-10.5 12.5q-8 19 -8 77q0 32 7 45l7 12q1 40 24 73q1 17 15 41z" />
    <glyph glyph-name="aacute" unicode="&#xe1;" horiz-adv-x="458" 
d="M339 484q-3 -1 -6 -8q-11 -18 -18 -24q-6 -5 -13 -6q-16 3 -16 13q0 8 3 12.5t10 8.5q14 8 25 32l4 9q0 4 3 8l10 14l23 28l10 22q6 14 17 19l14 5q1 0 24 7q21 -13 21 -30v-3q-1 -1 -1 -4q-26 -29 -110 -103zM425 281q0 -13 -11.5 -29t-36.5 -46l-9 -16q-15 -15 -33 -49
q-17 -34 -17 -53q0 -29 31 -29q3 0 17 2l11 -9q-19 -58 -88 -58q-32 0 -52 10q-8 3 -12 10q-18 20 -26 26q-8 5 -19 5q-8 0 -15.5 -5t-20.5 -18q-15 -16 -41 -20q-14 -2 -21 -2h-19q-32 0 -49.5 12.5t-17.5 45.5q0 11 15 30q16 19 32 44q10 20 21 31l7 7q4 4 5 8
q15 41 51 66l82 52q12 7 31.5 9t23.5 2q40 4 63 21q17 12 29 12q18 0 36.5 -13.5t28.5 -31.5q4 -7 4 -14zM299 256q-2 14 -20 14q-38 0 -55 -10q-12 -8 -18 -13l-24 -18q-5 -3 -11 -10.5t-9 -10.5q-14 -18 -19 -19q-14 -14 -26 -43q-15 -36 -15 -50q0 -21 14 -21q20 0 63 9
q120 87 120 166v6z" />
    <glyph glyph-name="agrave" unicode="&#xe0;" horiz-adv-x="411" 
d="M225 589l-1 2q0 4 1 7q0 6 1 11q41 6 41 7q7 0 13 -3l11 -13q19 -52 32 -78q11 -21 33 -67q-6 -11 -17 -11q-5 0 -7 1q-26 22 -62 77q-18 26 -25 38zM371 306q0 -19 -7 -36q-8 -4 -14.5 -10.5t-14.5 -20.5q-13 -21 -44 -88v-8q0 -29 -3 -49l-3 -16l-1 -5l6 -5
q8 -5 25 -22q5 -7 5 -11q0 -14 -19 -21q-19 -9 -60 -9q-43 0 -68 37q-5 8 -14 8q-7 0 -14.5 -4.5t-18.5 -13.5q-24 -20 -33 -23q-19 -5 -35 -14l-15 -8q-2 0 -10 5h-2q-1 -1 -3 -1q-15 0 -28 15t-13 32q0 9 4 17l5 10q2 4 10 23q7 17 15 43l24 27q8 14 31 43q4 19 22 35
q22 20 47 45q6 18 38 26q29 6 58 6h15q10 0 15 -1q4 19 26 20l42 3h7q25 0 25 -29zM265 261q-9 13 -22 13q-10 0 -41 -19q-2 -1 -10 -1q-12 0 -15 1q-21 -8 -48 -38v-1q0 -6 -9 -20q-6 -12 -9 -21t-3 -16q-1 -13 -8 -40q-4 -4 -4 -12q0 -6 4 -13l8 -5q0 6 9 6q30 0 55 13
q16 7 33 32q5 8 22 32l7 11q2 15 10 41q10 31 21 32v5z" />
    <glyph glyph-name="acircumflex" unicode="&#xe2;" horiz-adv-x="411" 
d="M411 481q0 -1 -3 -3q-13 -5 -19 -6q-3 -1 -8 -1t-7 17q-2 54 -9 76q-5 17 -17 17q-6 0 -8 -1q-19 -17 -39 -40q-17 -20 -16 -19q-2 -3 -22 -25l-8 -3l-14 -7l-14 -7l-9 -3q-3 0 -3 7q0 5 1 6l8 10l24 28q10 12 32 36q38 45 64 68q14 13 21 14q8 -5 16 -5h5q8 0 16 -14z
M371 306q0 -19 -7 -36q-10 -4 -33 -32q-1 -18 -13 -36q-11 -17 -27 -51v-8q0 -29 -3 -49l-3 -16l-1 -5l6 -5q8 -5 25 -22q5 -7 5 -11q0 -14 -19 -21q-19 -9 -60 -9q-43 0 -68 37q-5 8 -14 8q-7 0 -14.5 -4.5t-18.5 -13.5q-24 -20 -33 -23q-19 -5 -35 -14l-15 -8q-2 0 -10 5
h-2q-1 -1 -3 -1q-15 0 -28 15t-13 32q0 9 4 17l5 10q2 4 10 23q7 17 15 43l24 27q8 14 31 43q4 19 22 35q22 20 47 45q6 18 38 26q29 6 58 6h15q10 0 15 -1q4 19 26 20l42 3h7q25 0 25 -29zM265 261q-9 13 -22 13q-10 0 -41 -19q-2 -1 -10 -1q-12 0 -15 1q-21 -8 -48 -38v-1
q0 -6 -9 -20q-6 -12 -9 -21t-3 -16q-1 -13 -8 -40q-4 -4 -4 -12q0 -6 4 -13l8 -5q0 6 9 6q30 0 55 13q16 7 33 32q5 8 22 32l7 11q2 15 10 41q10 31 21 32v5z" />
    <glyph glyph-name="adieresis" unicode="&#xe4;" horiz-adv-x="411" 
d="M422 550q0 -37 -44 -45q-26 -14 -28 -14q-9 0 -16 42q0 17 22 33q21 16 35 16q31 0 31 -32zM220 539q0 15 19 29q19 12 29 12q15 0 24.5 -11.5t9.5 -26.5q0 -31 -33 -37q-16 -9 -24 -9q-18 0 -25 43zM371 306q0 -19 -7 -36q-10 -4 -33 -32q-1 -18 -13 -36
q-11 -17 -27 -51v-8q0 -29 -3 -49l-3 -16l-1 -5l6 -5q8 -5 25 -22q5 -7 5 -11q0 -14 -19 -21q-19 -9 -60 -9q-43 0 -68 37q-5 8 -14 8q-7 0 -14.5 -4.5t-18.5 -13.5q-24 -20 -33 -23q-19 -5 -35 -14l-15 -8q-2 0 -10 5h-2q-1 -1 -3 -1q-15 0 -28 15t-13 32q0 9 4 17l5 10
q2 4 10 23q7 17 15 43l24 27q8 14 31 43q4 19 22 35q22 20 47 45q6 18 38 26q29 6 58 6h15q10 0 15 -1q4 19 26 20l42 3h7q25 0 25 -29zM265 261q-9 13 -22 13q-10 0 -41 -19q-2 -1 -10 -1q-12 0 -15 1q-21 -8 -48 -38v-1q0 -6 -9 -20q-6 -12 -9 -21t-3 -16q-1 -13 -8 -40
q-4 -4 -4 -12q0 -6 4 -13l8 -5q0 6 9 6q30 0 55 13q16 7 33 32q5 8 22 32l7 11q2 15 10 41q10 31 21 32v5z" />
    <glyph glyph-name="atilde" unicode="&#xe3;" horiz-adv-x="411" 
d="M473.5 640.5q10.5 -10.5 10.5 -28.5q0 -19 -12 -37q-55 -76 -88 -76q-18 0 -39 14q-24 13 -34 13q-22 0 -45 -15q-9 -6 -14.5 -12.5t-5.5 -10.5q-9 0 -19 -14q-4 -6 -6 -11l-5 -8l-20 7q0 13 10 27q12 20 17 30q12 24 33 37.5t43 13.5l11 -3l22 -7q32 -10 41 -10
q4 0 10.5 2.5t11.5 6.5q15 11 15 26q0 5 -3 14q-4 7 -4 16q0 11 8 22q11 14 32 14q20 0 30.5 -10.5zM371 306q0 -19 -7 -36q-10 -4 -33 -32q-1 -18 -13 -36q-11 -17 -27 -51v-8q0 -29 -3 -49l-3 -16l-1 -5l6 -5q8 -5 25 -22q5 -7 5 -11q0 -14 -19 -21q-19 -9 -60 -9
q-43 0 -68 37q-5 8 -14 8q-7 0 -14.5 -4.5t-18.5 -13.5q-24 -20 -33 -23q-19 -5 -35 -14l-15 -8q-2 0 -10 5h-2q-1 -1 -3 -1q-15 0 -28 15t-13 32q0 9 4 17l5 10q2 4 10 23q7 17 15 43l24 27q8 14 31 43q4 19 22 35q22 20 47 45q6 18 38 26q29 6 58 6h15q10 0 15 -1
q4 19 26 20l42 3h7q25 0 25 -29zM265 261q-9 13 -22 13q-10 0 -41 -19q-2 -1 -10 -1q-12 0 -15 1q-21 -8 -48 -38v-1q0 -6 -9 -20q-6 -12 -9 -21t-3 -16q-1 -13 -8 -40q-4 -4 -4 -12q0 -6 4 -13l8 -5q0 6 9 6q30 0 55 13q16 7 33 32q5 8 22 32l7 11q2 15 10 41q10 31 21 32
v5z" />
    <glyph glyph-name="aring" unicode="&#xe5;" horiz-adv-x="411" 
d="M501 599q0 -9 -2 -11.5t-7 -5.5l-10 -8q-6 -6 -10 -20q-11 -25 -14 -29t-7 -7l-12 -10l-40 -30q-50 -37 -85 -36q-27 0 -47 22q-16 17 -16 37q0 3 2 11q-2 16 -2 26q0 13 6 14q6 2 6 5l-1 4l-2 4q0 5 6 11l30 13q9 13 28 31q21 10 78 14q14 1 36 1h11q52 0 52 -36z
M415 556q0 3 -4 10t-18 7q-26 0 -58 -17q-35 -17 -35 -35q0 -5 3 -11l15 -14q5 -6 12 -6q6 0 12 3q4 1 14 7l21 12q13 7 24 22l14 21v1zM371 306q0 -19 -7 -36q-10 -4 -33 -32q-1 -18 -13 -36q-11 -17 -27 -51v-8q0 -29 -3 -49l-3 -16l-1 -5l6 -5q8 -5 25 -22q5 -7 5 -11
q0 -14 -19 -21q-19 -9 -60 -9q-43 0 -68 37q-5 8 -14 8q-7 0 -14.5 -4.5t-18.5 -13.5q-24 -20 -33 -23q-19 -5 -35 -14l-15 -8q-2 0 -10 5h-2q-1 -1 -3 -1q-15 0 -28 15t-13 32q0 9 4 17l5 10q2 4 10 23q7 17 15 43l24 27q8 14 31 43q4 19 22 35q22 20 47 45q6 18 38 26
q29 6 58 6h15q10 0 15 -1q4 19 26 20l42 3h7q25 0 25 -29zM265 261q-9 13 -22 13q-10 0 -41 -19q-2 -1 -10 -1q-12 0 -15 1q-21 -8 -48 -38v-1q0 -6 -9 -20q-6 -12 -9 -21t-3 -16q-1 -13 -8 -40q-4 -4 -4 -12q0 -6 4 -13l8 -5q0 6 9 6q30 0 55 13q16 7 33 32q5 8 22 32l7 11
q2 15 10 41q10 31 21 32v5z" />
    <glyph glyph-name="ccedilla" unicode="&#xe7;" horiz-adv-x="328" 
d="M110 -47q-19 -12 -29 -20l-18 -19q-20 -3 -40 -22q-25 -24 -52 -34l-27 -9q-6 -2 -15 -4.5l-23 -6.5q-5 5 -10 5l-6 -2q-17 14 -17 36q0 10 7.5 27.5t17.5 33.5q27 40 48 40q5 0 9 1h5q11 0 17 -7q4 -4 4 -17q0 -9 -4 -13q-20 -14 -28 -22q-5 -5 -5 -8q0 -17 21 -17
q13 0 54 31q15 10 27 21l11 9l6 26q3 14 13 21q-37 7 -58 28.5t-21 55.5q0 44 39 100q30 43 60 65q23 16 37 30q17 16 32 20q10 12 45 33q3 -1 18 -1q7 0 25 2q9 1 28 1q33 0 48 -9.5t15 -32.5q0 -37 -39 -37q-8 0 -34 13q-26 12 -36 12q-20 0 -55 -20q-34 -22 -41 -34
l-14 -13q-16 -15 -25 -48q-5 -20 -5 -45q0 -34 21 -53q11 -12 40 -21q21 5 56 20l25 11q9 4 12 4q4 0 5 -1t1 -3.5v-3.5q0 -25 -43 -47q-31 -17 -72 -25q-10 -19 -18 -42q-6 -6 -12 -9z" />
    <glyph glyph-name="eacute" unicode="&#xe9;" horiz-adv-x="361" 
d="M339 484q-3 -1 -6 -8q-11 -18 -18 -24q-6 -5 -13 -6q-16 3 -16 13q0 8 3 12.5t10 8.5q14 8 25 32l4 9q0 4 3 8l10 14l23 28l10 22q6 14 17 19l14 5q1 0 24 7q21 -13 21 -30v-3q-1 -1 -1 -4q-26 -29 -110 -103zM280 212l-6 -6q-21 -21 -28 -26q-8 -6 -16 -8
q-83 -18 -123 -38q-34 -18 -34 -46q0 -18 11 -31q14 -19 46 -19l9 3l24 6l26 6q12 3 16 3q10 0 10 -10q0 -21 -27 -35q-10 -6 -20 -9l-11 -3q-13 0 -20 1t-20 1q-18 0 -33 -3t-26 -3q-19 0 -27.5 4t-15.5 14q-16 23 -23 46q-4 11 -4 20q0 8 1 11.5t3 5t3 2.5l13 16
q9 13 23 42q23 21 41 40l56 58q7 7 9 11q1 2 8 9l21 15l50 33q4 2 21 5l76 9l17 2q18 0 31 -14t13 -33q0 -24 -20 -38q-13 -1 -74 -41zM275 275q0 8 -10 14t-19 6q-12 0 -23 -14q-11 -15 -25 -22q-9 -5 -31 -13q-14 -21 -45 -59q4 -6 19 -6q9 0 26 3t20 3q4 9 15 25
q24 6 47 26q21 16 26 35v2z" />
    <glyph glyph-name="egrave" unicode="&#xe8;" horiz-adv-x="335" 
d="M339 444q-5 0 -7 1q-26 22 -62 77q-18 26 -25 38l-20 29l-1 2q0 4 1 7q0 6 1 11q41 6 41 7q7 0 13 -3l11 -13q19 -52 32 -78q11 -21 33 -67q-6 -11 -17 -11zM307 249q-51 -72 -156 -72q-11 0 -18 4q-8 3 -12 3q-23 0 -45 -39q-9 -15 -14.5 -31t-5.5 -23q0 -20 14.5 -30.5
t39.5 -10.5q20 0 31 8q10 7 22 7t21.5 -7t9.5 -17q0 -20 -53 -33q-20 -5 -41 -8t-33 -3q-37 0 -64 13q-16 7 -25 19t-9 27q0 22 13 39q15 22 29 48q90 106 147 156q7 1 22 6.5t21 7.5q29 11 48 12q6 1 12 1t11 1q9 0 12 1q4 0 5 1h4q15 0 32 -14q16 -14 16 -31q0 -8 -5 -16
q-15 -7 -29 -19zM233 275h-4h-4q-23 -1 -50 -23q-12 -9 -20 -20.5t-8 -20.5q0 -6 1.5 -9t7.5 -3q8 0 12 4l46 20q28 13 30 34q0 4 -5 17q-5 0 -6 1z" />
    <glyph glyph-name="ecircumflex" unicode="&#xea;" horiz-adv-x="361" 
d="M411 481q0 -1 -3 -3q-13 -5 -19 -6q-3 -1 -8 -1t-7 17q-2 54 -9 76q-5 17 -17 17q-6 0 -8 -1q-19 -17 -39 -40q-17 -20 -16 -19q-2 -3 -22 -25l-8 -3l-14 -7l-14 -7l-9 -3q-3 0 -3 7q0 5 1 6l8 10l24 28q10 12 32 36q38 45 64 68q14 13 21 14q8 -5 16 -5h5q8 0 16 -14z
M280 212l-6 -6q-21 -21 -28 -26q-8 -6 -16 -8q-83 -18 -123 -38q-34 -18 -34 -46q0 -18 11 -31q14 -19 46 -19l9 3l24 6l26 6q12 3 16 3q10 0 10 -10q0 -21 -27 -35q-10 -6 -20 -9l-11 -3q-13 0 -20 1t-20 1q-18 0 -33 -3t-26 -3q-19 0 -27.5 4t-15.5 14q-16 23 -23 46
q-4 11 -4 20q0 8 1 11.5t3 5t3 2.5l13 16q9 13 23 42q23 21 41 40l56 58q7 7 9 11q1 2 8 9l21 15l50 33q4 2 21 5l76 9l17 2q18 0 31 -14t13 -33q0 -24 -20 -38q-13 -1 -74 -41zM275 275q0 8 -10 14t-19 6q-12 0 -23 -14q-11 -15 -25 -22q-9 -5 -31 -13q-14 -21 -45 -59
q4 -6 19 -6q9 0 26 3t20 3q4 9 15 25q24 6 47 26q21 16 26 35v2z" />
    <glyph glyph-name="edieresis" unicode="&#xeb;" horiz-adv-x="361" 
d="M350 491q-9 0 -16 42q0 17 22 33q21 16 35 16q31 0 31 -32q0 -37 -44 -45q-26 -14 -28 -14zM245 496q-18 0 -25 43q0 15 19 29q19 12 29 12q15 0 24.5 -11.5t9.5 -26.5q0 -31 -33 -37q-16 -9 -24 -9zM280 212l-6 -6q-21 -21 -28 -26q-8 -6 -16 -8q-83 -18 -123 -38
q-34 -18 -34 -46q0 -18 11 -31q14 -19 46 -19l9 3l24 6l26 6q12 3 16 3q10 0 10 -10q0 -21 -27 -35q-10 -6 -20 -9l-11 -3q-13 0 -20 1t-20 1q-18 0 -33 -3t-26 -3q-19 0 -27.5 4t-15.5 14q-16 23 -23 46q-4 11 -4 20q0 8 1 11.5t3 5t3 2.5l13 16q9 13 23 42q23 21 41 40
l56 58q7 7 9 11q1 2 8 9l21 15l50 33q4 2 21 5l76 9l17 2q18 0 31 -14t13 -33q0 -24 -20 -38q-13 -1 -74 -41zM275 275q0 8 -10 14t-19 6q-12 0 -23 -14q-11 -15 -25 -22q-9 -5 -31 -13q-14 -21 -45 -59q4 -6 19 -6q9 0 26 3t20 3q4 9 15 25q24 6 47 26q21 16 26 35v2z" />
    <glyph glyph-name="iacute" unicode="&#xed;" horiz-adv-x="248" 
d="M149 484q-3 -1 -6 -8q-11 -18 -18 -24q-6 -5 -13 -6q-16 3 -16 13q0 8 3 12.5t10 8.5q14 8 25 32l4 9q0 4 3 8l10 14l23 28l10 22q6 14 17 19l14 5q2 0 24 7q21 -13 21 -30v-3q-1 -1 -1 -4q-26 -29 -110 -103zM205 93q0 -19 -67 -65q-8 -1 -40 -15q-30 -14 -42 -14
q-9 0 -17 6q-11 7 -30 13q-8 11 -8 39l1 13q2 21 21 57q12 19 28 35q3 10 23 56l11 27l5 10q0 7 -6.5 13.5l-7.5 7.5l-7.5 7.5t-6.5 13.5q0 21 32 21q11 0 29 6q20 5 39 5q34 0 34 -37q0 -46 -38 -76q-6 -15 -20 -40q-20 -15 -33 -39t-13 -52q0 -32 24 -32q5 0 15 9t19 19
q25 27 34 27q6 0 16 -6q5 -5 5 -9z" />
    <glyph glyph-name="igrave" unicode="&#xec;" horiz-adv-x="248" 
d="M219 444q-5 0 -7 1q-26 22 -62 77q-18 26 -25 38l-20 29l-1 2q0 4 1 7q0 6 1 11q41 6 41 7q7 0 13 -3l11 -13q19 -52 32 -78q11 -21 33 -67q-6 -11 -17 -11zM205 93q0 -19 -67 -65q-8 -1 -40 -15q-30 -14 -42 -14q-9 0 -17 6q-11 7 -30 13q-8 11 -8 39l1 13q2 21 21 57
q12 19 28 35q3 10 23 56l11 27l5 10q0 7 -6.5 13.5l-7.5 7.5l-7.5 7.5t-6.5 13.5q0 21 32 21q11 0 29 6q20 5 39 5q34 0 34 -37q0 -46 -38 -76q-6 -15 -20 -40q-20 -15 -33 -39t-13 -52q0 -32 24 -32q5 0 15 9t19 19q25 27 34 27q6 0 16 -6q5 -5 5 -9z" />
    <glyph glyph-name="icircumflex" unicode="&#xee;" horiz-adv-x="248" 
d="M241 481q0 -1 -3 -3q-13 -5 -19 -6q-3 -1 -8 -1t-7 17q-2 54 -9 76q-5 17 -17 17q-6 0 -8 -1q3 -1 3 -7q0 -22 -46 -68q-4 -22 -28 -22h-2q-17 0 -17 8q0 1 14 24q42 66 71 102q19 23 30 28q8 -5 16 -5h5q8 0 16 -14zM205 93q0 -19 -67 -65q-8 -1 -40 -15
q-30 -14 -42 -14q-9 0 -17 6q-11 7 -30 13q-8 11 -8 39l1 13q2 21 21 57q12 19 28 35q3 10 23 56l11 27l5 10q0 7 -6.5 13.5l-7.5 7.5l-7.5 7.5t-6.5 13.5q0 21 32 21q11 0 29 6q20 5 39 5q34 0 34 -37q0 -46 -38 -76q-6 -15 -20 -40q-20 -15 -33 -39t-13 -52q0 -32 24 -32
q5 0 15 9t19 19q25 27 34 27q6 0 16 -6q5 -5 5 -9z" />
    <glyph glyph-name="idieresis" unicode="&#xef;" horiz-adv-x="248" 
d="M238 491q-9 0 -16 42q0 19 24 36q9 6 18.5 9.5t14.5 3.5q31 0 31 -32q0 -37 -44 -45q-26 -14 -28 -14zM132 496q-6 0 -15 11t-9 34q0 14 23 29l16 8l9 2q15 0 24.5 -11.5t9.5 -26.5q0 -31 -34 -37q-15 -9 -24 -9zM205 93q0 -19 -67 -65q-8 -1 -40 -15q-30 -14 -42 -14
q-9 0 -17 6q-11 7 -30 13q-8 11 -8 39l1 13q2 21 21 57q12 19 28 35q3 10 23 56l11 27l5 10q0 7 -6.5 13.5l-7.5 7.5l-7.5 7.5t-6.5 13.5q0 21 32 21q11 0 29 6q20 5 39 5q34 0 34 -37q0 -46 -38 -76q-6 -15 -20 -40q-20 -15 -33 -39t-13 -52q0 -32 24 -32q5 0 15 9t19 19
q25 27 34 27q6 0 16 -6q5 -5 5 -9z" />
    <glyph glyph-name="ntilde" unicode="&#xf1;" horiz-adv-x="471" 
d="M384 499q-18 0 -39 14q-24 13 -34 13q-22 0 -45 -15q-9 -6 -14.5 -12.5t-5.5 -10.5q-9 0 -19 -14q-4 -6 -6 -11l-5 -8l-20 7q0 13 10 27q12 20 17 30q12 24 33 37.5t43 13.5l11 -3l22 -7q32 -10 41 -10q4 0 10.5 2.5t11.5 6.5q15 11 15 26q0 5 -3 14q-4 7 -4 16
q0 11 8 22q11 14 32 14q20 0 30.5 -10.5t10.5 -28.5q0 -19 -12 -37q-55 -76 -88 -76zM508 97l-3 -9q-32 -26 -106 -56q-83 -36 -128 -36q-16 0 -26 14.5t-10 31.5q0 36 30 67q5 16 24 45q19 27 41 64q9 9 16 19.5t7 16.5t-6 9.5t-12 3.5q-5 0 -13 -3q-7 -3 -13 -3
q-8 0 -12 7q-43 -4 -99 -45q-3 -5 -11 -11q-25 -19 -40 -37q-9 -10 -14 -27l-27 -88q-26 -68 -61 -68q-20 0 -33.5 13.5t-13.5 29.5q0 20 37 73q15 22 25 33l10 13q4 15 26 46q21 32 21 39q0 12 -16 22q-6 -2 -7 -2q-23 0 -23 21q0 10 10 14l13 6q7 2 14 9q23 20 35 28
q11 6 20 6q20 0 37 -15.5t17 -34.5q0 -7 -1 -9l14 -8q56 33 95 33q14 0 26 4t31 4q63 0 63 -32q0 -16 -27 -47l-24 -26q-15 -17 -20 -25q-15 -38 -34 -70l-13 -23l-6 -12q0 -12 12 -26q3 0 4 1h5q6 0 10 -1t11 -1q11 0 25 9q57 34 110 57q4 -1 8 -7.5t4 -9.5z" />
    <glyph glyph-name="oacute" unicode="&#xf3;" horiz-adv-x="392" 
d="M289 484q-3 -1 -6 -8q-11 -18 -18 -24q-6 -5 -13 -6q-16 3 -16 13q0 8 3 12.5t10 8.5q14 8 25 32l4 9q0 4 3 8l10 14l23 28l10 22q6 14 17 19l14 5q2 0 24 7q21 -13 21 -30v-3q-1 -1 -1 -4q-26 -29 -110 -103zM362 270q0 -44 -42 -131q-3 -7 -14 -15l-16 -13
q-5 -12 -15 -33l-16 -16l-14 -24q-14 -22 -27 -26q-10 -3 -21.5 -11l-14.5 -10q-21 -16 -31 -16h-61q-10 1 -27 12q-5 6 -16 11q-32 12 -43 22q-9 8 -9 21q0 51 40 111q25 39 83 101l3 14q1 8 4 12t10 7l16 7l23 9q10 9 19.5 16t18.5 10q17 5 66 5h42q10 -1 25 -9
q17 -23 17 -54zM300 260q0 15 -17 25t-43 10t-64 -30q-15 -12 -27.5 -25.5t-15.5 -20.5l-26 -80q-13 -36 -13 -66q0 -26 7.5 -39.5t28.5 -13.5l16 5q40 14 71 49q17 19 25 50q2 6 6 12q13 15 19 27q4 7 4 16q1 16 8 31q1 5 7 15l10 19q4 7 4 16z" />
    <glyph glyph-name="ograve" unicode="&#xf2;" horiz-adv-x="368" 
d="M339 444q-5 0 -7 1q-26 22 -62 77q-18 26 -25 38l-20 29l-1 2q0 4 1 7q0 6 1 11q41 6 41 7q7 0 13 -3l11 -13q19 -52 32 -78q11 -21 33 -67q-6 -11 -17 -11zM334 260q0 -23 -18 -61q-9 -15 -26 -51q-31 -66 -85 -101q-31 -20 -76 -26q-28 -3 -38 -7q-12 -4 -30 -15
q-4 -3 -12 -3q-19 0 -33.5 15.5t-14.5 43.5q0 13 9 58q7 9 13 22l9 21l10 21l29 34q3 15 13 33q88 85 154 85q30 0 53 -10t32 -23q11 -17 11 -36zM201 275q-26 -9 -58 -24q-26 -22 -37.5 -58.5t-11.5 -67.5q0 -21 6 -39q7 -22 21 -22q4 0 7 3l58 59q14 10 28.5 25.5
t18.5 20.5q9 11 11 26q0 12 7 33.5t10 21.5q0 7 -11 23q-12 16 -17 17z" />
    <glyph glyph-name="ocircumflex" unicode="&#xf4;" horiz-adv-x="392" 
d="M411 481q0 -1 -3 -3q-13 -5 -19 -6q-3 -1 -8 -1t-7 17q-2 54 -9 76q-5 17 -17 17q-6 0 -8 -1q-19 -17 -39 -40q-17 -20 -16 -19q-2 -3 -22 -25l-8 -3l-14 -7l-14 -7l-9 -3q-3 0 -3 7q0 5 1 6l8 10l24 28q10 12 32 36q38 45 64 68q14 13 21 14q8 -5 16 -5h5q8 0 16 -14z
M362 270q0 -44 -42 -131q-3 -7 -14 -15l-16 -13q-5 -12 -15 -33l-16 -16l-14 -24q-14 -22 -27 -26q-10 -3 -21.5 -11l-14.5 -10q-21 -16 -31 -16h-61q-10 1 -27 12q-5 6 -16 11q-32 12 -43 22q-9 8 -9 21q0 51 40 111q25 39 83 101l3 14q1 8 4 12t10 7l16 7l23 9
q10 9 19.5 16t18.5 10q17 5 66 5h42q10 -1 25 -9q17 -23 17 -54zM300 260q0 15 -17 25t-43 10t-64 -30q-15 -12 -27.5 -25.5t-15.5 -20.5l-26 -80q-13 -36 -13 -66q0 -26 7.5 -39.5t28.5 -13.5l16 5q40 14 71 49q17 19 25 50q2 6 6 12q13 15 19 27q4 7 4 16q1 16 8 31
q1 5 7 15l10 19q4 7 4 16z" />
    <glyph glyph-name="odieresis" unicode="&#xf6;" horiz-adv-x="392" 
d="M350 491q-9 0 -16 42q0 17 22 33q21 16 35 16q31 0 31 -32q0 -37 -44 -45q-26 -14 -28 -14zM245 496q-18 0 -25 43q0 15 19 29q19 12 29 12q15 0 24.5 -11.5t9.5 -26.5q0 -31 -33 -37q-16 -9 -24 -9zM362 270q0 -44 -42 -131q-3 -7 -14 -15l-16 -13q-5 -12 -15 -33
l-16 -16l-14 -24q-14 -22 -27 -26q-10 -3 -21.5 -11l-14.5 -10q-21 -16 -31 -16h-61q-10 1 -27 12q-5 6 -16 11q-32 12 -43 22q-9 8 -9 21q0 51 40 111q25 39 83 101l3 14q1 8 4 12t10 7l16 7l23 9q10 9 19.5 16t18.5 10q17 5 66 5h42q10 -1 25 -9q17 -23 17 -54zM300 260
q0 15 -17 25t-43 10t-64 -30q-15 -12 -27.5 -25.5t-15.5 -20.5l-26 -80q-13 -36 -13 -66q0 -26 7.5 -39.5t28.5 -13.5l16 5q40 14 71 49q17 19 25 50q2 6 6 12q13 15 19 27q4 7 4 16q1 16 8 31q1 5 7 15l10 19q4 7 4 16z" />
    <glyph glyph-name="otilde" unicode="&#xf5;" horiz-adv-x="392" 
d="M384 499q-18 0 -39 14q-24 13 -34 13q-22 0 -45 -15q-9 -6 -14.5 -12.5t-5.5 -10.5q-9 0 -19 -14q-4 -6 -6 -11l-5 -8l-20 7q0 13 10 27q12 20 17 30q12 24 33 37.5t43 13.5l11 -3l22 -7q32 -10 41 -10q4 0 10.5 2.5t11.5 6.5q15 11 15 26q0 5 -3 14q-4 7 -4 16
q0 11 8 22q11 14 32 14q20 0 30.5 -10.5t10.5 -28.5q0 -19 -12 -37q-55 -76 -88 -76zM362 270q0 -44 -42 -131q-3 -7 -14 -15l-16 -13q-5 -12 -15 -33l-16 -16l-14 -24q-14 -22 -27 -26q-10 -3 -21.5 -11l-14.5 -10q-21 -16 -31 -16h-61q-10 1 -27 12q-5 6 -16 11
q-32 12 -43 22q-9 8 -9 21q0 51 40 111q25 39 83 101l3 14q1 8 4 12t10 7l16 7l23 9q10 9 19.5 16t18.5 10q17 5 66 5h42q10 -1 25 -9q17 -23 17 -54zM300 260q0 15 -17 25t-43 10t-64 -30q-15 -12 -27.5 -25.5t-15.5 -20.5l-26 -80q-13 -36 -13 -66q0 -26 7.5 -39.5
t28.5 -13.5l16 5q40 14 71 49q17 19 25 50q2 6 6 12q13 15 19 27q4 7 4 16q1 16 8 31q1 5 7 15l10 19q4 7 4 16z" />
    <glyph glyph-name="uacute" unicode="&#xfa;" horiz-adv-x="400" 
d="M279 484q-3 -1 -6 -8q-11 -18 -18 -24q-6 -5 -13 -6q-16 3 -16 13q0 8 3 12.5t10 8.5q14 8 25 32l4 9q0 4 3 8l10 14l23 28l10 22q6 14 17 19l14 5q2 0 24 7q21 -13 21 -30v-3q-1 -1 -1 -4q-26 -29 -110 -103zM402 73q0 -6 -2.5 -10t-12.5 -10q-21 -12 -44 -22l-90 -42
q-1 -1 -4 -1q-5 0 -15 6l-24 38q-15 23 -40 23q-15 -11 -34 -40l-49 -9q-31 -6 -50 -6q-23 0 -30 10.5t-7 27.5q0 25 33 71q3 11 10 26q16 36 27 63q5 15 5 21q0 8 -6.5 12.5t-14.5 4.5h-10q-3 -1 -10 -1t-11 4t-4 8t11 18q7 3 14 13t9 12q12 19 27 23q25 6 40 14
q21 10 30 11q14 0 22 -18q4 -12 4 -25q0 -12 -5 -24q-43 -78 -50 -98q-21 -47 -21 -74q0 -10 7 -20t16 -10t20 7q10 7 22 9l32 17q28 18 37 29q5 7 9.5 21.5t9.5 35.5q3 14 20 35q15 19 15 27q0 10 -7 27q-7 18 -7 25q0 12 16.5 23.5t43.5 11.5q25 0 42.5 -18t17.5 -40
q0 -10 -5 -18q-9 -1 -39 -41q-18 -24 -35 -54q-2 -4 -16 -24q-12 -15 -12 -29q0 -16 13.5 -28t30.5 -12q24 0 38 26q2 3 5 3q6 0 15.5 -7.5t12.5 -13.5v-8z" />
    <glyph glyph-name="ugrave" unicode="&#xf9;" horiz-adv-x="400" 
d="M319 444q-5 0 -7 1q-26 22 -62 77q-18 26 -25 38l-20 29l-1 2q0 4 1 7q0 6 1 11q41 6 41 7q7 0 13 -3l11 -13q19 -52 32 -78q11 -21 33 -67q-6 -11 -17 -11zM402 73q0 -6 -2.5 -10t-12.5 -10q-21 -12 -44 -22l-90 -42q-1 -1 -4 -1q-5 0 -15 6l-24 38q-15 23 -40 23
q-15 -11 -34 -40l-49 -9q-31 -6 -50 -6q-23 0 -30 10.5t-7 27.5q0 25 33 71q3 11 10 26q16 36 27 63q5 15 5 21q0 8 -6.5 12.5t-14.5 4.5h-10q-3 -1 -10 -1t-11 4t-4 8t11 18q7 3 14 13t9 12q12 19 27 23q25 6 40 14q21 10 30 11q14 0 22 -18q4 -12 4 -25q0 -12 -5 -24
q-43 -78 -50 -98q-21 -47 -21 -74q0 -10 7 -20t16 -10t20 7q10 7 22 9l32 17q28 18 37 29q5 7 9.5 21.5t9.5 35.5q3 14 20 35q15 19 15 27q0 10 -7 27q-7 18 -7 25q0 12 16.5 23.5t43.5 11.5q25 0 42.5 -18t17.5 -40q0 -10 -5 -18q-9 -1 -39 -41q-18 -24 -35 -54
q-2 -4 -16 -24q-12 -15 -12 -29q0 -16 13.5 -28t30.5 -12q24 0 38 26q2 3 5 3q6 0 15.5 -7.5t12.5 -13.5v-8z" />
    <glyph glyph-name="ucircumflex" unicode="&#xfb;" horiz-adv-x="400" 
d="M371 481q0 -1 -3 -3q-13 -5 -19 -6q-3 -1 -8 -1t-7 17q-2 54 -9 76q-5 17 -17 17q-6 0 -8 -1q-19 -17 -39 -40q-17 -20 -16 -19q-2 -3 -22 -25l-8 -3l-14 -7l-14 -7l-9 -3q-3 0 -3 7q0 5 1 6l8 10l24 28q10 12 32 36q38 45 64 68q14 13 21 14q8 -5 16 -5h5q8 0 16 -14z
M402 73q0 -6 -2.5 -10t-12.5 -10q-21 -12 -44 -22l-90 -42q-1 -1 -4 -1q-5 0 -15 6l-24 38q-15 23 -40 23q-15 -11 -34 -40l-49 -9q-31 -6 -50 -6q-23 0 -30 10.5t-7 27.5q0 25 33 71q3 11 10 26q16 36 27 63q5 15 5 21q0 8 -6.5 12.5t-14.5 4.5h-10q-3 -1 -10 -1t-11 4
t-4 8t11 18q7 3 14 13t9 12q12 19 27 23q25 6 40 14q21 10 30 11q14 0 22 -18q4 -12 4 -25q0 -12 -5 -24q-43 -78 -50 -98q-21 -47 -21 -74q0 -10 7 -20t16 -10t20 7q10 7 22 9l32 17q28 18 37 29q5 7 9.5 21.5t9.5 35.5q3 14 20 35q15 19 15 27q0 10 -7 27q-7 18 -7 25
q0 12 16.5 23.5t43.5 11.5q25 0 42.5 -18t17.5 -40q0 -10 -5 -18q-9 -1 -39 -41q-18 -24 -35 -54q-2 -4 -16 -24q-12 -15 -12 -29q0 -16 13.5 -28t30.5 -12q24 0 38 26q2 3 5 3q6 0 15.5 -7.5t12.5 -13.5v-8z" />
    <glyph glyph-name="udieresis" unicode="&#xfc;" horiz-adv-x="400" 
d="M310 491q-9 0 -16 42q0 17 22 33q21 16 35 16q31 0 31 -32q0 -37 -44 -45q-26 -14 -28 -14zM205 496q-18 0 -25 43q0 15 19 29q19 12 29 12q15 0 24.5 -11.5t9.5 -26.5q0 -31 -33 -37q-17 -9 -24 -9zM402 73q0 -6 -2.5 -10t-12.5 -10q-21 -12 -44 -22l-90 -42
q-1 -1 -4 -1q-5 0 -15 6l-24 38q-15 23 -40 23q-15 -11 -34 -40l-49 -9q-31 -6 -50 -6q-23 0 -30 10.5t-7 27.5q0 25 33 71q3 11 10 26q16 36 27 63q5 15 5 21q0 8 -6.5 12.5t-14.5 4.5h-10q-3 -1 -10 -1t-11 4t-4 8t11 18q7 3 14 13t9 12q12 19 27 23q25 6 40 14
q21 10 30 11q14 0 22 -18q4 -12 4 -25q0 -12 -5 -24q-43 -78 -50 -98q-21 -47 -21 -74q0 -10 7 -20t16 -10t20 7q10 7 22 9l32 17q28 18 37 29q5 7 9.5 21.5t9.5 35.5q3 14 20 35q15 19 15 27q0 10 -7 27q-7 18 -7 25q0 12 16.5 23.5t43.5 11.5q25 0 42.5 -18t17.5 -40
q0 -10 -5 -18q-9 -1 -39 -41q-18 -24 -35 -54q-2 -4 -16 -24q-12 -15 -12 -29q0 -16 13.5 -28t30.5 -12q24 0 38 26q2 3 5 3q6 0 15.5 -7.5t12.5 -13.5v-8z" />
    <glyph glyph-name="dagger" unicode="&#x2020;" horiz-adv-x="444" 
d="M422 480l-21 -43q-16 -28 -35 -28q-12 0 -25 13q-2 -1 -10 -1q-13 0 -51 10q-10 2 -25.5 5.5t-21.5 3.5h-4l-125 -439l-4 -2q-8 -5 -23 -11q-6 -3 -9 -3t-5 2l12 43l18 58q3 11 20 64l19 62l16 52l10 33q0 19 8 46q16 52 32 96l-8 -2q-30 -9 -60 -15l-38 -8
q-43 -9 -55 -9q-7 0 -17 2l-7 15l4 36q-1 2 -1 8q0 27 44 27q19 0 30 -8q12 3 26 3q20 0 47 -4l45 -5q5 109 17 158l18 8l18 9l9 -2q8 3 15 3q31 0 31 -32q0 -19 -17 -34q-9 -45 -56 -112h1l13 3l73 13q48 8 71 14l12 2q3 -16 9 -31z" />
    <glyph glyph-name="degree" unicode="&#xb0;" horiz-adv-x="305" 
d="M259 478q-6 -6 -10 -12q-4 -12 -14 -27q-12 -21 -31 -66l-26 -15q-19 -35 -91 -35q-14 0 -29 3h-5q-21 0 -35.5 22t-14.5 52l4 11q6 24 32 60q14 18 33 33l17 3l11 15q25 14 57 15l30 2q13 0 18 1q7 0 10 1h5q19 0 32.5 -14t13.5 -37q0 -5 -7 -12zM194 470q0 11 -8 20
t-18 9q-4 0 -17 -5q-12 -6 -17 -6h-6q-15 0 -24 -16l-16 -29q-11 -14 -11 -31q0 -37 32 -40q25 0 51 30q12 12 19 26t7 25q8 8 8 17z" />
    <glyph glyph-name="cent" unicode="&#xa2;" horiz-adv-x="376" 
d="M253 340q26 -6 46 -26q5 -1 19 -3t23 -10q18 -16 18 -64q0 -12 -8.5 -22t-20.5 -17q-11 -6 -22 -9.5t-16 -3.5q-11 0 -19 8q0 8 -12 20q-2 2 -7.5 7t-5.5 10q0 4 4.5 14t10.5 20q3 6 5.5 10.5t4.5 8.5l6 12q-10 8 -24 8q-9 0 -12 -1q-24 -90 -64 -261q9 1 29 7l13.5 14
t30.5 13q34 0 34 -15q0 -6 -7 -13q-8 -8 -29 -11q-14 -3 -19 -6t-7 -4q-2 -2 -17 -8q-10 -4 -35 -9l-8 -30q0 -17 -10 -29t-22 -12t-15 15l15 50q-3 0 -4 1h-7q-7 0 -12 -1t-14 -1q-14 0 -29.5 8t-28.5 21q-30 30 -30 68v3q-1 1 -1 7q0 1 2 15l15 59q6 25 28.5 48t78.5 71
q25 11 38 16l46 18l5 20l8 30q8 5 19 5t25 -6zM149 63v4q-1 1 -1 3q0 5 2 23q3 9 5 13l12 36l3 15q0 14 5 30q7 28 19 60l9 39q-35 -21 -57 -46q-27 -30 -33 -49q-23 -18 -23 -41q0 -6 1 -7q-6 -13 -6 -25q0 -23 17.5 -43.5t42.5 -27.5z" />
    <glyph glyph-name="sterling" unicode="&#xa3;" horiz-adv-x="484" 
d="M228 223l-10 -13q3 -6 3 -15q0 -45 -55 -76q-9 -19 -32 -25q-4 -1 -10 -3t-9 -4.5t-3 -7.5q0 -4 12 -30q2 -5 12 -9q41 -17 37 -16q14 2 19 2l24 -2l21 -2q22 0 35 18q-5 13 -5 25q0 28 14.5 46.5t39.5 18.5q10 -1 23 -7t25 -16q27 -23 27 -44q0 -41 -47 -70
q-19 -12 -41 -19t-38 -7q-31 0 -83 23q-3 -1 -11 -1q-9 0 -12 1l-31 13q-17 0 -31 11t-24 15q0 1 -3 5q-10 10 -20 15q-6 3 -10 3t-16 -5t-18 -5q-9 0 -13 6.5t-4 23.5q0 13 14.5 19.5t33.5 7.5l26 3q13 3 17 11q1 2 10 11q17 7 26.5 14t15.5 17q11 18 12 69l-30 2l-14 -2
q-10 -3 -21 -3q-19 6 -19 16t23 21q9 0 21 -4l14 -5l15 9q-23 52 -23 75v53q0 17 8 36.5t30 57.5q2 1 9 8q12 14 28 23q8 5 17 5q3 -1 9 -1h8q13 0 28 5t28 5q26 0 54 -16q4 -7 10 -11q4 -4 13.5 -11t14.5 -14q6 -7 6 -18q0 -27 -15 -38h-1l-17 -10l-27 -18q-52 10 -67 39
q1 1 1 7q0 8 -7 24q-9 17 -17 17q-18 0 -27 -3.5t-11 -13.5l-9 -79q0 -20 6.5 -42.5t27.5 -53.5q1 -25 14 -25h24q15 -1 72 -1q18 -10 18 -18q0 -9 -18 -15q-54 -2 -97 -2z" />
    <glyph glyph-name="section" unicode="&#xa7;" horiz-adv-x="401" 
d="M81 243q5 48 16 113l30 96q3 3 13 18q23 35 45 53q14 12 30 15q13 2 24 12q10 10 15 10q12 -3 14 -3h9l25 2q20 2 33 2q3 0 6 -4.5t4 -5.5q2 -4 5 -7.5t6 -3.5l9 3q8 3 13 3q21 0 21 -36v-7q-1 -3 -1 -8q1 0 -5 -6q-14 -16 -30 -30q-7 -7 -8 -7q-6 0 -40 2q-6 3 -11 29
q-5 25 -26 33q-10 2 -14 2l-5 -1q-17 0 -40 -20q-26 -22 -26 -38q0 -17 15 -23l30 -15q24 -18 40 -51q38 -18 44 -116l-8 -101q-3 -25 -3 -36q-1 -16 -11 -43l-19 -49l-29 -47q-6 -11 -29 -32q-23 -20 -35 -21q-15 -3 -25 -13t-16 -10l-22 2q-26 2 -48 2q-11 -4 -24 -4h-5
l-20 4l-5 2q-11 7 -16 21q-4 7 -4 21v6q-2 2 0 5q0 2 3 7l9 12q9 12 20.5 15t26 4t22.5 2q7 -2 18 -26q9 -21 30 -28q8 -3 12 -2h4q14 0 33 19l4 3q10 6 17 20q4 7 4 19q0 18 -50 51q-42 27 -61 67q-12 25 -12 48zM146 356q-9 -15 -10 -35q-2 -33 -4 -45q-4 -15 -4 -21
q0 -5 5 -35l12 -75q2 -13 15 -24l26 -24q3 -3 8 -4l29 -9l8 -4q24 3 30 14q8 38 15 62q6 26 6 44q0 13 -6 38q-6 26 -6 55q0 28 -38 66q-15 14 -30.5 23.5t-21.5 9.5q-13 0 -24 -14q-1 -6 -10 -22z" />
    <glyph glyph-name="bullet" unicode="&#x2022;" horiz-adv-x="434" 
d="M339 186v-11q0 -12 -1 -14l-8 -53q-8 -11 -8 -17q0 -3 1 -4q-40 -43 -57 -54q-27 -9 -37 -13q-23 -10 -47 -10q-25 0 -49 9l-47 16q-7 9 -25 20q-16 10 -24 27l-12 30q-13 10 -13 51q0 53 17 88t55 55q6 1 38 16l9 2l15 2q22 2 26 5q26 -2 64 -11l17 -15q31 -8 55 -35
t30 -72q1 -5 1 -12z" />
    <glyph glyph-name="paragraph" unicode="&#xb6;" horiz-adv-x="685" 
d="M798.5 541.5q12.5 -15.5 12.5 -55.5q0 -23 -32 -44q-31 -21 -56 -21q-20 0 -30 12t-10 33q0 28 15 50q-6 15 -22 15q-9 0 -22 -4q-15 -4 -24 -4q-10 0 -14 4q-3 -1 -14 -1q-12 0 -15 1q-4 0 -16 -23q-23 -43 -68 -145q-30 -64 -67 -152l-11 -25l-29 -64q-8 -17 -21 -32
q-12 -14 -15 -20q-2 -5 -51 -66q-6 -8 -18 -15q-11 -6 -20 -19q-9 -14 -47 -39q-61 -16 -73 -16q-9 0 -11 1q-86 0 -86 -2v-1q-23 6 -48 17q-3 20 -18 54q8 49 24 68q20 24 75 24q14 0 25.5 -10.5t11.5 -24.5q0 -8 -6 -23q-7 -14 -7 -25q0 -14 29 -22q8 -2 20 -4l10 -2l13 4
q21 6 46 20q11 6 14 15l33 22q22 15 27 27l6 17q12 12 26 34l32 51l18 29q-1 2 -19 22l-37 5q-54 25 -79 90q-1 1 -1 6q0 18 12 59q13 43 22 58q6 5 14 16q20 28 41 52q14 14 34 30.5t36 25.5q26 17 50 18h25h19q13 0 20 -1l57 -5q31 -4 53 -4q9 -1 42 -1q15 0 28 1t22 2
l22 2l12 1q28 0 40.5 -15.5zM56 -91h-2h2z" />
    <glyph glyph-name="germandbls" unicode="&#xdf;" horiz-adv-x="554" 
d="M469 511q-27 28 -59 28q-11 0 -33 -7.5t-45 -21.5q-62 -39 -86 -101q-14 -35 -25 -50q-3 -5 -11 -15q-6 -7 -15 -24l-9 -37q-6 -22 -19 -43l-6 -14q-8 -25 -19 -51q-6 -14 -10 -19t-5 -14q-4 -12 -5 -18l-4 -16q-2 -9 -3 -10q-15 -36 -26.5 -55t-27.5 -41
q-12 -17 -18.5 -28t-11.5 -30l-18 -19q-10 -10 -21 -33q-6 -30 -23 -59.5t-41 -53.5q-25 -24 -52.5 -37.5t-53.5 -13.5q-9 0 -12 1l-12 -2q-11 0 -23 8t-22 21q-9 12 -14.5 26t-5.5 25q0 12 6.5 23t16.5 18q19 14 40 14q12 0 31 -13q9 -7 16 -10.5t17 -3.5q13 0 22 4.5
t19 14.5q7 7 18 21q9 12 24 27q1 4 8 16q15 23 26 47q6 14 9 26q4 18 18 35q16 20 19 35l9 60q2 4 6 8l8 13l35 65q6 10 12 32q5 16 10 26.5t11 20.5q4 6 15 31q12 25 23 58q18 13 25 31l12 31q7 11 34 60q41 38 68.5 60.5t51.5 34.5t50.5 16.5t64.5 5.5q19 0 38 -7.5
t40 -33.5q24 -30 24 -58q0 -9 -5 -22l-3 -58q-8 -47 -39 -74q-30 -27 -102 -58q-50 -21 -50 -51q0 -20 33 -42l27 -24l9 -13q15 -22 30 -54q7 -14 7 -28q0 -24 -25 -49q-13 -13 -24 -20.5t-26 -12.5q-30 -10 -99 -10q-53 0 -83 50q-2 2 -2 7q0 16 16 37q6 9 14 14.5t15 5.5
q6 0 22.5 -16.5t23.5 -22.5q18 -19 31 -29.5t23 -10.5q20 0 36 16.5t16 38.5q0 10 -6 19t-19 20l-24 20q-23 17 -28 23v3q0 4 -14 30l-11 17l-5 8q0 22 33 65q1 3 10 8l40 23l17 11l22 12q55 37 61 112q-5 24 -12 51z" />
    <glyph glyph-name="registered" unicode="&#xae;" horiz-adv-x="678" 
d="M597 266q0 -45 -16 -102q-15 -52 -35 -71l-35 -31q-10 -10 -14 -13q-5 -3 -12 -10l-34 -10q-11 -4 -21 -10q-13 -7 -18 -7l-8 2q-48 -24 -102 -24q-38 0 -89 14l-34 6q-13 1 -28 13q-12 10 -40 21l-13 21q-38 28 -56 58l-27 55l-6 42q-4 24 -4 62q0 20 3 50q4 36 13 37
q11 40 22 62q8 17 26 28q0 3 2 7q1 1 19 13q1 2 10 17q8 10 39 30l11 2l16 3q17 27 78 31q11 11 40 11q26 0 51 -4l78 -10q5 -8 27 -15l54 -18l21 -15q5 -15 22 -35q8 -2 11 -11l4 -10q17 -25 23 -45l10 -39q7 -32 7 -33l3 -19l1 -10q0 -5 1 -7v-36zM560 325q-7 46 -13.5 71
t-16.5 42t-25 29t-42 28q-26 10 -39 17q-51 22 -82 31q-23 5 -40 5q-41 0 -83 -18q-38 -17 -102 -67l-16 -24l-21 -20q-10 -10 -10 -17q0 -4 1 -5q-22 -10 -22 -29v-11q0 -20 -13 -36v-5q0 -12 -4 -24t-4 -25l2 -22q1 -11 13 -43l3 -31q-3 4 19 -28q28 -49 84 -88
q28 -21 70 -30q3 0 5 1h7q13 0 28 -3t33 -3q63 0 98 7q37 8 47 24q63 25 94 71q29 45 35 127q8 6 12 11q-7 19 -18 65zM386 132h-33q-15 11 -25 46q-4 12 -6 23q-1 10 -3 13q2 8 2 10q0 46 -49 50q-15 -35 -38 -106l7 -15q3 1 9 1h7q22 0 25 -11q0 -5 -10 -6q-14 -2 -33 -2
q-10 0 -40 -3q-27 -4 -78 -4q-25 0 -25 9t23 13l18 2q9 0 10 1l22 15q19 62 37 106l6 3q-1 2 -1 9q0 11 15 48q15 38 15 46q0 3 -2 11q6 11 6 16q0 7 -13 7h-9q-3 -1 -9 -1q-9 0 -12 3q0 20 26 20q10 0 16 -3q8 1 39 1q41 0 70 1l36 8q19 -3 32 -4l28 -16q15 -11 16 -25
l-3 -10l2 -12l-20 -40q-6 -12 -14 -19l-9 -6l-13 -8q-7 -6 -17 -8q-12 -3 -17 -8q1 -7 1 -17v-13v-7q5 -9 18 -47q8 -24 18 -31q10 -10 19.5 -12.5t11.5 -2.5q5 -2 5 -11q0 -16 -17 -16q-7 0 -14 7q-8 -5 -30 -5zM331 293q22 4 46 34q1 6 7 12q12 12 16 24q3 8 3 23
q0 13 -1 17q-1 9 -11 12q-9 3 -11 4l-37 -3q-6 2 -9 2t-7 -4q-3 -3 -8 -5l-42 -119z" />
    <glyph glyph-name="copyright" unicode="&#xa9;" horiz-adv-x="693" 
d="M597 266q0 -45 -16 -102q-15 -52 -35 -71l-35 -31q-10 -10 -14 -13q-5 -3 -12 -10l-34 -10q-11 -4 -21 -10q-13 -7 -18 -7l-8 2q-48 -24 -102 -24q-38 0 -89 14l-34 6q-13 1 -28 13q-12 10 -40 21l-13 21q-38 28 -56 58l-27 55l-6 42q-4 24 -4 62q0 20 3 50q4 36 13 37
q11 40 22 62q8 17 26 28q0 3 2 7q1 1 19 13q1 2 10 17q8 10 39 30l11 2l16 3q17 27 78 31q11 11 40 11q26 0 51 -4l78 -10q5 -8 27 -15l54 -18l21 -15q5 -15 22 -35q8 -2 11 -11l4 -10q17 -25 23 -45l10 -39q7 -32 7 -33l3 -19l1 -10q0 -5 1 -7v-36zM560 325q-7 46 -13.5 71
t-16.5 42t-25 29t-42 28q-26 10 -39 17q-51 22 -82 31q-23 5 -40 5q-41 0 -83 -18q-38 -17 -102 -67l-16 -24l-21 -20q-10 -10 -10 -17q0 -4 1 -5q-22 -10 -22 -29v-11q0 -20 -13 -36v-5q0 -12 -4 -24t-4 -25l2 -22q1 -11 13 -43l3 -31q-3 4 19 -28q28 -49 84 -88
q28 -21 70 -30q3 0 5 1h7q13 0 28 -3t33 -3q63 0 98 7q37 8 47 24q63 25 94 71q29 45 35 127q8 6 12 11q-7 19 -18 65zM407 294q-11 0 -19 8q0 9 -11 20l-6.5 6.5t-5.5 9.5q0 10 17 36l12 19l7 11q-9 9 -24 9q-33 0 -86 -41q-23 -19 -40.5 -38t-22.5 -34q-25 -19 -25 -45
q0 -7 -3 -15q-4 -7 -4 -16q0 -14 7.5 -28t20.5 -24q27 -22 55 -22q18 0 36 7q14 14 18 17q15 11 28 11q32 0 32 -15q0 -7 -7 -14q-8 -8 -30 -11q-13 -1 -18 -5l-10 -6q-4 -3 -19 -8q-18 -6 -47 -10l-52 -4h-4q-2 -1 -5 -1q-40 0 -58 35q-5 1 -10 7.5t-8 16.5q-8 19 -8 38v3
v2q-1 1 -1 3v8l1 3l6 17l18 51q10 29 38 56q20 19 73 60q22 11 97 38q3 1 15 1q34 0 58 -27l27 -4q17 -5 24 -23l4 -45v-3q0 -7 -4 -14q-34 -40 -66 -40z" />
    <glyph glyph-name="trademark" unicode="&#x2122;" horiz-adv-x="713" 
d="M313 426h-11q-21 0 -34 -5q0 -4 -4 -13q-13 -37 -16 -48q-4 -12 -4 -19v-3q-22 -37 -22 -60q0 -7 5 -7l6 2q13 -10 13 -16q0 -14 -49 -15q-54 -3 -62 -5q-7 7 -7 17q0 19 24 19h7l4 4q24 67 47 143q-4 7 -17 7q-16 0 -32 -10t-19 -22q-22 0 -22 16q0 8 5.5 18.5
t14.5 19.5q20 22 37 22q8 -8 28 -12q14 -2 27 -2q9 0 16 1q15 0 24 1q17 0 25 1h18h6q19 13 24 13q20 0 20 -34q0 -39 -17 -39q-11 0 -23 25q-5 1 -12 1zM570 332q-7 -16 -30 -45q-23 -28 -32 -28q-8 5 -28 48q-16 34 -26 65q-16 -35 -35 -93l1 -3h5q8 0 12.5 -1.5t4.5 -7.5
q0 -16 -18.5 -20.5t-55.5 -4.5q-33 0 -33 13q0 15 25 19q3 1 10.5 1.5t12 2.5t4.5 6q20 47 45 141h-6q-24 0 -24 11q0 15 26 24q25 7 41 7q7 0 18 -18l22 -41q15 -27 24 -53l6 -24q24 30 29 38l11 15q7 12 30 37l13 15t13.5 14.5t12.5 8.5q8 3 21.5 4t32.5 1q40 0 40 -14
q0 -8 -10 -16.5t-17 -8.5q-4 0 -7 4l-17 -3l-21 -78q-6 -20 -10 -36.5t-3 -25.5q0 -8 1 -9q3 1 11 1q18 0 18 -14q0 -19 -28 -19h-8q-13 0 -40 -4q-10 2 -16 2h-8l-26 -3l-10 13q8 11 18 15q2 1 14 4.5t19 9.5q6 5 6 19v5q-1 2 -1 8q0 25 18 83q-21 -37 -55 -65z" />
    <glyph glyph-name="dieresis" unicode="&#xa8;" horiz-adv-x="411" 
d="M350 491q-9 0 -16 42q0 17 22 33q21 16 35 16q31 0 31 -32q0 -37 -44 -45q-26 -14 -28 -14zM245 496q-18 0 -25 43q0 15 19 29q19 12 29 12q15 0 24.5 -11.5t9.5 -26.5q0 -31 -33 -37q-16 -9 -24 -9z" />
    <glyph glyph-name="AE" unicode="&#xc6;" horiz-adv-x="1005" 
d="M1007 535q-2 -26 -26 -67q-11 -17 -19 -35q-2 -4 -8.5 -18t-12.5 -21q-7 -7 -16 -12q-20 9 -20 28q0 10 4 21l4 16l2 13v6q0 40 -45 46l-38 5l-12 2q-10 0 -17 -7l-23 -29l-17 -36q-10 -21 -20 -33q-7 -9 -16 -31q-6 -15 -17 -30q-12 -13 -12 -39q0 -7 12 -11t24 -4
q55 0 60 48l8 23q9 15 24 15q23 0 24 -24q-3 -23 -16 -43l-14 -25q-19 -36 -20 -37l-19 -24l-1 -11q-4 -38 -16 -63q-7 -15 -18 -15q-7 0 -15 7t-8 15q4 13 12 30q6 17 6 27q0 15 -10.5 25.5t-27.5 10.5q-18 0 -35.5 -16t-23.5 -35l-35 -98q-1 -1 -1 -11v-14q0 -22 13 -35
q5 -6 12.5 -7t19.5 -1q8 0 13 1q10 -18 19 -18q3 0 14 8q8 7 16 10h18q19 0 34 5t31 17q15 11 37 34.5l49 54.5q11 6 20 6q27 0 27 -24q0 -7 -8 -18l-19 -28l-17 -53q-14 -35 -46 -35l-9 1l-18 3q-21 3 -42 3q-8 0 -26 -2q-13 -3 -27 -3q-20 0 -32 5q-39 -12 -83 -12h-10
q-7 0 -10 1h-87q-47 0 -58 -1t-23 -1l-8 -2q-2 -1 -16 -1q-12 0 -21.5 8t-9.5 21t9 25t20 12q1 0 13 -5q8 3 18 3q8 0 24 -3q14 -2 18 -2q15 0 27 11q15 15 24 37l3 9q12 5 19 16q6 8 19 41v3q0 10 12 38q11 26 11 34t-16 8h-8q-3 -1 -9 -1q-13 0 -41 4q-21 3 -31 3
q-44 0 -61 -44q-11 -13 -56 -54q-49 -44 -109 -111q-4 -4 -9 -5q-20 -7 -25 -10q-6 -3 -9 -9q-7 -1 -67 -33l-44 -11q-12 15 -20 15h-5q-2 -1 -5 -1q-27 0 -45 24t-18 57q0 28 15.5 49.5t40.5 21.5q18 0 40 -19l50 -52q7 -4 19 -4q49 0 71 17q9 6 17 21l15 28q11 1 19 6
t13 21q6 5 15 9q7 4 12.5 9l11.5 11t9 10l35 35q54 56 89 96q48 55 53 70q19 21 52 47q37 19 37 38q0 7 -12 11.5t-33 8.5l-33 3h-19q-19 0 -26 -4t-12 -9q-5 -7 -10.5 -10.5t-18.5 -3.5q-12 0 -18 9q-1 -1 -6 -1q-7 0 -13.5 4.5t-6.5 12.5q0 38 130 38h61q9 4 24 4
q20 0 41 -4l44 -6q10 0 22 5t15 5q6 0 13 -4t12 -4q6 0 8 1q21 6 59 7l105 4l6 4l12 8q18 12 23 12q10 0 20 -18q6 -13 6 -24zM664 451q-1 1 -7 1q-10 0 -17 -7l-24 -24q-9 -2 -18 -8q-13 -10 -25 -25l-41 -52q-17 -2 -17 -21q0 -11 14 -14q12 -4 39 -4q16 0 32 10
q6 8 18 29q3 11 9 21l11 27z" />
    <glyph glyph-name="Oslash" unicode="&#xd8;" horiz-adv-x="552" 
d="M498 540l-17 -22l27 -36q5 -6 8.5 -24t3.5 -36q0 -9 -2 -25q-2 -18 -2 -24q0 -23 5 -46t5 -39q0 -10 -11 -51q-15 -15 -25 -30.5t-10 -38.5q0 -17 -21 -46q-21 -28 -27 -34q-8 -10 -16 -18q-22 -20 -44 -44q-13 -15 -16 -22l-8 -6q-27 -18 -47 -27q-13 -6 -22 -6
q-8 0 -20 -3q-11 -4 -27 -4t-36 14h-2q-6 0 -13 -5q-17 -13 -24 -14q-10 -2 -16 -2q-14 0 -50 11q-13 0 -15 -9q-1 -21 -12 -27q-10 -7 -16 -7q-16 0 -20 25q15 27 42 61q-19 23 -38 40l-31 110q-1 1 -1 7q0 8 7 31q7 21 7 57v7q0 20 4 24l26 51q5 9 7 24l2 15q3 3 9 13
q10 16 11 18l23 52l10 8l9 8l34 34l7 3.5t16 6.5l52 21l12 2q24 2 44 7q11 3 17 9h59q20 2 36 6q18 5 29 5q13 0 28 -12l19 29h8q31 0 39 -20q-5 -7 -17 -21zM132 87l27 36q4 10 5 15q5 15 21 37q11 15 24 29q22 25 31 41.5t12 21.5q7 13 23 35q15 22 47 58l69 107
q-2 20 -9 28q-14 16 -47 16q-17 0 -27 -3q-17 -7 -39 -26q-7 -9 -16 -14q-33 -20 -51 -34q-17 -14 -39.5 -40.5t-38.5 -53.5q-32 -55 -38 -107q-3 -25 -3 -50q0 -20 2 -44l1 -20l2 -10q4 -23 9 -37q3 -8 6 -8t5 1q1 1 4 1h2q0 -1 1 -1zM274 229l-141 -209q9 -4 26 -9
q9 -3 31 -13q3 0 9 3l7 2q3 -1 11 -1q39 0 72 24q36 25 48 60q2 6 14 16q9 6 11 11q1 11 10 40q6 6 11.5 12.5t9.5 17.5q4 9 9 31l12 56q11 15 17 38.5t7 49.5q1 8 1 22q0 13 -1 19l-1 21q0 13 -5 13q-6 0 -14 4q-51 -69 -144 -208z" />
    <glyph glyph-name="plusminus" unicode="&#xb1;" horiz-adv-x="467" 
d="M358 197q-1 -11 -17 -19q-14 -9 -24 -9l-72 -2q-9 0 -26 -17q-21 -21 -26.5 -43t-6.5 -59l-20 2l-14 2q-6 0 -6 2q0 18 11 56l12 43q0 2 1 3v2q0 13 -21 13q-20 0 -39 -6q-18 -7 -50 -7q-2 8 -2 11q0 17 17 26l13 6q3 1 10 4q6 -1 28 -1h46q12 6 17 18t7.5 24.5t3.5 16.5
l12 35q10 33 30 33q8 0 15 -4q-4 -11 -4 -20q0 -2 1 -2v-2q-2 -5 -4 -16q-1 -5 -7 -22l-9 -24v-2q0 -7 9.5 -19.5t17.5 -13.5q0 1 37 3q3 -1 12 -1t15 -1q5 -7 15 -8q3 -1 8 -1h5q4 0 5 -1zM294 3q0 -9 -23 -17q-9 -1 -45 -1q-21 -1 -81 -1h-62h-7q-5 -1 -16 -1h-18l-14 -1
q-14 5 -14 13q0 12 28 23q3 -1 42 -1l74 7q12 -5 122 -5q14 -9 14 -16z" />
    <glyph glyph-name="yen" unicode="&#xa5;" horiz-adv-x="613" 
d="M607 507q0 -10 -12 -17t-27 -10q-29 -4 -47.5 -9t-34.5 -15q-31 -19 -74 -72q-27 -15 -49 -32h73q19 0 19 -13t-19 -22l-113 1q-35 -33 -65 -71l131 -2h3q16 0 16 -13t-18 -22l-154 2l-2 -8l-57 -145l-3 -8q-1 -7 -4 -10q0 -5 1 -6.5t5 -1.5l9 1q5 1 25 1q29 0 34 -8
q0 -29 -38 -29h-17q-3 1 -8 1h-5h-138q-25 2 -35 11q1 12 29 19q7 2 23 4h11t14 7t13 24l28 74q12 28 29 74h-34q-11 -1 -30 -1q-84 0 -84 4q0 11 4 19q8 15 34 15h21q14 0 21 -1q11 0 17 1h18h22q7 -1 24 -1l1 5q3 8 3 13q0 6 -3 10q-9 13 -14 25q-4 7 -4 17h-19
q-6 -1 -17 -1q-29 0 -39 1l-23 3l1 6q0 14 14 24q8 5 23 5h22q7 -1 21 -1h18l-3 17q-9 33 -27 71l-3 21q-1 9 -11 11q0 4 -7.5 6.5t-9.5 3.5l-17 3q9 20 18 20h40q26 0 26 1h56q8 0 11 1q7 0 10 1h10q18 0 18 -5q0 -4 -14 -15h-36q-8 -3 -11.5 -11.5t-3.5 -18.5q0 -14 6 -26
q6 -13 6 -21q-1 -7 -1 -15v-4q6 -28 10 -40q13 -1 50 -1q42 0 69 -1l22 20h2q6 0 16 10q12 12 37 33q53 44 53 51t-2.5 10t-8.5 6q-1 0 -4.5 2t-5.5 4.5t-2 6.5q0 10 8 14.5t18 4.5q9 0 14 -1t12 -1q14 0 25 3q14 2 25 2t23 -4q15 -5 21 -5q7 0 16 3q5 -2 5 -5zM294 318
l-65 1q5 -21 17 -42q8 6 48 41z" />
    <glyph glyph-name="uni00B5" unicode="&#xb5;" horiz-adv-x="373" 
d="M264 -2q-8 4 -15 4q-6 0 -13 -4t-13 -4q-4 0 -11 7q-7 6 -19 9q7 10 7 22q0 13 -12 16l-6 -3q-6 -4 -9 -7q-15 -13 -21 -14q-6 -2 -36 -16q-24 -11 -43 -11q-11 0 -20 6q-8 -11 -13 -15l-20 -63q-14 -34 -44 -65q-36 -38 -70 -38q-12 0 -21 15t-9 33q0 24 20 41.5
t47 17.5q13 0 20 -4q17 11 35 61l15 42l9 24q6 18 6 25l4 8l21 59l21 66q4 12 4 17q0 9 -5 17q-6 8 -6 12q0 8 8.5 11.5t19.5 3.5h5h12q16 0 28 -6q6 -3 6 -10t-3 -15l-22 -66q-13 -13 -19 -40q-2 -14 -2 -17q0 -9 -1 -10l-15 -43q3 -20 18 -20l15 2l15 2q3 0 11 -2
q62 28 81 50l34 100q3 9 3 16q0 12 -7 13t-7 10t8 20t16 11q5 0 6 -1h27l18 3q16 0 16 -16q0 -5 -1 -8q-3 -13 -5 -17q-11 -26 -37 -74q-10 -15 -16 -42l-19 -68q14 -8 22 -16q1 1 3 1q10 0 10 -18q0 -16 -21 -16q-2 0 -10 4z" />
    <glyph glyph-name="ordfeminine" unicode="&#xaa;" horiz-adv-x="299" 
d="M254 404l-6 -23q-9 -11 -23 -35q0 -3 1 -4v-6q0 -6 -3 -30l-3 -12q0 -1 5 -3q9 -6 17 -14q4 -4 4 -8q0 -8 -14 -14t-43 -6q-32 0 -50 25q-5 5 -10 5q-10 0 -24 -12q-16 -14 -24 -15q-18 -5 -26 -9l-11 -6q-3 0 -7 4h-4q-11 0 -20.5 9t-9.5 21q0 8 7 19q11 22 18 43l18 18
q6 9 22 28l5 12q3 2 7 8l7 10q11 5 32 24l3 6q27 15 67 15h11q3 -1 11 -1q3 10 16.5 12.5t37.5 2.5q19 0 19 -19q0 -10 -6 -24q-7 -4 -24 -21zM197 402q-6 7 -13 7q-3 0 -11 -5q-8 -6 -20 -6q-7 0 -9 1q-14 -5 -30 -21q0 -6 -3 -11q-10 -18 -13 -26q-3 -9 -3 -23
q0 -10 8 -10l7 2q22 5 35 12q9 4 16 14q2 2 3.5 5t4.5 6q2 3 5 6.5t4 6.5l6 22q3 14 13 17v3zM176 176l-30 -2q-9 -1 -24 -1h-58h-8q-4 -1 -14 -1h-17q-5 -1 -14 -1q-13 4 -13 11q0 13 30 23q2 -1 41 -1l72 6q4 -4 30 -4q30 0 45 3t15 1q11 -8 11 -14q0 -9 -23 -17z" />
    <glyph glyph-name="ordmasculine" unicode="&#xba;" horiz-adv-x="315" 
d="M269 384q-7 -7 -9 -11q-4 -11 -14 -28q-13 -20 -32 -65l-25 -15q-19 -35 -91 -35q-14 0 -29 3h-5q-21 0 -36 22t-15 52q0 14 6 20l14 16l13 29q15 23 36 39l17 4q2 0 11 14q27 14 58 15q8 1 15 1t14 1q19 0 29 2h5q19 0 32.5 -14t13.5 -37q0 -5 -8 -13zM195 371
q0 13 -9 24t-19 11q-7 0 -19 -7q-14 -7 -18 -7q-2 0 -2 1h-3q-15 -1 -26 -20l-17 -34q-12 -15 -12 -37q0 -44 35 -47q12 0 27 9.5t27 25.5q12 15 19.5 31.5t7.5 29.5q9 8 9 20zM119 159h-62h-6q-18 -2 -34 -2h-7q-20 0 -20 12t30 24q3 -1 42 -1l75 7q4 -4 35 -4q34 0 62 2
q21 2 21 1h-2q12 -7 12 -15q0 -11 -25 -18z" />
    <glyph glyph-name="ae" unicode="&#xe6;" horiz-adv-x="545" 
d="M527 249q-51 -72 -156 -72q-11 0 -18 4q-7 3 -12 3q-19 0 -44 -50l-20 -38v-5q0 -11 6 -20l8 -9q15 -12 39 -12q20 0 31 8q10 7 22 7t21.5 -7t9.5 -17q0 -8 -12.5 -16t-32.5 -14q-45 -14 -82 -14q-38 0 -64 8t-42 30q-4 7 -13 7q-8 0 -18.5 -8t-12.5 -9q-3 -2 -14 -10.5
t-20 -9.5q-21 -4 -35 -13l-14 -8l-9 5h-4q-16 0 -29 12t-13 29q0 10 5.5 21t21.5 36l6 28l24 25q6 10 31 39l6 16q10 10 19 24q14 6 42 33q17 25 30.5 32t31.5 7q8 0 30 -5q19 -4 32 -6q4 22 20.5 38.5t36.5 16.5q26 0 35 -43l8 7l41 12q24 12 50 14q6 1 12 1t11 1q9 0 12 1
q4 0 5 1h4q15 0 32 -14q16 -14 16 -31q0 -8 -5 -16q-15 -7 -29 -19zM453 275h-4h-4q-23 -1 -50 -23q-12 -9 -20 -20.5t-8 -20.5q0 -6 1.5 -9t7.5 -3q8 0 12 4l46 20q28 13 30 34q0 4 -5 17q-5 0 -6 1zM272 234q-10 10 -22 10q-8 0 -40 -17h-2q-1 -1 -3 -1q-3 0 -19 2
q-16 -6 -28.5 -17.5t-28.5 -37.5q-7 -13 -8 -15q-5 -8 -3 -16q0 -14 -6 -20l-10 -9q-13 -11 -13 -19t6 -12.5t11 -4.5l18 5q14 4 40 7q25 4 49 34q21 30 24 35q7 11 8 13l3 4l12.5 9.5t11.5 11.5q6 11 6 19q0 2 2 10z" />
    <glyph glyph-name="oslash" unicode="&#xf8;" horiz-adv-x="353" 
d="M314 346l-15 -12q-3 -3 -3 -5q0 -4 10 -13t16 -19q-2 -10 -2 -21q0 -4 1 -7v-8q0 -17 -8 -38l-3 -24q-2 -11 -8.5 -21t-14.5 -21q-3 -3 -18.5 -22t-32.5 -49q-13 -7 -24 -20q-14 -16 -30 -32q-1 -1 -8 -1q-15 -2 -33 -8q-9 -3 -10 -9q-11 -7 -25 -11q-16 -4 -30 -5
q-2 2 -9 5q-14 -3 -18 -8.5t-7 -24.5l-19 -7q-8 -4 -15 -4q-10 0 -13 15q1 3 8 10l9 9q12 12 17 27l-13 3l-11 2q-13 16 -13 50q0 21 6 34q30 59 51 89.5t45 50.5q4 13 16 35q3 4 34 12l22 4q7 1 13 4q15 17 22 23q4 4 8 4q5 0 8 -1t13 -1q20 0 28.5 6.5t14.5 18.5
q6 13 12 18.5t21 5.5t15 -16l-2 -14q-3 -4 -5 -4zM71 95q1 0 4 -3q3 -4 5 -4t9 7l31 38l14 20q6 20 23 52q16 9 23 17l15 20q1 2 23 37l-20 13q-6 0 -23 -18q-15 -15 -42 -37q-15 0 -24 -19l-12 -28q-15 -15 -21.5 -38t-6.5 -58zM148 131l-15 -23q-22 -36 -35 -54q7 -3 8 -9
q2 -6 6 -6q19 0 40 21q23 23 33 53q1 5 8 19q20 37 28 58q6 14 10 34q2 2 -6 5q-7 1 -7 5q-40 -56 -70 -103z" />
    <glyph glyph-name="questiondown" unicode="&#xbf;" horiz-adv-x="474" 
d="M298 415q31 0 31 -32q0 -20 -14.5 -35.5t-35.5 -15.5q-39 0 -39 37q0 18 9.5 32.5t22.5 14.5q5 0 11 -3zM264 161l-41 -39q-11 -7 -46 -16q-58 -17 -81 -31q-25 -16 -25 -41q0 -18 15.5 -33.5t31.5 -15.5q14 0 18 13q16 37 46 37q31 0 31 -29q0 -32 -37 -53
q-14 -9 -27 -12q-12 -4 -16 -4q-7 0 -32 5q-9 1 -25 1q-29 -2 -41 8q-9 5 -10 17q-27 13 -27 44q0 29 25 61q17 22 48 45l57 20l43 12q64 28 64 59q0 17 -27 18q-8 0 -13 5q-4 4 -8 4l-10 -2q-7 10 -7 22q0 34 63 34q22 0 40 -6q3 -22 18 -61q0 -36 -27 -62z" />
    <glyph glyph-name="exclamdown" unicode="&#xa1;" horiz-adv-x="370" 
d="M251 375q0 -18 -15.5 -31t-40.5 -13q-27 0 -27 26q0 18 10 31t24 13h4q13 7 23 7q6 0 11 -5t9 -11q2 -14 2 -17zM47 -65.5q-5 -3.5 -9 -3.5q-2 0 -3 1q-8 -7 -21 -10q-2 1 -16 1q-7 -3 -14 -3q-20 0 -20 21q0 16 11 29q9 10 22 35l16 29q3 5 10 15q10 13 21 32
q12 20 49 99l29 60q10 20 18 30q5 8 10 10t13 2q11 0 11 -7q1 -9 -10 -33q-27 -58 -45 -108q-17 -46 -22 -67q-7 -29 -23 -72q-9 -27 -21 -55q-1 -2 -6 -5.5z" />
    <glyph glyph-name="logicalnot" unicode="&#xac;" horiz-adv-x="743" 
d="M431 592q-16 0 -38.5 -12t-70.5 -41q-8 -8 -11.5 -16.5t-7.5 -23.5q-9 -37 -29 -67l-26 -40q-11 -20 -10 -50q0 -17 4 -21h89q8 0 9 -10v-22q-22 -19 -60 -19h-7q-7 0 -10 1h-17q-35 0 -59 -24.5t-33 -64.5l-22 -36q-7 -10 -32 -65q-19 -40 -44 -68q-25 -25 -32 -31
q-13 -12 -49 -48q-11 -10 -35 -59q-14 -29 -28 -47.5t-42 -34.5q-1 -1 -5 0q-10 0 -24 -7q-9 -5 -14 -13q-9 -13 -18.5 -16.5t-26.5 -3.5q-69 0 -87 29l-12 6q-20 8 -32 26q-7 8 -7 22q0 24 23 40.5t56 16.5q38 0 61 -21q7 -34 44 -34q23 0 59 44q34 42 46 42l29 37
q20 24 25 43q5 21 20 43l11 14q1 2 5 9q0 18 12 43q12 30 36 73l9 12q17 22 24 36q4 8 4 17q0 15 -1 20l-1 9q10 18 11 31q37 17 77 96l57 117q29 44 69 71q6 5 28 9q19 4 42 19q13 10 40 18t57 8q9 0 27 -6q14 -5 29 -7q26 -3 35 -11q6 -6 8 -13t3 -23q2 -21 11 -38l37 34
q10 9 49 40q14 17 40 25q28 9 84 13l23 -7q34 -11 53 -31q10 -11 10 -30v-2l-9 -33q-11 -29 -40 -29q-16 0 -29 5t-21 21q-13 35 -67 35q-11 0 -24.5 -6t-38.5 -21q-7 -13 -18 -27l-22 -31q-13 -9 -18.5 -16t-8.5 -23q-1 -1 -2.5 -3.5t-5.5 -7.5q-7 -10 -7 -15q0 -1 -15 -25
q-15 -25 -28 -59q-10 -10 -10 -14q0 -10 14 -17q12 -6 22 -6q11 0 23 3q16 2 21 2q19 0 31 -6l37 15q14 2 18 2q32 0 32 -36q0 -19 -4.5 -32t-13.5 -28l-20 -29q-12 -15 -24 -36q-20 -15 -33 -39t-13 -52q0 -32 24 -32q5 0 15 9t19 19q25 27 34 27q5 0 13 -4t8 -11
q0 -19 -67 -65q-8 -1 -40 -15q-30 -14 -42 -14q-9 0 -17 6q-11 7 -30 13q-8 11 -8 39l1 13q2 21 21 57q12 19 28 35q3 11 23 56l11 27l5 10q0 8 -6 14q-6 5 -20 20q-6 0 -11 -1l-32 -4q-5 -1 -12 -1h-13q-3 1 -10 1q-19 0 -25 -23q-6 -2 -43 -84q-12 -9 -30 -42l-18 -33
q-9 -19 -26 -44.5t-21 -32.5q-9 -13 -16 -25l-25 -40v-5q0 -17 -11 -33l-26 -42q-1 -2 -26 -36q-21 -27 -28 -32q-12 -8 -15 -15q-7 -15 -22 -22q-11 -5 -37 -9q-29 -30 -47 -30h-97q-7 0 -17.5 6.5t-19.5 15.5q-24 22 -24 37q0 9 15 21l6 8q8 13 22 24q8 5 16 5
q13 0 25 -14q12 -15 28 -25l42 -18q1 -1 5 -1q40 0 97 63q16 17 40 47q16 22 25 31q6 5 4 13q-1 6 1 12q6 11 20 30q12 17 14 49q0 8 4.5 13.5t12.5 11.5q16 12 17 20q1 15 14 45.5t15 35.5l9 20l24 54t11 35q0 6 -1 9q-1 2 -1 6q0 9 18 27l13 14q6 6 10 12q5 11 17 21
q6 4 9 7q3 2 12 11v25l20 25l10 13q4 5 4 8q0 2 6 9q3 6 12 16q17 23 17 27q0 9 -15 13q-5 -5 -9 -5q-8 0 -25 23q-18 24 -30 34l-10 7l-9 6q-14 9 -26 9z" />
    <glyph glyph-name="florin" unicode="&#x192;" horiz-adv-x="583" 
d="M813 544.5l-13 6.5q-24 11 -51 11q-33 0 -60.5 -15t-45.5 -45t-31 -36q-2 -16 -31 -51l-39 -47q-1 -4 -1 -10v-10q0 -21 9 -26t28 -5q13 0 45 5t47 5q22 0 32 -5.5t10 -26.5q0 -19 -16 -23q-18 -5 -51 -5q-31 0 -52 8q-18 7 -30 7q-21 0 -48.5 -29t-51.5 -75l-50 -97
q-8 -8 -13 -15q-23 -29 -38 -45q-8 -9 -13 -11q-45 -40 -105 -141l2 -10q0 -6 -7 -10q-23 -15 -31 -25q-7 -7 -7 -21l-22 -19q-40 -34 -82 -34q-8 0 -12 -1q-14 -2 -34 8q-13 7 -33 22t-26 23q-7 7 -7 22q0 43 24 64q18 14 48 14q43 0 60 -44q7 -19 13 -19l39 6q30 8 31 29
l15 12l6 14q16 31 37 62q12 16 24 27l3 15q17 23 26 39.5t12 37.5q20 29 45 76q32 58 32 85q0 12 -18 28l4 21q3 15 36 23q29 6 58 35q13 13 22 27.5t10 26.5q18 12 40 52q25 45 29 50q10 14 10 21q0 13 -13 13q-11 0 -27 -14q-18 -14 -25 -14q-13 0 -33 14l-33 23
q-15 7 -39 7q-19 0 -66 -7q-4 -1 -15 -14l-9 -10l-5 -5q-15 -14 -23 -33q-10 -23 -29 -54l-26 -40q-11 -20 -10 -50q0 -17 4 -21h89q8 0 9 -10v-22q-22 -19 -59 -19q-11 0 -19 1t-18 1q-65 0 -90 -90l-22 -36q-7 -10 -32 -65q-19 -40 -44 -68q-25 -25 -32 -31
q-13 -12 -49 -48q-11 -10 -35 -59q-14 -29 -28 -47.5t-42 -34.5q-1 -1 -5 0q-10 0 -24 -7q-9 -5 -14 -13q-9 -13 -18.5 -16.5t-26.5 -3.5q-69 0 -87 29l-12 6q-20 8 -32 26q-7 8 -7 22q0 24 23 40.5t56 16.5q38 0 61 -21q7 -34 44 -34q23 0 59 44q34 42 46 42l29 37
q20 24 25 43q5 21 20 43l11 14q1 2 5 9q0 18 12 43q12 30 36 73l9 12q17 22 24 36q4 8 4 17q0 15 -1 20l-1 9q10 18 11 31q37 17 77 96l57 117q29 44 69 71q6 5 28 9q19 4 42 19q13 10 40 18t57 8q9 0 27 -6q14 -5 29 -7q26 -3 35 -11q6 -6 10 -17l1 -6q0 -19 9 -42
q4 -10 11 -10q10 0 20 16l15 26q4 6 25 16q14 5 33 16q28 16 56 21q17 3 42 3q47 0 67 -10q26 -13 26 -50q0 -49 -55 -49q-14 0 -25 5.5z" />
    <glyph glyph-name="guillemotleft" unicode="&#xab;" horiz-adv-x="425" 
d="M102 26q-1 -6 -6.5 -16t-8.5 -10q-1 0 -1 1l-66 107q0 2 -4 17q-7 12 -8 13q-2 2 -2 4q1 26 23.5 55t65.5 64l108 86q6 -2 10.5 -11t4.5 -18q0 -16 -32 -40q-3 -2 -7.5 -5.5t-9.5 -6.5l-40 -32l-24 -20l-10 -9q-19 -17 -28 -36q-6 -10 -6 -24q0 -24 16 -55l15 -22
q10 -19 10 -38v-4zM228 10q-5 -9 -8 -9q-1 0 -9 12q-17 26 -38 63q-8 16 -20 33q-4 20 -9 25q-5 3 -5 8q1 48 89 119l108 86q6 -2 10.5 -10t4.5 -19q0 -14 -24 -34t-64 -50q-26 -20 -25 -19l-10 -9q-17 -15 -28 -36q-6 -12 -6 -25q0 -19 21 -57q21 -40 21 -62q-3 -7 -8 -16z
" />
    <glyph glyph-name="guillemotright" unicode="&#xbb;" horiz-adv-x="430" 
d="M396 143q-8 -9 -20 -16q-9 -7 -17 -16l-148 -107q-1 0 -1 -1q-2 0 -3 4q1 30 49 64l32 22q66 51 74 86q-3 30 -7 38l-32 64q-7 13 -7 23t14 25.5t29 20.5l21 -42q20 -40 33 -79q5 -22 5 -35q0 -12 -3 -26zM252 140q-9 -10 -21 -16q-4 -3 -16 -15l-148 -107q-1 -1 -3 -1
q-1 0 -1 3q0 17 13 33.5t35 30.5q47 31 74.5 59.5t32.5 49.5l-2 22l-2 12l-10 20l-26 47q-6 14 -6 23q0 12 12.5 26.5t29.5 19.5q31 -63 45 -95.5t14 -59.5q0 -13 -3 -27q-10 -15 -18 -25z" />
    <glyph glyph-name="ellipsis" unicode="&#x2026;" horiz-adv-x="442" 
d="M392 29q0 -20 -11 -35.5t-28 -15.5q-9 0 -18 5t-15 12q-7 7 -11.5 15t-4.5 14q0 20 13 38q14 19 29 19q17 0 30.5 -9t13.5 -22v-2q-1 -1 -1 -3q3 -7 3 -16zM227 -2.5q-16 -7.5 -30 -7.5q-12 0 -22.5 12t-10.5 28t17.5 32t37.5 16q17 0 25 -13t8 -32q0 -9 -4 -18
q-5 -10 -21 -17.5zM106.5 2.5q-9.5 -12.5 -21.5 -12.5q-5 0 -7 1q-2 -1 -10 -1q-19 0 -33.5 11t-14.5 26q0 7 4.5 15t11.5 14q6 6 14 10t14 4q7 0 17 -3.5t17 -9.5q18 -14 18 -27q0 -15 -9.5 -27.5z" />
    <glyph glyph-name="uni00A0" unicode="&#xa0;" horiz-adv-x="100" 
 />
    <glyph glyph-name="Agrave" unicode="&#xc0;" 
d="M879 600q-6 -11 -17 -11t-33 27q-6 7 -16 23l-12 17q-5 8 -15 22q-17 21 -33 45q-6 9 -6 13q0 21 21 23q5 1 15 1q6 0 6 2q10 -1 18 -12t18 -31l14 -34q4 -16 9 -24zM726 387l-12 -30l-35 -66q-14 -37 -46 -98q-8 -23 -26 -63l-14 -34q-6 -16 -6 -19q0 -13 8.5 -18.5
t26.5 -11.5q19 -7 27 -11t8 -13q0 -13 -15 -21t-38 -8l-37 3h-7q-34 0 -95 10q-3 1 -14 1t-31 -2l-10 -2t-10 -1q-13 0 -22 13q8 38 40 38l24 -2l20 -3q12 0 33 26q21 28 22 44q14 9 22 31q4 11 4 26v5q18 38 18 54q0 5 -3.5 8.5t-6.5 3.5h-6q-2 -1 -7 -1q-13 0 -39 4
q-19 3 -29 3q-44 0 -61 -44q-14 -18 -55 -53q-44 -39 -110 -113q-3 -3 -10.5 -5.5l-10.5 -3.5q-17 -6 -22 -15q-9 -3 -20 -8q-19 -9 -47 -24l-44 -11q-12 15 -20 15h-6q-2 -1 -6 -1q-26 0 -43.5 24t-17.5 57q0 27 16 48.5t40 21.5q21 0 40 -19l50 -51q4 -4 19 -4q51 0 71 17
q8 6 17 20l15 28q10 1 18.5 6t13.5 21q9 4 17 10t22 21l37 39l67 68q38 38 55 61l20 27q13 18 24.5 30.5t34.5 30.5q19 11 36 37q23 34 45 53q11 11 24 21q12 9 30 29q10 17 16.5 25t13.5 9q0 2 2 2q3 0 13 -10q13 -14 48 -38q-15 -39 -76 -187zM653 441.5q-6 4.5 -12 4.5
q-2 0 -3 -1l-25 -25q-8 0 -18 -7q-12 -9 -25 -27l-41 -52q-17 -2 -17 -20t54 -18q45 0 63 54v3q-1 1 -1 3q0 3 2 17q30 54 30 59q-1 5 -7 9.5z" />
    <glyph glyph-name="Atilde" unicode="&#xc3;" 
d="M899 636q-10 0 -31 8l-19 12q-16 10 -29 10h-5q-1 -1 -2.5 -1t-2.5 -1q-2 -1 -10 -1q-3 0 -17 -1t-21 -7q-12 -11 -23 -28q-4 -7 -10 -13l-20 7q2 23 25 55q25 34 57 34q12 0 58 -12l31 -8q12 -4 17 -4q6 0 14.5 8.5t8.5 14.5q0 4 -8 9q-9 3 -9 11q0 12 9 22q15 17 40 17
q35 0 35 -34q0 -19 -13 -35q-45 -63 -75 -63zM726 387l-12 -30l-35 -66q-14 -37 -46 -98q-8 -23 -26 -63l-14 -34q-6 -16 -6 -19q0 -13 8.5 -18.5t26.5 -11.5q19 -7 27 -11t8 -13q0 -13 -15 -21t-38 -8l-37 3h-7q-34 0 -95 10q-3 1 -14 1t-31 -2l-10 -2t-10 -1q-13 0 -22 13
q8 38 40 38l24 -2l20 -3q12 0 33 26q21 28 22 44q14 9 22 31q4 11 4 26v5q18 38 18 54q0 5 -3.5 8.5t-6.5 3.5h-6q-2 -1 -7 -1q-13 0 -39 4q-19 3 -29 3q-44 0 -61 -44q-14 -18 -55 -53q-44 -39 -110 -113q-3 -3 -10.5 -5.5l-10.5 -3.5q-17 -6 -22 -15q-9 -3 -20 -8
q-19 -9 -47 -24l-44 -11q-12 15 -20 15h-6q-2 -1 -6 -1q-26 0 -43.5 24t-17.5 57q0 27 16 48.5t40 21.5q21 0 40 -19l50 -51q4 -4 19 -4q51 0 71 17q8 6 17 20l15 28q10 1 18.5 6t13.5 21q9 4 17 10t22 21l37 39l67 68q38 38 55 61l20 27q13 18 24.5 30.5t34.5 30.5
q19 11 36 37q19 29 35 41q7 7 20 15q8 6 29 25q36 48 99 48q18 0 18 -16q0 -10 -9 -22q-15 -39 -76 -187zM653 441.5q-6 4.5 -12 4.5q-2 0 -3 -1l-25 -25q-8 0 -18 -7q-12 -9 -25 -27l-41 -52q-17 -2 -17 -20t54 -18q45 0 63 54v3q-1 1 -1 3q0 3 2 17q30 54 30 59
q-1 5 -7 9.5z" />
    <glyph glyph-name="Otilde" unicode="&#xd5;" horiz-adv-x="528" 
d="M499 636q-10 0 -31 8l-19 12q-16 10 -29 10h-5q-1 -1 -2.5 -1t-2.5 -1q-2 -1 -10 -1q-3 0 -17 -1t-21 -7q-12 -11 -23 -28q-5 -8 -10 -13l-20 7q2 23 25 55q25 34 57 34q12 0 58 -12l31 -8q12 -4 17 -4q6 0 14.5 8.5t8.5 14.5q0 4 -8 9q-9 3 -9 11q0 12 9 22q15 17 40 17
q35 0 35 -34q0 -19 -13 -35q-45 -63 -75 -63zM506 347q0 -77 -33 -115q-5 -5 -14 -50l-81 -101q-12 -16 -28 -32q-29 -29 -47 -30q-28 -3 -54 -16t-45 -28h-9q-11 0 -18 -1t-22 -1l-21 -2q-7 -1 -15 -1q-35 0 -55 17q-3 10 -7 28q-5 24 -24 46q0 2 1 3v4v5q-1 1 -1 6
q-6 15 -12 77q-2 13 -4 44l-1 24q0 17 6 27v59q0 9 14 29q20 24 36 57q13 26 36 57q13 16 23.5 27.5t19.5 17.5q20 13 62 30l12 8q10 6 13 6h119q2 0 11 -6q18 -14 46 -27q14 -6 24 -6q13 0 23.5 -19t32.5 -67q12 -28 12 -70zM414 393l-9 13l-10 11l-4 5q-6 57 -90 76h-4
q-9 0 -35 -12l-46 -22q-10 -4 -24 -26l-16 -15q-16 -14 -30 -43q-7 -15 -15 -39l-12 -34q-9 -22 -12 -37q-2 -14 -2 -28q0 -42 -1 -55l-4 -28l-3 -12q-1 -2 -1 -7q1 -46 21 -82q20 -37 45 -37q13 0 26 9q18 2 42 8q6 3 11 7l32 22l9 5h1q8 12 20 24q31 31 47 54q12 18 20 42
l18 44q7 16 9.5 31t3.5 19q19 12 19 48q0 14 -1 25t-1 26q0 3 -4 8z" />
    <glyph glyph-name="OE" unicode="&#x152;" horiz-adv-x="776" 
d="M768 517q-2 -30 -26 -69q-11 -17 -19 -35q-2 -4 -8.5 -18t-12.5 -21q-7 -7 -16 -12q-20 9 -20 28q0 10 4 21l6 21q0 4 1 7v6q0 24 -16 35.5t-26.5 13.5t-43.5 5l-16 1q-24 0 -51 -36q-15 -21 -22 -49q-4 -16 -5 -24q-8 -34 -26 -57q-12 -15 -12 -37q0 -8 11.5 -13
t25.5 -5q55 0 59 48l8 23q9 15 24 15q23 0 24 -24q-3 -23 -16 -43q-12 -19 -14 -25q-19 -36 -20 -37l-19 -24q1 0 1 -3q0 -14 -5 -35t-13 -36q-7 -15 -18 -15q-7 0 -15 7t-8 15l11 25q3 6 5 18l2 14q0 15 -10.5 25.5t-27.5 10.5q-20 0 -33 -11.5t-24 -34.5q-10 -21 -18 -48
l-19 -55q-1 -1 -1 -11v-14q0 -22 13 -35q5 -6 12.5 -7t19.5 -1q8 0 13 1q11 -18 19 -18q4 0 15 8q8 6 15 10h18q20 0 35 5t31 17q15 11 34 30.5t52 58.5q9 6 19 6q27 0 27 -24q0 -7 -8 -18l-19 -28q-12 -44 -23 -63q-14 -25 -40 -25l-9 1l-18 3q-21 3 -41 3q-9 0 -27 -2
q-13 -3 -27 -3q-20 0 -32 5q-39 -12 -83 -12h-10q-7 0 -10 1h-86q-10 0 -23 7t-28 7l-23 -16h-8q-16 -3 -26 -3q-7 0 -8 1q-26 -2 -36 -2q-46 0 -62 16q-3 10 -7 28q-5 24 -24 46q0 2 1 3v4v5q-1 1 -1 6q-6 14 -12 77l-3 45l-2 23q0 17 6 27v59q0 9 14 29q17 21 36 57
q18 34 37 57q28 35 42 46q11 9 33 17.5t29 11.5l12 8q11 6 14 6h118q10 -3 26 -15q3 0 4 1h5q8 0 15 -1l53 -6q20 -2 27 -2q15 0 23 5q3 1 4.5 2t2.5 2t6 1q6 0 13 -4t12 -4q6 0 8 1q21 6 59 7l105 4q2 0 7 4l12 8q16 12 22 12q10 0 20 -16q6 -13 6 -24zM410 434
q-8 13 -10 18q-13 21 -33 33q-14 6 -34 9l-51 4h-3q-15 0 -52 -19q-13 -13 -24 -13h-2l-4 -2q-10 -4 -24 -26l-16 -15q-16 -14 -30 -43q-7 -15 -15 -39q-4 -17 -9 -28q-9 -20 -13 -35l-3 -27v-47l-6 -32q-4 -15 -4 -28q0 -37 17 -78t33 -50q4 4 11 4q3 0 9 -2q4 -4 12 -5
q5 1 10 6l26 4l18 5q8 4 16 4h3l8 4q20 19 29 31q8 11 9 21q15 5 26 29l6 5l4 6l6 18l15 42l18 44q7 16 9.5 30.5t3.5 18.5q11 17 17.5 32.5t14.5 43.5q1 7 1 14.5t1 15.5q0 20 10 47z" />
    <glyph glyph-name="oe" unicode="&#x153;" horiz-adv-x="551" 
d="M470 212l-6 -6q-21 -21 -28 -26q-8 -6 -16 -8q-83 -18 -123 -38q-34 -18 -34 -46q0 -18 11 -31q14 -19 46 -19l9 3l24 6l26 6q12 3 16 3q10 0 10 -10q0 -21 -27 -35q-10 -6 -20 -9l-11 -3q-12 0 -19 1t-21 1q-18 0 -33 -3t-26 -3q-24 0 -36.5 9.5t-23.5 38.5
q-7 -12 -13 -16q-6 -5 -27 -5q-17 -2 -21 -14q-11 -8 -20.5 -11t-30.5 -5q-34 25 -66 28q-12 17 -12 50q0 22 6 35q27 60 61 107q3 3 16.5 21.5t26.5 47.5q3 4 30 10q24 5 34 11l3 4q13 16 17 19q4 4 8 4q7 0 11 -1q6 -2 12 -2q11 0 17 1t17 1q13 0 27 -9q20 -15 20 -38
l-2 -44l16 17q7 7 9 11q2 3 8 8l21 16l50 33q5 2 21 5l76 9l17 2q18 0 31 -14t13 -33q0 -24 -20 -38q-13 -1 -74 -41zM465 275q0 8 -10 14t-19 6q-12 0 -23 -14q-11 -15 -25 -22q-9 -5 -31 -13q-14 -21 -45 -59q5 -6 19 -6q9 0 26 3t20 3q4 9 15 25q24 6 47 26q21 16 26 35
v2zM192 288q-4 0 -21 -17l-42 -39q-9 0 -14.5 -4t-10.5 -16l-11 -28q-12 -11 -20 -42t-8 -68v-15t4 -19t14 -8h21q1 -1 6 -1q17 0 39 22q18 20 30 53l6 16q13 29 24 57q4 11 10 35l3 9q1 5 5 15q7 19 7 26q0 13 -6 17q-7 4 -35 7h-1z" />
    <glyph glyph-name="endash" unicode="&#x2013;" horiz-adv-x="495" 
d="M195 136l-44 -1q-28 -1 -117 -1q-15 0 -21.5 5t-6.5 22q0 14 4.5 19t24.5 5l117 -1q11 -1 33 -1l218 -3q26 0 26 -25q0 -13 -12 -22z" />
    <glyph glyph-name="emdash" unicode="&#x2014;" horiz-adv-x="725" 
d="M567 167q0 -18 -20.5 -23t-61.5 -5l-69 2q-25 0 -35 1h-19h-48l-4 1q-5 0 -8 1q-6 0 -9 1h-5h-48h-17q-8 0 -11 1h-124q-14 0 -18 -1t-12 -1l-17 -2q-7 -1 -30 -1q-3 0 -10 7q0 20 2.5 29.5t10.5 12.5q7 3 27 5h50h52q19 -1 67 -1q17 0 25.5 -0.5t14.5 -0.5q5 -1 20 -1
q8 -1 39 -1q72 -2 196 -2h47q15 -6 15 -22z" />
    <glyph glyph-name="quotedblleft" unicode="&#x201c;" horiz-adv-x="429" 
d="M183 536.5q-11 -10.5 -32 -25.5q-22 -16 -33 -26.5t-12 -21.5q34 -22 34 -62q0 -23 -16 -36t-49 -13q-41 0 -56 21q-11 15 -11 45q0 53 47 94q45 37 116 51q3 0 4 1h3q10 0 16 -8q0 -9 -11 -19.5zM396 536.5q-11 -10.5 -32 -25.5q-22 -16 -33 -26.5t-11 -21.5
q33 -22 33 -62q0 -23 -16 -36t-48 -13q-42 0 -57 22q-11 15 -11 45q0 53 47 94q44 36 116 50q3 0 4 1h3q10 0 16 -8q0 -9 -11 -19.5z" />
    <glyph glyph-name="quotedblright" unicode="&#x201d;" horiz-adv-x="768" 
d="M715 464q0 -53 -46 -92q-44 -38 -117 -52q-1 -1 -6 -1q-6 0 -11 3t-5 8q0 9 10.5 18t33.5 26q21 14 32 24.5t11 21.5q-34 22 -34 62q0 22 16 35.5t49 13.5q49 0 60 -27q7 -18 7 -40zM499 450q0 -53 -47 -92q-42 -36 -115 -51q-2 -1 -7 -1q-10 0 -16 8q0 9 11 19t33 26
q21 15 32 26t12 22q-34 22 -34 62q0 23 16 36t49 13q50 0 59 -27q7 -18 7 -41z" />
    <glyph glyph-name="quoteleft" unicode="&#x2018;" horiz-adv-x="263" 
d="M192 536.5q-11 -10.5 -32 -25.5q-22 -16 -33 -26.5t-12 -21.5q34 -22 34 -62q0 -23 -16 -36t-49 -13q-42 0 -57 22q-10 14 -10 45q0 53 47 94q44 36 116 50q3 0 4 1h3q10 0 16 -8q0 -9 -11 -19.5z" />
    <glyph glyph-name="quoteright" unicode="&#x2019;" horiz-adv-x="467" 
d="M454 451q0 -54 -46 -93q-45 -37 -117 -51q-2 -1 -7 -1q-10 0 -16 8q0 9 11 19t33 26t33 26.5t11 21.5q-34 22 -34 62q0 23 16 36t49 13q50 0 60 -27q7 -26 7 -40z" />
    <glyph glyph-name="divide" unicode="&#xf7;" horiz-adv-x="430" 
d="M158 285q0 28 23 34l51 12q22 -1 22 -22t-18.5 -39t-42.5 -18h-4h-3q-1 -1 -3 -1q-25 0 -25 34zM232 331zM309 181q0 -9 -24 -17q-59 -5 -122 -5q-17 0 -20 1q-5 0 -8 1q0 1 23 1h-61h-7q-5 -1 -16 -1h-18h-7q-20 0 -20 11q0 14 30 24q2 -1 43 -1l74 7q8 -5 122 -5
q11 -8 11 -16zM157 97q16 -12 16 -30q0 -13 -6 -20q-11 -15 -44 -15q-2 0 -3 1h-2q-15 -3 -25 -3q-25 0 -25 14q0 21 17 43q18 22 37 22t35 -12z" />
    <glyph glyph-name="ydieresis" unicode="&#xff;" horiz-adv-x="424" 
d="M350 491q-9 0 -16 42q0 17 22 33q21 16 35 16q31 0 31 -32q0 -37 -44 -45q-26 -14 -28 -14zM245 496q-18 0 -25 43q0 15 19 29q19 12 29 12q15 0 24.5 -11.5t9.5 -26.5q0 -31 -33 -37q-16 -9 -24 -9zM436 286q0 -12 -7 -30q-8 -18 -23 -34q-74 -83 -120 -123
q-49 -43 -65 -60l-80 -91q-39 -46 -94 -89l-22 -12q-18 -10 -25 -22l-68 -45q-38 -26 -84 -54q-19 -13 -63 -13q-39 0 -58.5 11.5t-19.5 41.5q0 14 6.5 30.5t17.5 29.5q26 31 54 31q9 0 41 -24q15 -12 24.5 -18t16.5 -6q24 0 86 47l31 11l9 10q5 6 14 14q10 8 51 47l24 24
q10 10 10 14q0 15 -18 23q-27 10 -37 20q-9 9 -9 21q0 15 22 52q20 34 39 51q12 10 23 33l9 24l12 31l2 8q0 11 -10 17.5t-20 6.5q-30 0 -59 -30h-14q-4 0 -4 6q0 14 16 29t38 25l9 9q15 17 29 24q7 4 18 4q25 0 53 -21q12 -10 19.5 -23t7.5 -26q0 -24 -53 -101l-36 -52
q-17 -23 -17 -29q0 -26 20 -26q14 0 38 21l31 32q24 16 74 79q1 1 3.5 4.5t6.5 11.5l19 29q33 54 45 71q9 14 20 27q7 10 12 10q6 0 24 -8q14 -7 20 -13q11 -14 11 -30z" />
    <glyph glyph-name="Ydieresis" unicode="&#x178;" horiz-adv-x="417" 
d="M363 665l-8 11t-8 34q0 17 25 32q9 6 18.5 10t13.5 4q31 0 31 -32q0 -37 -43 -46q-25 -13 -29 -13zM258 670q-6 0 -15 11t-9 33q0 14 19 28q19 12 28 12q15 0 24.5 -11.5t9.5 -26.5q0 -30 -33 -38q-19 -8 -24 -8zM479 447l-14 -9q-16 -21 -42 -50l-8 -21q-12 -23 -43 -70
l-56 -69q-19 -22 -25 -36l-14 -24l-37 -57q-13 -26 -29 -54q-15 -26 -17 -31q-19 -35 -36 -56q-19 -23 -63 -53q-33 -36 -78 -78q-11 -3 -48 -22q-34 -18 -48 -18q-10 0 -39 7l-44 36q-9 23 -27 55q0 24 3 40.5t11 27.5q17 25 70 25q16 0 29 -11.5t13 -28.5q0 -7 -3 -19
t-3 -18q0 -14 12.5 -23.5t28.5 -9.5q24 0 47 14l46 47q53 55 75 87q13 17 16 31l4 4q11 11 16 19q4 4 4 8q0 9 -6 14t-12 5q-5 0 -16 -8q-10 -9 -19 -9l-31 9q-32 3 -46 13.5t-14 37.5q0 23 13 49l13 26q4 8 14 33q30 60 36 121q0 6 14 22q13 13 13 19q0 10 -14.5 15.5
t-34.5 5.5q-17 0 -37 -4q-6 -1 -9.5 -9.5t-4.5 -10.5q-4 -9 -8 -13.5t-11 -4.5q-19 0 -19 25q0 14 12 21l3 8q7 15 25 28q8 5 21 7l38 -3q27 2 58 7q2 0 24 13q18 11 24 11q10 0 19 -20q7 -21 7 -34q0 -51 -43 -106q-10 -12 -17 -34q-4 -27 -21 -67l-20 -48l-8 -14
q-7 -10 -7 -18q0 -25 8 -33q7 -7 11 -7q19 0 40 9t27 23q13 0 30 32l27 50l23 30q6 34 19 65q38 55 55 93q8 16 11 32.5t6 41.5q1 13 21 17q5 1 15 1q5 -1 12 -1q26 0 39.5 -1.5t21.5 -5.5t10.5 -13.5t2.5 -26.5q0 -13 -4 -20q-4 -11 -12 -16z" />
    <glyph glyph-name="currency" unicode="&#xa4;" horiz-adv-x="524" 
d="M132 181l-2 -9q0 -1 2 -7q-7 -10 -7 -30q0 -12 4 -16q5 -4 9 -18q2 -19 8 -30t17 -17t26 -8t41 -3l14 3q11 3 16 3q12 1 56 28q17 12 28 18l14 8q7 0 10 -8q0 -8 -18 -22q-13 -12 -23 -15q-5 -2 -14 -11q-21 -21 -71 -35q-29 -8 -68 -8q-10 -10 -19 -10q-2 0 -3 1
q-1 7 -18 12q-48 13 -74 44q-17 20 -17 60q0 32 4 45q3 14 2 14l3 10h-7q-3 -1 -7 -1q-22 0 -33 4v7q0 14 17 23q10 5 27 5h12q7 32 19 58l-19 2q-13 1 -13 3v7q0 12 18 22q10 5 29 5h9l16 26q26 42 58 78q17 18 33 27q11 7 38 28q26 20 62 30l21 13l19 8q-2 -2 3 0
q2 0 10 2q12 3 23 3h38q15 0 44 -26q2 -3 9 -7.5t12 -4.5q12 0 42 42q9 12 20 12q8 0 8 -8l-2 -9l-13 -33q-6 -25 -25 -61q-10 -18 -15 -32l-8 -19q-6 -13 -14 -13q-14 0 -14 10v23q0 15 1 20q0 10 -15 28l-27 31q-27 13 -34 13h-18q-15 0 -48 -21q-18 -12 -27 -19l-25 -18
q-15 -10 -40 -42q-31 -39 -49 -82h157q19 0 19 -14q0 -12 -19 -22h-172q-3 -3 -7 -11t-7 -12l-14 -37q39 -1 90 -1h36q19 0 19 -13t-18 -22z" />
    <glyph glyph-name="guilsinglleft" unicode="&#x2039;" horiz-adv-x="306" 
d="M86 1q-2 0 -9 12q-17 25 -38 63q-8 16 -20 33q-4 20 -9 25q-5 3 -5 8q0 25 23 54t66 65l109 86q6 -2 10.5 -10t4.5 -19q0 -13 -23 -32.5t-66 -51.5q-26 -20 -25 -19l-10 -9q-19 -19 -27 -36q-6 -12 -6 -25q0 -23 16 -54l15 -23q8 -13 10 -38v-4q-11 -25 -16 -25z" />
    <glyph glyph-name="guilsinglright" unicode="&#x203a;" horiz-adv-x="302" 
d="M282 140q-8 -9 -20 -16q-7 -3 -17 -15l-148 -107l-2 -1q-1 0 -1 6q0 29 48 61q45 30 72.5 59t33.5 50q-3 30 -7 38l-32 63q-7 13 -7 23q0 12 13 26.5t30 19.5l21 -41q20 -40 33 -79q5 -22 5 -35t-3 -27z" />
    <glyph glyph-name="daggerdbl" unicode="&#x2021;" horiz-adv-x="484" 
d="M314 237q0 -11 4 -18t12 -14q2 -1 6.5 -5.5t7 -8.5t2.5 -9q0 -7 -8 -14.5t-10 -9.5q-19 -17 -19 -26l1 -6q2 -12 17 -24q7 -7 21 -10q22 -4 26 -14l3 -15q0 -14 1 -23q-15 -21 -39 -21l-17 2q-16 2 -22 2h-4q-1 -1 -4 -1q-33 14 -33 49v14q1 3 1 9v7q0 15 -3 30
q-1 4 -2 7l-2 6q-3 5 -6 5q-6 0 -11 -8t-5 -15q0 -6 2 -10v-4v-47q0 -8 12 -30l9 -15q2 -3 4 -5.5t3 -5.5q0 -9 -30 -21l-37 4h-4q-6 0 -21 -3q-10 0 -10 19q0 15 11 31l24 35v70v5q1 -1 -2 9q-24 0 -24 -2h2q-1 -4 -11 -9q-9 -5 -11 -13q-5 -43 -9 -64q-7 -45 -29 -51
q-11 -4 -31 -4q-8 0 -9 1h-28q-18 2 -18 10q0 5 3 11q-3 8 -3 14q0 15 15 30q1 1 12 3q31 6 48 17q10 6 10 15t-2.5 15t-12.5 11q-11 4 -14 9.5t-3 14.5q0 44 24 44h4q1 -1 4 -1q2 8 2 12q0 15 -8.5 27.5t-19.5 13.5q-16 -16 -33 -16t-23 28q-3 11 -3 19q-1 9 -2 9
q2 8 22 30q21 22 30 26q5 8 13.5 16t18.5 8q19 0 39 -23q11 -5 18 -10t9 -15v-14q-1 -3 -1 -8v-5v-62q0 -3 -3 -11q-4 -7 -4 -12q0 -8 6 -13.5t13 -5.5q11 0 13 18v84l2 23h-2q-5 0 -9 3t-4 10v8q0 6 1 9q0 15 -9 22q-9 8 -9 16v51q1 10 11 23q12 14 19 28q4 7 5 20l2 18
q12 28 39 28q9 0 14.5 -8t5.5 -20q0 -24 -1 -25q1 -10 13 -39q12 -9 17 -29q2 -12 2 -17v-15q0 -14 -4.5 -20.5t-12.5 -10.5q-9 -4 -13.5 -8t-4.5 -15v-8q1 -2 1 -8q0 -7 -3 -11t-10 -9q-6 -5 -9.5 -9.5t-3.5 -11.5v-78q0 -12 8 -18q18 8 18 31q0 9 -1 12v14q0 13 3 22
q17 17 27 32q8 12 15.5 21.5t15.5 13.5q7 4 24 4q40 0 59 -17q8 -7 17 -19q13 -21 17 -26q3 -7 3 -18q0 -26 -17 -35.5t-52 -9.5q-10 0 -15 2.5t-8 8.5q-4 5 -5 11q-3 7 -9 11q-19 -3 -19 -25z" />
    <glyph glyph-name="quotesinglbase" unicode="&#x201a;" horiz-adv-x="330" 
d="M289 138q0 -54 -46 -93q-45 -37 -117 -51q-2 -1 -7 -1q-6 0 -10.5 2.5t-4.5 8.5q0 9 10.5 18t33.5 26q21 14 32 24.5t11 21.5q-34 22 -34 62q0 22 16 35.5t49 13.5q50 0 60 -27q7 -26 7 -40z" />
    <glyph glyph-name="quotedblbase" unicode="&#x201e;" horiz-adv-x="531" 
d="M493 146q0 -54 -46 -93q-44 -38 -117 -52q-2 -1 -7 -1q-6 0 -10.5 2.5t-4.5 8.5q0 9 10.5 18t33.5 26q21 14 32 24.5t11 21.5q-34 22 -34 62q0 22 16.5 36t48.5 14q50 0 60 -28q7 -23 7 -39zM277 132q0 -54 -46 -93q-42 -36 -116 -51q-2 -1 -7 -1q-10 0 -16 8q0 9 11 19
t33 26q21 15 32 26t12 22q-34 22 -34 62q0 23 16.5 36.5t48.5 13.5q50 0 59 -28q7 -18 7 -40z" />
    <glyph glyph-name="perthousand" unicode="&#x2030;" horiz-adv-x="815" 
d="M274 190l-110 -153l-35 -50q-12 -17 -12 -18l-2 1h-6h-10q-5 -1 -15 -1q-14 0 -15 4q8 13 45 59q34 42 42 54l13 28l9 10l23 27q5 5 9 11q5 14 14 27l26 31l14 16l96 139q9 0 20 -9t13 -19q-54 -66 -119 -157zM76 172h-17q-4 0 -5 1h-5h-4q-19 0 -31 16.5t-12 38.5
q0 9 5 14l12 13l11 22q19 22 47.5 38t54.5 16q33 0 39 1t14 1q16 0 27 -10t11 -27q0 -5 -10 -18q-5 -6 -20 -30l-10 -8q-1 -8 -6 -19q-4 -10 -27 -24q-13 -18 -49 -24q-18 -2 -25 -1zM60.5 211q8.5 -9 23.5 -9q21 0 51 24q11 10 18 22t7 21q8 6 8 14q0 9 -8 16.5t-18 7.5
q-7 0 -16 -4q-13 -5 -17 -5h-6q-14 0 -24 -13l-16 -24q-11 -11 -11 -26t8.5 -24zM468 147q11 -10 11 -27q0 -4 -14 -18l-5 -10l-5 -8q-1 -2 -10 -17l-18 -35l-22 -11q-10 -18 -47 -24q-18 -2 -26 -1h-17q-26 0 -41.5 14.5t-15.5 41.5q0 3 2 11l15 17q14 33 41 50l14 3
q-1 0 4 4q17 10 33 15q11 3 21 3l40 2h13q16 0 27 -10zM692 140q11 -10 11 -27q0 -3 -6 -8q-7 -7 -9 -10q-2 -8 -8 -18q-3 -3 -5.5 -7.5t-5.5 -8.5q-5 -8 -19 -36l-21 -10q-11 -19 -47 -25q-18 -2 -26 -1h-17q-26 0 -41.5 14t-15.5 43q0 7 4 11q6 9 13 16l10 22q16 20 31 29
h9q5 0 14 13q25 11 48 11l20 1q17 0 21 1h13q16 0 27 -10zM424 108q0 9 -8 16.5t-18 7.5q-4 0 -17 -5q-15 -5 -17 -5h-5q-14 0 -24 -13l-16 -24q-11 -11 -11 -26q0 -30 32 -33q21 0 49 23q11 9 18.5 21t8.5 23q8 6 8 15zM648 101q0 9 -8.5 16.5t-17.5 7.5q-7 0 -16 -4
q-13 -5 -18 -5h-4q-14 0 -25 -14l-16 -23q-11 -11 -11 -26t8.5 -24t23.5 -9q21 0 49 24q11 10 18.5 22t7.5 21q9 5 9 14zM117 -31z" />
    <glyph glyph-name="Acircumflex" unicode="&#xc2;" 
d="M849 611q0 -1 -3 -3q-13 -5 -19 -6q-3 -1 -8 -1q-4 0 -7 13q-4 11 -4 30v40q-6 27 -22 27q-6 0 -8 -1q-23 -19 -39 -41q-14 -19 -38 -44q-3 0 -10.5 -3.5t-12.5 -5.5l-14 -7l-8 -3q-3 0 -3 6q0 5 1 7l8 10q9 11 55 63q35 41 64 67q13 11 22 15q4 -4 16 -4h5q8 0 16 -14z
M714 357l-35 -66q-14 -37 -46 -98q-8 -23 -26 -63l-14 -34q-6 -16 -6 -19q0 -13 8.5 -18.5t26.5 -11.5q19 -7 27 -11t8 -13q0 -13 -15 -21t-38 -8l-37 3h-7q-34 0 -95 10q-3 1 -14 1t-31 -2l-10 -2t-10 -1q-13 0 -22 13q8 38 40 38l24 -2l20 -3q12 0 33 26q21 28 22 44
q14 9 22 31q4 11 4 26v5q18 38 18 54q0 5 -3.5 8.5t-6.5 3.5h-6q-2 -1 -7 -1q-13 0 -39 4q-19 3 -29 3q-44 0 -61 -44q-14 -18 -55 -53q-44 -39 -110 -113q-3 -3 -10.5 -5.5l-10.5 -3.5q-17 -6 -22 -15q-9 -3 -20 -8q-19 -9 -47 -24l-44 -11q-12 15 -20 15h-6q-2 -1 -6 -1
q-26 0 -43.5 24t-17.5 57q0 27 16 48.5t40 21.5q21 0 40 -19l50 -51q4 -4 19 -4q51 0 71 17q8 6 17 20l15 28q10 1 18.5 6t13.5 21q9 4 17 10t22 21l37 39l67 68q38 38 55 61l20 27q13 18 24.5 30.5t34.5 30.5q19 11 36 37q23 34 45 53q11 11 24 21q12 9 30 29q5 6 22 10
t34 4q7 0 15.5 -16t8.5 -33q-25 -68 -75 -194zM653 441.5q-6 4.5 -12 4.5q-2 0 -3 -1l-25 -25q-8 0 -18 -7q-12 -9 -25 -27l-41 -52q-17 -2 -17 -20t54 -18q45 0 63 54v3q-1 1 -1 3q0 3 2 17q30 54 30 59q-1 5 -7 9.5z" />
    <glyph glyph-name="Ecircumflex" unicode="&#xca;" horiz-adv-x="429" 
d="M519 611q0 -1 -3 -3q-13 -5 -19 -6q-3 -1 -8 -1q-4 0 -7 13q-4 11 -4 30v40q-6 27 -22 27q-6 0 -8 -1q-23 -19 -39 -41q-14 -19 -38 -44q-3 0 -10.5 -3.5t-12.5 -5.5l-14 -7l-8 -3q-3 0 -3 6q0 5 1 7l8 10q9 11 55 63q35 41 64 67q13 11 22 15q4 -4 16 -4h5q8 0 16 -14z
M422 387q-45 0 -45 61v5q0 2 -4 2q-5 0 -17 -3q-14 -3 -17 -3q-2 0 -3 1h-2q-5 0 -17 -12l-8 -8l-3 -4q-37 -18 -37 -52q0 -21 25 -65l17 -29l7 -14q0 -26 -32 -26q-27 0 -50 23q-5 5 -14 5q-21 0 -39 -23l-25 -15l-10 -10q-4 -5 -15 -14q-26 -19 -38 -53q-8 -22 -8 -49
q0 -26 48 -39q45 -12 120 -12q20 0 44 21q11 11 32 20q17 5 25 14h3q18 0 18 -18q0 -5 -4 -9q-47 -38 -63 -47q-12 -7 -24.5 -9.5t-15.5 -2.5q-14 -9 -44 -20h-9q-14 0 -35 -3q-19 -4 -47 -4q-22 0 -40 7v-1v0.5t-1 0.5q-2 0 -8 -3q-9 -4 -30 -4q-25 0 -46 31
q-8 11 -12 22.5t-4 17.5q0 32 31 78l49 74q6 9 21 22l21 16q30 28 76 47l7 4q13 5 23 15q5 5 5 11q0 12 -5 27t-5 25q0 25 8 43q25 49 52.5 70t71.5 21h43q36 0 63 -19q29 -20 29 -49q0 -64 -62 -64z" />
    <glyph glyph-name="Aacute" unicode="&#xc1;" 
d="M730 636q-2 -1 -6 -7q-7 -14 -17 -24q-5 -5 -14 -7q-16 1 -16 13q0 17 27 32l11 20l4 9q0 4 3 8q1 3 4 6.5t6 7.5l23 28l10 22q8 15 21 22l33 9q22 -10 22 -30v-3q-1 -1 -1 -4q-21 -23 -110 -102zM726 387l-12 -30l-35 -66q-14 -37 -46 -98q-8 -23 -26 -63l-14 -34
q-6 -16 -6 -19q0 -13 8.5 -18.5t26.5 -11.5q19 -7 27 -11t8 -13q0 -13 -15 -21t-38 -8l-37 3h-7q-34 0 -95 10q-3 1 -14 1t-31 -2l-10 -2t-10 -1q-13 0 -22 13q8 38 40 38l24 -2l20 -3q12 0 33 26q21 28 22 44q14 9 22 31q4 11 4 26v5q18 38 18 54q0 5 -3.5 8.5t-6.5 3.5h-6
q-2 -1 -7 -1q-13 0 -39 4q-19 3 -29 3q-44 0 -61 -44q-14 -18 -55 -53q-44 -39 -110 -113q-3 -3 -10.5 -5.5l-10.5 -3.5q-17 -6 -22 -15q-9 -3 -20 -8q-19 -9 -47 -24l-44 -11q-12 15 -20 15h-6q-2 -1 -6 -1q-26 0 -43.5 24t-17.5 57q0 27 16 48.5t40 21.5q21 0 40 -19
l50 -51q4 -4 19 -4q51 0 71 17q8 6 17 20l15 28q10 1 18.5 6t13.5 21q9 4 17 10t22 21l37 39l67 68q38 38 55 61l20 27q13 18 24.5 30.5t34.5 30.5q13 7 22 17.5t24 31.5q22 33 47 39q12 5 19 10q19 17 29 22q5 3 23 5l14 11q13 10 17 10q5 -9 16 -11q7 -1 17 -7
q-15 -39 -76 -187zM653 441.5q-6 4.5 -12 4.5q-2 0 -3 -1l-25 -25q-8 0 -18 -7q-12 -9 -25 -27l-41 -52q-17 -2 -17 -20t54 -18q45 0 63 54v3q-1 1 -1 3q0 3 2 17q30 54 30 59q-1 5 -7 9.5z" />
    <glyph glyph-name="Edieresis" unicode="&#xcb;" horiz-adv-x="429" 
d="M481 674l-8 12q-8 11 -8 34q0 14 23 31q21 14 34 14q31 0 31 -32q0 -38 -43 -45q-26 -14 -29 -14zM376 679q-5 0 -14 11q-10 10 -10 34q0 11 19 26q18 14 28 14q15 0 24.5 -11.5t9.5 -26.5q0 -32 -33 -38q-17 -9 -24 -9zM422 387q-45 0 -45 61v5q0 2 -4 2q-5 0 -17 -3
q-14 -3 -17 -3q-2 0 -3 1h-2q-5 0 -17 -12l-8 -8l-3 -4q-37 -18 -37 -52q0 -21 25 -65l17 -29l7 -14q0 -26 -32 -26q-27 0 -50 23q-5 5 -14 5q-21 0 -39 -23l-25 -15l-10 -10q-4 -5 -15 -14q-26 -19 -38 -53q-8 -22 -8 -49q0 -26 48 -39q45 -12 120 -12q20 0 44 21
q11 11 32 20q17 5 25 14h3q18 0 18 -18q0 -5 -4 -9q-47 -38 -63 -47q-12 -7 -24.5 -9.5t-15.5 -2.5q-14 -9 -44 -20h-9q-14 0 -35 -3q-19 -4 -47 -4q-22 0 -40 7v-1v0.5t-1 0.5q-2 0 -8 -3q-9 -4 -30 -4q-25 0 -46 31q-8 11 -12 22.5t-4 17.5q0 32 31 78l49 74q6 9 21 22
l21 16q30 28 76 47l7 4q13 5 23 15q5 5 5 11q0 12 -5 27t-5 25q0 25 8 43q25 49 52.5 70t71.5 21h43q36 0 63 -19q29 -20 29 -49q0 -64 -62 -64z" />
    <glyph glyph-name="Egrave" unicode="&#xc8;" horiz-adv-x="429" 
d="M519 600q-6 -11 -17 -11t-33 27q-6 7 -16 23l-12 17q-5 8 -15 22q-17 21 -33 45q-6 9 -6 13q0 21 21 23q5 1 15 1q6 0 6 2q10 -1 18 -12t18 -31l14 -34q4 -16 9 -24zM422 387q-45 0 -45 61v5q0 2 -4 2q-5 0 -17 -3q-14 -3 -17 -3q-2 0 -3 1h-2q-5 0 -17 -12l-8 -8l-3 -4
q-37 -18 -37 -52q0 -21 25 -65l17 -29l7 -14q0 -26 -32 -26q-27 0 -50 23q-5 5 -14 5q-21 0 -39 -23l-25 -15l-10 -10q-4 -5 -15 -14q-26 -19 -38 -53q-8 -22 -8 -49q0 -26 48 -39q45 -12 120 -12q20 0 44 21q11 11 32 20q17 5 25 14h3q18 0 18 -18q0 -5 -4 -9
q-47 -38 -63 -47q-12 -7 -24.5 -9.5t-15.5 -2.5q-14 -9 -44 -20h-9q-14 0 -35 -3q-19 -4 -47 -4q-22 0 -40 7v-1v0.5t-1 0.5q-2 0 -8 -3q-9 -4 -30 -4q-25 0 -46 31q-8 11 -12 22.5t-4 17.5q0 32 31 78l49 74q6 9 21 22l21 16q30 28 76 47l7 4q13 5 23 15q5 5 5 11
q0 12 -5 27t-5 25q0 25 8 43q25 49 52.5 70t71.5 21h43q36 0 63 -19q29 -20 29 -49q0 -64 -62 -64z" />
    <glyph glyph-name="Iacute" unicode="&#xcd;" horiz-adv-x="382" 
d="M381 633q-3 -1 -6 -8q-10 -16 -18 -24q-4 -4 -12 -6q-17 3 -17 13q0 8 3 12.5t10 8.5q14 8 25 32l4 9q0 4 3 8l10 14l23 28l10 21q6 14 18 20q5 4 14 5q10 2 23 6q21 -10 21 -29v-3q-1 -1 -1 -4q-26 -29 -110 -103zM490 473q-9 0 -26 4t-29 4q-23 0 -43 -19.5t-26 -56.5
q-22 -25 -39 -68q-13 -37 -26 -67q-17 -42 -25 -55q-2 -4 -5 -11l-9 -21q-17 -21 -22 -43q-5 -20 -15 -38l-16 -24q-7 -10 -7 -18q0 -11 11.5 -14t31.5 -3t31.5 -3t11.5 -14q0 -6 -15 -11q-26 -8 -86 -13q-48 -4 -87 -4h-16l-70 1q-20 0 -20 23q0 9 1 13.5t6 7.5t16 5l31 3
q36 1 72 55q28 41 54 103l18 44l10 24l6 38q3 8 9.5 15.5t13.5 14.5q8 8 12 14t4 13v9q-1 3 -1 7q0 13 13 32t13 31q0 15 -12.5 27t-25.5 12q-7 0 -11 -3l-14 5q-11 2 -11 13q0 24 35 24q23 0 39 -12l11 -8q4 -4 7 -4q5 0 12 4q4 2 16.5 7t24.5 9q12 3 26 3q16 0 31 -6
q14 -6 28 -6q6 0 18 3l28 6q3 1 9 1h6q25 0 34 -12q-5 -41 -33 -41z" />
    <glyph glyph-name="Icircumflex" unicode="&#xce;" horiz-adv-x="382" 
d="M489 611q0 -1 -3 -3q-13 -5 -19 -6q-3 -1 -8 -1q-4 0 -7 13q-4 11 -4 30v40q-6 27 -22 27q-6 0 -8 -1q-23 -19 -39 -41q-14 -19 -38 -44q-3 0 -10.5 -3.5t-12.5 -5.5l-14 -7l-8 -3q-3 0 -3 6q0 5 1 7l8 10q9 11 55 63q35 41 64 67q13 11 22 15q4 -4 16 -4h5q8 0 16 -14z
M490 473q-9 0 -26 4t-29 4q-23 0 -43 -19.5t-26 -56.5q-22 -25 -39 -68q-13 -37 -26 -67q-17 -42 -25 -55q-2 -4 -5 -11l-9 -21q-17 -21 -22 -43q-5 -20 -15 -38l-16 -24q-7 -10 -7 -18q0 -11 11.5 -14t31.5 -3t31.5 -3t11.5 -14q0 -6 -15 -11q-26 -8 -86 -13q-48 -4 -87 -4
h-16l-70 1q-20 0 -20 23q0 9 1 13.5t6 7.5t16 5l31 3q36 1 72 55q28 41 54 103l18 44l10 24l6 38q3 8 9.5 15.5t13.5 14.5q8 8 12 14t4 13v9q-1 3 -1 7q0 13 13 32t13 31q0 15 -12.5 27t-25.5 12q-7 0 -11 -3l-14 5q-11 2 -11 13q0 24 35 24q23 0 39 -12l11 -8q4 -4 7 -4
q5 0 12 4q4 2 16.5 7t24.5 9q12 3 26 3q16 0 31 -6q14 -6 28 -6q6 0 18 3l28 6q3 1 9 1h6q25 0 34 -12q-5 -41 -33 -41z" />
    <glyph glyph-name="Idieresis" unicode="&#xcf;" horiz-adv-x="382" 
d="M439 677q-8 0 -16 42q0 16 21 32q20 16 36 16q31 0 31 -31q0 -37 -44 -46q-22 -13 -28 -13zM333 681q-6 0 -15 11t-9 34q0 16 22 29l16 8l10 3q15 0 24.5 -11.5t9.5 -26.5q0 -30 -33 -38q-16 -9 -25 -9zM490 473q-9 0 -26 4t-29 4q-23 0 -43 -19.5t-26 -56.5
q-22 -25 -39 -68q-13 -37 -26 -67q-17 -42 -25 -55q-2 -4 -5 -11l-9 -21q-17 -21 -22 -43q-5 -20 -15 -38l-16 -24q-7 -10 -7 -18q0 -11 11.5 -14t31.5 -3t31.5 -3t11.5 -14q0 -6 -15 -11q-26 -8 -86 -13q-48 -4 -87 -4h-16l-70 1q-20 0 -20 23q0 9 1 13.5t6 7.5t16 5l31 3
q36 1 72 55q28 41 54 103l18 44l10 24l6 38q3 8 9.5 15.5t13.5 14.5q8 8 12 14t4 13v9q-1 3 -1 7q0 13 13 32t13 31q0 15 -12.5 27t-25.5 12q-7 0 -11 -3l-14 5q-11 2 -11 13q0 24 35 24q23 0 39 -12l11 -8q4 -4 7 -4q5 0 12 4q4 2 16.5 7t24.5 9q12 3 26 3q16 0 31 -6
q14 -6 28 -6q6 0 18 3l28 6q3 1 9 1h6q25 0 34 -12q-5 -41 -33 -41z" />
    <glyph glyph-name="Igrave" unicode="&#xcc;" horiz-adv-x="382" 
d="M449 600q-6 -11 -17 -11t-33 27q-6 7 -16 23l-12 17q-5 8 -15 22q-17 21 -33 45q-6 9 -6 13q0 21 21 23q5 1 15 1q6 0 6 2q10 -1 18 -12t18 -31l14 -34q4 -16 9 -24zM490 473q-9 0 -26 4t-29 4q-23 0 -43 -19.5t-26 -56.5q-22 -25 -39 -68q-13 -37 -26 -67
q-17 -42 -25 -55q-2 -4 -5 -11l-9 -21q-17 -21 -22 -43q-5 -20 -15 -38l-16 -24q-7 -10 -7 -18q0 -11 11.5 -14t31.5 -3t31.5 -3t11.5 -14q0 -6 -15 -11q-26 -8 -86 -13q-48 -4 -87 -4h-16l-70 1q-20 0 -20 23q0 9 1 13.5t6 7.5t16 5l31 3q36 1 72 55q28 41 54 103l18 44
l10 24l6 38q3 8 9.5 15.5t13.5 14.5q8 8 12 14t4 13v9q-1 3 -1 7q0 13 13 32t13 31q0 15 -12.5 27t-25.5 12q-7 0 -11 -3l-14 5q-11 2 -11 13q0 24 35 24q23 0 39 -12l11 -8q4 -4 7 -4q5 0 12 4q4 2 16.5 7t24.5 9q12 3 26 3q16 0 31 -6q14 -6 28 -6q6 0 18 3l28 6q3 1 9 1
h6q25 0 34 -12q-5 -41 -33 -41z" />
    <glyph glyph-name="Oacute" unicode="&#xd3;" horiz-adv-x="528" 
d="M331 633q-3 -1 -6 -8q-10 -16 -18 -24q-4 -4 -12 -6q-17 3 -17 13q0 8 3 12.5t10 8.5q14 8 25 32l4 9q0 4 3 8l10 14l23 28l10 21q6 14 18 20q5 4 14 5q10 2 23 6q21 -10 21 -29v-3q-1 -1 -1 -4q-26 -29 -110 -103zM506 347q0 -77 -33 -115q-5 -5 -14 -50l-81 -101
q-12 -16 -28 -32q-29 -29 -47 -30q-28 -3 -54 -16t-45 -28h-9q-11 0 -18 -1t-22 -1l-21 -2q-7 -1 -15 -1q-35 0 -55 17q-3 10 -7 28q-5 24 -24 46q0 2 1 3v4v5q-1 1 -1 6q-6 15 -12 77q-2 13 -4 44l-1 24q0 17 6 27v59q0 9 14 29q20 24 36 57q13 26 36 57q13 16 23.5 27.5
t19.5 17.5q20 13 62 30l12 8q10 6 13 6h119q2 0 11 -6q18 -14 46 -27q14 -6 24 -6q13 0 23.5 -19t32.5 -67q12 -28 12 -70zM414 393l-9 13l-10 11l-4 5q-6 57 -90 76h-4q-9 0 -35 -12l-46 -22q-10 -4 -24 -26l-16 -15q-16 -14 -30 -43q-7 -15 -15 -39l-12 -34
q-9 -22 -12 -37q-2 -14 -2 -28q0 -42 -1 -55l-4 -28l-3 -12q-1 -2 -1 -7q1 -46 21 -82q20 -37 45 -37q13 0 26 9q18 2 42 8q6 3 11 7l32 22l9 5h1q8 12 20 24q31 31 47 54q12 18 20 42l18 44q7 16 9.5 31t3.5 19q19 12 19 48q0 14 -1 25t-1 26q0 3 -4 8z" />
    <glyph glyph-name="Ocircumflex" unicode="&#xd4;" horiz-adv-x="528" 
d="M469 611q0 -1 -3 -3q-13 -5 -19 -6q-3 -1 -8 -1q-4 0 -7 13q-4 11 -4 30v40q-6 27 -22 27q-6 0 -8 -1q-23 -19 -39 -41q-14 -19 -38 -44q-3 0 -10.5 -3.5t-12.5 -5.5l-14 -7l-8 -3q-3 0 -3 6q0 5 1 7l8 10q9 11 55 63q35 41 64 67q13 11 22 15q4 -4 16 -4h5q8 0 16 -14z
M506 347q0 -77 -33 -115q-5 -5 -14 -50l-81 -101q-12 -16 -28 -32q-29 -29 -47 -30q-28 -3 -54 -16t-45 -28h-9q-11 0 -18 -1t-22 -1l-21 -2q-7 -1 -15 -1q-35 0 -55 17q-3 10 -7 28q-5 24 -24 46q0 2 1 3v4v5q-1 1 -1 6q-6 15 -12 77q-2 13 -4 44l-1 24q0 17 6 27v59
q0 9 14 29q20 24 36 57q13 26 36 57q13 16 23.5 27.5t19.5 17.5q20 13 62 30l12 8q10 6 13 6h119q2 0 11 -6q18 -14 46 -27q14 -6 24 -6q13 0 23.5 -19t32.5 -67q12 -28 12 -70zM414 393l-9 13l-10 11l-4 5q-5 36 -28 63q-25 28 -49 34h-2q-3 0 -13 -5l-31 -18l-53 -33
q-10 -3 -23 -25l-16 -15q-16 -14 -30 -43q-7 -15 -15 -39l-12 -34q-9 -22 -12 -37q-2 -14 -2 -28q0 -42 -1 -55l-4 -28l-3 -12q-1 -2 -1 -7q8 -134 55 -134q9 0 23 8q18 2 42 8l13 9l22 17q14 12 21 17q8 7 11 7q8 12 20 24q31 31 47 54q12 18 20 42l18 44q7 16 9.5 31
t3.5 19q19 12 19 48q0 14 -1 25t-1 26q0 3 -4 8z" />
    <glyph glyph-name="Ograve" unicode="&#xd2;" horiz-adv-x="528" 
d="M479 600q-6 -11 -17 -11t-33 27q-6 7 -16 23l-12 17q-5 8 -15 22q-17 21 -33 45q-6 9 -6 13q0 21 21 23q5 1 15 1q6 0 6 2q10 -1 18 -12t18 -31l14 -34q4 -16 9 -24zM506 347q0 -77 -33 -115q-5 -5 -14 -50l-81 -101q-12 -16 -28 -32q-29 -29 -47 -30q-28 -3 -54 -16
t-45 -28h-9q-11 0 -18 -1t-22 -1l-21 -2q-7 -1 -15 -1q-35 0 -55 17q-3 10 -7 28q-5 24 -24 46q0 2 1 3v4v5q-1 1 -1 6q-6 15 -12 77q-2 13 -4 44l-1 24q0 17 6 27v59q0 9 14 29q20 24 36 57q13 26 36 57q13 16 23.5 27.5t19.5 17.5q20 13 62 30l12 8q10 6 13 6h119
q2 0 11 -6q18 -14 46 -27q14 -6 24 -6q13 0 23.5 -19t32.5 -67q12 -28 12 -70zM414 393l-9 13l-10 11l-4 5q-6 57 -90 76h-4q-9 0 -35 -12l-46 -22q-10 -4 -24 -26l-16 -15q-16 -14 -30 -43q-7 -15 -15 -39l-12 -34q-9 -22 -12 -37q-2 -14 -2 -28q0 -42 -1 -55l-4 -28
l-3 -12q-1 -2 -1 -7q1 -46 21 -82q20 -37 45 -37q13 0 26 9q18 2 42 8q6 3 11 7l32 22l9 5h1q8 12 20 24q31 31 47 54q12 18 20 42l18 44q7 16 9.5 31t3.5 19q19 12 19 48q0 14 -1 25t-1 26q0 3 -4 8z" />
    <glyph glyph-name="Uacute" unicode="&#xda;" horiz-adv-x="563" 
d="M431 633q-3 -1 -6 -8q-10 -16 -18 -24q-4 -4 -12 -6q-17 3 -17 13q0 8 3 12.5t10 8.5q14 8 25 32l4 9q0 4 3 8l10 14l23 28l10 21q6 14 18 20q5 4 14 5q10 2 23 6q21 -10 21 -29v-3q-1 -1 -1 -4q-26 -29 -110 -103zM44 281q10 17 16 26l22 34q4 7 4 18q0 9 1 14t5 12
l9 15q13 19 13 27q0 13 -10 23t-21 10q-6 0 -11 -3q-3 3 -12 4q-10 1 -10 10q0 25 36 25q10 0 18 -3.5t14 -6.5q3 -3 9 -7q3 -4 7 -4q7 0 11 4q7 4 15 8h4q19 10 46 10q12 0 27 -5q13 -5 24 -5q5 0 16 3l26 6q3 1 9 1h7q22 0 28 -10q-8 -38 -34 -38q-9 0 -24 4q-16 3 -26 3
q-21 0 -39.5 -18.5t-27.5 -53.5q-21 -21 -52 -91q-10 -20 -22 -48l-9 -21l-21 -45l-2 -9q-3 -8 -8 -37l-2 -8q1 -1 1 -13q0 -20 32 -41q40 -26 117 -26q35 0 66 10q36 11 52 29l31 38q13 17 16 34q4 22 15 45l36 49q27 42 30 78q33 23 52 77q-5 7 -5 13q0 3 2 9t2 8
q0 5 -6.5 8.5t-22.5 8.5q-30 8 -30 27l2 12h10q3 -1 9 -1q27 0 63 3q5 0 25 -10h6q10 0 25 -5q5 2 22 15q3 3 9 7l5 3q2 0 2 -3q10 7 29 7q32 0 32 -21q0 -16 -30 -27q-63 -19 -91 -49q-20 -20 -22 -38q-6 -4 -9.5 -14.5t-4.5 -12.5q-8 -22 -14 -28l-13 -13q-5 -8 -20 -24
l-48 -72q-17 -50 -43 -96q-44 -79 -93 -100q-12 -8 -67 -22l-38 -10q-16 -4 -22 -4q-7 0 -22 3q-21 4 -28 5h-14q-45 0 -75 15q-10 3 -19 10q-6 5 -6 7v1q-12 0 -18.5 3.5t-10.5 12.5q-8 19 -8 77q0 32 7 45l7 12q1 40 24 73q1 17 15 41z" />
    <glyph glyph-name="Ucircumflex" unicode="&#xdb;" horiz-adv-x="563" 
d="M519 611q0 -1 -3 -3q-13 -5 -19 -6q-3 -1 -8 -1q-4 0 -7 13q-4 11 -4 30v40q-6 27 -22 27q-6 0 -8 -1q-23 -19 -39 -41q-14 -19 -38 -44q-3 0 -10.5 -3.5t-12.5 -5.5l-14 -7l-8 -3q-3 0 -3 6q0 5 1 7l8 10q9 11 55 63q35 41 64 67q13 11 22 15q4 -4 16 -4h5q8 0 16 -14z
M44 281q10 17 16 26l22 34q4 7 4 18q0 9 1 14t5 12l9 15q13 19 13 27q0 13 -10 23t-21 10q-6 0 -11 -3q-3 3 -12 4q-10 1 -10 10q0 25 36 25q10 0 18 -3.5t14 -6.5q3 -3 9 -7q3 -4 7 -4q7 0 11 4q7 4 15 8h4q19 10 46 10q12 0 27 -5q13 -5 24 -5q5 0 16 3l26 6q3 1 9 1h7
q22 0 28 -10q-8 -38 -34 -38q-9 0 -24 4q-16 3 -26 3q-21 0 -39.5 -18.5t-27.5 -53.5q-21 -21 -52 -91q-10 -20 -22 -48l-9 -21l-21 -45l-2 -9q-3 -8 -8 -37l-2 -8q1 -1 1 -13q0 -20 32 -41q40 -26 117 -26q35 0 66 10q36 11 52 29l31 38q13 17 16 34q4 22 15 45l36 49
q27 42 30 78q33 23 52 77q-5 7 -5 13q0 3 2 9t2 8q0 5 -6.5 8.5t-22.5 8.5q-30 8 -30 27l2 12h10q3 -1 9 -1q27 0 63 3q5 0 25 -10h6q10 0 25 -5q5 2 22 15q3 3 9 7l5 3q2 0 2 -3q10 7 29 7q32 0 32 -21q0 -16 -30 -27q-63 -19 -91 -49q-20 -20 -22 -38q-6 -4 -9.5 -14.5
t-4.5 -12.5q-8 -22 -14 -28l-13 -13q-5 -8 -20 -24l-48 -72q-17 -50 -43 -96q-44 -79 -93 -100q-12 -8 -67 -22l-38 -10q-16 -4 -22 -4q-7 0 -22 3q-21 4 -28 5h-14q-45 0 -75 15q-10 3 -19 10q-6 5 -6 7v1q-12 0 -18.5 3.5t-10.5 12.5q-8 19 -8 77q0 32 7 45l7 12
q1 40 24 73q1 17 15 41z" />
    <glyph glyph-name="Ugrave" unicode="&#xd9;" horiz-adv-x="563" 
d="M479 600q-6 -11 -17 -11t-33 27q-6 7 -16 23l-12 17q-5 8 -15 22q-17 21 -33 45q-6 9 -6 13q0 21 21 23q5 1 15 1q6 0 6 2q10 -1 18 -12t18 -31l14 -34q4 -16 9 -24zM44 281q10 17 16 26l22 34q4 7 4 18q0 9 1 14t5 12l9 15q13 19 13 27q0 13 -10 23t-21 10q-6 0 -11 -3
q-3 3 -12 4q-10 1 -10 10q0 25 36 25q10 0 18 -3.5t14 -6.5q3 -3 9 -7q3 -4 7 -4q7 0 11 4q7 4 15 8h4q19 10 46 10q12 0 27 -5q13 -5 24 -5q5 0 16 3l26 6q3 1 9 1h7q22 0 28 -10q-8 -38 -34 -38q-9 0 -24 4q-16 3 -26 3q-21 0 -39.5 -18.5t-27.5 -53.5q-21 -21 -52 -91
q-10 -20 -22 -48l-9 -21l-21 -45l-2 -9q-3 -8 -8 -37l-2 -8q1 -1 1 -13q0 -20 32 -41q40 -26 117 -26q35 0 66 10q36 11 52 29l31 38q13 17 16 34q4 22 15 45l36 49q27 42 30 78q33 23 52 77q-5 7 -5 13q0 3 2 9t2 8q0 5 -6.5 8.5t-22.5 8.5q-30 8 -30 27l2 12h10q3 -1 9 -1
q27 0 63 3q5 0 25 -10h6q10 0 25 -5q5 2 22 15q3 3 9 7l5 3q2 0 2 -3q10 7 29 7q32 0 32 -21q0 -16 -30 -27q-63 -19 -91 -49q-20 -20 -22 -38q-6 -4 -9.5 -14.5t-4.5 -12.5q-8 -22 -14 -28l-13 -13q-5 -8 -20 -24l-48 -72q-17 -50 -43 -96q-44 -79 -93 -100q-12 -8 -67 -22
l-38 -10q-16 -4 -22 -4q-7 0 -22 3q-21 4 -28 5h-14q-45 0 -75 15q-10 3 -19 10q-6 5 -6 7v1q-12 0 -18.5 3.5t-10.5 12.5q-8 19 -8 77q0 32 7 45l7 12q1 40 24 73q1 17 15 41z" />
    <glyph glyph-name="cedilla" unicode="&#xb8;" horiz-adv-x="337" 
d="M217 -118q-20 -3 -40 -21q-27 -26 -51 -35q-15 -6 -27 -8l-39 -12q-5 5 -10 5l-6 -2q-17 14 -17 36q0 10 7.5 27.5t17.5 33.5q27 40 48 40q5 0 9 1h5q11 0 17 -7q4 -4 4 -17q0 -9 -4 -13q-19 -13 -28 -22q-5 -5 -5 -8q0 -17 19 -17q10 0 45 31q9 7 23 21l12 11
q7 21 28 41q9 9 20 14.5t21 5.5q23 0 35 -28q-30 -23 -84 -77z" />
    <glyph glyph-name="Scaron" unicode="&#x160;" horiz-adv-x="543" 
d="M408 662l-3 30q0 -1 3 5q5 11 11 33q2 14 2 20q0 7 -1 10l-2 5q0 2 17 8q14 -9 14 -14t-7 -12t-7 -27q0 -3 2 -9q1 -3 1 -10q0 -9 -1 -12t-1 -9v-8q0 -2 3 -4l10 -3l15 -1q12 0 18 5l10 6q28 13 52 43l15 20q5 8 9 8h4q6 0 11 -1t9 -2q2 -1 4 -1t3 -1q0 -2 -56 -67
l-32 -24q-39 -39 -78 -58q-28 6 -28 45q0 12 3 25zM638 598q0 -7 -16 -35q-1 -2 -10 -11q-20 -20 -44 -48q-18 -22 -27 -35q-17 -23 -27 -23q-5 0 -26 23q-23 23 -33 23h-2q-1 -1 -3 -1h-27q-22 -2 -32.5 -15t-10.5 -32q0 -14 4.5 -25.5t14.5 -24.5l22 -27q3 -4 16.5 -20
t25 -36t17.5 -41q10 -33 10 -68q0 -27 -6 -32q1 -1 1 -3q0 -6 -10 -25.5t-19 -32.5q-15 -21 -43 -46l-31 -26l-24 -17q-18 -15 -51 -21q-16 -3 -43 -3q-55 0 -72 6q-17 5 -37 23l-25 6q-3 1 -7 7q-6 8 -21 20q-4 4 -8 4t-15 -9q-37 -32 -51 -42q-13 -10 -20 -10q-5 0 -5 16
q0 26 30 67q19 26 39 46l24 35q18 26 35 26q15 0 26 -15.5t14 -40.5q6 -58 18 -77q7 -10 19 -14t33 -4q25 0 54.5 9.5t53.5 26.5q58 40 58 91q0 27 -18 55q-21 15 -62 59q-2 6 -11 22q-17 25 -29 60q-6 17 -6 35q0 66 45 116q20 21 44.5 33t50.5 12q11 0 17.5 -3t17.5 -9
q11 -7 19 -10t20 -3q32 0 48 30l15 28q3 4 20 9q3 0 9 3l24 13q6 3 9 3q18 0 18 -22z" />
    <glyph glyph-name="scaron" unicode="&#x161;" horiz-adv-x="305" 
d="M430 612q0 -3 -55 -67q-12 -7 -52 -41q-37 -31 -58 -41q-29 6 -29 45q0 15 4 26q-3 11 -4 29l3 10q2 2 3 8q6 15 9 30l1 10q0 7 -1 10l-1 5q0 4 16 8q15 -9 15 -13q0 -5 -7 -12q-8 -8 -8 -28q0 -4 2 -8q1 -3 1 -11q0 -9 -1 -12t-1 -9q0 -5 0.5 -8t3.5 -4q4 -2 10 -2
q5 -1 10 -1t11 -1l7 4q23 8 48 27q11 9 20 21l10 17q6 12 13 13h4q6 0 11 -1t9 -2zM299 281q0 -18 -21 -35q-16 -12 -22 -12l-6 2q-43 27 -66 27q-26 0 -26 -33q0 -11 43 -33q15 -8 22.5 -17.5t13.5 -22.5q9 -25 10 -27q6 -20 13 -35q6 -10 6 -20q0 -22 -25 -45
q-26 -25 -50 -32l-95 3l-16 -2q-52 0 -84 50q-1 1 -1 7q0 17 15 37t30 20q6 0 18 -12q38 -40 54 -54q13 -12 25 -12q16 0 31 15t15 32q0 16 -19 31l-20 17l-12 17l-18 24q1 1 1 5q0 7 -8 21q-6 11 -8 16.5t-2 13.5q0 38 20 67q3 3 11 7l19 11q30 17 38 24l25 6q8 2 10 2
q11 0 25 -5.5t26 -14.5q28 -21 28 -43z" />
    <glyph glyph-name="Zcaron" unicode="&#x17d;" horiz-adv-x="514" 
d="M308 642l-3 30q0 -1 3 5q5 11 11 33q2 14 2 20q0 7 -1 10l-2 5q0 2 17 8q14 -9 14 -14t-7 -12t-7 -27q0 -3 2 -9q1 -3 1 -10q0 -9 -1 -12t-1 -9v-8q0 -2 3 -4l10 -3l15 -1q12 0 18 5l10 6q28 13 52 43q8 9 15 20q5 8 9 8h4q6 0 11 -1t9 -2q2 -1 4 -1t3 -1q0 -2 -56 -67
l-32 -24q-39 -39 -78 -58q-28 6 -28 45q0 12 3 25zM821 -127q0 -48 -26 -87q-27 -38 -66 -49l-21 -8q-12 -5 -22 -5q-18 0 -40 14q-30 18 -57 24l-16 3q-5 1 -10 6l-18 23l-49 42q-8 5 -19 23l-32 53q-14 20 -26.5 32.5l-14.5 14.5q-9 8 -27 29q-43 26 -74 33.5t-60 7.5
q-20 0 -35 -11l-10 -7q-4 -4 -7 -4q-1 0 -1 1h-2q-2 -2 -6 -2q-11 0 -24 13q-10 -2 -14 -10q-4 -9 -14 -9q-9 0 -15.5 -5.5t-13.5 -13.5t-10 -12q-28 -32 -54 -35q-16 7 -29.5 23.5t-13.5 31.5q0 23 31 42q28 17 64 17q7 0 21 -2q30 6 59 35q31 31 39 38q4 4 18 14l4.5 3
t2.5 2q2 0 9 7l10 9q28 26 42 43q9 12 9 18v3q40 65 69 101q29 38 29 46q0 11 -20 13q-31 -21 -53 -21q-15 0 -23 6t-21 22q-34 43 -54 60q-14 13 -25 13q-20 0 -42 -19q-9 -7 -12 -21q-4 -21 -8.5 -33.5t-14.5 -22.5q-12 -12 -37 -12q-26 0 -40 23q-7 9 -10.5 20.5
t-3.5 21.5q0 29 19.5 52t49.5 40q24 13 49.5 21t36.5 8q25 0 80 -27l20 -37q11 -21 25.5 -30.5t23.5 -11t32 -2.5l14 -2q29 0 36 19q6 15 14.5 30t19.5 31l31 21q14 9 42 9q32 0 44 -7t12 -31q0 -14 -15 -25t-33 -29q-13 -28 -28 -44q-7 -7 -12 -21t-7 -18q-12 -31 -20 -36
q-40 -31 -56 -50q-9 -10 -12 -16l-9 -17l-55 -49q-16 -6 -22 -19l-8 -19l-6 -3l-12 -3q-17 -2 -21 -9q-2 -3 -33 -34l-19 -19l-8 -10q0 -8 10 -8l26 -4q53 -3 84 -9t50 -17q15 -9 34 -26q8 -9 41 -38l24 -14q1 -1 13 -14q7 -9 32 -31l84 -72q-1 0 6 -4q14 -9 40 -19
q12 -5 17 -5q10 0 19.5 8.5t9.5 24.5q0 4 -4 11t-5 10l-7 11q-3 4 -3 7q6 66 57 66q27 0 52 -18q23 -17 28 -39q3 -12 3 -24z" />
    <glyph glyph-name="zcaron" unicode="&#x17e;" horiz-adv-x="322" 
d="M236 508q0 15 4 26q-3 11 -4 29l3 10q2 2 3 8q6 15 9 30l1 10q0 7 -1 10l-1 5q0 4 16 8q15 -9 15 -13q0 -5 -7 -12q-8 -8 -8 -28q0 -4 2 -8q1 -3 1 -11q0 -9 -1 -12t-1 -9q0 -5 0.5 -8t3.5 -4q4 -2 10 -2q5 -1 10 -1t11 -1l7 4q23 8 48 27q11 9 20 21l10 17q6 12 13 13h4
q6 0 11 -1t9 -2l6 -2q0 -3 -55 -67q-12 -7 -52 -41q-37 -31 -58 -41q-29 6 -29 45zM466 -97q0 -35 -19 -55.5t-58 -20.5q-8 0 -54 2q-4 0 -24 9q-22 8 -27 8h-2l-2 -1q-5 8 -18 15l-18 12q-7 7 -13 22q-8 18 -20 55q-13 4 -35 29q-32 34 -39 39q-6 4 -14 5t-17 1
q-18 0 -34 -6.5t-43 -19.5q-25 3 -25 30q0 12 4 20q80 20 102 76q27 8 56 44l44 55q-1 1 -1 6q0 6 -1 9q-13 5 -20 16q-10 11 -22 14h-42q-29 -5 -41 -30l-19 -41q-18 0 -26 6t-8 21q0 28 28 77l25.5 16t35.5 19.5t26 6.5t21 -6t25 -18q16 -13 24 -19t17 -6q13 0 47 16
q4 2 20 8.5t25 6.5q13 0 21.5 -11.5t8.5 -24.5q0 -38 -34 -38q-8 0 -10 1q-11 0 -21 -5.5t-23 -23.5q-5 0 -11 -11q-4 -6 -5 -9l-3 -6q-13 -15 -31 -28q-43 -31 -62 -47q-11 -10 -13 -20q5 -18 47 -66q20 -24 28 -32l13 -15l3 -7q9 -21 42 -52q13 -12 25 -20t18 -8
q14 2 28 21q12 17 23.5 22t41.5 5q37 0 50 -15q6 -11 6 -31z" />
    <glyph glyph-name="brokenbar" unicode="&#xa6;" horiz-adv-x="98" 
d="M187 644q20 14 33 14q7 0 11 -4q-39 -128 -70 -256q-14 -2 -17 -2q-12 0 -13 7q2 2 5 17q13 67 51 224zM45 -8q-13 -8 -17 -8q-3 0 -5 3q8 45 26 98q14 44 22 83q15 80 25 99q6 13 20 13q6 0 14 -8q-35 -149 -67 -271q-7 -1 -18 -9z" />
    <glyph glyph-name="Eth" unicode="&#xd0;" horiz-adv-x="697" 
d="M691 351q0 -46 -11 -90q-14 -50 -29 -60q-35 -62 -79 -108q-45 -45 -72 -50q-4 0 -19 -6q-34 -14 -73 -27q-19 -6 -31 -6q-13 0 -25 3l-63 4h-11q-13 0 -39 -6q-25 -8 -52 -11l-45 6q-31 4 -54 4q-9 0 -23 -2l-30 -9q-28 -9 -47 -9q-18 0 -29 8.5t-11 26.5q0 14 4 27
q25 -3 40 -3q3 0 5 1h4l19 -1q22 -2 30 -2q30 0 45.5 5t21.5 21q9 22 26 39q18 16 23 34q9 29 24 52l9 14q3 5 3 12q0 14 -31 22q-17 3 -42 3h-15q-32 0 -32 25q0 8 26 14q16 4 28 4q15 0 27 -4l57 -3q58 91 58 150q0 24 -16 38q-12 9 -29 9q-8 0 -13 -1t-12 -1
q-25 0 -25 21q0 30 32 30l14 -1l22 -3l21 -3l14 -2l8 -3q4 -3 10 -5q22 -6 46 -6q40 0 116 21q3 1 19.5 7.5t35.5 6.5q29 0 62 -15l57 -26l11.5 -11t17.5 -24q17 -33 22 -100v-10zM520 481h-23q-2 2 -7 4.5t-9 3.5q-13 -1 -34 -11q-3 1 -12 1q-12 0 -26 -11t-27 -33
q-32 -53 -32 -137v-4q-9 -9 -11 -18q9 -6 24 -7q23 -1 28 -7q5 -5 5 -15q0 -12 -7.5 -21t-17.5 -10q-47 -6 -62 -16q-16 -11 -22 -37q-7 -27 -7 -30q-11 -9 -16.5 -17t-5.5 -24q0 -50 65 -50q43 0 98 24q25 11 77 42q36 48 66 130q29 79 29 137q0 70 -42 99q-16 7 -31 7z
" />
    <glyph glyph-name="eth" unicode="&#xf0;" horiz-adv-x="390" 
d="M494 423q-21 0 -35 -1l-3 -17q-5 -4 -23 -30l-9 -30q-13 -29 -33 -68q-13 -25 -66 -107q-11 -36 -47 -76q-43 -45 -84 -62l-51 -12q-22 -5 -35 -18h-6q-11 0 -22 -3l-37 -9l-10 3q-21 7 -31 27q-7 10 -7 27q0 19 15 49q28 56 46.5 89t35.5 56q37 50 81 60l9 7
q26 17 64 17q9 0 16 -1t23 -1l22 -2q7 -1 16 -1q14 14 20 19q9 7 13 20l6 40q2 2 9 23h-43h-8q-5 -1 -16 -1h-17q-6 -1 -13 -1q-18 5 -18 16q0 9 22 20q3 -1 42 -1l66 7q1 1 1 6q0 39 -19.5 63t-49.5 24q-42 0 -86 -50q-5 -5 -26 -19q-25 -17 -33 -19q-7 3 -7 16q0 22 19 45
t50 43q29 19 59 31t50 12q43 1 77 -15q18 -8 34 -68l10 -41l3 -19q0 -12 -1 -15h28q5 1 14 1h7q18 -10 18 -19q0 -8 -18 -14q-5 -1 -22 -1zM283 242q0 3 1 4v4q0 17 -15 28t-36 11q-28 0 -58 -25q-28 -24 -43 -58q-8 -19 -15 -29q-3 -6 -10.5 -18.5t-10.5 -22.5
q-4 -9 -4 -26q0 -18 7.5 -28t21.5 -10q8 0 12 3q4 2 21 2q4 1 23 18l13 12q5 5 6 5q13 2 28.5 16.5t29.5 35.5q13 20 21 40.5t8 32.5v5z" />
    <glyph glyph-name="Yacute" unicode="&#xdd;" horiz-adv-x="417" 
d="M339 634q-3 -1 -6 -8q-11 -18 -18 -24q-6 -5 -13 -6q-16 3 -16 13q0 8 3 12.5t10 8.5q14 8 25 32l4 9q0 4 3 8l10 14l23 28l10 22q6 14 17 19l14 5q2 0 24 7q21 -14 21 -30v-3q-1 -1 -1 -4q-26 -29 -110 -103zM479 447l-14 -9q-16 -21 -42 -50l-8 -21q-12 -23 -43 -70
l-56 -69q-19 -22 -25 -36l-14 -24l-37 -57q-13 -26 -29 -54q-15 -26 -17 -31q-19 -35 -36 -56q-19 -23 -63 -53q-33 -36 -78 -78q-11 -3 -48 -22q-34 -18 -48 -18q-10 0 -39 7l-44 36q-9 23 -27 55q0 24 3 40.5t11 27.5q17 25 70 25q16 0 29 -11.5t13 -28.5q0 -7 -3 -19
t-3 -18q0 -14 12.5 -23.5t28.5 -9.5q24 0 47 14l46 47q53 55 75 87q13 17 16 31l4 4q11 11 16 19q4 4 4 8q0 9 -6 14t-12 5q-5 0 -16 -8q-10 -9 -19 -9l-31 9q-32 3 -46 13.5t-14 37.5q0 23 13 49l13 26q4 8 14 33q30 60 36 121q0 6 14 22q13 13 13 19q0 10 -14.5 15.5
t-34.5 5.5q-17 0 -37 -4q-6 -1 -9.5 -9.5t-4.5 -10.5q-4 -9 -8 -13.5t-11 -4.5q-19 0 -19 25q0 14 12 21l3 8q7 15 25 28q8 5 21 7l38 -3q27 2 58 7q2 0 24 13q18 11 24 11q10 0 19 -20q7 -21 7 -34q0 -51 -43 -106q-10 -12 -17 -34q-4 -27 -21 -67l-20 -48l-8 -14
q-7 -10 -7 -18q0 -25 8 -33q7 -7 11 -7q19 0 40 9t27 23q13 0 30 32l27 50l23 30q6 34 19 65q38 55 55 93q8 16 11 32.5t6 41.5q1 13 21 17q5 1 15 1q5 -1 12 -1q26 0 39.5 -1.5t21.5 -5.5t10.5 -13.5t2.5 -26.5q0 -13 -4 -20q-4 -11 -12 -16z" />
    <glyph glyph-name="Thorn" unicode="&#xde;" horiz-adv-x="607" 
d="M610 234q0 -14 -6 -22l-7 -8l-11 -13q-1 -3 -1 -9q0 -12 -14 -27q-4 -5 -25 -22q-23 -18 -32 -30.5t-11 -14.5q-7 -8 -13 -11t-18 -4h-52q-4 -12 -11 -12l-3 2q-3 2 -10 4.5t-11 3.5q-8 2 -11 2l-9 -2q-7 9 -22 22q-28 19 -37 35q-6 11 -6 28q0 21 9.5 37.5t26.5 16.5
q30 0 64 -21q13 -9 24.5 -15.5t18.5 -6.5q35 0 61 42q11 18 17 40t6 44q0 44 -27 55q-11 4 -25 4h-25q-27 0 -42 -6q-9 2 -16 9t-15 7l-12 -2q-7 -3 -17 -3q-11 0 -14 1q-13 -13 -19 -25q-7 -14 -20 -33v-16q-20 -45 -81 -210q2 -9 19.5 -13.5t52.5 -9.5q31 -5 48.5 -11
t17.5 -17q0 -13 -13.5 -19.5t-37.5 -6.5q-4 0 -52 5l-24 3l-9 1l-58 -12h-52q-13 -3 -48 -3h-33q-11 0 -41 2q-11 14 -11 28q0 22 29 27q16 2 25 2q8 -1 19 -1h13q8 0 11 -1q44 32 71 119q26 11 26 34q0 9 -1 12v12q0 12 11 26q9 10 24 32q4 26 19 72q34 28 34 67
q0 25 -21 37q-42 -3 -87 -3h-13q-17 0 -25 7q-5 3 -5 11q0 15 19 24q18 7 28 7q6 0 38 -6q26 -7 34 -7q4 0 35 9q45 13 59 15q13 2 35 2q35 0 82 -10l35 -9q15 -4 15 -7v-7q0 -27 -37 -27l-21 2q-9 1 -19 1q-6 0 -14.5 -3.5t-15.5 -8.5q-17 -13 -17 -26q0 -10 11.5 -20.5
t30.5 -10.5q10 0 25 4q16 3 22 3q2 -6 28 -6q10 0 14 1h11q49 0 91 -80l3 -13l13 -48q2 -16 2 -19z" />
    <glyph glyph-name="thorn" unicode="&#xfe;" horiz-adv-x="401" 
d="M162 357q8 14 16 37q2 7 13.5 39.5t31.5 71.5l-8 7q-29 8 -29 20q-1 13 49 41q37 21 50 30l21 16q6 6 8.5 7t10.5 1q13 0 22.5 -15t9.5 -37q0 -40 -28 -71q-7 -8 -29 -54l-12 -27l-5 -12q-47 -56 -56 -96l-51 -88q-1 -3 -12 -12q-16 -57 -21 -70.5t-17 -30.5
q-13 -16 -13 -34q0 -15 9.5 -26.5t21.5 -11.5q6 0 25 8q19 10 31 11q11 0 25 6q13 13 38 77q3 3 8 15t9 26q10 38 10 57q0 14 -18 25l-13 6q-6 2 -6 7q0 4 8 9q13 8 48 16q12 2 32 4q29 -35 29 -76q0 -27 -17 -84l-36 -27l-27 -33l-9 -24q-7 -15 -20 -15h-2q-8 -8 -11 -16
q-8 -18 -18 -23q-7 -4 -19 -4q-14 0 -25 3l-12 3h-70q-20 0 -37 -25q-17 -26 -17 -50q0 -8 1 -11q-28 -37 -49 -146q9 -30 37 -30h19q28 0 34 -32q-3 -10 -30 -10h-95l-23 -1q-13 -1 -30 -1q-40 0 -56 15q2 11 20 21l16 25q14 19 19 35q4 11 5 23q17 21 27 39l15 29l24 48
q3 24 15 69l11 22q35 77 37 83q8 21 15 54l15 22l17 36l19 39q13 28 27 52v2l-1 2q0 5 3 12q12 8 20 22z" />
    <glyph glyph-name="uni00B9" unicode="&#xb9;" horiz-adv-x="235" 
d="M55 338h-7q-1 -1 -3 -1q-6 8 -6 20q0 10 8 39l10 34q14 17 14 51q0 16 -8 18q-21 -9 -29 -9q-9 0 -9 8q0 15 41 37q17 8 35 13.5t30 5.5q23 0 24 -13q-5 -27 -15 -65l-7 -26q-10 -32 -18 -67l7 -8q2 0 20 4q13 3 25 3q15 0 15 -12q0 -13 -38 -21q-11 -3 -31 -7
q-15 -3 -21 -6z" />
    <glyph glyph-name="uni00B2" unicode="&#xb2;" horiz-adv-x="341" 
d="M112 505q-4 0 -6 1h-6q-7 -21 -30 -21q-21 0 -21 15q0 7 4 11l47 27q19 8 47 8q46 0 75.5 -14.5t29.5 -38.5q0 -35 -82 -62q-20 -8 -20 -15t10.5 -12t23.5 -5q8 0 10 1q1 -1 4 -1q9 0 29 17l39 33q20 -2 20 -15q0 -17 -22 -36q1 -1 1 -4q0 -17 -19 -36q-10 -10 -15 -13
l-9 -5q-6 0 -15 3q-20 5 -23 5h-16q-23 0 -46 -4q-28 -5 -60 -5q-15 0 -23.5 7t-8.5 16q0 20 32 32q24 7 62 44q37 37 37 53q0 12 -13 18q-15 -4 -36 -4z" />
    <glyph glyph-name="uni00B3" unicode="&#xb3;" horiz-adv-x="378" 
d="M214 430q22 3 39 3q44 0 44 -47q0 -26 -17 -48t-46 -38q-28 -16 -62.5 -25t-67.5 -9q-25 0 -52 10q-28 11 -28 28q0 16 23 35q20 18 39 18q24 0 24 -35q0 -5 -2 -23q1 -4 13 -4q30 0 54 10q47 19 63 71q-38 26 -82 33q-9 -11 -26 -11q-19 0 -19 8q0 6 6 13l16 4
q27 19 88 74l-4 2l-2 5q-7 7 -44 7q-38 0 -52 -3q-16 -5 -19 -8q-5 -5 -5 -8q-1 -4 -10 -4l-4 1q-10 0 -15 5q-4 1 -4 7t20 30q15 18 14 17l7 10v20q2 14 39 17q1 -1 1 -8v-8q-1 -3 -1 -10q0 -19 33 -19q23 0 81 14q27 6 38 10l13 3q13 -1 13 -16q0 -17 -12.5 -32t-36.5 -32
l-45 -33q-22 -14 -46 -40q22 4 34 6z" />
    <glyph glyph-name="onehalf" unicode="&#xbd;" horiz-adv-x="372" 
d="M203 346h-16h-6q-6 8 -6 19q0 22 7 39q6 18 15 36q9 17 9 48q0 16 -8 18q-21 -9 -30 -9q-7 0 -7 7q0 17 41 37q17 8 34.5 13.5t29.5 5.5q22 0 23 -13q-11 -51 -40 -156l8 -8q5 0 20 4q17 3 23 3q15 0 15 -11q0 -16 -37 -23q-20 -4 -29 -5q-14 -1 -22 -6q-9 1 -24 1z
M207 291q11 -6 124 -6q2 -6 2 -7q0 -16 -20 -24q-22 -8 -76 -8h-40q-13 0 -49 2q-30 -6 -73 -9q-13 3 -13 12t10 20t19 14q5 -1 18 -1h24zM112 155q-4 0 -6 1h-6q-8 -20 -30 -20q-21 0 -21 14q0 3 6 10q14 18 49 29q18 6 43 6q46 0 75.5 -14.5t29.5 -37.5q0 -35 -83 -61
q-19 -6 -19 -15q0 -8 10.5 -12.5t24.5 -4.5q7 0 9 1q1 -1 3 -1q9 0 23.5 11.5t44.5 38.5q20 -2 20 -15q0 -15 -21 -35q1 -1 1 -4q0 -12 -18 -34q-6 -8 -14 -13.5t-11 -5.5q-6 0 -15 3l-20 4q-6 0 -9 1h-11q-22 0 -45 -4q-28 -5 -60 -5q-15 0 -23 6.5t-8 15.5q0 19 31 31
q29 13 62 44q37 37 37 53q0 11 -13 17q-15 -4 -36 -4z" />
    <glyph glyph-name="onequarter" unicode="&#xbc;" horiz-adv-x="429" 
d="M242 347h-7q-1 -1 -4 -1q-5 8 -5 20q0 17 7 38l10 33q14 17 14 51q0 16 -8 18q-21 -9 -30 -9q-7 0 -7 7q0 17 40 37q17 8 34.5 13.5t29.5 5.5q22 0 23 -13q-10 -49 -39 -156l7 -8q2 0 20 4q12 3 24 3q15 0 15 -11q0 -14 -38 -22q-20 -4 -29 -5q-16 -3 -22 -7zM258 291
q13 -7 56 -7h32q13 0 35 2l2 -8q0 -16 -21 -24q-24 -8 -85 -8q-16 0 -78 2l-51 -6q-6 0 -22 -2q-13 3 -13 12q0 12 16 24q13 11 24 11q14 0 20 -1l11 -2zM171 -37q-4 -21 -62 -48q-24 -12 -50 -19.5t-44 -7.5q-9 0 -11 1l-12 -2q-26 0 -26 27q0 19 14.5 33.5t36.5 14.5
q25 0 53 -19q44 5 61 20q16 14 36 58q-7 7 -38 7q-11 0 -20 -1l-20 -2q-14 -2 -40 -4q-10 -1 -22 -1q-9 0 -12.5 7t-3.5 15q0 10 9 19q8 8 30 22q65 39 133 86q6 2 13 9q26 21 37 28q11 6 18 6q18 0 31 -18q12 -19 12 -36q0 -10 -16 -32q-20 -27 -34 -54q14 -9 33 -9l25 2
l25 2q28 0 42 -17q-13 -25 -43 -25q-10 0 -37 5t-37 5h-9q-4 0 -9 -3q-6 -4 -13 -11q-5 -4 -24 -25q-2 -6 -26 -33zM87 80q6 -17 63 -17q33 0 49.5 15.5t16.5 38.5v5q0 8 -3 12.5t-12 4.5q-38 0 -109 -62z" />
    <glyph glyph-name="threequarters" unicode="&#xbe;" horiz-adv-x="461" 
d="M335 500q21 3 40 3q44 0 44 -47q0 -26 -17 -47.5t-46 -37.5q-28 -16 -62 -24.5t-67 -8.5q-27 0 -52 10q-27 10 -27 28q0 15 23 34q9 8 19.5 13t18.5 5q24 0 24 -35q0 -6 -2 -22q3 -4 13 -4q30 0 54 9q42 16 62 70q-38 26 -81 33q-9 -10 -26 -10q-19 0 -19 8q0 5 6 12
l16 4q28 21 87 74l-3 2l-2 5q-7 7 -55 7q-31 0 -43 -3q-14 -4 -17 -8q-2 -2 -5 -8q-1 -4 -9 -4h-4q-11 0 -16 5q-4 3 -4 8t21 30q15 18 14 17q7 7 7 9q-1 3 -1 20q2 14 38 17q2 -2 2 -9v-8q-1 -3 -1 -9q0 -19 32 -19q25 0 81 14q46 13 51 13q13 -1 13 -16q0 -17 -12.5 -32
t-36.5 -32q-21 -17 -45 -33t-45 -39q25 5 32 6zM257 291q22 -8 57 -8q20 0 32 1t35 1q2 -6 2 -7q0 -16 -20 -24q-22 -8 -76 -8h-40q-13 0 -49 2q-30 -6 -72 -9q-14 3 -14 12q0 8 10.5 19.5t19.5 14.5q5 -1 18 -1h24zM171 -37q-4 -21 -64 -49q-25 -11 -51 -18.5t-42 -7.5
q-8 0 -10 1l-12 -2q-26 0 -26 27q0 19 14.5 33.5t36.5 14.5q25 0 53 -19q22 2 35.5 6t23.5 12t18.5 22t18.5 38q-7 7 -38 7q-12 0 -23 -1l-22 -2l-45 -4l-18 -1q-9 11 -9 22t8.5 19t31.5 22l53 33q26 16 78 53q6 2 12 8q28 23 38 29t19 6q17 0 30 -18q12 -16 12 -36
q0 -11 -16 -33q-17 -23 -33 -54q14 -8 33 -8l25 2l24 2q28 0 42 -17q-12 -25 -42 -25q-12 0 -37 5q-27 5 -37 5h-9q-4 0 -9 -3q-6 -4 -13 -11q-5 -4 -24 -25q-2 -6 -26 -33zM87 79q6 -16 61 -16q34 0 50.5 14.5t16.5 39.5v5q0 8 -3 12.5t-12 4.5q-37 0 -108 -62z" />
    <glyph glyph-name="periodcentered" unicode="&#xb7;" horiz-adv-x="198" 
d="M95 111q-20 0 -27.5 11t-7.5 31q0 25 14.5 39.5t41.5 14.5q43 0 43 -48q0 -21 -10 -35t-25 -14q-5 0 -6 1h-23z" />
    <glyph glyph-name="macron" unicode="&#xaf;" horiz-adv-x="292" 
d="M263 558q0 -13 -8 -25t-19 -12l-9 2h-93l-55 -3h-8q-3 -1 -8 -1h-15h-6q-14 0 -21 7q-5 5 -5 13q0 21 9.5 33t27.5 12q9 0 27 -5q12 -5 21 -7q6 0 24 4l12 3q3 1 7 1q22 0 40 -1l70 -3q9 -4 9 -18z" />
    <glyph glyph-name="Euro" unicode="&#x20ac;" horiz-adv-x="524" 
d="M132 181l-2 -9q0 -1 2 -7q-7 -10 -7 -30q0 -12 4 -16q5 -4 9 -18q2 -19 8 -30t17 -17t26 -8t41 -3l14 3q11 3 16 3q12 1 56 28q17 12 28 18l14 8q7 0 10 -8q0 -8 -18 -22q-13 -12 -23 -15q-5 -2 -14 -11q-21 -21 -71 -35q-29 -8 -68 -8q-10 -10 -19 -10q-2 0 -3 1
q-1 7 -18 12q-48 13 -74 44q-17 20 -17 60q0 32 4 45q3 14 2 14l3 10h-7q-3 -1 -7 -1q-22 0 -33 4v7q0 14 17 23q10 5 27 5h12q7 32 19 58l-19 2q-13 1 -13 3v7q0 12 18 22q10 5 29 5h9l16 26q26 42 58 78q17 18 33 27q11 7 38 28q26 20 62 30l21 13l19 8q-2 -2 3 0
q2 0 10 2q12 3 23 3h38q15 0 44 -26q2 -3 9 -7.5t12 -4.5q12 0 42 42q9 12 20 12q8 0 8 -8l-2 -9l-13 -33q-6 -25 -25 -61q-10 -18 -15 -32l-8 -19q-6 -13 -14 -13q-14 0 -14 10v23q0 15 1 20q0 10 -15 28l-27 31q-27 13 -34 13h-18q-15 0 -48 -21q-18 -12 -27 -19l-25 -18
q-15 -10 -40 -42q-31 -39 -49 -82h157q19 0 19 -14q0 -12 -19 -22h-172q-3 -3 -7 -11t-7 -12l-14 -37q39 -1 90 -1h36q19 0 19 -13t-18 -22z" />
    <glyph glyph-name="yacute" unicode="&#xfd;" horiz-adv-x="424" 
d="M337 477q-3 -1 -6 -8q-11 -18 -18 -24q-6 -5 -13 -6q-16 3 -16 13q0 8 3 12.5t10 8.5q14 8 25 32l4 9q0 4 3 8l10 14l23 28l10 22q6 14 17 19l14 5q2 0 24 7q21 -13 21 -30v-3q-1 -1 -1 -4q-26 -29 -110 -103zM436 286q0 -12 -7 -30q-8 -18 -23 -34q-74 -83 -120 -123
q-49 -43 -65 -60l-80 -91q-39 -46 -94 -89l-22 -12q-18 -10 -25 -22l-68 -45q-38 -26 -84 -54q-19 -13 -63 -13q-39 0 -58.5 11.5t-19.5 41.5q0 14 6.5 30.5t17.5 29.5q26 31 54 31q9 0 41 -24q15 -12 24.5 -18t16.5 -6q24 0 86 47l31 11l9 10q5 6 14 14q10 8 51 47l24 24
q10 10 10 14q0 15 -18 23q-27 10 -37 20q-9 9 -9 21q0 15 22 52q20 34 39 51q12 10 23 33l9 24l12 31l2 8q0 11 -10 17.5t-20 6.5q-30 0 -59 -30h-14q-4 0 -4 6q0 14 16 29t38 25l9 9q15 17 29 24q7 4 18 4q25 0 53 -21q12 -10 19.5 -23t7.5 -26q0 -24 -53 -101l-36 -52
q-17 -23 -17 -29q0 -26 20 -26q14 0 38 21l31 32q24 16 74 79q1 1 3.5 4.5t6.5 11.5l19 29q33 54 45 71q9 14 20 27q7 10 12 10q6 0 24 -8q14 -7 20 -13q11 -14 11 -30z" />
    <glyph glyph-name="multiply" unicode="&#xd7;" horiz-adv-x="520" 
d="M431 316q-14 -9 -17 -17q-5 -4 -25 -11q-19 -8 -32 -16l-45 -39q-5 -5 -13 -23q-10 -24 -10 -34q0 -7 26 -27q40 -33 64 -55v-3q0 -6 6 -14l5 -5l4 -5l3 -3q-6 -6 -17 -6q-21 0 -32 11l-94 80q-4 4 -18 4q-33 0 -56 -15t-45 -43t-29 -33t-21 -9.5t-21 -6.5q-27 5 -27 21
q0 9 3 15q6 12 22 13q6 0 14 6.5t10 7.5l11 9l4 4v1l2 -1l18 15q14 13 31 25l35 26q7 4 7 10q0 8 -18 22l-18 11l-31 27l-20 17q-7 4 -18 4h-4l-12 11q3 7 17 21q11 0 23 -3q4 -1 18 -5l90 -77q1 -1 8 -1q15 0 32 14l38 32l81 51q17 12 28 12q15 0 23 -18zM113 272l-5 3
q2 -2 5 -3z" />
    <glyph glyph-name="uni00AD" unicode="&#xad;" horiz-adv-x="430" 
d="M226 160q-21 -1 -81 -1h-62h-6q-5 -1 -16 -1h-18q-6 -1 -13 -1q-19 4 -19 16q0 11 22 20q3 -1 43 -1l71 7q13 -5 124 -5q18 -10 18 -19q0 -8 -18 -14q-9 -1 -45 -1z" />
    <glyph glyph-name="Abreve" unicode="&#x102;" 
d="M726 387l-12 -30l-35 -66q-14 -37 -46 -98q-8 -23 -26 -63l-14 -34q-6 -16 -6 -19q0 -13 8.5 -18.5t26.5 -11.5q19 -7 27 -11t8 -13q0 -13 -15 -21t-38 -8l-37 3h-7q-34 0 -95 10q-3 1 -14 1t-31 -2l-10 -2t-10 -1q-13 0 -22 13q8 38 40 38l24 -2l20 -3q12 0 33 26
q21 28 22 44q14 9 22 31q4 11 4 26v5q18 38 18 54q0 5 -3.5 8.5t-6.5 3.5h-6q-2 -1 -7 -1q-13 0 -39 4q-19 3 -29 3q-44 0 -61 -44q-14 -18 -55 -53q-44 -39 -110 -113q-3 -3 -10.5 -5.5l-10.5 -3.5q-17 -6 -22 -15q-9 -3 -20 -8q-19 -9 -47 -24l-44 -11q-12 15 -20 15h-6
q-2 -1 -6 -1q-26 0 -43.5 24t-17.5 57q0 27 16 48.5t40 21.5q21 0 40 -19l50 -51q4 -4 19 -4q51 0 71 17q8 6 17 20l15 28q10 1 18.5 6t13.5 21q9 4 17 10t22 21l37 39l67 68q38 38 55 61l20 27q13 18 24.5 30.5t34.5 30.5q19 11 36 37q23 34 45 53q11 11 24 21q12 9 30 29
q10 17 16.5 25t13.5 9q0 2 2 2q3 0 13 -10q13 -14 48 -38q-15 -39 -76 -187zM653 441.5q-6 4.5 -12 4.5q-2 0 -3 -1l-25 -25q-8 0 -18 -7q-12 -9 -25 -27l-41 -52q-17 -2 -17 -20t54 -18q45 0 63 54v3q-1 1 -1 3q0 3 2 17q30 54 30 59q-1 5 -7 9.5zM682 729.5q7 8.5 18 16
t20 7.5t14 -9q2 -6 3 -15t1 -13q2 -8 6 -11l2 -9q5 0 8 -3q16 -11 25 -7l19 9q11 6 23 30q11 23 20 28q15 4 45 9h1q3 0 8 -8q6 -9 8 -9q-3 -31 -12 -42q-13 -15 -16 -16q-4 -2 -8 -4.5t-9 -4.5q-10 -5 -23 -5l-38 -14q-2 -1 -6.5 -2.5t-7.5 -3.5l-8 -3q-9 0 -17 7
q-6 1 -14 1q-15 0 -28 9q-10 7 -17 15.5t-12.5 18.5t-9.5 16q-2 4 5 12.5z" />
    <glyph glyph-name="uni1EAE" unicode="&#x1eae;" 
d="M726 387l-12 -30l-35 -66q-14 -37 -46 -98q-8 -23 -26 -63l-14 -34q-6 -16 -6 -19q0 -13 8.5 -18.5t26.5 -11.5q19 -7 27 -11t8 -13q0 -13 -15 -21t-38 -8l-37 3h-7q-34 0 -95 10q-3 1 -14 1t-31 -2l-10 -2t-10 -1q-13 0 -22 13q8 38 40 38l24 -2l20 -3q12 0 33 26
q21 28 22 44q14 9 22 31q4 11 4 26v5q18 38 18 54q0 5 -3.5 8.5t-6.5 3.5h-6q-2 -1 -7 -1q-13 0 -39 4q-19 3 -29 3q-44 0 -61 -44q-14 -18 -55 -53q-44 -39 -110 -113q-3 -3 -10.5 -5.5l-10.5 -3.5q-17 -6 -22 -15q-9 -3 -20 -8q-19 -9 -47 -24l-44 -11q-12 15 -20 15h-6
q-2 -1 -6 -1q-26 0 -43.5 24t-17.5 57q0 27 16 48.5t40 21.5q21 0 40 -19l50 -51q4 -4 19 -4q51 0 71 17q8 6 17 20l15 28q10 1 18.5 6t13.5 21q9 4 17 10t22 21l37 39l67 68q38 38 55 61l20 27q13 18 24.5 30.5t34.5 30.5q19 11 36 37q23 34 45 53q11 11 24 21q12 9 30 29
q10 17 16.5 25t13.5 9q0 2 2 2q3 0 13 -10q13 -14 48 -38q-15 -39 -76 -187zM653 441.5q-6 4.5 -12 4.5q-2 0 -3 -1l-25 -25q-8 0 -18 -7q-12 -9 -25 -27l-41 -52q-17 -2 -17 -20t54 -18q45 0 63 54v3q-1 1 -1 3q0 3 2 17q30 54 30 59q-1 5 -7 9.5zM682 729.5q7 8.5 18 16
t20 7.5t14 -9q2 -6 3 -15t1 -13q2 -8 6 -11l2 -9q5 0 8 -3q16 -11 25 -7l19 9q11 6 23 30q11 23 20 28q15 4 45 9h1q3 0 8 -8q6 -9 8 -9q-3 -31 -12 -42q-13 -15 -16 -16q-4 -2 -8 -4.5t-9 -4.5q-10 -5 -23 -5l-38 -14q-2 -1 -6.5 -2.5t-7.5 -3.5l-8 -3q-9 0 -17 7
q-6 1 -14 1q-15 0 -28 9q-10 7 -17 15.5t-12.5 18.5t-9.5 16q-2 4 5 12.5zM817 814q-3 -1 -6 -8q-11 -18 -18 -24q-6 -5 -13 -6q-16 3 -16 13q0 8 3 12.5t10 8.5q14 8 25 32l4 9q0 4 3 8l10 14l23 28l10 22q6 14 17 19l14 5q1 0 24 7q21 -13 21 -30v-3q-1 -1 -1 -4
q-26 -29 -110 -103z" />
    <glyph glyph-name="uni1EB6" unicode="&#x1eb6;" 
d="M726 387l-12 -30l-35 -66q-14 -37 -46 -98q-8 -23 -26 -63l-14 -34q-6 -16 -6 -19q0 -13 8.5 -18.5t26.5 -11.5q19 -7 27 -11t8 -13q0 -13 -15 -21t-38 -8l-37 3h-7q-34 0 -95 10q-3 1 -14 1t-31 -2l-10 -2t-10 -1q-13 0 -22 13q8 38 40 38l24 -2l20 -3q12 0 33 26
q21 28 22 44q14 9 22 31q4 11 4 26v5q18 38 18 54q0 5 -3.5 8.5t-6.5 3.5h-6q-2 -1 -7 -1q-13 0 -39 4q-19 3 -29 3q-44 0 -61 -44q-14 -18 -55 -53q-44 -39 -110 -113q-3 -3 -10.5 -5.5l-10.5 -3.5q-17 -6 -22 -15q-9 -3 -20 -8q-19 -9 -47 -24l-44 -11q-12 15 -20 15h-6
q-2 -1 -6 -1q-26 0 -43.5 24t-17.5 57q0 27 16 48.5t40 21.5q21 0 40 -19l50 -51q4 -4 19 -4q51 0 71 17q8 6 17 20l15 28q10 1 18.5 6t13.5 21q9 4 17 10t22 21l37 39l67 68q38 38 55 61l20 27q13 18 24.5 30.5t34.5 30.5q19 11 36 37q23 34 45 53q11 11 24 21q12 9 30 29
q10 17 16.5 25t13.5 9q0 2 2 2q3 0 13 -10q13 -14 48 -38q-15 -39 -76 -187zM653 441.5q-6 4.5 -12 4.5q-2 0 -3 -1l-25 -25q-8 0 -18 -7q-12 -9 -25 -27l-41 -52q-17 -2 -17 -20t54 -18q45 0 63 54v3q-1 1 -1 3q0 3 2 17q30 54 30 59q-1 5 -7 9.5zM320 -151h-9
q-15 0 -25 10q-5 5 -5 15q0 20 16.5 37t38.5 17q28 0 28 -31q0 -19 -10.5 -34t-24.5 -15l-2 1h-2h-5zM682 729.5q7 8.5 18 16t20 7.5t14 -9q2 -6 3 -15t1 -13q2 -8 6 -11l2 -9q5 0 8 -3q16 -11 25 -7l19 9q11 6 23 30q11 23 20 28q15 4 45 9h1q3 0 8 -8q6 -9 8 -9
q-3 -31 -12 -42q-13 -15 -16 -16q-4 -2 -8 -4.5t-9 -4.5q-10 -5 -23 -5l-38 -14q-2 -1 -6.5 -2.5t-7.5 -3.5l-8 -3q-9 0 -17 7q-6 1 -14 1q-15 0 -28 9q-10 7 -17 15.5t-12.5 18.5t-9.5 16q-2 4 5 12.5z" />
    <glyph glyph-name="uni1EB0" unicode="&#x1eb0;" 
d="M726 387l-12 -30l-35 -66q-14 -37 -46 -98q-8 -23 -26 -63l-14 -34q-6 -16 -6 -19q0 -13 8.5 -18.5t26.5 -11.5q19 -7 27 -11t8 -13q0 -13 -15 -21t-38 -8l-37 3h-7q-34 0 -95 10q-3 1 -14 1t-31 -2l-10 -2t-10 -1q-13 0 -22 13q8 38 40 38l24 -2l20 -3q12 0 33 26
q21 28 22 44q14 9 22 31q4 11 4 26v5q18 38 18 54q0 5 -3.5 8.5t-6.5 3.5h-6q-2 -1 -7 -1q-13 0 -39 4q-19 3 -29 3q-44 0 -61 -44q-14 -18 -55 -53q-44 -39 -110 -113q-3 -3 -10.5 -5.5l-10.5 -3.5q-17 -6 -22 -15q-9 -3 -20 -8q-19 -9 -47 -24l-44 -11q-12 15 -20 15h-6
q-2 -1 -6 -1q-26 0 -43.5 24t-17.5 57q0 27 16 48.5t40 21.5q21 0 40 -19l50 -51q4 -4 19 -4q51 0 71 17q8 6 17 20l15 28q10 1 18.5 6t13.5 21q9 4 17 10t22 21l37 39l67 68q38 38 55 61l20 27q13 18 24.5 30.5t34.5 30.5q19 11 36 37q23 34 45 53q11 11 24 21q12 9 30 29
q10 17 16.5 25t13.5 9q0 2 2 2q3 0 13 -10q13 -14 48 -38q-15 -39 -76 -187zM653 441.5q-6 4.5 -12 4.5q-2 0 -3 -1l-25 -25q-8 0 -18 -7q-12 -9 -25 -27l-41 -52q-17 -2 -17 -20t54 -18q45 0 63 54v3q-1 1 -1 3q0 3 2 17q30 54 30 59q-1 5 -7 9.5zM682 729.5q7 8.5 18 16
t20 7.5t14 -9q2 -6 3 -15t1 -13q2 -8 6 -11l2 -9q5 0 8 -3q16 -11 25 -7l19 9q11 6 23 30q11 23 20 28q15 4 45 9h1q3 0 8 -8q6 -9 8 -9q-3 -31 -12 -42q-13 -15 -16 -16q-4 -2 -8 -4.5t-9 -4.5q-10 -5 -23 -5l-38 -14q-2 -1 -6.5 -2.5t-7.5 -3.5l-8 -3q-9 0 -17 7
q-6 1 -14 1q-15 0 -28 9q-10 7 -17 15.5t-12.5 18.5t-9.5 16q-2 4 5 12.5zM787 787q-5 0 -7 1q-26 22 -62 77q-18 26 -25 38l-20 29l-1 2q0 4 1 7q0 6 1 11q41 6 41 7q7 0 13 -3l11 -13q19 -52 32 -78q11 -21 33 -67q-6 -11 -17 -11z" />
    <glyph glyph-name="uni1EB2" unicode="&#x1eb2;" 
d="M794 897q0 -17 -10 -40q-9 -27 -9 -36q0 -17 12 -29q4 -4 9.5 -5t8.5 1q0 -4 3 -5.5t7 -1.5q3 -1 9 1h6l-5 -21q-8 -5 -20 -7q-15 0 -22 -2q-3 -1 -10 -1q-14 0 -21.5 10t-8.5 27l1 2.5t2 7.5q2 14 4 22q2 12 3 22.5t3 17.5v1q0 6 -6 12q-4 3 -10 3q-5 0 -10 -5l-10 -10
l-12 -12q-8 -6 -15 -6q-12 0 -12 19q-1 16 6.5 31.5t20.5 24.5q14 10 28 10q56 -3 58 -31zM682 729.5q7 8.5 18 16t20 7.5q10 0 14 -9q2 -6 3 -15t1 -13q2 -8 6 -11l2 -9q5 0 8 -3q16 -11 25 -7l19 9q11 6 23 30q11 23 20 28q15 4 45 9h1q3 0 8 -8q6 -9 8 -9q-3 -31 -12 -42
q-13 -15 -16 -16q-4 -2 -8 -4.5t-9 -4.5q-10 -5 -23 -5l-38 -14q-2 -1 -6.5 -2.5t-7.5 -3.5l-8 -3q-9 0 -17 7q-6 1 -14 1q-15 0 -28 9q-10 7 -17 15.5t-12.5 18.5t-9.5 16q-2 4 5 12.5zM726 387l-12 -30l-35 -66q-14 -37 -46 -98q-8 -23 -26 -63l-14 -34q-6 -16 -6 -19
q0 -13 8.5 -18.5t26.5 -11.5q19 -7 27 -11t8 -13q0 -13 -15 -21t-38 -8l-37 3h-7q-34 0 -95 10q-3 1 -14 1t-31 -2l-10 -2t-10 -1q-13 0 -22 13q8 38 40 38l24 -2l20 -3q12 0 33 26q21 28 22 44q14 9 22 31q4 11 4 26v5q18 38 18 54q0 5 -3.5 8.5t-6.5 3.5h-6q-2 -1 -7 -1
q-13 0 -39 4q-19 3 -29 3q-44 0 -61 -44q-14 -18 -55 -53q-44 -39 -110 -113q-3 -3 -10.5 -5.5l-10.5 -3.5q-17 -6 -22 -15q-9 -3 -20 -8q-19 -9 -47 -24l-44 -11q-12 15 -20 15h-6q-2 -1 -6 -1q-26 0 -43.5 24t-17.5 57q0 27 16 48.5t40 21.5q21 0 40 -19l50 -51
q4 -4 19 -4q51 0 71 17q8 6 17 20l15 28q10 1 18.5 6t13.5 21q9 4 17 10t22 21l37 39l67 68q38 38 55 61l20 27q13 18 24.5 30.5t34.5 30.5q19 11 36 37q23 34 45 53q11 11 24 21q12 9 30 29q10 17 16.5 25t13.5 9q0 2 2 2q3 0 13 -10q13 -14 48 -38q-15 -39 -76 -187z
M653 441.5q-6 4.5 -12 4.5q-2 0 -3 -1l-25 -25q-8 0 -18 -7q-12 -9 -25 -27l-41 -52q-17 -2 -17 -20t54 -18q45 0 63 54v3q-1 1 -1 3q0 3 2 17q30 54 30 59q-1 5 -7 9.5z" />
    <glyph glyph-name="uni1EB4" unicode="&#x1eb4;" 
d="M726 387l-12 -30l-35 -66q-14 -37 -46 -98q-8 -23 -26 -63l-14 -34q-6 -16 -6 -19q0 -13 8.5 -18.5t26.5 -11.5q19 -7 27 -11t8 -13q0 -13 -15 -21t-38 -8l-37 3h-7q-34 0 -95 10q-3 1 -14 1t-31 -2l-10 -2t-10 -1q-13 0 -22 13q8 38 40 38l24 -2l20 -3q12 0 33 26
q21 28 22 44q14 9 22 31q4 11 4 26v5q18 38 18 54q0 5 -3.5 8.5t-6.5 3.5h-6q-2 -1 -7 -1q-13 0 -39 4q-19 3 -29 3q-44 0 -61 -44q-14 -18 -55 -53q-44 -39 -110 -113q-3 -3 -10.5 -5.5l-10.5 -3.5q-17 -6 -22 -15q-9 -3 -20 -8q-19 -9 -47 -24l-44 -11q-12 15 -20 15h-6
q-2 -1 -6 -1q-26 0 -43.5 24t-17.5 57q0 27 16 48.5t40 21.5q21 0 40 -19l50 -51q4 -4 19 -4q51 0 71 17q8 6 17 20l15 28q10 1 18.5 6t13.5 21q9 4 17 10t22 21l37 39l67 68q38 38 55 61l20 27q13 18 24.5 30.5t34.5 30.5q19 11 36 37q23 34 45 53q11 11 24 21q12 9 30 29
q10 17 16.5 25t13.5 9q0 2 2 2q3 0 13 -10q13 -14 48 -38q-15 -39 -76 -187zM653 441.5q-6 4.5 -12 4.5q-2 0 -3 -1l-25 -25q-8 0 -18 -7q-12 -9 -25 -27l-41 -52q-17 -2 -17 -20t54 -18q45 0 63 54v3q-1 1 -1 3q0 3 2 17q30 54 30 59q-1 5 -7 9.5zM682 729.5q7 8.5 18 16
t20 7.5t14 -9q2 -6 3 -15t1 -13q2 -8 6 -11l2 -9q5 0 8 -3q16 -11 25 -7l19 9q11 6 23 30q11 23 20 28q15 4 45 9h1q3 0 8 -8q6 -9 8 -9q-3 -31 -12 -42q-13 -15 -16 -16q-4 -2 -8 -4.5t-9 -4.5q-10 -5 -23 -5l-38 -14q-2 -1 -6.5 -2.5t-7.5 -3.5l-8 -3q-9 0 -17 7
q-6 1 -14 1q-15 0 -28 9q-10 7 -17 15.5t-12.5 18.5t-9.5 16q-2 4 5 12.5zM819 786q-18 0 -39 14q-24 13 -34 13q-22 0 -45 -15q-9 -6 -14.5 -12.5t-5.5 -10.5q-9 0 -19 -14q-4 -6 -6 -11l-5 -8l-20 7q0 13 10 27q12 20 17 30q12 24 33 37.5t43 13.5l11 -3l22 -7
q32 -10 41 -10q4 0 10 2.5t12 6.5q15 11 15 26q0 5 -3 14q-4 7 -4 16q0 11 8 22q11 14 32 14q20 0 30.5 -10.5t10.5 -28.5q0 -19 -12 -37q-55 -76 -88 -76z" />
    <glyph glyph-name="uni1EA4" unicode="&#x1ea4;" 
d="M726 387l-12 -30l-35 -66q-14 -37 -46 -98q-8 -23 -26 -63l-14 -34q-6 -16 -6 -19q0 -13 8.5 -18.5t26.5 -11.5q19 -7 27 -11t8 -13q0 -13 -15 -21t-38 -8l-37 3h-7q-34 0 -95 10q-3 1 -14 1t-31 -2l-10 -2t-10 -1q-13 0 -22 13q8 38 40 38l24 -2l20 -3q12 0 33 26
q21 28 22 44q14 9 22 31q4 11 4 26v5q18 38 18 54q0 5 -3.5 8.5t-6.5 3.5h-6q-2 -1 -7 -1q-13 0 -39 4q-19 3 -29 3q-44 0 -61 -44q-14 -18 -55 -53q-44 -39 -110 -113q-3 -3 -10.5 -5.5l-10.5 -3.5q-17 -6 -22 -15q-9 -3 -20 -8q-19 -9 -47 -24l-44 -11q-12 15 -20 15h-6
q-2 -1 -6 -1q-26 0 -43.5 24t-17.5 57q0 27 16 48.5t40 21.5q21 0 40 -19l50 -51q4 -4 19 -4q51 0 71 17q8 6 17 20l15 28q10 1 18.5 6t13.5 21q9 4 17 10t22 21l37 39l67 68q38 38 55 61l20 27q13 18 24.5 30.5t34.5 30.5q19 11 36 37q23 34 45 53q11 11 24 21q12 9 30 29
q10 17 16.5 25t13.5 9q0 2 2 2q3 0 13 -10q13 -14 48 -38q-15 -39 -76 -187zM653 441.5q-6 4.5 -12 4.5q-2 0 -3 -1l-25 -25q-8 0 -18 -7q-12 -9 -25 -27l-41 -52q-17 -2 -17 -20t54 -18q45 0 63 54v3q-1 1 -1 3q0 3 2 17q30 54 30 59q-1 5 -7 9.5zM882 653q-13 -5 -19 -6
q-3 -1 -8 -1t-7 17q-2 54 -9 76q-5 17 -17 17q-6 0 -8 -1q-19 -17 -39 -40q-17 -20 -16 -19q-2 -3 -22 -25l-8 -3l-14 -7l-14 -7l-9 -3q-3 0 -3 7q0 5 1 6l8 10l24 28q10 12 32 36q38 45 64 68q14 13 21 14q8 -5 16 -5h5q8 0 16 -14l9 -145q0 -1 -3 -3zM730 787q-3 -1 -6 -8
q-11 -18 -18 -24q-6 -5 -13 -6q-16 3 -16 13q0 8 3 12.5t10 8.5q14 8 25 32l4 9q0 4 3 8l10 14l23 28l10 22q6 14 17 19l14 5q1 0 24 7q21 -13 21 -30v-3q-1 -1 -1 -4q-26 -29 -110 -103z" />
    <glyph glyph-name="uni1EAC" unicode="&#x1eac;" 
d="M726 387l-12 -30l-35 -66q-14 -37 -46 -98q-8 -23 -26 -63l-14 -34q-6 -16 -6 -19q0 -13 8.5 -18.5t26.5 -11.5q19 -7 27 -11t8 -13q0 -13 -15 -21t-38 -8l-37 3h-7q-34 0 -95 10q-3 1 -14 1t-31 -2l-10 -2t-10 -1q-13 0 -22 13q8 38 40 38l24 -2l20 -3q12 0 33 26
q21 28 22 44q14 9 22 31q4 11 4 26v5q18 38 18 54q0 5 -3.5 8.5t-6.5 3.5h-6q-2 -1 -7 -1q-13 0 -39 4q-19 3 -29 3q-44 0 -61 -44q-14 -18 -55 -53q-44 -39 -110 -113q-3 -3 -10.5 -5.5l-10.5 -3.5q-17 -6 -22 -15q-9 -3 -20 -8q-19 -9 -47 -24l-44 -11q-12 15 -20 15h-6
q-2 -1 -6 -1q-26 0 -43.5 24t-17.5 57q0 27 16 48.5t40 21.5q21 0 40 -19l50 -51q4 -4 19 -4q51 0 71 17q8 6 17 20l15 28q10 1 18.5 6t13.5 21q9 4 17 10t22 21l37 39l67 68q38 38 55 61l20 27q13 18 24.5 30.5t34.5 30.5q19 11 36 37q23 34 45 53q11 11 24 21q12 9 30 29
q10 17 16.5 25t13.5 9q0 2 2 2q3 0 13 -10q13 -14 48 -38q-15 -39 -76 -187zM653 441.5q-6 4.5 -12 4.5q-2 0 -3 -1l-25 -25q-8 0 -18 -7q-12 -9 -25 -27l-41 -52q-17 -2 -17 -20t54 -18q45 0 63 54v3q-1 1 -1 3q0 3 2 17q30 54 30 59q-1 5 -7 9.5zM320 -151h-9
q-15 0 -25 10q-5 5 -5 15q0 20 16.5 37t38.5 17q28 0 28 -31q0 -19 -10.5 -34t-24.5 -15l-2 1h-2h-5zM882 653q-13 -5 -19 -6q-3 -1 -8 -1t-7 17q-2 54 -9 76q-5 17 -17 17q-6 0 -8 -1q-19 -17 -39 -40q-17 -20 -16 -19q-2 -3 -22 -25l-8 -3l-14 -7l-14 -7l-9 -3q-3 0 -3 7
q0 5 1 6l8 10l24 28q10 12 32 36q38 45 64 68q14 13 21 14q8 -5 16 -5h5q8 0 16 -14l9 -145q0 -1 -3 -3z" />
    <glyph glyph-name="uni1EA6" unicode="&#x1ea6;" 
d="M726 387l-12 -30l-35 -66q-14 -37 -46 -98q-8 -23 -26 -63l-14 -34q-6 -16 -6 -19q0 -13 8.5 -18.5t26.5 -11.5q19 -7 27 -11t8 -13q0 -13 -15 -21t-38 -8l-37 3h-7q-34 0 -95 10q-3 1 -14 1t-31 -2l-10 -2t-10 -1q-13 0 -22 13q8 38 40 38l24 -2l20 -3q12 0 33 26
q21 28 22 44q14 9 22 31q4 11 4 26v5q18 38 18 54q0 5 -3.5 8.5t-6.5 3.5h-6q-2 -1 -7 -1q-13 0 -39 4q-19 3 -29 3q-44 0 -61 -44q-14 -18 -55 -53q-44 -39 -110 -113q-3 -3 -10.5 -5.5l-10.5 -3.5q-17 -6 -22 -15q-9 -3 -20 -8q-19 -9 -47 -24l-44 -11q-12 15 -20 15h-6
q-2 -1 -6 -1q-26 0 -43.5 24t-17.5 57q0 27 16 48.5t40 21.5q21 0 40 -19l50 -51q4 -4 19 -4q51 0 71 17q8 6 17 20l15 28q10 1 18.5 6t13.5 21q9 4 17 10t22 21l37 39l67 68q38 38 55 61l20 27q13 18 24.5 30.5t34.5 30.5q19 11 36 37q23 34 45 53q11 11 24 21q12 9 30 29
q10 17 16.5 25t13.5 9q0 2 2 2q3 0 13 -10q13 -14 48 -38q-15 -39 -76 -187zM653 441.5q-6 4.5 -12 4.5q-2 0 -3 -1l-25 -25q-8 0 -18 -7q-12 -9 -25 -27l-41 -52q-17 -2 -17 -20t54 -18q45 0 63 54v3q-1 1 -1 3q0 3 2 17q30 54 30 59q-1 5 -7 9.5zM882 653q-13 -5 -19 -6
q-3 -1 -8 -1t-7 17q-2 54 -9 76q-5 17 -17 17q-6 0 -8 -1q-19 -17 -39 -40q-17 -20 -16 -19q-2 -3 -22 -25l-8 -3l-14 -7l-14 -7l-9 -3q-3 0 -3 7q0 5 1 6l8 10l24 28q10 12 32 36q38 45 64 68q14 13 21 14q8 -5 16 -5h5q8 0 16 -14l9 -145q0 -1 -3 -3zM979 750q-5 0 -7 1
q-26 22 -62 77q-18 26 -25 38l-20 29l-1 2q0 4 1 7q0 6 1 11q41 6 41 7q7 0 13 -3l11 -13q19 -52 32 -78q11 -21 33 -67q-6 -11 -17 -11z" />
    <glyph glyph-name="uni1EA8" unicode="&#x1ea8;" 
d="M726 387l-12 -30l-35 -66q-14 -37 -46 -98q-8 -23 -26 -63l-14 -34q-6 -16 -6 -19q0 -13 8.5 -18.5t26.5 -11.5q19 -7 27 -11t8 -13q0 -13 -15 -21t-38 -8l-37 3h-7q-34 0 -95 10q-3 1 -14 1t-31 -2l-10 -2t-10 -1q-13 0 -22 13q8 38 40 38l24 -2l20 -3q12 0 33 26
q21 28 22 44q14 9 22 31q4 11 4 26v5q18 38 18 54q0 5 -3.5 8.5t-6.5 3.5h-6q-2 -1 -7 -1q-13 0 -39 4q-19 3 -29 3q-44 0 -61 -44q-14 -18 -55 -53q-44 -39 -110 -113q-3 -3 -10.5 -5.5l-10.5 -3.5q-17 -6 -22 -15q-9 -3 -20 -8q-19 -9 -47 -24l-44 -11q-12 15 -20 15h-6
q-2 -1 -6 -1q-26 0 -43.5 24t-17.5 57q0 27 16 48.5t40 21.5q21 0 40 -19l50 -51q4 -4 19 -4q51 0 71 17q8 6 17 20l15 28q10 1 18.5 6t13.5 21q9 4 17 10t22 21l37 39l67 68q38 38 55 61l20 27q13 18 24.5 30.5t34.5 30.5q19 11 36 37q23 34 45 53q11 11 24 21q12 9 30 29
q10 17 16.5 25t13.5 9q0 2 2 2q3 0 13 -10q13 -14 48 -38q-15 -39 -76 -187zM653 441.5q-6 4.5 -12 4.5q-2 0 -3 -1l-25 -25q-8 0 -18 -7q-12 -9 -25 -27l-41 -52q-17 -2 -17 -20t54 -18q45 0 63 54v3q-1 1 -1 3q0 3 2 17q30 54 30 59q-1 5 -7 9.5zM882 653q-13 -5 -19 -6
q-3 -1 -8 -1t-7 17q-2 54 -9 76q-5 17 -17 17q-6 0 -8 -1q-19 -17 -39 -40q-17 -20 -16 -19q-2 -3 -22 -25l-8 -3l-14 -7l-14 -7l-9 -3q-3 0 -3 7q0 5 1 6l8 10l24 28q10 12 32 36q38 45 64 68q14 13 21 14q8 -5 16 -5h5q8 0 16 -14l9 -145q0 -1 -3 -3zM840 900
q0 -16 -11 -22q-14 -9 -40 -12q-27 -5 -35 -10q-15 -8 -19 -25l-1 -5q0 -8 6 -12q-3 -1 -3 -5l2 -8q1 -3 5 -7q3 -3 3 -5l-20 -6q-9 4 -16 14q-10 15 -13 18q-10 10 -10 21q0 18 21 31q1 0 3.5 0.5t6.5 2.5q10 4 21 7q11 4 21 8.5t17 6.5q2 1 5 4.5t3 7.5q0 13 -11 16
q-10 3 -14 4q-11 2 -17 4q-11 5 -13 12l-1 3q0 8 12 15q16 10 35 10q15 0 27 -6q16 -7 23 -19q13 -26 13 -43z" />
    <glyph glyph-name="uni1EAA" unicode="&#x1eaa;" 
d="M726 387l-12 -30l-35 -66q-14 -37 -46 -98q-8 -23 -26 -63l-14 -34q-6 -16 -6 -19q0 -13 8.5 -18.5t26.5 -11.5q19 -7 27 -11t8 -13q0 -13 -15 -21t-38 -8l-37 3h-7q-34 0 -95 10q-3 1 -14 1t-31 -2l-10 -2t-10 -1q-13 0 -22 13q8 38 40 38l24 -2l20 -3q12 0 33 26
q21 28 22 44q14 9 22 31q4 11 4 26v5q18 38 18 54q0 5 -3.5 8.5t-6.5 3.5h-6q-2 -1 -7 -1q-13 0 -39 4q-19 3 -29 3q-44 0 -61 -44q-14 -18 -55 -53q-44 -39 -110 -113q-3 -3 -10.5 -5.5l-10.5 -3.5q-17 -6 -22 -15q-9 -3 -20 -8q-19 -9 -47 -24l-44 -11q-12 15 -20 15h-6
q-2 -1 -6 -1q-26 0 -43.5 24t-17.5 57q0 27 16 48.5t40 21.5q21 0 40 -19l50 -51q4 -4 19 -4q51 0 71 17q8 6 17 20l15 28q10 1 18.5 6t13.5 21q9 4 17 10t22 21l37 39l67 68q38 38 55 61l20 27q13 18 24.5 30.5t34.5 30.5q19 11 36 37q23 34 45 53q11 11 24 21q12 9 30 29
q10 17 16.5 25t13.5 9q0 2 2 2q3 0 13 -10q13 -14 48 -38q-15 -39 -76 -187zM653 441.5q-6 4.5 -12 4.5q-2 0 -3 -1l-25 -25q-8 0 -18 -7q-12 -9 -25 -27l-41 -52q-17 -2 -17 -20t54 -18q45 0 63 54v3q-1 1 -1 3q0 3 2 17q30 54 30 59q-1 5 -7 9.5zM882 653q-13 -5 -19 -6
q-3 -1 -8 -1t-7 17q-2 54 -9 76q-5 17 -17 17q-6 0 -8 -1q-19 -17 -39 -40q-17 -20 -16 -19q-2 -3 -22 -25l-8 -3l-14 -7l-14 -7l-9 -3q-3 0 -3 7q0 5 1 6l8 10l24 28q10 12 32 36q38 45 64 68q14 13 21 14q8 -5 16 -5h5q8 0 16 -14l9 -145q0 -1 -3 -3zM906 830
q-18 0 -39 14q-24 13 -34 13q-22 0 -45 -15q-9 -6 -14.5 -12.5t-5.5 -10.5q-9 0 -19 -14q-4 -6 -6 -11l-5 -8l-20 7q0 13 10 27q12 20 17 30q12 24 33 37.5t43 13.5l11 -3l22 -7q32 -10 41 -10q4 0 10 2.5t12 6.5q15 11 15 26q0 5 -3 14q-4 7 -4 16q0 11 8 22q11 14 32 14
q20 0 30.5 -10.5t10.5 -28.5q0 -19 -12 -37q-55 -76 -88 -76z" />
    <glyph glyph-name="uni1EA0" unicode="&#x1ea0;" 
d="M726 387l-12 -30l-35 -66q-14 -37 -46 -98q-8 -23 -26 -63l-14 -34q-6 -16 -6 -19q0 -13 8.5 -18.5t26.5 -11.5q19 -7 27 -11t8 -13q0 -13 -15 -21t-38 -8l-37 3h-7q-34 0 -95 10q-3 1 -14 1t-31 -2l-10 -2t-10 -1q-13 0 -22 13q8 38 40 38l24 -2l20 -3q12 0 33 26
q21 28 22 44q14 9 22 31q4 11 4 26v5q18 38 18 54q0 5 -3.5 8.5t-6.5 3.5h-6q-2 -1 -7 -1q-13 0 -39 4q-19 3 -29 3q-44 0 -61 -44q-14 -18 -55 -53q-44 -39 -110 -113q-3 -3 -10.5 -5.5l-10.5 -3.5q-17 -6 -22 -15q-9 -3 -20 -8q-19 -9 -47 -24l-44 -11q-12 15 -20 15h-6
q-2 -1 -6 -1q-26 0 -43.5 24t-17.5 57q0 27 16 48.5t40 21.5q21 0 40 -19l50 -51q4 -4 19 -4q51 0 71 17q8 6 17 20l15 28q10 1 18.5 6t13.5 21q9 4 17 10t22 21l37 39l67 68q38 38 55 61l20 27q13 18 24.5 30.5t34.5 30.5q19 11 36 37q23 34 45 53q11 11 24 21q12 9 30 29
q10 17 16.5 25t13.5 9q0 2 2 2q3 0 13 -10q13 -14 48 -38q-15 -39 -76 -187zM653 441.5q-6 4.5 -12 4.5q-2 0 -3 -1l-25 -25q-8 0 -18 -7q-12 -9 -25 -27l-41 -52q-17 -2 -17 -20t54 -18q45 0 63 54v3q-1 1 -1 3q0 3 2 17q30 54 30 59q-1 5 -7 9.5zM320 -151h-9
q-15 0 -25 10q-5 5 -5 15q0 20 16.5 37t38.5 17q28 0 28 -31q0 -19 -10.5 -34t-24.5 -15l-2 1h-2h-5z" />
    <glyph glyph-name="uni1EA2" unicode="&#x1ea2;" 
d="M726 387l-12 -30l-35 -66q-14 -37 -46 -98q-8 -23 -26 -63l-14 -34q-6 -16 -6 -19q0 -13 8.5 -18.5t26.5 -11.5q19 -7 27 -11t8 -13q0 -13 -15 -21t-38 -8l-37 3h-7q-34 0 -95 10q-3 1 -14 1t-31 -2l-10 -2t-10 -1q-13 0 -22 13q8 38 40 38l24 -2l20 -3q12 0 33 26
q21 28 22 44q14 9 22 31q4 11 4 26v5q18 38 18 54q0 5 -3.5 8.5t-6.5 3.5h-6q-2 -1 -7 -1q-13 0 -39 4q-19 3 -29 3q-44 0 -61 -44q-14 -18 -55 -53q-44 -39 -110 -113q-3 -3 -10.5 -5.5l-10.5 -3.5q-17 -6 -22 -15q-9 -3 -20 -8q-19 -9 -47 -24l-44 -11q-12 15 -20 15h-6
q-2 -1 -6 -1q-26 0 -43.5 24t-17.5 57q0 27 16 48.5t40 21.5q21 0 40 -19l50 -51q4 -4 19 -4q51 0 71 17q8 6 17 20l15 28q10 1 18.5 6t13.5 21q9 4 17 10t22 21l37 39l67 68q38 38 55 61l20 27q13 18 24.5 30.5t34.5 30.5q19 11 36 37q23 34 45 53q11 11 24 21q12 9 30 29
q10 17 16.5 25t13.5 9q0 2 2 2q3 0 13 -10q13 -14 48 -38q-15 -39 -76 -187zM653 441.5q-6 4.5 -12 4.5q-2 0 -3 -1l-25 -25q-8 0 -18 -7q-12 -9 -25 -27l-41 -52q-17 -2 -17 -20t54 -18q45 0 63 54v3q-1 1 -1 3q0 3 2 17q30 54 30 59q-1 5 -7 9.5zM894 758q0 -16 -11 -22
q-14 -9 -40 -12q-27 -5 -35 -10q-15 -8 -19 -25l-1 -5q0 -8 6 -12q-3 -1 -3 -5l2 -8q1 -3 5 -7q3 -3 3 -5l-20 -6q-9 4 -16 14q-10 15 -13 18q-10 10 -10 21q0 18 21 31q1 0 3.5 0.5t6.5 2.5q10 4 21 7q11 4 21 8.5t17 6.5q2 1 5 4.5t3 7.5q0 13 -11 16q-10 3 -14 4
q-11 2 -17 4q-11 5 -13 12l-1 3q0 8 12 15q16 10 35 10q15 0 27 -6q16 -7 23 -19q13 -26 13 -43z" />
    <glyph glyph-name="Dcroat" unicode="&#x110;" horiz-adv-x="697" 
d="M691 351q0 -46 -11 -90q-14 -50 -29 -60q-35 -62 -79 -108q-45 -45 -72 -50q-4 0 -19 -6q-34 -14 -73 -27q-19 -6 -31 -6q-13 0 -25 3l-63 4h-11q-13 0 -39 -6q-25 -8 -52 -11l-45 6q-31 4 -54 4q-9 0 -23 -2l-30 -9q-28 -9 -47 -9q-18 0 -29 8.5t-11 26.5q0 14 4 27
q25 -3 40 -3q3 0 5 1h4l19 -1q22 -2 30 -2q30 0 45.5 5t21.5 21q9 22 26 39q18 16 23 34q9 29 24 52l9 14q3 5 3 12q0 14 -31 22q-17 3 -42 3h-15q-32 0 -32 25q0 8 26 14q16 4 28 4q15 0 27 -4l57 -3q58 91 58 150q0 24 -16 38q-12 9 -29 9q-8 0 -13 -1t-12 -1
q-25 0 -25 21q0 30 32 30l14 -1l22 -3l21 -3l14 -2l8 -3q4 -3 10 -5q22 -6 46 -6q40 0 116 21q3 1 19.5 7.5t35.5 6.5q29 0 62 -15l57 -26l11.5 -11t17.5 -24q17 -33 22 -100v-10zM520 481h-23q-2 2 -7 4.5t-9 3.5q-13 -1 -34 -11q-3 1 -12 1q-12 0 -26 -11t-27 -33
q-32 -53 -32 -137v-4q-9 -9 -11 -18q9 -6 24 -7q23 -1 28 -7q5 -5 5 -15q0 -12 -7.5 -21t-17.5 -10q-47 -6 -62 -16q-16 -11 -22 -37q-7 -27 -7 -30q-11 -9 -16.5 -17t-5.5 -24q0 -50 65 -50q43 0 98 24q25 11 77 42q36 48 66 130q29 79 29 137q0 70 -42 99q-16 7 -31 7z
" />
    </font>
</defs>
</svg>
