<svg id="Layer_1" data-name="Layer 1" xmlns="http://www.w3.org/2000/svg" viewBox="0 0 4450 1847"><defs><style>.cls-1{fill:#fff;}</style></defs><title>Artboard 5</title><path class="cls-1" d="M0,0V2247H4450V0ZM2197.57,1460.91a438.74,438.74,0,0,1-43.71,14.34A176.19,176.19,0,0,0,2228.2,1302c-1.17,0-2.33.09-3.5.09-97.22,0-180.78-58.24-217.86-141.7a237.75,237.75,0,0,1-20.18-108.68c6.19-124.52,109.15-224.08,233.81-226.24,126.5-2.19,230.9,94.2,241.59,217.42.5,7.4.94,22.11.94,22.11l0,6.06C2467.24,1252.88,2353.68,1400.45,2197.57,1460.91Z"/></svg>