<svg id="Layer_1" data-name="Layer 1" xmlns="http://www.w3.org/2000/svg" viewBox="0 0 1337.14 900.58"><defs><style>.cls-1{fill:none;stroke:#f2f2f2;stroke-miterlimit:10;}</style></defs><title>Artboard 1</title><line class="cls-1" x1="136.41" x2="136.91" y2="224.08"/><line class="cls-1" x1="136.91" y1="603.08" x2="136.41" y2="900.58"/><line class="cls-1" x1="136.91" y1="245.08" x2="136.41" y2="572.58"/><line class="cls-1" x1="131.41" y1="234.58" x2="142.41" y2="234.58"/><line class="cls-1" x1="136.91" y1="229.08" x2="136.91" y2="240.08"/><line class="cls-1" x1="128.41" y1="587.42" x2="145.41" y2="587.74"/><line class="cls-1" x1="137.07" y1="579.08" x2="136.75" y2="596.08"/><line class="cls-1" x1="3" y1="410.58" x2="14" y2="410.58"/><line class="cls-1" x1="8.5" y1="405.08" x2="8.5" y2="416.08"/><line class="cls-1" y1="58.58" x2="17" y2="58.58"/><line class="cls-1" x1="8.5" y1="50.08" x2="8.5" y2="67.08"/><line class="cls-1" x1="3" y1="746.58" x2="14" y2="746.58"/><line class="cls-1" x1="8.5" y1="741.08" x2="8.5" y2="752.08"/><line class="cls-1" x1="8.5" y1="0.58" x2="8.5" y2="36.58"/><line class="cls-1" x1="8.5" y1="75.58" x2="8.5" y2="394.08"/><line class="cls-1" x1="8.5" y1="427.58" x2="8.5" y2="730.58"/><line class="cls-1" x1="8.5" y1="761.58" x2="8.5" y2="899.58"/><line class="cls-1" x1="732.27" x2="732.77" y2="224.08"/><line class="cls-1" x1="732.77" y1="603.08" x2="732.27" y2="900.58"/><line class="cls-1" x1="732.77" y1="245.08" x2="732.27" y2="572.58"/><line class="cls-1" x1="727.27" y1="234.58" x2="738.27" y2="234.58"/><line class="cls-1" x1="732.77" y1="229.08" x2="732.77" y2="240.08"/><line class="cls-1" x1="724.27" y1="587.42" x2="741.27" y2="587.74"/><line class="cls-1" x1="732.93" y1="579.08" x2="732.61" y2="596.08"/><line class="cls-1" x1="429.34" y1="410.58" x2="440.34" y2="410.58"/><line class="cls-1" x1="434.84" y1="405.08" x2="434.84" y2="416.08"/><line class="cls-1" x1="426.34" y1="58.58" x2="443.34" y2="58.58"/><line class="cls-1" x1="434.84" y1="50.08" x2="434.84" y2="67.08"/><line class="cls-1" x1="429.34" y1="746.58" x2="440.34" y2="746.58"/><line class="cls-1" x1="434.84" y1="741.08" x2="434.84" y2="752.08"/><line class="cls-1" x1="434.84" y1="0.58" x2="434.84" y2="36.58"/><line class="cls-1" x1="434.84" y1="75.58" x2="434.84" y2="394.08"/><line class="cls-1" x1="434.84" y1="427.58" x2="434.84" y2="730.58"/><line class="cls-1" x1="434.84" y1="761.58" x2="434.84" y2="899.58"/><line class="cls-1" x1="1025.2" y1="410.58" x2="1036.2" y2="410.58"/><line class="cls-1" x1="1030.7" y1="405.08" x2="1030.7" y2="416.08"/><line class="cls-1" x1="1022.2" y1="58.58" x2="1039.2" y2="58.58"/><line class="cls-1" x1="1030.7" y1="50.08" x2="1030.7" y2="67.08"/><line class="cls-1" x1="1025.2" y1="746.58" x2="1036.2" y2="746.58"/><line class="cls-1" x1="1030.7" y1="741.08" x2="1030.7" y2="752.08"/><line class="cls-1" x1="1030.7" y1="0.58" x2="1030.7" y2="36.58"/><line class="cls-1" x1="1030.7" y1="75.58" x2="1030.7" y2="394.08"/><line class="cls-1" x1="1030.7" y1="427.58" x2="1030.7" y2="730.58"/><line class="cls-1" x1="1030.7" y1="761.58" x2="1030.7" y2="899.58"/><line class="cls-1" x1="1328.12" x2="1328.62" y2="224.08"/><line class="cls-1" x1="1328.62" y1="603.08" x2="1328.12" y2="900.58"/><line class="cls-1" x1="1328.62" y1="245.08" x2="1328.12" y2="572.58"/><line class="cls-1" x1="1323.13" y1="234.58" x2="1334.13" y2="234.58"/><line class="cls-1" x1="1328.63" y1="229.08" x2="1328.63" y2="240.08"/><line class="cls-1" x1="1320.13" y1="587.42" x2="1337.13" y2="587.74"/><line class="cls-1" x1="1328.79" y1="579.08" x2="1328.47" y2="596.08"/></svg>