<svg id="Layer_1" data-name="Layer 1" xmlns="http://www.w3.org/2000/svg" viewBox="0 0 282.68 55.73"><defs><style>.cls-1{fill:#ffd521;}</style></defs><title>Artboard 1</title><path class="cls-1" d="M282.57,48a.31.31,0,0,0-.26-.54l-.4.61Z"/><path class="cls-1" d="M280,46.33c-.53.24-1.18.7-1,1.35.58-.55.65-.27,1.28-.93.43,0,.69.32.58.55.17-.14.61.25.9-.13a1.5,1.5,0,0,0-1.9-.41C279.78,46.59,280,46.44,280,46.33Z"/><path class="cls-1" d="M240.11,38.93l.24.11A.53.53,0,0,0,240.11,38.93Z"/><path class="cls-1" d="M215.34,34.61c.2,0,.28,0,.3-.09C215.46,34.53,215.31,34.55,215.34,34.61Z"/><path class="cls-1" d="M211.22,33.22l.24.08C211.38,33.23,211.29,33.18,211.22,33.22Z"/><path class="cls-1" d="M240.11,38.93l-.63-.32C239.4,38.82,239.79,38.83,240.11,38.93Z"/><path class="cls-1" d="M274.23,47a1,1,0,0,0,.39-.11h-.35A.3.3,0,0,1,274.23,47Z"/><path class="cls-1" d="M251.14,40.14l.2,0,.21-.24Z"/><path class="cls-1" d="M259.55,41.38c-.19-.06-.34.49-.45.72a.65.65,0,0,1,.47-.32A.94.94,0,0,0,259.55,41.38Z"/><path class="cls-1" d="M272.71,44.47l.25,0Z"/><path class="cls-1" d="M245.14,39.06a.44.44,0,0,0,0-.21A.39.39,0,0,0,245.14,39.06Z"/><path class="cls-1" d="M9.6,5.82s0-.06,0-.1S9.53,5.81,9.6,5.82Z"/><path class="cls-1" d="M.3,1.52H.44c0-.1.06-.2.08-.3Z"/><path class="cls-1" d="M203.58,31.27l0,0C203.82,31.26,203.71,31.25,203.58,31.27Z"/><path class="cls-1" d="M132.31,20.34c.73.62-1.42.43-.29,1.17C131.94,21.28,133.26,20.82,132.31,20.34Z"/><path class="cls-1" d="M274,46.92l-.35-.05A1.37,1.37,0,0,0,274,46.92Z"/><path class="cls-1" d="M132,21.51h0l.12.07Z"/><path class="cls-1" d="M185.65,28.76a.61.61,0,0,0,.15.27C185.8,29,185.77,28.9,185.65,28.76Z"/><path class="cls-1" d="M198.84,31.67l-.32-.13A1.26,1.26,0,0,0,198.84,31.67Z"/><path class="cls-1" d="M178.62,28.44c-.18-.07-.23-.16-.48-.12l.06.08A.37.37,0,0,1,178.62,28.44Z"/><path class="cls-1" d="M171.42,27.3a1.5,1.5,0,0,0,.11.13h.24Z"/><path class="cls-1" d="M31.5,9a1.64,1.64,0,0,1-.25-.56C31.3,8.9,30.22,8.87,31.5,9Z"/><path class="cls-1" d="M274.28,46.71a.33.33,0,0,1-.25.21h.24A.2.2,0,0,0,274.28,46.71Z"/><path class="cls-1" d="M177.63,32.77l-1.13-.26A7.29,7.29,0,0,0,177.63,32.77Z"/><path class="cls-1" d="M83.13,17.18l-.27,0A.31.31,0,0,0,83.13,17.18Z"/><path class="cls-1" d="M173.09,32.05a1.62,1.62,0,0,0-.58-.48.38.38,0,0,0-.16.12Z"/><path class="cls-1" d="M31.25,8.48Z"/><path class="cls-1" d="M23.51,8.6c1.09.19.63-.63.92-1,1.34,0,.52.64.9,1.08.85-.06,1.57-.63,2.18-.51,0,.13.13.19,0,.32.95-.44,2.55.38,3.67-.19a.42.42,0,0,1,.1.2,2,2,0,0,1,0-1c.49.07,1-.31,1.08.19-.29-.06-.35.13-.51.26l.54-.13c.35.76-.73.13-.82.63,1-.06,2.29-.44,3-.13.06.7-1.82-.06-.89.7l-1.15-.44c.74,1.2-.7-.19-.05,1.07,1.52.45,1.79-.06,3.31.38.41-.31,0-.57.39-.88,2.31-.32,1.46,2,3.23,1.32.49-.38.79-1.2,1.87-.57l-.51.7c1.49.31,1-1,2.53-.19-.33.25-1.23.06-1,.19.93.76.79-.32,1.58-.19l.05.7c1.62.14,3.47-.06,5.27.1-.13.19-.47.35-.09.62A22.06,22.06,0,0,1,56,13.37l.92-.45c.19,0,.31.32.09.4.81.35.1-.37.54-.53.49,0,.58.44.25.56,1.57-.25,4.4-.38,5.87.49l-.33.12c1.18.43,1.56-1,2.61-.25l-.23.07c2.6.67,5.61.61,7.5,1.81.51-.78,2.56.79,2.91-.35,1.42.82,1,1,3,1.68.56.15,1-.59,1.69-.6l-.08.61,1.06-.48.39.81.68-.06c-.26-.07-.51-.36-.45-.53,1.08-.11,2.45.83,2.42,1.14l2.52-.12c-.09.23-.51.25-.86.36,1.4-.42.13.67,1.42.3-.14-.17.14-.35.19-.47a5.38,5.38,0,0,0,2.91.68l-.26.39c1.79.4,3.84.41,5.87.74-.69-.31-.41-1,.19-1l.14.68c.45-.33-.58-.34.28-.7.75.19.4.81-.07.95l1-.07c0,.2-.2.26-.3.5.44-.34,1.49.9,2.14.29l0,.2c2,.33,3,.25,4.63.49.13-.55.75-.33,1.32-.7a21.91,21.91,0,0,0,3.93,1.21c1.07-.11.37-.42.89-.68,0,.52,1.46.7.65.95a25.27,25.27,0,0,0,4.54.19c-.21-.24-.46-.37-.3-.52.42,0,.89.35.79.59l-.11,0c2.61-.36,5.51,2.39,7.66,1.66l-.11,0,2.14-.22c.93.24-.63.29,0,.71,2.36-.49,3.49.68,5.41.41,1.18,1.72,5,.7,6.79,1.95l0-.37c.55-.26.57.3.92.44,0-.28-.49-.4-.15-.54,4.25.24,8.55,1.88,12.78,2.88,1.56.35,1.18-1.67,3-.52l-.67.57c3.29-.28,6.47,1.05,9.67.88-.21.12-.24.32-.55.27.58.58,2.42.41,2.49,0,.48.12.06.37.33.61.61.39,1.74-.34,2,.19.05.08-.21.12-.33.14.46-.16,2,.37,1.66-.24,1.12.45,2.26.11,3.14.59.7-.52,1.94.61,2.27-.23-.23.88,1.92,1.05,2.73.74-.29.24.59.39.24.71.84.13,1.64.08,1.57-.4,1.37,1.31,3.24-.37,3.89,1.14,2.57-.08,4.93,0,7.2.11-.22.88-2.49-.31-2.54.64,2.18,0,3.53-.59,5.61,0,.52.21-.38.33-.58.46,2.18,0,4.09.73,6.06.55,0,.08-.24.14-.44.18.38,0,.84.27.87-.15l-.38.06c-.51-.69,1.67-1,1.79-1.3-.82,1.06,1.82.59.58,1.9.26,0,.6-.18.58-.46.35.14.44.31,0,.56,1.37,0,1-.51,2.17-.31,0,.2-.29.23-.46.44a3,3,0,0,1,2.35-.24c-.08.11,0,.28-.29.23,1.76.22,3.15-.54,5,.14-.71.76.61.38.59,1.13l1.07,0-.36-.42c.91.15,1.8-.26,2.54.11l-.72.19,1.72.14L214.7,37c1-.23.05-1,1.22-.55-.25,0,.91.16,1.31.67h0a2,2,0,0,1,1.63,0c.13.26-.27.79-.18,1,.54-.55,2.15.16,2.81-.4a.63.63,0,0,0-.23.6l.45-.45c.39.23.44.32.33.62,1.24.29-.26-1,1.18-.36-.13,0-.08.11-.34.14,1.47.45,3,.15,4.31.61.29.81-1.24,0-.87.69,2,.19,4.27-.23,6.17.26l-.34-.14c.43-1,1.35.74,2.41.4-.25,0-.41.54-.33.43,1.3.38,2.75.17,4.81.16l-.3.23a21.36,21.36,0,0,0,2.86.72c.29-.23.76-.1.53-.54,2.36,1.94,5.09,0,7.19,1.61-.28,0-.7.13-.48.16l2,.07c-.08-.48-.21-.32-.57-.74a2,2,0,0,1,1.37-.27c-.93.16-.11.73.23,1.05,0-.15.11-.29.1-.44.9,1,.32-.89,1.63-.12l-.11.23a4.49,4.49,0,0,1,1.63-.12c.15.57-.6.16-.7.59.8.09,1.72-.75,2.36-.11-.36.09-.85,0-1.21.11a2,2,0,0,0,1.37.79l-.06,0,1.3.49-.32-.22c1.22-1.22,2.07.07,3.55-.62-1.44.65-.3.46-.49,1,.31.22.8.49.63.64.71-.39,1,.54,2,0,0,.2.67.13.45.59.85,0-.14-.37,0-.6,1.37-.45,2.85,1.27,4.81.66,1.63-.12,2-.72,3.53-.81.45.38-.51.63-.51.63a3.11,3.11,0,0,0,2.14.35c-.18.15-.05.32.15.57.6,0,.51-.64,1.25-.23a2.64,2.64,0,0,1-.72.68c.74-.07,1.49-.31,2.25-.37.14.37-.52.44-.81.62.84,0,2.18,0,2.52-.46l-.5-.27c.3,0,.08.48-.16.54a.66.66,0,0,1-1-.55l.54,0c-.36-1.21-2.13-.15-3.16-.38l.56-.75-1.18.51c-.2-.25-.28-.74.26-.78-.69-.52-.71.19-1.29-.37-.06-.08,0-.11,0-.14l-.77.13c.17-.15,0-.6.4-.41-1.25-.68-2.23.28-2.62-.42l.11,0c-1.87,0-.27.58-1.76,1.07l-.68-1.64-.28.58c-.18-.05-.55-.16-.44-.39-.77.3.07.28-.4.61-.82-.7-2.54-.14-2.6-1.14-.4.41.82.49-.2.66-.12-1.08-1.15,0-1.91-.61.34-.49,1.08-.08.33-.69-.65.82-1.59-.46-2.32-.4-.14.71-1.57.06-2.78.11.11-.23-2.15-.75-3.2-1.18l0-.11c-.33.69-1.44.37-2.28.39.1-.43.27-.58.75-.7l-.77-.12a1.33,1.33,0,0,1-1,.29l.28-.51c-1-.13-2.17.31-3.43-.26-.16.49.83,1.57-.63,1.69,0-.29,0-.76.4-.82-.12,0-.46.16-.68,0l.63-.37c-.57-.3-.38.33-.85.21.07-.39-.32-.33-.2-.63.13,0,.4.23.61.1a2.38,2.38,0,0,1-1.33-.82.43.43,0,0,1-.48.51c-1-.13-.28-.52-.85-.82-.29.23-.9-.15-1,.43-.3,0-.32-.33-.41-.51-.57.17-2.49-.32-2,.39l.13.07h-.09c-1.84.3-3.57-.91-5.34-.93l0-.2c-1.07.06-2.32-.23-3.12.07-.31,0-.67-.47-.5-.68a3,3,0,0,1-2-.28c.84-.22-.23-.35.85-.12-1-.33-1.18-.68-2.37-.32.46-.44-.67-.76-1.18-.69l.66.48a7,7,0,0,1-1.51-.26l.37-.61c-2-1.14-4,.75-5.39-.84-.63.37,1.09.51.51,1-1-.24-1.81-1.34-2.11-1.39-1.27-.58-1.39.76-2.74.29.14.26.21.92-.86,1-.95-.24-1-1.17-.39-1.26.24,0,.34.11.31.19.33,0,.75-.07.41-.39l-.16.22c-.44-.32-1.77-.51-1.4-.84-.77.11-.37.33.15.54-1.19-.54-1.94-.32-3.18-.75.19.16.33.47.13.43-1.83-.58-.9.32-2.18.22-.67-.47.39-.81-.93-.72-.74-.36-.07-.65.27-.79-1.23.27-2.12-.64-2.77-.83l.64-.09a3.16,3.16,0,0,1-1-.05l.28.53c-.35-.14-.66-.19-.62-.39-.42.25.16.83-.64,1.13-.44-.31-1.5,0-1.57-.62,1.48.45-.06-.66,1.23-.55a1.89,1.89,0,0,1-.91-.16c0-.08.07-.12.18-.14-1.36-.78-.78.6-2.27.35.25-.32-.24-.72-.5-.69.6.11.2.63-.4.81-.91-.42-1.07,0-1.57-.07l.55.22c-.25.32-.72.2-1.4.2,0-.28.63-.09.41-.25-.84.5-1.57-.9-2.67-.65-.44-.32.06-.67-.34-.9-1.23.27-1.18-.68-2.46-.5.28.53.36.42-.57.75l2,0L193,31c.6.11,1.32-.09,1.67.05-.67.29-.59.18-.36.62-.72-.84-1.71.15-2.59-.48L192,30c-1.35-.75-2.65.19-4.47-.4l.57.29c-.32.43-1.16-.11-1.8,0,.12-.38-.23-.59-.45-.87,0,.29-1.37-.24-1.66.51l-.75-.65c-1.48-.45-1.9.84-3.33.47.51-.35-.11-.73.91-.88-.48-.08-.91-.22-1,.05-.24-.29-1.42.31-1.81-.13-.23.14-.36.54-.9.42a.21.21,0,0,1,0-.2c0,.2-.89.13-.48.64-1.3-1.46-4.18-.58-5.32-1.83-1.07,0-2.36-.11-3.33-.24.08-.1,0-.19.21-.12-1.26-.58-1,1-2.43.34-.67-.75.85-.21.41-.53,0-1.31-1.84-.11-2.74-1l.26,0c-.7-.56-2,.19-3.22-.1a.24.24,0,0,0,0-.2,9.21,9.21,0,0,1-3.88.46c.45-.44.59-.17.44-.72-.56,0,0,.84-1.08.81-.31-.33-1.06-.69-1.08-1.26l1,.14c-.42-.79-1.34-.19-1.86-.4l.12-.29c-1.59-.15-1.74.62-3.42.29l.14.26c-1.05.62-.71-.55-1.72-.13l-.16-.82a22,22,0,0,1-3.37.38,10.1,10.1,0,0,1,2.89-.78c-.61-.11-2.07-.27-2.44.06.25,0,.59-.18.81,0a4.48,4.48,0,0,1-3.07.44c.46-1.48-3.08-.89-3.76-2.2-2.22.22-4.19-.91-6.69-1.22.69,1.32-.73-.08-.77,1.15-.59,0-.81-.07-.85-.15l-1.63-1c-.36-.42.59-.18.58-.46-1.25-.3-.45-.6-1.24-1,.1.46-.54.55-1.23.27l.92.71c-1.87.37-1.36-1.25-3.25-.9l.63-.29c-1,.08-3.38-.55-4.43.28-.14-.16-.3-.53.11-.55-2.16-.49-5,.26-6.63-.61l.21-.27c-.42,0-.8.44-1.26.06,0-.12.21-.27,0-.31a2.86,2.86,0,0,1-1.68.08l.52-.26c-2.08-.72-3.41.29-5.23.21.14-.87-1.49-1.42-2.31-1.69l0-.12c-2.46-.51-4.33.05-6.69,0-1.28-1.17-4.77-1.16-7-2.06.32.21-.17.67-.59.69-.51-.26-1.59.37-1.37-.42l.19.05c-.29-.85-1.43-.82-2.29-1l-.31,1c-2-1.87-6-.38-7-1.94-.58.18-1.26.07-1.84.24l.12-.55A19.76,19.76,0,0,0,75.26,11l.44-.34c-1-.2-1.59,1.4-2.57,1.28L73,11c-1.85-.28-3.59-1.31-5.53-.85a.44.44,0,0,1,.45-.33c-.87-.16-3.26-1.1-3.13.1.1-.75-1.88-.38-2.93-.21l.24-.52a3.14,3.14,0,0,1-2.21.76c-.26-.11-.17-.48.18-.28-.88-.43-.81.41-1.88-.06l.47-.29c-.94-.19-.9,0-1.49.33-.63.13-1.78-.42-1.84-.94a1.13,1.13,0,0,1-1.3.37c0-.2.18-.28.29-.32-1.53-.63-2.47.26-3.47-.46A.4.4,0,0,0,50.69,8a14.59,14.59,0,0,1,2.18.43c.08-.51-.93-.76,0-1.33-.88.25-2.41.86-3.37.46a.54.54,0,0,1-.1-.2l.11,0a1,1,0,0,0-.64,0,3.08,3.08,0,0,0-.8-.29c-.05-.44-1.13-.41-1.64-.51,0,.56-.7.36-.15.92-.07,0,.11,0,.45,0a.82.82,0,0,0,.23,0l0,0,1.27.17a1.22,1.22,0,0,1-1.42,0c-.32.31-.66.63-.85.78-.58-.89-1.85-1.52-2-2-1.61.06-3.7-.38-4.84.51-.46.06-.46-.38-.6-.57.27-.07.57,0,.74-.13-.93.12-2.64-.32-3,.38-1.06-.51.73-.57-.82-.7l.24-.19C32.89,4,30.52,6.69,27.43,4.67c.21.13.32.19.35.32-3.7-1.27-7.94-.63-11.52-2.28-1-.38-1.23.07-1.94.32l-.13-.63L13,2.91c-1.66.25-2.5-1.9-4.65-1.27l.19.45C7.8,1.9,6.2,2,6.39,1.52c-.08.06-.3.38-.55.12l0-.31L4,1.58C2.69,1.14,4.43.38,2.45,0,1.69,0,.19.57.44.83c.29.06.73.31.7.63l-.7.05c-.27.9-.94,1.76.62,2.67L2.31,3.8l.3.51-1-.13c.49.51.9.19,1.33,0a.86.86,0,0,0,.41.57l1.28-.7c.08.38-.63.63.11,1,.6-.32-.39-.88.54-1,.49.5.27.82,1,.57,0,.25-.11.38-.38.44.62-.19,1.55.12,1.93-.32.49.61,2,.18,1.78,1a3.28,3.28,0,0,1,1.67-.47c-1.14.89,2,.38,1.55,1.45.87-.82,2.66,0,4-.31-.08.06-.24.19-.35.12.71.19.87.51,1.3.76.22-.76,1.36-.76,2-1.14.76.89-.68.82-.51,1.59.05-.64,1.62-.39,1.41-1,.6.57.54.32.79,1,.27-1,.65-.07,1.3-.57.9.63.11.94,1.22.82C24.52,8.41,23.51,8.6,23.51,8.6ZM49.22,11h0l-.53-.05Zm2.14.33c-.26-.06-.58-.12-.93-.17,0-.2.07-.39.29-.34C50.58,10.91,51.06,11.1,51.36,11.31ZM47.45,6.74c.35,0,.44.1.47.22l-.6,0,0,.06A.71.71,0,0,1,47.45,6.74Z"/><path class="cls-1" d="M46.72,7.37a.32.32,0,0,1-.14,0l.18.16.15-.16Z"/><path class="cls-1" d="M240.4,39.06l-.05,0a.28.28,0,0,1,.09.1A.15.15,0,0,1,240.4,39.06Z"/><polygon class="cls-1" points="80.71 17.07 80.73 16.93 80.52 17.03 80.71 17.07"/><path class="cls-1" d="M251.87,42.85A.26.26,0,0,0,252,43S251.94,42.91,251.87,42.85Z"/><path class="cls-1" d="M256.94,43.78l.68.31A4.42,4.42,0,0,0,256.94,43.78Z"/><path class="cls-1" d="M260.8,44.68a.85.85,0,0,0,.12-.23h0Z"/><path class="cls-1" d="M198.52,35.43h-.16C198,35.48,198.24,35.47,198.52,35.43Z"/><path class="cls-1" d="M217.23,37.08a3.53,3.53,0,0,1-.64.16C216.92,37.34,217.17,37.39,217.23,37.08Z"/><path class="cls-1" d="M177.75,32.8h0l-.12,0Z"/><path class="cls-1" d="M215.73,37.1a1.37,1.37,0,0,0,.86.14A2.08,2.08,0,0,0,215.73,37.1Z"/><path class="cls-1" d="M277.71,47.63l.19,0a.19.19,0,0,1,0-.08Z"/><path class="cls-1" d="M277.93,47.6l.22,0C278.06,47.55,278,47.54,277.93,47.6Z"/><path class="cls-1" d="M278.62,47.5l-.47.06C278.31,47.59,278.49,47.64,278.62,47.5Z"/><path class="cls-1" d="M272.58,46.55l-.09.19A.48.48,0,0,0,272.58,46.55Z"/><path class="cls-1" d="M271,46.36c.37.1.88.58,1.42.53l.08-.15C272.19,47,271.4,46.07,271,46.36Z"/><path class="cls-1" d="M264.82,42.82l1.3.37c-.2-.25-.46-.59.15-.54C264.71,41.74,266.54,43.18,264.82,42.82Z"/><path class="cls-1" d="M260.79,41.86c.72,0,0-.31.09-.43C260.4,41.56,260.29,41.59,260.79,41.86Z"/><path class="cls-1" d="M231.25,37.15l.15-.49C230.84,36.64,231.36,36.85,231.25,37.15Z"/><polygon class="cls-1" points="225.18 38.86 225.66 39.26 225.99 38.84 225.18 38.86"/><polygon class="cls-1" points="222.42 34.73 222.67 34.7 221.73 34.74 222.42 34.73"/><path class="cls-1" d="M172.78,27l.06.65C173.23,27.61,173.42,26.92,172.78,27Z"/><path class="cls-1" d="M151.26,24.23a.93.93,0,0,0-1.18-.39C150.56,24,151,24.27,151.26,24.23Z"/><polygon class="cls-1" points="87.19 12.99 87.65 12.85 86.81 12.89 87.19 12.99"/><path class="cls-1" d="M0,55a.31.31,0,0,0,.42.42l.15-.7Z"/><path class="cls-1" d="M2.84,55.69c.39-.4.81-1,.41-1.6-.33.71-.49.47-.83,1.31-.37.14-.71-.09-.69-.34-.11.19-.62,0-.76.41a1.36,1.36,0,0,0,1.82-.22C3,55.37,2.85,55.56,2.84,55.69Z"/><path class="cls-1" d="M40.58,49.75l-.26,0A.53.53,0,0,0,40.58,49.75Z"/><path class="cls-1" d="M63.91,45.81c-.18,0-.24.12-.24.18C63.83,45.92,64,45.86,63.91,45.81Z"/><path class="cls-1" d="M68,45.79h-.24C67.87,45.83,68,45.85,68,45.79Z"/><path class="cls-1" d="M40.58,49.75l.66.09C41.24,49.62,40.89,49.74,40.58,49.75Z"/><path class="cls-1" d="M7.73,53.16a.9.9,0,0,0-.31.23,2.85,2.85,0,0,1,.31-.12Z"/><path class="cls-1" d="M30.42,52.18l-.19,0a1.6,1.6,0,0,0-.11.29Z"/><path class="cls-1" d="M22.57,53.74c.18,0,.14-.58.16-.83a.6.6,0,0,1-.32.45A1.15,1.15,0,0,0,22.57,53.74Z"/><path class="cls-1" d="M9.91,55.07l-.21.12A1.57,1.57,0,0,0,9.91,55.07Z"/><path class="cls-1" d="M36.07,51.26a.5.5,0,0,0,.11.18A.29.29,0,0,0,36.07,51.26Z"/><path class="cls-1" d="M255.44,6.36s0,.07,0,.1S255.5,6.35,255.44,6.36Z"/><path class="cls-1" d="M265.07,7.41l-.12.06c0,.1,0,.21,0,.31Z"/><path class="cls-1" d="M75.41,45.15h0C75.2,45.24,75.3,45.21,75.41,45.15Z"/><path class="cls-1" d="M142.07,32.39c-.85-.35,1.11-.86-.13-1.2C142.09,31.39,141.07,32.25,142.07,32.39Z"/><path class="cls-1" d="M8,53.19a3,3,0,0,1,.32-.06A1,1,0,0,0,8,53.19Z"/><path class="cls-1" d="M141.94,31.19h0l-.12,0Z"/><path class="cls-1" d="M92.1,41.72a.63.63,0,0,0-.22-.21A.47.47,0,0,0,92.1,41.72Z"/><path class="cls-1" d="M79.48,43.24l.32,0A.91.91,0,0,0,79.48,43.24Z"/><path class="cls-1" d="M98.43,39.74c.18,0,.25.08.47,0a.26.26,0,0,0-.09-.05C98.75,39.74,98.64,39.79,98.43,39.74Z"/><path class="cls-1" d="M105.18,38.49,105,38.4l-.21.07Z"/><path class="cls-1" d="M235,10.42a1.5,1.5,0,0,1,.4.44C235.23,10.49,236.19,10.16,235,10.42Z"/><path class="cls-1" d="M7.79,53.47A.29.29,0,0,1,8,53.19l-.22.08A.2.2,0,0,0,7.79,53.47Z"/><path class="cls-1" d="M97.9,35.33,99,35.21A6.47,6.47,0,0,0,97.9,35.33Z"/><path class="cls-1" d="M186.64,19.45l.23-.11A.3.3,0,0,0,186.64,19.45Z"/><path class="cls-1" d="M102.15,34.54a1.5,1.5,0,0,0,.68.27c0-.05.08-.09.09-.16Z"/><path class="cls-1" d="M235.41,10.87h0Z"/><path class="cls-1" d="M242.22,8.25c-1,.17-.35.8-.49,1.25-1.18.44-.66-.43-1.14-.72-.73.33-1.19,1.11-1.76,1.18-.07-.11-.18-.13-.08-.31-.7.73-2.39.47-3.19,1.37a.35.35,0,0,1-.15-.15,1.94,1.94,0,0,1,.32,1c-.45.09-.76.61-1,.17.28,0,.27-.23.37-.41l-.44.3c-.55-.6.61-.36.52-.86-.89.39-1.88,1.16-2.63,1.1-.27-.64,1.63-.54.57-1l1.15.05c-1-.89.69-.05-.3-1-1.49.08-1.57.64-3.06.72-.26.43.21.53,0,1-1.94,1-1.93-1.38-3.29-.21-.31.52-.31,1.39-1.47,1.15l.23-.83c-1.43.19-.61,1.24-2.18,1,.2-.34,1.06-.45.83-.5-1.07-.42-.6.55-1.34.69l-.27-.64c-1.49.38-3,1.17-4.7,1.6.06-.22.31-.48-.12-.61a19.94,19.94,0,0,1-6.6.73l-.67.72c-.18,0-.38-.2-.21-.35-.83-.07,0,.37-.31.67-.44.12-.65-.22-.4-.45-1.3.75-3.77,1.79-5.36,1.45l.26-.23c-1.19,0-1.07,1.42-2.23,1.08l.18-.14c-2.53.21-5.17,1.25-7.23.72-.2.9-2.52.09-2.47,1.28-1.52-.31-1.15-.6-3.22-.61-.54,0-.66.87-1.29,1.11l-.13-.6-.78.8-.61-.64-.59.27c.25,0,.57.18.57.36a2.58,2.58,0,0,1-2.51-.29l-2.19.93c0-.25.37-.41.64-.62-1.1.85-.34-.6-1.35.18.18.11,0,.37,0,.5a4.85,4.85,0,0,0-2.81.3l.11-.45c-1.72.2-3.54.86-5.44,1.2a.51.51,0,0,1,.15,1l-.34-.6c-.29.46.63.13,0,.75-.73.06-.62-.64-.25-.92l-.82.38c-.09-.18.1-.32.11-.57-.28.46-1.61-.37-2,.41l-.08-.18c-1.9.35-2.72.73-4.27,1.05.08.56-.55.55-.93,1.08a19.11,19.11,0,0,0-3.88.13c-.91.46-.19.52-.56.93-.17-.49-1.53-.19-.88-.68A21.71,21.71,0,0,0,156,25.51c.26.17.53.21.43.4-.36.16-.9-.05-.89-.3l.09-.07c-2.19,1.19-5.66-.47-7.32.92l.09-.07-1.83.91c-.9.07.47-.48-.25-.67-1.92,1.22-3.31.49-4.92,1.36-1.6-1.24-4.69,1-6.65.36l.17.33c-.4.43-.6-.1-1-.11.1.26.56.22.31.46-3.84,1.15-8.18,1-12.26,1.42-1.48.17-.5,2-2.5,1.47l.4-.75c-2.82,1.33-6.07,1.1-8.85,2.29.15-.18.12-.37.4-.42-.7-.36-2.27.39-2.21.78-.46,0-.17-.33-.49-.47-.66-.17-1.43.89-1.84.48-.07-.07.14-.19.25-.25-.36.31-1.88.29-1.4.77-1.13-.06-2,.62-3,.46-.46.72-1.92,0-1.94.95-.09-.91-2-.37-2.66.18.18-.31-.65-.17-.45-.59-.78.16-1.47.46-1.25.89-1.65-.8-2.75,1.39-3.82.18a66.63,66.63,0,0,1-6.41,2.23c-.09-.9,2.3-.52,2-1.43-1.92.73-2.93,1.71-5,1.86-.53,0,.22-.44.37-.62-1.93.73-3.87.63-5.55,1.44,0-.08.16-.21.33-.31-.34.09-.84,0-.72.42l.32-.18c.66.49-1.16,1.48-1.17,1.8.38-1.26-1.8,0-1.13-1.6-.22.12-.47.37-.37.62-.35,0-.49-.15-.2-.52-1.21.45-.69.8-1.82,1,0-.2.18-.31.26-.57a2.69,2.69,0,0,1-2,1c0-.13-.11-.26.18-.31-1.63.36-2.62,1.53-4.49,1.5.38-1-.66-.17-.89-.88l-.93.39.45.29c-.85.14-1.5.82-2.28.71l.58-.42-1.57.44,1,.11c-.79.54.27.91-.9.92.21-.12-.85.14-1.38-.21h0a1.81,1.81,0,0,1-1.43.57c-.21-.2,0-.83-.15-1-.31.69-2,.54-2.37,1.29a.66.66,0,0,0,0-.64l-.26.56c-.42-.09-.5-.15-.49-.47-1.2.13.55.86-.93.72.1-.06,0-.13.25-.24-1.45.05-2.67.82-4,.81-.52-.67,1.1-.39.55-.93-1.85.48-3.71,1.6-5.55,1.76l.35,0c-.06,1.09-1.44-.27-2.27.4.21-.12.19-.64.15-.51-1.27.06-2.49.73-4.3,1.4l.18-.31a21.9,21.9,0,0,0-2.76.24c-.19.31-.65.35-.3.69-2.72-1.07-4.49,1.68-6.88.81.25,0,.57-.35.36-.31l-1.79.58c.23.43.29.23.74.52a1.79,1.79,0,0,1-1.11.7c.77-.46-.15-.73-.55-.92.08.13,0,.31.05.44-1.11-.63,0,1-1.41.64l0-.25a3.92,3.92,0,0,1-1.41.64c-.31-.48.48-.34.44-.78-.74.17-1.29,1.27-2.06.87.29-.2.75-.29,1-.49a1.78,1.78,0,0,0-1.46-.31h.06l-1.31,0,.35.11c-.68,1.54-1.85.6-2.94,1.73,1.06-1.08.11-.53.1-1.15-.36-.1-.88-.2-.77-.39-.5.59-1.06-.2-1.76.66-.08-.18-.64.1-.6-.41-.74.3.25.3.23.56-1.07.87-2.94-.28-4.48.93-1.4.65-1.56,1.34-2.86,1.92-.52-.22.25-.77.25-.77a2.79,2.79,0,0,0-2,.36c.11-.19-.06-.31-.32-.48-.55.15-.24.76-1,.62a2.8,2.8,0,0,1,.42-.88c-.63.3-1.22.78-1.87,1.08-.24-.3.32-.58.52-.85-.74.3-1.94.68-2.08,1.25l.53.1c-.28.08-.23-.43,0-.56a.61.61,0,0,1,1.06.19l-.47.21c.71,1,1.93-.54,2.93-.66L7.74,55l.88-.86c.26.17.49.6,0,.81.78.28.57-.4,1.26-.06.08,0,.05.1,0,.14l.64-.37c-.1.2.22.56-.22.52,1.32.24,1.88-1,2.46-.45l-.1.07c1.67-.6.06-.63,1.22-1.58l1.14,1.33,0-.64c.19,0,.54,0,.52.23.59-.54-.16-.24.15-.7,1,.39,2.31-.69,2.68.23.22-.52-.88-.2,0-.69.45,1,1-.37,1.88,0-.14.57-.93.43-.06.76.3-1,1.55-.09,2.17-.38-.1-.72,1.38-.56,2.44-1,0,.25,2.14,0,3.21.07v.13c.06-.76,1.14-.82,1.89-1.11a.81.81,0,0,1-.44.9l.72-.13a1.2,1.2,0,0,1,.79-.6l-.09.57c1-.21,1.83-1,3.13-.86,0-.52-1.24-1.22,0-1.8.09.26.23.72-.09.9.1-.06.36-.3.6-.23l-.44.55c.61.1.23-.43.69-.47.06.39.38.21.38.53-.11.06-.43-.09-.57.1a2.13,2.13,0,0,1,1.43.35.45.45,0,0,1,.27-.65c1-.2.42.41,1,.51.18-.32.85-.15.75-.73.29,0,.39.21.53.34.45-.34,2.31-.5,1.64-1l-.14,0s0,0,.08,0h0c1.52-.88,3.45-.3,5-.85l0,.2c.93-.4,2.13-.53,2.75-1.08.28,0,.74.23.66.48A2.63,2.63,0,0,1,50.57,48c-.68.48.31.25-.72.39,1,0,1.27.26,2.21-.46-.26.56.84.49,1.26.26L52.59,48A5.66,5.66,0,0,1,54,47.73l-.13.7c2.12.43,3.3-2,5-1,.44-.55-1.12-.12-.76-.74.92-.08,2,.68,2.32.63,1.31.13,1-1.17,2.33-1.16-.21-.2-.49-.8.44-1.2.93-.08,1.3.78.76,1.07-.21.06-.33,0-.34-.08-.27.14-.64.31-.23.5l.07-.26c.49.16,1.74-.1,1.51.34.65-.35.23-.44-.3-.46,1.22.12,1.81-.33,3-.32-.21-.1-.44-.34-.25-.37,1.81,0,.69-.59,1.86-.91.74.23-.09.9,1.06.38.77.1.26.59,0,.83,1-.65,2.09-.08,2.73-.11l-.54.29a2.73,2.73,0,0,1,.89-.27l-.41-.41c.35,0,.63,0,.66.16.29-.37-.41-.72.21-1.27.49.15,1.32-.51,1.59.08-1.46.05.27.6-.91.92a1.57,1.57,0,0,1,.85-.15c.07.06,0,.14-.11.19,1.46.3.49-.81,1.9-1.06-.12.38.45.6.66.49-.57.09-.38-.54.09-.9,1,.11.94-.38,1.42-.44l-.56,0c.11-.38.57-.42,1.18-.64.1.26-.54.29-.29.37.58-.74,1.69.34,2.58-.25.49.15.17.65.59.73,1-.65,1.27.27,2.34-.32-.42-.41-.45-.28.27-.89l-1.82.68L84.85,42c-.57.1-1.14.52-1.5.5.51-.49.47-.36.13-.7.9.56,1.46-.69,2.44-.38l.19,1.16c1.44.27,2.28-1,4.09-1.07l-.6-.1c.15-.5,1.07-.26,1.6-.55,0,.4.4.47.68.67-.08-.28,1.29-.21,1.31-1l.87.37c1.45,0,1.41-1.4,2.79-1.52-.33.49.34.65-.51,1.12.45-.08.87-.08.83-.35.31.19,1.16-.76,1.64-.46.16-.21.15-.63.67-.69a.2.2,0,0,1,0,.19c0-.19.75-.41.22-.75,1.63,1,3.89-.82,5.3,0,1-.31,2.14-.66,3-.85,0,.12,0,.19-.14.18,1.3.13.55-1.25,2-1.11.83.49-.69.48-.2.63.44,1.24,1.67-.49,2.76.08l-.21.12c.8.3,1.68-.81,2.88-.94a.2.2,0,0,0,0,.19A8.29,8.29,0,0,1,118.51,35c-.26.57-.47.36-.16.83.5-.17-.3-.79.69-1.12.39.21,1.17.32,1.36.84l-1,.21c.62.61,1.24-.26,1.77-.23v.32c1.46-.37,1.33-1.15,2.93-1.39l-.21-.2c.73-.93.81.3,1.57-.43l.4.72a19.9,19.9,0,0,1,2.87-1.45,9.73,9.73,0,0,1-2.3,1.68c.56-.1,1.91-.42,2.14-.85-.22.11-.47.36-.72.28a4,4,0,0,1,2.57-1.41c.08,1.55,3-.16,4,.86,1.9-.93,4-.5,6.32-1-1-1,.67-.16.31-1.33.53-.18.74-.2.8-.13l1.78.41c.45.28-.47.36-.37.62,1.2-.12.59.42,1.44.6-.24-.4.29-.7,1-.66l-1-.38c1.54-.94,1.62.75,3.17-.2l-.46.48c.82-.38,3.17-.58,3.83-1.7.18.11.44.4.08.56,2.07-.23,4.37-1.87,6.08-1.57l-.11.32c.37-.15.57-.68,1.1-.47,0,.13-.1.32.08.31s.92-.7,1.46-.63l-.37.41c2.07,0,2.92-1.37,4.56-1.88.15.87,1.78.86,2.59.85v.13c2.35-.33,3.82-1.45,5.91-2.19,1.52.69,4.61-.45,6.86-.32-.36-.09-.07-.68.29-.84.54.08,1.29-.86,1.36-.05L181,25c.53.71,1.53.31,2.34.18l-.06-1.06c2.4,1.11,5.45-1.59,6.86-.45.46-.35,1.1-.47,1.55-.82l.08.56a17.94,17.94,0,0,0,3.89-.64l-.28.47c1-.15.95-1.84,1.85-2l.43.78c1.72-.33,3.6.08,5.16-1a.43.43,0,0,1-.28.46c.82-.13,3.24,0,2.74-1.11.15.74,1.79-.25,2.66-.75l0,.57c.66-.84.65-1,1.71-1.44.27,0,.31.4-.06.32.92.13.58-.64,1.68-.54l-.32.42c.89-.12.79-.3,1.2-.8.52-.32,1.72-.17,1.94.3a1,1,0,0,1,1-.77c.11.17-.06.32-.15.4,1.56.1,2.1-1,3.23-.7.05.18.13.26.23.29a13.62,13.62,0,0,1-2.06.3c.09.51,1.06.42.43,1.26.7-.53,1.86-1.6,2.83-1.53a.56.56,0,0,1,.16.15l-.09.07a.9.9,0,0,0,.58-.19,2.69,2.69,0,0,0,.8,0c.19.4,1.14,0,1.62,0-.14-.55.5-.58-.17-.92.08,0-.08.08-.39.16a.54.54,0,0,0-.2.1l0-.06c-.31.08-.72.16-1.18.26a1.08,1.08,0,0,1,1.26-.45c.18-.4.38-.82.5-1,.79.65,2.13.84,2.39,1.28,1.4-.58,3.39-.84,4.12-2.05.39-.21.53.21.71.35-.22.14-.5.18-.61.35.78-.42,2.44-.55,2.5-1.32,1.1.14-.46.78.95.4l-.15.25c3,.64,4.24-2.7,7.64-1.79-.23-.05-.35-.07-.41-.18,3.68,0,7.23-2,10.94-1.59,1,0,1.06-.46,1.6-.92l.33.55.92-.88c1.38-.77,2.83,1,4.53-.31l-.32-.35c.69,0,2.09-.63,2.06-.15.06-.09.14-.46.45-.3l.07.31,1.56-.84c1.32,0,0,1.27,1.91,1,.67-.24,1.81-1.27,1.51-1.43-.29,0-.75-.06-.83-.37l.6-.27c-.05-.94.26-2-1.41-2.32l-1,.76-.43-.38.91-.2c-.6-.32-.86.11-1.18.43a.8.8,0,0,0-.55-.4l-.9,1.07c-.2-.33.35-.8-.41-.86-.42.5.63.71-.15,1.13-.59-.32-.51-.69-1-.22-.13-.22,0-.39.2-.54-.5.38-1.42.39-1.61.92-.64-.41-1.81.48-1.92-.4a3,3,0,0,1-1.32,1c.72-1.21-1.88.28-1.85-.88-.5,1.06-2.36.87-3.46,1.61.06-.09.16-.26.28-.23a3.69,3.69,0,0,1-1.4-.3c0,.79-1,1.16-1.44,1.74-1-.59.33-1-.06-1.67.16.62-1.32.89-.94,1.36-.71-.34-.58-.12-1-.7.07,1-.55.27-1,1-1-.31-.4-.86-1.35-.38C241.39,8.75,242.22,8.25,242.22,8.25Zm-23.54,6.08v0l.49-.12Zm-2,.37c.25,0,.55-.07.88-.13.1.17.06.38-.14.41C217.5,14.83,217,14.81,216.68,14.7Zm4.95,3.05c-.3.14-.43.05-.49-.06a4.14,4.14,0,0,0,.54-.16s0-.05,0-.08A.7.7,0,0,1,221.63,17.75Z"/><path class="cls-1" d="M222.07,16.92s.06-.05.12-.06a1,1,0,0,0-.21-.09,1.54,1.54,0,0,0-.08.19Z"/><path class="cls-1" d="M40.28,49.72h0a.21.21,0,0,1-.1-.06S40.25,49.7,40.28,49.72Z"/><polygon class="cls-1" points="188.82 18.77 188.85 18.91 189 18.75 188.82 18.77"/><path class="cls-1" d="M28.89,49.86a.28.28,0,0,0-.17-.11S28.8,49.82,28.89,49.86Z"/><path class="cls-1" d="M24.1,50.62l-.71-.07A3.55,3.55,0,0,0,24.1,50.62Z"/><path class="cls-1" d="M20.38,51a.79.79,0,0,0,0,.25h0Z"/><path class="cls-1" d="M78.54,39.59l.14-.05C79,39.37,78.77,39.45,78.54,39.59Z"/><path class="cls-1" d="M61.44,44.09a2.61,2.61,0,0,1,.51-.36C61.63,43.74,61.39,43.77,61.44,44.09Z"/><path class="cls-1" d="M97.78,35.34h0l.12,0Z"/><path class="cls-1" d="M62.75,43.59a1.15,1.15,0,0,0-.8.14A1.83,1.83,0,0,0,62.75,43.59Z"/><path class="cls-1" d="M4.45,53.71H4.27a.33.33,0,0,1,0,.1Z"/><path class="cls-1" d="M4.27,53.82l-.19.1C4.17,53.9,4.25,53.88,4.27,53.82Z"/><path class="cls-1" d="M3.69,54.13l.39-.21C3.94,53.94,3.76,54,3.69,54.13Z"/><path class="cls-1" d="M9.35,53.07l0-.21A.44.44,0,0,0,9.35,53.07Z"/><path class="cls-1" d="M10.81,52.74c-.36,0-1-.26-1.43-.05v.17C9.54,52.52,10.54,53.14,10.81,52.74Z"/><path class="cls-1" d="M17.43,54.08l-1.27.07c.26.17.59.41,0,.56C17.88,55.06,15.79,54.29,17.43,54.08Z"/><path class="cls-1" d="M21.32,53.68c-.65.22.06.31.05.44C21.75,53.84,21.85,53.78,21.32,53.68Z"/><path class="cls-1" d="M49,48.56l0,.51C49.53,48.91,49,48.88,49,48.56Z"/><polygon class="cls-1" points="53.81 44.98 53.26 44.76 53.11 45.26 53.81 44.98"/><polygon class="cls-1" points="57.6 47.98 57.39 48.1 58.21 47.76 57.6 47.98"/><path class="cls-1" d="M104.07,39.2l-.27-.59C103.47,38.78,103.53,39.49,104.07,39.2Z"/><path class="cls-1" d="M124,34.85a.82.82,0,0,0,1.16,0C124.73,34.89,124.24,34.73,124,34.85Z"/><polygon class="cls-1" points="184.41 24.72 184.05 25 184.78 24.69 184.41 24.72"/></svg>