<?xml version="1.0" encoding="utf-8"?>
<!-- Generator: Adobe Illustrator 22.0.1, SVG Export Plug-In . SVG Version: 6.00 Build 0)  -->
<svg version="1.1" id="Layer_1" xmlns="http://www.w3.org/2000/svg" xmlns:xlink="http://www.w3.org/1999/xlink" x="0px" y="0px"
	 viewBox="0 0 271 106.1" style="enable-background:new 0 0 271 106.1;" xml:space="preserve">
<style type="text/css">
	.st0{fill:#FFCF01;}
</style>
<g>
	<path class="st0" d="M13.2,49.2c0.8,0.3,1.7,0.5,2.5,0.8c1.3,0.4,2.7,1.1,4.1,1.6c1.6,0.6,3.2,1,4.6,1.8c1.2,0.6,2.3,1.1,3.3,1.7
		c0.2,0.2,0.5,0.4,0.6,0.5c0,0.5,0.5,0.5,0.6,0.5c0.8,0.3,1.8,0.9,2.3,1.8c0.8,0.4,0.8,1.2,1.1,1.9c0.2,0.9-0.2,2-0.5,2.9
		c-0.7,1.1-1.4,1.8-2.4,2.6c-0.5,0.5-1.2,0.9-1.8,1.4c-0.6,0.5-1.2,0.8-1.9,1.3c-0.6,0.2-1,0.9-1.8,0.8c-0.2,0.7-0.8,0.7-1.4,0.8
		c-0.2,0.1-0.4,0.5-0.7,0.7c-0.4,0.3-1.1,0.5-1.5,0.8c-0.5,0.3-1.1,0.8-1.7,0.8c-0.2,0-0.5,0.2-0.6,0.5c-0.2,0.4-0.5,0.5-1,0.6
		c-0.4,0.1-0.7,0.4-1.2,0.6c-0.9,0.7-2,1-3.3,1.5c-0.3,0.3-0.8,0.5-1.4,0.7c-0.5,0.2-0.8,0.6-1.6,0.5c-0.2,0-0.2,0.2-0.4,0.4
		c-0.2,0.1-0.2,0.2-0.3,0.2c-1-0.3-1.5,0.6-2.5,0.8c-0.8,0.2-1.1,0.7-0.9,1.5c0.2,1.4,0.1,2.8,0.1,4.2c0,1.1,0,2.3,0,3.4
		c0,0.5-0.2,0.8-0.2,1.2C5,88.7,4.7,89,4.3,88.8c-0.5-0.2-1.1-0.4-1.5-0.8c-0.3-0.2-0.5-0.8-0.5-1.3c-0.2-1.1-0.1-2.2-0.2-3.2
		c-0.2-1.6-0.2-3.2-0.1-4.7c0-0.4-0.2-0.7-0.5-0.7c-0.3-0.2-0.6-0.2-0.8-0.3c-0.6-0.5-0.7-1-0.4-1.7c0.3-0.4,0.6-0.9,1.4-1
		c0.4-0.2,0.6-0.4,0.5-0.8c0.1-1.2,0.1-2.5,0.2-3.9c0.1-0.2,0.1-0.3,0.2-0.7c0.4-3,0.7-6.1,1-9.2c0.2-1.3,0.5-2.7,0.6-4.1
		c0.3-1.4,0.6-2.8,0.6-4.2C4.9,51.9,5,51.4,5.1,51c0.2-0.8,0.2-0.9-0.6-1.2c-0.2-0.2-0.6,0-0.7-0.5c0-0.4,0.1-0.8,0.2-1.1
		C4,48.2,4,48,4.1,48.1c0.2-0.2,0.4-0.2,0.5-0.2c0.8-0.3,1.6-0.7,1.4-1.7c0.8-3.3,1.5-6.5,2.7-9.7C9.3,34.5,10,32.7,11,31
		c0.8-0.9,1.4-2.1,2.2-2.9c0.5-0.7,1-1.5,1.7-2.1c1.5-1.6,3.1-3.2,4.8-4.6c0.8-0.5,1.5-1.4,2.4-1.7c0.5-0.6,1.2-0.8,1.9-1.2
		c0.8-0.8,2.2-1.4,3.4-2c0.5-0.2,1.3-0.6,2-0.6c0.7,0,1.5,0,2.2-0.2c0.8-0.2,1.6,0.1,2.3,0.5c0.6,0.1,1.1,0.2,1.5,0.4
		c1.9,0.7,2.2,2.1,2.2,3.9c0.1,2-0.6,3.9-1.4,5.7c-1.1,2.3-2.4,4.3-4.2,6.2c-0.5,0.6-1.2,1.3-1.8,1.9c-0.8,0.8-1.5,1.5-2.3,2.2
		c-0.6,0.7-1.5,1.5-2.3,2.1c-0.8,0.5-1.3,1.5-2.5,1.7c-0.1,0,0,0.1-0.1,0.2c-1.3,1.4-2.9,2.3-4.5,3.3c-1.1,0.8-2.3,1.5-3.4,2.2
		c-1.2,0.7-2.2,1.2-3.4,1.8c-0.3,0.2-0.4,0.3-0.5,0.7c-0.2,0.3-0.1,0.4,0.3,0.4c0.2-0.1,0.3,0,0.6-0.1C12.4,48.9,12.8,49,13.2,49.2z
		 M5.7,70.4c-0.1,1.5-0.2,2.9-0.3,4.2c0,0.2,0,0.3,0.1,0.5c0.2,0,0.5,0,0.6-0.2c0.2,0,0.3-0.3,0.5-0.4c0.7-0.2,1.2-0.4,1.8-0.7
		c0.6-0.2,1.2-0.4,1.7-0.7c1.1-0.5,2.2-1.2,3.2-1.6c0.5-0.4,1.2-0.5,1.7-1c0.1-0.1,0.3-0.1,0.5-0.1c0.2-0.1,0.3,0,0.3-0.1
		c0.7-0.7,1.6-0.9,2.5-1.5s1.6-1.1,2.5-1.7c0.5-0.3,1.2-0.8,1.8-1c0.8-0.5,1.6-1.1,2.5-1.7s1.7-1.3,2.5-2c0.6-0.5,1-1,1.2-1.7
		c0.2-0.6,0-1.5-0.5-1.8c-1.1-0.8-1.8-2.2-3.2-2.5c-0.1,0-0.2-0.1-0.4-0.1c-0.5-0.5-0.8-0.8-1.4-1.2c-0.7-0.4-1.5-0.7-2.1-0.9
		c-0.5-0.2-0.8-0.5-1.2-0.6c-0.8-0.3-1.7-0.7-2.5-1.1c-1.1-0.2-2.3-0.6-3.5-0.9c-1.1-0.3-2.2-1.2-3.4-0.8c-0.1-0.1-0.3-0.1-0.4-0.3
		c-0.4-0.2-0.6-0.2-0.7,0.2c-0.5,1.7-1,3.5-1.5,5.2c-0.3,1.3-0.6,2.7-0.8,4.2c-0.2,0.2-0.2,0.5-0.2,0.8c-0.2,1.1-0.3,1.9-0.5,3
		c-0.4,2.2-0.6,4.3-1.1,6.3C5.6,70.4,5.6,70.4,5.7,70.4z M34.7,19.3c-0.1-1.4-1.1-2.2-2.9-2c-0.8,0.2-1.5,0.5-2,0.7
		c-1,0.2-1.8,0.8-2.7,1.2c-0.8,0.3-1.5,0.8-2.2,1.2c-0.8,0.5-1.5,1.4-2.4,1.8c-1.2,0.9-2.4,1.9-3.5,2.9C18.1,26,17.2,27,16.4,28
		c-1.1,1.2-2,2.4-3,3.8c-1.1,1.6-1.7,3.5-2.5,5.3c-0.8,2.1-1.5,4.3-2,6.8c-0.2,0.5-0.2,1-0.4,1.5c0,0.3,0,0.5,0,0.6
		c0.2,0,0.4-0.1,0.6-0.2c1.3-0.8,2.7-1.5,4-2.2c0.5-0.4,1.2-0.5,1.6-0.9c0.5-0.4,1-0.7,1.5-1c1.8-1.2,3.7-2.3,5.2-3.7
		c1.4-1.2,2.9-2.4,4.3-3.6c0.4-0.3,0.8-0.6,1.2-1c0.9-1.1,1.9-2.2,3.1-3.3c1.4-1.5,2.4-3.4,3.2-5.3c0.7-1.4,1.2-2.8,1.5-4.5
		C34.9,20,34.8,19.7,34.7,19.3z"/>
	<path class="st0" d="M51.2,52.5c-0.2,0.6,0.8,1.3-0.5,2c-1.3-0.5-3.5-0.9-4.5-1.4c-0.5-0.3-1.2-0.8-1.5-1.4
		c-1.4-1.4-1.5-1.4-2.5,0.2c-0.9,1.4-1.5,2.9-1.8,4.6c-0.4,2.1-0.8,4.1-1.1,6.2c-0.4,2.4-0.8,5.2-1.1,7.9c-0.2,0.9-0.4,1.2-1.3,1.2
		c-0.2-0.2-0.4-0.2-0.7-0.2c-1.2-0.1-1.2-0.3-1.1-1.5c0.2-1.8,0.5-3.5,0.7-5.1c0.2-1.5,0.5-3.4,0.7-5c0.1-1.2,0.3-2.2,0.3-3.4
		c0,0,0,0,0-0.1c0.4-1.8,0.4-2.3,0.7-4.2c0.2,0.1,0.4-1.3,0.6-1.3c0.2,0,0.5,0,0.7,0c0.2,0.1,0.2-0.1,0.4-0.3c0.3-0.5,0.7-0.5,1-1.1
		c0.5-0.7,1.1-0.9,2-1c1.6-0.3,2.9,0.8,4.3,1.9c1,0.8,3.3,1.7,4.6,1.8C51,52.5,51.2,52.4,51.2,52.5z"/>
	<path class="st0" d="M76.8,54.8c-0.3,1.2-5.5,8.5-6.2,9.6c-1.2,1.9-2.9,3.2-4.5,4.5c-0.9,0.6-1.8,1.4-2.8,1.8
		c-1.5,0.8-2.9,1.6-4.5,1.8c-0.4,0-0.8,0.2-1.2,0.3c-1,0.2-1.8-0.2-2.9-0.3c-1.2-0.1-2.3-0.8-3.5-1.5c-0.5-0.3-1.1-0.5-1.7-0.7h0.1
		c-0.2-0.2-0.5-0.5-0.7-0.7c-0.3-0.3-0.7-0.5-0.7-1.1c0-0.2-0.2-0.3-0.4-0.5c-0.8-0.8-1-1.8-1.2-2.8c-0.1-0.3,0-0.5,0-0.7
		s0.2-0.4,0.1-0.5c-0.5-0.8-0.2-1.5-0.2-2.2c0.1-1.2,0.5-2.2,0.7-3.4c0-0.1,0-0.3,0.1-0.5c0.8-0.6,0.6-1.7,1.1-2.4
		c0.5-0.8,0.9-1.8,1.5-2.6c0.5-0.8,1-1.5,1.5-2.3c1.5-1.9,3.1-3.5,5-4.9c1.1-0.8,2.2-1,3.4-0.5c1.5,0.5,2.8,2.2,2.8,3.5
		c0,1-0.3,2-0.8,2.8c-0.8,1.5-1.6,2.9-2.9,4.1c-1.5,1.4-3,2.5-4.9,2.8c-0.2,0-0.2,0.1-0.3,0.2c-0.8,0.4-1.5,0.4-2.3,0.1
		c-0.8-0.3-0.8-0.2-1.1,0.5c-0.2,0.8-0.3,1.5-0.5,2.3c-0.2,2.3-0.1,3.2,0.5,5.1c0.5,1.5,1.8,2.2,3,3c0.4,0.2,0.8,0.2,1.1,0.1
		c0.3-0.2,0.7-0.1,0.9-0.2c0.6-0.3,1.3,0,1.8-0.3c0.6-0.3,1.2-0.5,1.8-0.8c0.5-0.3,1.2-0.5,1.7-0.9c0.8-0.4,1.5-0.8,2.2-1.3
		C66.8,64,74.2,55,77.3,51.7C77,52.1,77,54.2,76.8,54.8z M51.7,56.3c0,0.3,0,0.7,0.2,0.8c0.2,0.2,0.6,0,0.8-0.1
		c0.5-0.1,0.9-0.2,1.2-0.4c0.8-0.5,1.5-1,2.2-1.5c1.7-1.3,2.8-3.1,3.5-4.7c0.4-0.8,0.3-2,0.1-2.5c-0.2-0.2-0.3-0.3-0.5-0.2
		c-0.5,0.4-1.1,0.6-1.5,1c-1.7,1.3-3.1,2.9-4.2,4.6c-0.5,0.8-1,1.8-1.6,2.6C51.8,55.9,51.7,56.1,51.7,56.3z"/>
	<path class="st0" d="M93.3,63.2c-0.8,1.3-1.6,2.5-2.8,3.5c-0.5,0.4-3.5,1.8-3.5,2.2c-0.8,0.3-0.6,0.2-1.4,0.2
		c-0.2,0-0.3-0.2-0.5-0.2c-2.2-0.6-3.2-2.3-3.4-4.3c-0.1-0.5-0.1-1-0.1-1.5c-0.4,0.5-0.7,0.8-1,1.2c-1,1.3-2.1,2.6-3.2,3.9
		c-0.4,0.5-0.9,0.8-1.4,1.2c-0.7,0.5-1.3,0.8-2.2,0.5c-0.9-0.5-1.8-0.5-2.6-1.2c-0.3-0.2-0.5-0.5-0.5-1.1c0-0.1,0-0.2-0.1-0.4
		c-0.8-2.1-0.1-4.1,0.8-5.9c0.7-1.5,1.2-3,2.1-4.3c1-1.7,2.1-3.5,3.2-5.1c0.4-0.7,1-1.4,1.7-1.8c0.7-0.4,1.5-0.8,2.2-0.7
		s1.4,0.5,2.2,0.9c0.2,0.1,0.2,0.2,0.4,0.4c0.2,0.2,0.5,0.5,0.7,0.6c0.2-0.3,0.5-0.7,0.7-1c0.5-1.2,0.9-2.5,1.5-3.6
		c0.3-0.7,0.6-0.8,1.4-0.5c1.7,0.8,1.8,0.8,1.1,2.5c-1.2,3.3-2.4,6.8-3.2,10.2c-0.5,2-0.7,4.1-0.3,6.2c0,0.2,0.1,0.5,0.2,0.7
		c0.1,0.5,0.2,0.5,0.7,0.2c1.1-0.8,2.2-1.7,3.1-2.5c3.4-2.9,6.2-6.9,9.4-10.1c0.6-0.6,1.5-1.4,2.2-1.1c-1.2,1.7-2.2,3.8-3.5,5.8
		C96,60,94.7,61.8,93.3,63.2z M82.1,52.4c-0.1-0.2-0.2-0.5-0.2-0.8c-0.2-0.6-0.9-0.8-1.4-0.4c-0.5,0.6-1.2,1.2-1.7,1.8
		c-2.1,3.1-3.7,6.2-5.1,9.7c-0.4,1.2-0.7,2.4-0.6,3.7c0.1,0.6,0.5,0.8,1,0.5c0.4-0.4,0.8-0.7,1.2-1.1c2.7-2.8,4.6-5.9,6.2-9.4
		c0.2-0.5,0.3-0.9,0.5-1.3C82.7,54.2,82.5,53.3,82.1,52.4z"/>
	<path class="st0" d="M106.2,65.3c-0.8-1.2-1.8-2.2-2.9-3.1c-0.2-0.2-0.7-0.7-1.1-1.2c-0.4-0.4-0.9-0.4-1.3-0.5c-0.1,0-0.2,0-0.3,0
		c-0.4,0,1.1,0.2,0.8,0.3c-0.1,0-0.2,0-0.2,0.1c-0.5,0-0.5,0.2-0.5,0.6c-0.2,1.2-0.5,2.2-0.5,3.2c-0.2,3-0.6,5.6-1,8.3
		c-0.3,1.2-0.5,2.2-0.6,3.4c-0.2,0.5-0.2,0.9-0.2,1.5c0,0.1,0,0.1,0,0.2c0,0.2-0.2,0.4-0.4,0.4c-0.1,0-0.1-0.1-0.2-0.1
		c-0.8,0-1.5-0.2-2.4-0.5c-0.2,0-0.5-0.5-0.6-0.7c0-0.6-0.3-1.1-0.3-1.6c-0.1-0.2-0.1-0.3-0.1-0.5c0,0,0,0,0-0.1
		c0-0.7,0.4-1.5,0.4-2.2c0.2-1.3,0.2-2.5,0.5-3.7c0.2-1.9,0.5-3.5,0.8-5.2c0.3-1.2,0.4-2.3,0.5-3.5c-0.1-0.1-0.1-0.4-0.2-0.5
		c0-0.1-0.2-0.2-0.2-0.3c-0.4-0.3-0.7-0.7-0.7-1.1c-0.1-0.5,0.2-1,0.9-1.4v-0.1c0.1,0,0.1,0,0.2,0c0.9-0.1,1.1-0.8,1.1-1.5
		c0.2-1.6,0.7-3.3,0.9-4.9c0.4-1.5,0.6-3,0.8-4.2c0.2-1.2,0.6-2.3,0.9-3.4c0.2-0.8,0.4-1.7,0.4-2.5c0.6-2.6,1.2-5.3,1.8-8.3
		c0.6-2.3,1.2-4.9,1.9-7.5c0.3-1.4,0.9-2.5,0.9-3.9c0.2-0.3,0.2-0.5,0.5-0.5c0.2-0.5,0.6-0.6,1-0.7c0.3,0,0.6,0.1,0.9,0.4
		c0.2,0.2,0.4,0.4,0.3,0.5c0,0.2,0.1,0.3,0,0.5c-0.6,1.5-0.9,3.2-1.3,4.9c-0.6,3.2-1.4,6.4-1.9,9.7c-0.5,3.9-1.3,7.6-2.1,11.2
		c0,1.5-0.2,3.1-0.3,4.6c-0.5,1.8-0.6,3.5-1,5.2c-0.1,0.2,0,0.5-0.1,0.6c0,0.1-1.5-0.1-1.5,0s0.1,0.2,0.3,0.2
		c0.5,0.3,1.2,0.4,1.8,0.4c0.5,0,1,0,1.4-0.2c2.7-1,5-2.1,6.9-4.2c1.1-1.2,2-2.6,2.5-4.2c0.5-0.9,0.6-1.8,1-2.6
		c0.2-0.6,0.6-0.8,1.1-0.8c0.1,0,0.2,0,0.2,0c0.5,0.1,0.8,0.6,0.8,1.3c0,0.1,0,0.3-0.1,0.3c-0.5,1.9-0.8,3.8-1.9,5.5
		c-1.2,1.8-2.7,3.5-4.5,4.7c-1.5,0.9-3.2,1.6-4.6,2.2c-0.2,0.2-0.2,0.2-0.2,0.2c-0.1,0.1-0.1,0.2,0,0.2c1.6,1.2,3,2.5,4.6,3.9
		c0.5,0.4,1.2,1.1,1.8,1.7c0.5,1,1.5,1.2,2.5,1.2c0.3,0,0.6,0.1,1,0.1c0.7,0,1.4-0.1,2.1-0.2c0.4-0.2,0.8-0.3,1.2-0.3
		c0.5,0,0.8,0.2,1,0.7c0.2,0.1,0.3,0.2,0.3,0.4c0,0.1-0.1,0.2-0.3,0.3c-1.3,0.8-2.5,1.2-3.9,1.2c-0.4,0-0.8-0.1-1.2-0.2
		c-0.7-0.2-1.5-0.4-2.2-0.5C109.1,68,107.7,66.6,106.2,65.3z"/>
	<path class="st0" d="M139.4,45.9c0,1.8-7.5,2.9-10.6,3.2c-2.1,0.3-2.3,0.6-2.5,2.7c-0.4,2.6-1.2,5.4-1.2,8c0,0.2,0.1,0.5,0.1,0.8
		c0,0.2,0,0.4-0.1,0.5c0,0.2,0,0.4,0,0.6c0,0.5-0.2,1.2-0.2,1.7c0,0.6,0.2,1.3,0.2,2c0,0.4,0,0.7,0,1c0,1.1,0.2,2.2,0.2,3.2
		c0,1.1,0,3.2-0.7,3.2c-0.5,0-1.7-0.8-2.2-1.2c-1.1-0.9-1.2-6.5-1.2-10.2c0-3.9,0.4-6.4,1.7-9.4c0.1-0.1,0.1-0.2,0.1-0.2
		c0-0.2-0.1-0.2-0.2-0.2c-1.5,0-5.9,0.2-5.9,1.8c0,0.1,0.1,0.2,0.1,0.2c0,0.3-0.2,0.5-0.3,0.5c-1.1,0-1.5-1-1.5-1.5
		c0-1.5,2.9-3.4,6.9-3.8c2.5-0.3,1.9-0.1,2.5-2.5c0.8-3.3,1.8-7.1,2.9-10.3c1.3-4.2,4.2-12.3,6.1-12.3c1.8,0,2.2,0.4,2.2,0.8
		c0,1.1-0.8,3-1.2,4.5c-1.3,3.8-2.7,8.1-4.3,11.7c-0.7,1.5-2.1,4.5-2.1,5.9c0,0.1,0.2,0.1,0.6,0.1c2.9,0,5.9-1.8,9.2-1.8
		c0.4,0,0.8,0.1,1.1,0.4C139,45.6,139.4,45.6,139.4,45.9z"/>
	<path class="st0" d="M163.4,73.9c-0.5,0.8-1.2,1.7-2.4,1.8c-0.2,0.1-0.6,0.2-0.9,0.4c-0.7,0.8-1.8,0.8-2.7,1.2
		c-0.1,0.1-0.4-0.1-0.6-0.2c-0.8-0.5-1.8-0.8-2.5-1.2c-0.4-0.2-0.8-0.6-1-0.9c-0.2-0.5-0.2-1.1-0.5-1.5c-0.2-0.5-0.3-0.9-0.1-1.4
		c0,0,0-0.2,0-0.2c-0.5-1.4-0.2-2.9-0.2-4.3c0.2-2.3,0.4-4.7,0.6-6.9c0-1.4-0.2-2.9-0.2-4.3c0-0.3-0.2-0.5-0.5-0.3
		c-0.8,0.7-1.5,1.6-2.2,2.5c-1.7,2.5-2.8,5.4-4.2,8c-0.9,1.8-1.8,3.8-2.8,5.6c-0.8,1.4-1.8,2.6-2.6,4c-0.2,0.3-0.5,0.5-0.7,0.8
		c-0.7,0.5-1.8,0.7-2.5,0.2c-0.5-0.5-1.2-0.3-1.5-1.1c-1.2-0.9-1.2-2.4-1.3-3.8c-0.1-0.5-0.1-0.9-0.1-1.4c-0.2-1.2-0.2-2.4-0.1-3.6
		c0.2-1.2,0.2-2.2,0.2-3.2c0.2-1.4-0.3-2.9-0.1-4.3c0.2-1,2.1-11.9,2.3-11.9c0.7-3.5,1.8-7,2.9-10.4c0.7-1.8,0.8-3.5,1.4-5.2
		c0.8-2.2,1.6-4.5,2.8-6.6c0.5-0.9,0.9-1.8,1.4-2.9c0.2-0.2,0.2-0.4,0.4-0.6c1-1.4,1.1-1.4,2.5-0.8c1.1,0.5,1.2,0.6,1.1,1.8
		c-0.2,1.8-0.4,3.5-1,5.2c-0.2,0.8-0.2,1.6-0.3,2.4c-0.4,1.8-0.7,3.7-1.2,5.6c-0.7,2.4-1.4,4.6-2.5,6.9c-1.2,2.2-2.4,4.3-3.9,6.3
		c-0.4,0.5-0.6,1-0.6,1.5c-0.3,1.7-0.7,3.3-0.8,4.9c-0.4,2.2-0.7,4.4-0.9,6.5c-0.3,1.8-0.5,3.8-0.5,5.8c0,1.8-0.2,3.5,0.4,5.2
		c0.1,0.2,0.2,0.3,0.2,0.4c0.1-0.1,0.2-0.2,0.2-0.2c1.2-1.6,2.2-3.2,2.9-4.9c1.1-2,2-4,3-6.1c1-1.7,1.8-3.5,2.9-5.2
		c0.8-1.4,1.8-2.6,3-3.5c0.8-0.7,1.7-1.2,2.9-0.8c0.1,0.1,0.2,0.1,0.4,0.2c0.9,0.7,1.7,1.3,2.4,2.4c0.5,0.8,0.5,1.9,0.5,2.9
		c0,2.2,0,4.2-0.2,6.4c-0.1,1.8-0.2,3.6-0.1,5.4c-0.1,0.2,0,0.5-0.1,0.5c-0.2,0.5-0.1,0.9,0.1,1.5c0.2,0.3,0.2,0.8,0.2,1.3
		c0.1,0.5,0.3,0.8,0.8,0.5c0.8-0.7,2.1-0.6,3-1.4c0.8-0.6,2-0.4,3-0.2C163.5,72.9,163.7,73.4,163.4,73.9z M141.7,42.7
		c0.3-0.5,0.5-1,0.8-1.5c1.2-2.6,2-5.2,2.6-8.1c0.4-1.5,0.7-3,1-4.5c0-0.2,0-0.2,0-0.4c-0.1,0.2-0.2,0.2-0.2,0.4
		c-0.5,1.4-1,2.7-1.5,4.2c-1,2.6-1.6,5.5-2.3,8.3C141.9,41.5,141.3,42.1,141.7,42.7z"/>
	<path class="st0" d="M176.3,52.5c-0.2,0.6,0.8,1.3-0.5,2c-1.3-0.5-3.5-0.9-4.5-1.4c-0.5-0.3-1.2-0.8-1.5-1.4
		c-1.4-1.4-1.5-1.4-2.5,0.2c-0.9,1.4-1.5,2.9-1.8,4.6c-0.4,2.1-0.8,4.1-1.1,6.2c-0.4,2.4-0.8,5.2-1.1,7.9c-0.2,0.9-0.4,1.2-1.3,1.2
		c-0.2-0.2-0.4-0.2-0.7-0.2c-1.2-0.1-1.2-0.3-1.1-1.5c0.2-1.8,0.5-3.5,0.7-5.1c0.2-1.5,0.5-3.4,0.7-5c0.1-1.2,0.3-2.2,0.3-3.4
		c0,0,0,0,0-0.1c0.4-1.8,0.4-2.3,0.7-4.2c0.2,0.1,0.4-1.3,0.6-1.3c0.2,0,0.5,0,0.7,0c0.2,0.1,0.2-0.1,0.4-0.3c0.3-0.5,0.7-0.5,1-1.1
		c0.5-0.7,1.1-0.9,2-1c1.6-0.3,2.9,0.8,4.3,1.9c1,0.8,3.3,1.7,4.6,1.8C176.2,52.5,176.3,52.4,176.3,52.5z"/>
	<path class="st0" d="M193.1,49.5c1.5,0.7,2.4,0.4,3.5,1.6c0.4,0.5,0.5,0.5,0.5,0.7c0,0.5-0.6,0.7-1.4,0.7s-0.9-0.2-1.7-0.4
		c-1.1-0.4-5.3-2.2-6.3-2.6c-0.5-0.2-1.1-0.3-1.5-0.3c-1.2,0-2.3,0.6-2.3,1.8c0,0.4,0.1,0.8,0.3,1.2c0,0.1,0.1,0.1,0.1,0.2
		c0,0.2-0.1,0.3-0.1,0.3c-1,1-0.8,2.4-1,3.7c-0.7,3.9-2.2,7.6-4.3,11.2c-0.4,0.5-0.8,1-1.2,1.5c-0.3,0.3-0.6,0.4-0.8,0.4
		c-0.3,0-0.5-0.1-0.9-0.3c-0.8-0.5-1.5-1.2-2.5-1.5c-0.2-0.1-0.5-0.5-0.6-0.8c-0.3-0.8-0.4-1.6-0.4-2.5c0-0.5,0-0.9,0.1-1.4
		c0.7-3.9,1.7-7.8,3.8-11.3c0.4-0.5,0.7-1.2,1.2-1.7c0.3-0.5,0.8-0.5,1.2-0.8c0.2-0.1,0.4-0.2,0.5-0.2c0.4,0,0.6,0.2,0.9,0.5
		c0.1,0,0.2,0.1,0.3,0.1s0.2-0.1,0.2-0.2v-0.1c-0.2-0.5,1.1-3.8,2.6-3.2c0.6,0,1.4,0.3,2.1,0.3c0.1,0,0.2,0,0.2,0
		C187,46.9,192,48.9,193.1,49.5z M179.9,51.9c-0.2,0.1-0.4,0.2-0.5,0.2c-0.2,0.4-0.5,0.8-0.6,1.2c-1.3,2.5-2.1,5.2-2.9,7.9
		c-0.2,0.8-0.2,1.7-0.3,2.6c0,0.2,0.2,0.5,0.2,0.7c0.3-0.2,0.5-0.2,0.5-0.5c0.4-0.7,0.7-1.4,1.1-2.1c1.3-3.1,2.2-6.3,2.5-9.7
		C180.1,52.3,179.9,52.1,179.9,51.9z"/>
	<path class="st0" d="M203.8,60c0-0.1-0.1-0.2-0.1-0.2c-0.1,0.1-0.2,0.2-0.2,0.2c-0.9,1.5-0.7,3.3-1.6,4.9c-0.7,1.2-1.7,2.2-2.5,3.5
		c-0.3,0.5-1.5,0.7-1.8,1.1c-0.5,0.6-1.5,0.8-2.3,0.5c-0.4-0.2-0.8-0.2-1.2-0.4c-0.5-0.2-1.3-0.1-1.2-1.2c0,0-0.1-0.1-0.2-0.2
		c-0.5-0.4-0.5-0.7-0.5-1.2c-0.2-1.5-0.4-2.9-0.3-4.3c0.1-1.2,0.3-2.3,0.6-3.4c0.6-2,1.3-4.1,2.1-6.1c0.2-0.7,0.6-1.2,1-1.9
		c0.1-0.4,0.5-0.5,1-0.4c0.5,0.1,0.8,0.2,1.2,0.3c0.5,0.2,0.6,0.7,0.3,1.2c-0.2,0.1-0.4,0.4-0.5,0.7c-0.9,2.9-1.8,5.9-2.3,9
		c-0.1,0.7-0.2,1.5,0,2.2c0.1,0.4-0.2,0.8-0.2,1.2c0,0.2,0.2,0.3,0.3,0.5c0.2-0.1,1.5-0.4,1.7-0.5c0.7-1.1,1.1-1,2.1-2.9
		c1.4-2.5,1.5-2.3,2.5-5.3c1-1.8,1.3-4.2,2.2-6.2c0.2-0.2,0.2-0.3,0.2-0.5c0.7-1.1,2.5-1.4,3.5-0.6c0.2,0.2,0.5,0.6,0.4,0.8
		c-0.5,3.5-0.5,7-0.4,10.5c0.1,1.5,0.5,2.8,0.7,4.3c0.6,3.7,2.6,2.2,3.3,2.9c0.2,0.2,0.2,0.3,0.2,0.6c0,0.6,0.2,0.5-0.1,0.7
		c-0.4,0.3-0.8,0.4-1.2,0.5h-0.1c-0.8,0.2-1.6,0.1-2.3-0.4c-0.2-0.1-0.3-0.2-0.5-0.2c-0.8,0-1.5-0.8-2-1.7c-0.1-0.2-0.3-0.2-0.3-0.3
		c-0.5-1.7-1.2-3.4-1.2-5C203.8,61.8,203.8,60.9,203.8,60z"/>
	<path class="st0" d="M245.1,52c0.2,0,0.5,0.2,0.5,0.6c0,0.1-1.2,1.7-1.2,1.8c-1.2,2.1-9.9,7-11.2,9c-0.2,0.2-0.2,0.6-0.2,0.9
		c0.2,1.3,0.2,4.9,0.2,6c-0.2,2.2-0.3,4.1-0.6,6.2c-0.4,2.1-0.6,4.3-1.2,6.7c-0.6,2.5-1.2,5.2-2,7.6c-0.7,1.8-1.3,3.5-1.9,5.2
		c-0.7,1.5-1.4,3.2-2.5,4.5c-0.3,0.3-0.5,0.6-0.5,1c-0.5,0.8-1.1,1.5-1.8,2.2c-0.8,0.8-1.8,1.5-2.8,2c-0.1,0.1-0.3,0.1-0.4,0.1
		c-0.2,0-0.3,0-0.5,0c-0.1,0-0.1,0-0.2,0c-0.4,0-0.7,0.3-1,0.3c-0.1,0-0.2,0-0.2-0.1c-0.4-0.1-0.8-0.2-1.2-0.2c-0.5,0-1-0.2-1.4-0.4
		c-0.3-0.1-0.5-0.3-0.8-0.3c-0.9-0.6-1.4-1.2-1.4-2.2c0.1-1.5,0.4-3,0.9-4.5c0.3-0.9,0.5-1.8,0.8-2.8c0.2-0.9,0.7-1.7,0.9-2.6
		c0.6-1.6,1.4-3.2,2-4.9c0.4-1.3,0.8-2.5,1.4-3.9c0.7-1.5,1.2-3.1,2.1-4.7c0.8-1.5,1.5-3.1,2.2-4.9c1-1.8,2-3.6,2.9-5.7
		c1.1-2,2.1-4,3.2-6.1c0.4-0.5,0.3-1.1,0.4-1.6c0-1-0.3-1.9-0.3-2.8c0.1-0.3,0.1-0.6,0.1-0.8c0-0.9-0.2-1.8-0.2-2.8
		c-0.1-0.8-0.2-1.6-0.2-2.5c0-0.3,0-0.8,0.1-1.1c0-0.3-0.2-0.5-0.2-0.6c0-0.2-0.1-0.2-0.1-0.2s0,0.1-0.1,0.2c-0.5,1-0.9,2.2-1.6,3.2
		c-0.8,1.2-1.8,2.2-2.5,3.4c-0.8,1.2-2,1.9-2.8,2.9c-1,1.2-2.1,1.9-3.4,2.7c-0.4,0.2,0.3-0.3-0.1-0.3c-0.4,0-0.7-0.2-1-0.4
		c-0.4-0.2-2.1,0.4-2.5,0.2c-0.5-0.2-0.9-0.3-1-0.8c-0.1-0.2-0.1-0.2-0.1-0.2c-0.8-0.6-1.1-1.5-1.1-2.5c0-2.9,2.5-6.9,3.9-7.9
		c1-0.7,2-1.2,2.9-1.8c0.3-0.2,0.7-0.3,1.1-0.3c0.3,0,0.5,0,0.8,0.1c1.1,0.3,2.2,0.7,3.2,1.2c0.2,0,0.3,0.1,0.5,0.1
		c0.1,0,0.2-0.1,0.2-0.2c0.3-0.5,0.8-1,1.1-1.5c0.9-0.9,1.3-1.6,1.8-2.8c0.5-0.2,0.8-0.6,1.1-1c0,0,0.1,0,0.2,0s0.3,0.1,0.5,0.2
		c0.5,0.4,1,0.6,1.5,1c0.2,0.3,0.2,0.5,0.3,0.8c0.1,0.2,0.1,0.5,0.1,0.8c0.2,2.1,0.7,4.2,0.7,6.2c0.1,0.8,0.3,4.5,0.4,5.4
		c0,0.1,0.2,0.4,0.2,0.5c0.1-0.1,0.2-0.2,0.2-0.3c0.8-1.3,10.4-5.5,11.4-6.8C244.2,52.6,244.5,52,245.1,52z M229.4,68.1
		c0-0.1-0.1-0.2-0.1-0.3c-0.1,0.1-0.2,0.2-0.2,0.3c-0.5,0.9-0.9,2-1.5,3c-0.9,1.8-1.9,3.5-2.6,5.3c-0.8,1.6-1.6,3.3-2.4,5.1
		c-0.5,1.5-1.2,2.9-1.9,4.4c-0.9,2.5-1.6,4.9-2.5,7.4c-0.7,1.8-1.4,3.5-1.8,5.5c-0.2,0.9-0.4,1.7-0.6,2.7h0.1c0,0.2-0.1,0.6-0.2,1.1
		c0,0.4,0.3,0.8,0.8,0.8c0.1,0,0.1,0,0.2,0c0.8-0.4,1.8-0.9,2.4-1.6c0.6-0.6,1.2-1.4,1.6-2c0.6-0.7,1.1-1.2,1.5-2.2
		c0.5-0.9,1.2-2.1,1.6-3.2c0.8-2.5,1.8-4.9,2.5-7.4c0.5-2,0.8-3.7,1.4-5.5c0.2-1.2,0.5-2.1,0.7-3.1c0.1-1.4,0.3-2.9,0.5-4.4
		c0.1-0.5,0-1,0.2-1.5C229.4,71.2,229.3,69.7,229.4,68.1z M223.3,52.2c-0.1-0.4,0-0.6-0.2-1.2c-0.2,0-0.2,0-0.3,0s-0.2,0-0.4,0
		c-1.6,0.5-2.9,1.2-3.9,2.4c-1.2,1.2-1.5,2.5-2,3.9c-0.3,0.4-0.5,0.9-0.5,1.3c0,0.3,0.1,0.6,0.2,0.8v0.2h-0.2c0,0,0,0,0,0.2
		c0-0.1,0-0.2,0.2-0.2v-0.2c0.8-0.1,1.1-0.8,1.5-1.2c2.2-1.7,3.9-3.7,5.5-5.9C223.3,52.3,223.3,52.2,223.3,52.2z"/>
	<path class="st0" d="M270.9,73.9c-0.5,0.8-1.2,1.7-2.4,1.8c-0.2,0.1-0.6,0.2-0.9,0.4c-0.7,0.8-1.8,0.8-2.7,1.2
		c-0.1,0.1-0.4-0.1-0.6-0.2c-0.8-0.5-1.8-0.8-2.5-1.2c-0.4-0.2-0.8-0.6-1-0.9c-0.2-0.5-0.2-1.1-0.5-1.5c-0.2-0.5-0.3-0.9-0.1-1.4
		c0,0,0-0.2,0-0.2c-0.5-1.4-0.2-2.9-0.2-4.3c0.2-2.3,0.4-4.7,0.6-6.9c0-1.4-0.2-2.9-0.2-4.3c0-0.3-0.2-0.5-0.5-0.3
		c-0.8,0.7-1.5,1.6-2.2,2.5c-1.7,2.5-2.8,5.4-4.2,8c-0.9,1.8-1.8,3.8-2.8,5.6c-0.8,1.4-1.8,2.6-2.6,4c-0.2,0.3-0.5,0.5-0.7,0.8
		c-0.7,0.5-1.8,0.7-2.5,0.2c-0.5-0.5-1.2-0.3-1.5-1.1c-1.2-0.9-1.2-2.4-1.3-3.8c-0.1-0.5-0.1-0.9-0.1-1.4c-0.2-1.2-0.2-2.4-0.1-3.6
		c0.2-1.2,0.2-2.2,0.2-3.2c0.2-1.4-0.3-2.9-0.1-4.3c0.2-1,2.1-11.9,2.3-11.9c0.7-3.5,1.8-7,2.9-10.4c0.7-1.8,0.8-3.5,1.4-5.2
		c0.8-2.2,1.6-4.5,2.8-6.6c0.5-0.9,0.9-1.8,1.4-2.9c0.2-0.2,0.2-0.4,0.4-0.6c1-1.4,1.1-1.4,2.5-0.8c1.1,0.5,1.2,0.6,1.1,1.8
		c-0.2,1.8-0.4,3.5-1,5.2c-0.2,0.8-0.2,1.6-0.3,2.4c-0.4,1.8-0.7,3.7-1.2,5.6c-0.7,2.4-1.4,4.6-2.5,6.9c-1.2,2.2-2.4,4.3-3.9,6.3
		c-0.4,0.5-0.6,1-0.6,1.5c-0.3,1.7-0.7,3.3-0.8,4.9c-0.4,2.2-0.7,4.4-0.9,6.5c-0.3,1.8-0.5,3.8-0.5,5.8c0,1.8-0.2,3.5,0.4,5.2
		c0.1,0.2,0.2,0.3,0.2,0.4c0.1-0.1,0.2-0.2,0.2-0.2c1.2-1.6,2.2-3.2,2.9-4.9c1.1-2,2-4,3-6.1c1-1.7,1.8-3.5,2.9-5.2
		c0.8-1.4,1.8-2.6,3-3.5c0.8-0.7,1.7-1.2,2.9-0.8c0.1,0.1,0.2,0.1,0.4,0.2c0.9,0.7,1.7,1.3,2.4,2.4c0.5,0.8,0.5,1.9,0.5,2.9
		c0,2.2,0,4.2-0.2,6.4c-0.1,1.8-0.2,3.6-0.1,5.4c-0.1,0.2,0,0.5-0.1,0.5c-0.2,0.5-0.1,0.9,0.1,1.5c0.2,0.3,0.2,0.8,0.2,1.3
		c0.1,0.5,0.3,0.8,0.8,0.5c0.8-0.7,2.1-0.6,3-1.4c0.8-0.6,2-0.4,3-0.2C271,72.9,271.2,73.4,270.9,73.9z M249.1,42.7
		c0.3-0.5,0.5-1,0.8-1.5c1.2-2.6,2-5.2,2.6-8.1c0.4-1.5,0.7-3,1-4.5c0-0.2,0-0.2,0-0.4c-0.1,0.2-0.2,0.2-0.2,0.4
		c-0.5,1.4-1,2.7-1.5,4.2c-1,2.6-1.6,5.5-2.3,8.3C249.4,41.5,248.8,42.1,249.1,42.7z"/>
</g>
</svg>
